%TF.GenerationSoftware,KiCad,Pcbnew,(6.0.2)*%
%TF.CreationDate,2022-07-06T01:18:05+02:00*%
%TF.ProjectId,MainBoard-2023,4d61696e-426f-4617-9264-2d323032332e,rev?*%
%TF.SameCoordinates,Original*%
%TF.FileFunction,Paste,Top*%
%TF.FilePolarity,Positive*%
%FSLAX46Y46*%
G04 Gerber Fmt 4.6, Leading zero omitted, Abs format (unit mm)*
G04 Created by KiCad (PCBNEW (6.0.2)) date 2022-07-06 01:18:05*
%MOMM*%
%LPD*%
G01*
G04 APERTURE LIST*
G04 Aperture macros list*
%AMRoundRect*
0 Rectangle with rounded corners*
0 $1 Rounding radius*
0 $2 $3 $4 $5 $6 $7 $8 $9 X,Y pos of 4 corners*
0 Add a 4 corners polygon primitive as box body*
4,1,4,$2,$3,$4,$5,$6,$7,$8,$9,$2,$3,0*
0 Add four circle primitives for the rounded corners*
1,1,$1+$1,$2,$3*
1,1,$1+$1,$4,$5*
1,1,$1+$1,$6,$7*
1,1,$1+$1,$8,$9*
0 Add four rect primitives between the rounded corners*
20,1,$1+$1,$2,$3,$4,$5,0*
20,1,$1+$1,$4,$5,$6,$7,0*
20,1,$1+$1,$6,$7,$8,$9,0*
20,1,$1+$1,$8,$9,$2,$3,0*%
G04 Aperture macros list end*
%ADD10RoundRect,0.250000X-0.550000X1.250000X-0.550000X-1.250000X0.550000X-1.250000X0.550000X1.250000X0*%
%ADD11R,3.500000X1.800000*%
%ADD12RoundRect,0.250000X0.625000X-0.400000X0.625000X0.400000X-0.625000X0.400000X-0.625000X-0.400000X0*%
%ADD13RoundRect,0.250000X-0.625000X0.400000X-0.625000X-0.400000X0.625000X-0.400000X0.625000X0.400000X0*%
%ADD14RoundRect,0.250000X0.550000X-1.250000X0.550000X1.250000X-0.550000X1.250000X-0.550000X-1.250000X0*%
%ADD15RoundRect,0.250001X0.624999X-0.462499X0.624999X0.462499X-0.624999X0.462499X-0.624999X-0.462499X0*%
%ADD16RoundRect,0.250000X0.400000X0.625000X-0.400000X0.625000X-0.400000X-0.625000X0.400000X-0.625000X0*%
%ADD17R,1.800000X3.500000*%
%ADD18RoundRect,0.250000X-0.400000X-0.625000X0.400000X-0.625000X0.400000X0.625000X-0.400000X0.625000X0*%
G04 APERTURE END LIST*
D10*
%TO.C,C2*%
X110012000Y-114854000D03*
X110012000Y-119254000D03*
%TD*%
D11*
%TO.C,D4*%
X97830000Y-149860000D03*
X102830000Y-149860000D03*
%TD*%
D12*
%TO.C,R4*%
X138430000Y-146965000D03*
X138430000Y-143865000D03*
%TD*%
D13*
%TO.C,R2*%
X118110000Y-112750000D03*
X118110000Y-115850000D03*
%TD*%
D10*
%TO.C,C8*%
X125095000Y-114822500D03*
X125095000Y-119222500D03*
%TD*%
D14*
%TO.C,C7*%
X125095000Y-127432500D03*
X125095000Y-123032500D03*
%TD*%
D12*
%TO.C,R3*%
X133350000Y-146965000D03*
X133350000Y-143865000D03*
%TD*%
D15*
%TO.C,D9*%
X130810000Y-152120000D03*
X130810000Y-149145000D03*
%TD*%
D16*
%TO.C,R22*%
X102515000Y-37338000D03*
X99415000Y-37338000D03*
%TD*%
D15*
%TO.C,D8*%
X135636000Y-115660500D03*
X135636000Y-112685500D03*
%TD*%
D13*
%TO.C,R17*%
X132842000Y-112670000D03*
X132842000Y-115770000D03*
%TD*%
D17*
%TO.C,D7*%
X133985000Y-124380000D03*
X133985000Y-119380000D03*
%TD*%
D18*
%TO.C,R6*%
X117957000Y-110236000D03*
X121057000Y-110236000D03*
%TD*%
D15*
%TO.C,D3*%
X120777000Y-115787500D03*
X120777000Y-112812500D03*
%TD*%
%TO.C,D5*%
X133350000Y-152120000D03*
X133350000Y-149145000D03*
%TD*%
D14*
%TO.C,C1*%
X110012000Y-127382000D03*
X110012000Y-122982000D03*
%TD*%
D16*
%TO.C,R21*%
X102515000Y-35052000D03*
X99415000Y-35052000D03*
%TD*%
D17*
%TO.C,D2*%
X119156000Y-124420000D03*
X119156000Y-119420000D03*
%TD*%
D15*
%TO.C,D1*%
X135890000Y-152120000D03*
X135890000Y-149145000D03*
%TD*%
D12*
%TO.C,R5*%
X130810000Y-146965000D03*
X130810000Y-143865000D03*
%TD*%
%TO.C,R1*%
X135890000Y-146965000D03*
X135890000Y-143865000D03*
%TD*%
D15*
%TO.C,D6*%
X138430000Y-152120000D03*
X138430000Y-149145000D03*
%TD*%
M02*
