%TF.GenerationSoftware,KiCad,Pcbnew,(6.0.2)*%
%TF.CreationDate,2022-07-06T01:18:05+02:00*%
%TF.ProjectId,MainBoard-2023,4d61696e-426f-4617-9264-2d323032332e,rev?*%
%TF.SameCoordinates,Original*%
%TF.FileFunction,Soldermask,Top*%
%TF.FilePolarity,Negative*%
%FSLAX46Y46*%
G04 Gerber Fmt 4.6, Leading zero omitted, Abs format (unit mm)*
G04 Created by KiCad (PCBNEW (6.0.2)) date 2022-07-06 01:18:05*
%MOMM*%
%LPD*%
G01*
G04 APERTURE LIST*
G04 Aperture macros list*
%AMRoundRect*
0 Rectangle with rounded corners*
0 $1 Rounding radius*
0 $2 $3 $4 $5 $6 $7 $8 $9 X,Y pos of 4 corners*
0 Add a 4 corners polygon primitive as box body*
4,1,4,$2,$3,$4,$5,$6,$7,$8,$9,$2,$3,0*
0 Add four circle primitives for the rounded corners*
1,1,$1+$1,$2,$3*
1,1,$1+$1,$4,$5*
1,1,$1+$1,$6,$7*
1,1,$1+$1,$8,$9*
0 Add four rect primitives between the rounded corners*
20,1,$1+$1,$2,$3,$4,$5,0*
20,1,$1+$1,$4,$5,$6,$7,0*
20,1,$1+$1,$6,$7,$8,$9,0*
20,1,$1+$1,$8,$9,$2,$3,0*%
G04 Aperture macros list end*
%ADD10RoundRect,0.250000X-0.845000X0.620000X-0.845000X-0.620000X0.845000X-0.620000X0.845000X0.620000X0*%
%ADD11O,2.190000X1.740000*%
%ADD12O,1.740000X2.190000*%
%ADD13RoundRect,0.250000X0.620000X0.845000X-0.620000X0.845000X-0.620000X-0.845000X0.620000X-0.845000X0*%
%ADD14RoundRect,0.250000X-0.550000X1.250000X-0.550000X-1.250000X0.550000X-1.250000X0.550000X1.250000X0*%
%ADD15R,3.500000X1.800000*%
%ADD16RoundRect,0.250000X0.625000X-0.400000X0.625000X0.400000X-0.625000X0.400000X-0.625000X-0.400000X0*%
%ADD17RoundRect,0.250000X-0.625000X0.400000X-0.625000X-0.400000X0.625000X-0.400000X0.625000X0.400000X0*%
%ADD18RoundRect,0.250000X0.550000X-1.250000X0.550000X1.250000X-0.550000X1.250000X-0.550000X-1.250000X0*%
%ADD19R,1.700000X1.700000*%
%ADD20O,1.700000X1.700000*%
%ADD21R,1.600000X1.600000*%
%ADD22C,1.600000*%
%ADD23RoundRect,0.250001X0.624999X-0.462499X0.624999X0.462499X-0.624999X0.462499X-0.624999X-0.462499X0*%
%ADD24RoundRect,0.250000X0.400000X0.625000X-0.400000X0.625000X-0.400000X-0.625000X0.400000X-0.625000X0*%
%ADD25C,0.800000*%
%ADD26C,6.400000*%
%ADD27R,1.800000X3.500000*%
%ADD28RoundRect,0.250000X-0.400000X-0.625000X0.400000X-0.625000X0.400000X0.625000X-0.400000X0.625000X0*%
%ADD29C,2.780000*%
%ADD30R,1.910000X1.910000*%
%ADD31C,1.910000*%
%ADD32RoundRect,0.250000X-0.620000X-0.845000X0.620000X-0.845000X0.620000X0.845000X-0.620000X0.845000X0*%
%ADD33R,2.500000X1.700000*%
%ADD34O,2.500000X1.700000*%
%ADD35RoundRect,1.400000X-1.350000X0.000000X1.350000X0.000000X1.350000X0.000000X-1.350000X0.000000X0*%
%ADD36RoundRect,1.400000X0.000000X-1.350000X0.000000X-1.350000X0.000000X1.350000X0.000000X1.350000X0*%
%ADD37RoundRect,0.250000X1.330000X1.800000X-1.330000X1.800000X-1.330000X-1.800000X1.330000X-1.800000X0*%
%ADD38O,3.160000X4.100000*%
%ADD39R,3.000000X3.000000*%
%ADD40C,3.000000*%
%ADD41RoundRect,0.250000X-0.600000X-0.600000X0.600000X-0.600000X0.600000X0.600000X-0.600000X0.600000X0*%
%ADD42C,1.700000*%
%ADD43RoundRect,1.500000X1.500000X1.500000X-1.500000X1.500000X-1.500000X-1.500000X1.500000X-1.500000X0*%
%ADD44C,6.000000*%
%ADD45C,1.530000*%
%ADD46C,3.270000*%
%ADD47RoundRect,0.250000X1.800000X-1.330000X1.800000X1.330000X-1.800000X1.330000X-1.800000X-1.330000X0*%
%ADD48O,4.100000X3.160000*%
G04 APERTURE END LIST*
D10*
%TO.C,J15*%
X119888000Y-39624000D03*
D11*
X119888000Y-42164000D03*
X119888000Y-44704000D03*
%TD*%
D10*
%TO.C,J38*%
X106172000Y-100330000D03*
D11*
X106172000Y-102870000D03*
%TD*%
D12*
%TO.C,J14*%
X117602000Y-67056000D03*
X120142000Y-67056000D03*
D13*
X122682000Y-67056000D03*
%TD*%
D12*
%TO.C,J13*%
X98679000Y-75692000D03*
X101219000Y-75692000D03*
D13*
X103759000Y-75692000D03*
%TD*%
D12*
%TO.C,J11*%
X98679000Y-82804000D03*
X101219000Y-82804000D03*
D13*
X103759000Y-82804000D03*
%TD*%
D14*
%TO.C,C2*%
X110012000Y-114854000D03*
X110012000Y-119254000D03*
%TD*%
D15*
%TO.C,D4*%
X97830000Y-149860000D03*
X102830000Y-149860000D03*
%TD*%
D16*
%TO.C,R4*%
X138430000Y-146965000D03*
X138430000Y-143865000D03*
%TD*%
D17*
%TO.C,R2*%
X118110000Y-112750000D03*
X118110000Y-115850000D03*
%TD*%
D14*
%TO.C,C8*%
X125095000Y-114822500D03*
X125095000Y-119222500D03*
%TD*%
D18*
%TO.C,C7*%
X125095000Y-127432500D03*
X125095000Y-123032500D03*
%TD*%
D16*
%TO.C,R3*%
X133350000Y-146965000D03*
X133350000Y-143865000D03*
%TD*%
D19*
%TO.C,J10*%
X138674000Y-106299000D03*
D20*
X136134000Y-106299000D03*
X133594000Y-106299000D03*
X131054000Y-106299000D03*
X128514000Y-106299000D03*
X125974000Y-106299000D03*
X123434000Y-106299000D03*
X120894000Y-106299000D03*
X118354000Y-106299000D03*
X115814000Y-106299000D03*
X113274000Y-106299000D03*
X110734000Y-106299000D03*
X108194000Y-106299000D03*
X105654000Y-106299000D03*
%TD*%
D21*
%TO.C,C3*%
X147320000Y-99060000D03*
D22*
X143520000Y-99060000D03*
%TD*%
D23*
%TO.C,D9*%
X130810000Y-152120000D03*
X130810000Y-149145000D03*
%TD*%
D19*
%TO.C,J8*%
X108585000Y-41275000D03*
D20*
X108585000Y-38735000D03*
%TD*%
D24*
%TO.C,R22*%
X102515000Y-37338000D03*
X99415000Y-37338000D03*
%TD*%
D25*
%TO.C,H4*%
X93600000Y-171000000D03*
X96000000Y-173400000D03*
X97697056Y-172697056D03*
D26*
X96000000Y-171000000D03*
D25*
X96000000Y-168600000D03*
X94302944Y-169302944D03*
X94302944Y-172697056D03*
X97697056Y-169302944D03*
X98400000Y-171000000D03*
%TD*%
D23*
%TO.C,D8*%
X135636000Y-115660500D03*
X135636000Y-112685500D03*
%TD*%
D17*
%TO.C,R17*%
X132842000Y-112670000D03*
X132842000Y-115770000D03*
%TD*%
D21*
%TO.C,C6*%
X147320000Y-54610000D03*
D22*
X143520000Y-54610000D03*
%TD*%
D27*
%TO.C,D7*%
X133985000Y-124380000D03*
X133985000Y-119380000D03*
%TD*%
D28*
%TO.C,R6*%
X117957000Y-110236000D03*
X121057000Y-110236000D03*
%TD*%
D25*
%TO.C,H3*%
X146000000Y-168600000D03*
X144302944Y-172697056D03*
X146000000Y-173400000D03*
X143600000Y-171000000D03*
X147697056Y-172697056D03*
X144302944Y-169302944D03*
D26*
X146000000Y-171000000D03*
D25*
X148400000Y-171000000D03*
X147697056Y-169302944D03*
%TD*%
D23*
%TO.C,D3*%
X120777000Y-115787500D03*
X120777000Y-112812500D03*
%TD*%
%TO.C,D5*%
X133350000Y-152120000D03*
X133350000Y-149145000D03*
%TD*%
D18*
%TO.C,C1*%
X110012000Y-127382000D03*
X110012000Y-122982000D03*
%TD*%
D24*
%TO.C,R21*%
X102515000Y-35052000D03*
X99415000Y-35052000D03*
%TD*%
D27*
%TO.C,D2*%
X119156000Y-124420000D03*
X119156000Y-119420000D03*
%TD*%
D23*
%TO.C,D1*%
X135890000Y-152120000D03*
X135890000Y-149145000D03*
%TD*%
D25*
%TO.C,H2*%
X143600000Y-31000000D03*
D26*
X146000000Y-31000000D03*
D25*
X148400000Y-31000000D03*
X144302944Y-32697056D03*
X147697056Y-29302944D03*
X146000000Y-28600000D03*
X147697056Y-32697056D03*
X146000000Y-33400000D03*
X144302944Y-29302944D03*
%TD*%
D19*
%TO.C,J24*%
X127615000Y-100990000D03*
D20*
X125075000Y-100990000D03*
X122535000Y-100990000D03*
X119995000Y-100990000D03*
X117455000Y-100990000D03*
X114915000Y-100990000D03*
X112375000Y-100990000D03*
%TD*%
D21*
%TO.C,U1*%
X112395000Y-33655000D03*
D22*
X112395000Y-36195000D03*
X112395000Y-38735000D03*
X112395000Y-41275000D03*
X112395000Y-43815000D03*
X112395000Y-46355000D03*
X112395000Y-48895000D03*
X112395000Y-51435000D03*
X112395000Y-53975000D03*
X112395000Y-56515000D03*
X112395000Y-59055000D03*
X112395000Y-61595000D03*
X112395000Y-64135000D03*
X112395000Y-66675000D03*
X112395000Y-69215000D03*
X112395000Y-71755000D03*
X112395000Y-74295000D03*
X112395000Y-76835000D03*
X112395000Y-79375000D03*
X112395000Y-81915000D03*
X112395000Y-84455000D03*
X112395000Y-86995000D03*
X112395000Y-89535000D03*
X112395000Y-92075000D03*
X114935000Y-79375000D03*
X117475000Y-79375000D03*
X120015000Y-79375000D03*
X122555000Y-79375000D03*
X125095000Y-79375000D03*
X127635000Y-92075000D03*
X127635000Y-89535000D03*
X127635000Y-86995000D03*
X127635000Y-84455000D03*
X127635000Y-81915000D03*
X127635000Y-79375000D03*
X127635000Y-76835000D03*
X127635000Y-74295000D03*
X127635000Y-71755000D03*
X127635000Y-69215000D03*
X127635000Y-66675000D03*
X127635000Y-64135000D03*
X127635000Y-61595000D03*
X127635000Y-59055000D03*
X127635000Y-56515000D03*
X127635000Y-53975000D03*
X127635000Y-51435000D03*
X127635000Y-48895000D03*
X127635000Y-46355000D03*
X127635000Y-43815000D03*
X127635000Y-41275000D03*
X127635000Y-38735000D03*
X127635000Y-36195000D03*
X127635000Y-33655000D03*
X125095000Y-36195000D03*
X125095000Y-41275000D03*
X125095000Y-43815000D03*
X125095000Y-46355000D03*
X115395000Y-40005000D03*
X115395000Y-42545000D03*
X115395000Y-45085000D03*
X115395000Y-47625000D03*
X115395000Y-50165000D03*
X120015000Y-48895000D03*
X120015000Y-51435000D03*
X120015000Y-53975000D03*
X120015000Y-56515000D03*
X120015000Y-71755000D03*
X120015000Y-74295000D03*
X120015000Y-76835000D03*
X120015000Y-81915000D03*
X120015000Y-84455000D03*
X120015000Y-86995000D03*
X120015000Y-89535000D03*
X120015000Y-92075000D03*
X122555000Y-92075000D03*
X122555000Y-89535000D03*
X122555000Y-86995000D03*
X122555000Y-84455000D03*
X122555000Y-81915000D03*
X122555000Y-76835000D03*
X122555000Y-74295000D03*
X122555000Y-71755000D03*
X122555000Y-56515000D03*
X122555000Y-53975000D03*
X122555000Y-51435000D03*
X122555000Y-48895000D03*
X121025000Y-34925000D03*
X119005000Y-34925000D03*
%TD*%
D16*
%TO.C,R5*%
X130810000Y-146965000D03*
X130810000Y-143865000D03*
%TD*%
D29*
%TO.C,F2*%
X115450000Y-171880000D03*
X115450000Y-168480000D03*
X105530000Y-171880000D03*
X105530000Y-168480000D03*
%TD*%
D25*
%TO.C,H1*%
X93600000Y-31000000D03*
X96000000Y-28600000D03*
X97697056Y-29302944D03*
X94302944Y-29302944D03*
X97697056Y-32697056D03*
D26*
X96000000Y-31000000D03*
D25*
X94302944Y-32697056D03*
X98400000Y-31000000D03*
X96000000Y-33400000D03*
%TD*%
D16*
%TO.C,R1*%
X135890000Y-146965000D03*
X135890000Y-143865000D03*
%TD*%
D21*
%TO.C,C4*%
X147447000Y-76835000D03*
D22*
X143647000Y-76835000D03*
%TD*%
D30*
%TO.C,D10*%
X121285000Y-162804000D03*
D31*
X121285000Y-165354000D03*
X121285000Y-167904000D03*
%TD*%
D23*
%TO.C,D6*%
X138430000Y-152120000D03*
X138430000Y-149145000D03*
%TD*%
D13*
%TO.C,J5*%
X106045000Y-55118000D03*
D12*
X103505000Y-55118000D03*
X100965000Y-55118000D03*
X98425000Y-55118000D03*
X95885000Y-55118000D03*
X93345000Y-55118000D03*
%TD*%
D10*
%TO.C,J37*%
X106172000Y-94234000D03*
D11*
X106172000Y-96774000D03*
%TD*%
D10*
%TO.C,J32*%
X106172000Y-88138000D03*
D11*
X106172000Y-90678000D03*
%TD*%
D32*
%TO.C,J30*%
X132080000Y-34270000D03*
D12*
X134620000Y-34270000D03*
X137160000Y-34270000D03*
%TD*%
D13*
%TO.C,J22*%
X104775000Y-40132000D03*
D12*
X102235000Y-40132000D03*
X99695000Y-40132000D03*
X97155000Y-40132000D03*
%TD*%
D33*
%TO.C,U4*%
X115267500Y-124420000D03*
D34*
X115267500Y-121880000D03*
X115267500Y-119340000D03*
%TD*%
D32*
%TO.C,J12*%
X116205000Y-30460000D03*
D12*
X118745000Y-30460000D03*
X121285000Y-30460000D03*
X123825000Y-30460000D03*
%TD*%
D35*
%TO.C,K1*%
X97670000Y-154305000D03*
X107170000Y-162705000D03*
X107170000Y-145905000D03*
D36*
X115570000Y-154305000D03*
X107570000Y-154305000D03*
%TD*%
D37*
%TO.C,J27*%
X147447000Y-65913000D03*
D38*
X143487000Y-65913000D03*
%TD*%
D10*
%TO.C,J39*%
X99060000Y-100330000D03*
D11*
X99060000Y-102870000D03*
%TD*%
D39*
%TO.C,J7*%
X110570000Y-138430000D03*
D40*
X115570000Y-138430000D03*
%TD*%
D37*
%TO.C,J20*%
X147447000Y-43815000D03*
D38*
X143487000Y-43815000D03*
%TD*%
D41*
%TO.C,C_Act2*%
X133985000Y-76200000D03*
D42*
X136525000Y-76200000D03*
X133985000Y-73660000D03*
X136525000Y-73660000D03*
X133985000Y-71120000D03*
X136525000Y-71120000D03*
X133985000Y-68580000D03*
X136525000Y-68580000D03*
X133985000Y-66040000D03*
X136525000Y-66040000D03*
%TD*%
D13*
%TO.C,J29*%
X104775000Y-113665000D03*
D12*
X102235000Y-113665000D03*
%TD*%
D43*
%TO.C,J1*%
X136525000Y-160655000D03*
D44*
X129325000Y-160655000D03*
%TD*%
D41*
%TO.C,C_Act1*%
X133985000Y-53975000D03*
D42*
X136525000Y-53975000D03*
X133985000Y-51435000D03*
X136525000Y-51435000D03*
X133985000Y-48895000D03*
X136525000Y-48895000D03*
X133985000Y-46355000D03*
X136525000Y-46355000D03*
X133985000Y-43815000D03*
X136525000Y-43815000D03*
%TD*%
D13*
%TO.C,J28*%
X104775000Y-127762000D03*
D12*
X102235000Y-127762000D03*
%TD*%
D33*
%TO.C,U2*%
X130175000Y-124420000D03*
D34*
X130175000Y-121880000D03*
X130175000Y-119340000D03*
%TD*%
D13*
%TO.C,J3*%
X106045000Y-61976000D03*
D12*
X103505000Y-61976000D03*
X100965000Y-61976000D03*
X98425000Y-61976000D03*
X95885000Y-61976000D03*
X93345000Y-61976000D03*
%TD*%
D13*
%TO.C,J2*%
X104775000Y-47244000D03*
D12*
X102235000Y-47244000D03*
X99695000Y-47244000D03*
X97155000Y-47244000D03*
%TD*%
D43*
%TO.C,J9*%
X136525000Y-170180000D03*
D44*
X129325000Y-170180000D03*
%TD*%
D45*
%TO.C,PS1*%
X139065000Y-131445000D03*
X139065000Y-133985000D03*
X136525000Y-131445000D03*
X136525000Y-133985000D03*
X133985000Y-131445000D03*
X133985000Y-133985000D03*
X131445000Y-131445000D03*
X131445000Y-133985000D03*
X128905000Y-131445000D03*
X128905000Y-133985000D03*
X126365000Y-131445000D03*
X126365000Y-133985000D03*
D46*
X143265000Y-132275000D03*
X122165000Y-132275000D03*
X122165000Y-153375000D03*
%TD*%
D13*
%TO.C,J6*%
X106045000Y-68834000D03*
D12*
X103505000Y-68834000D03*
X100965000Y-68834000D03*
X98425000Y-68834000D03*
X95885000Y-68834000D03*
X93345000Y-68834000D03*
%TD*%
D13*
%TO.C,J23*%
X104775000Y-120650000D03*
D12*
X102235000Y-120650000D03*
%TD*%
D10*
%TO.C,J4*%
X99060000Y-88138000D03*
D11*
X99060000Y-90678000D03*
%TD*%
D47*
%TO.C,J21*%
X98955000Y-140410000D03*
D48*
X98955000Y-136450000D03*
%TD*%
D41*
%TO.C,C_Act3*%
X133985000Y-98425000D03*
D42*
X136525000Y-98425000D03*
X133985000Y-95885000D03*
X136525000Y-95885000D03*
X133985000Y-93345000D03*
X136525000Y-93345000D03*
X133985000Y-90805000D03*
X136525000Y-90805000D03*
X133985000Y-88265000D03*
X136525000Y-88265000D03*
%TD*%
D10*
%TO.C,J40*%
X99060000Y-94234000D03*
D11*
X99060000Y-96774000D03*
%TD*%
D38*
%TO.C,J26*%
X143487000Y-88265000D03*
D37*
X147447000Y-88265000D03*
%TD*%
G36*
X147456881Y-41783779D02*
G01*
X147675366Y-41800991D01*
X147694915Y-41804091D01*
X147908005Y-41855304D01*
X147926826Y-41861426D01*
X148129251Y-41945369D01*
X148146881Y-41954362D01*
X148333676Y-42068974D01*
X148349681Y-42080618D01*
X148516222Y-42223066D01*
X148530206Y-42237072D01*
X148672384Y-42403840D01*
X148684001Y-42419864D01*
X148798310Y-42606838D01*
X148807276Y-42624482D01*
X148890897Y-42827051D01*
X148896989Y-42845882D01*
X148947858Y-43059047D01*
X148950926Y-43078600D01*
X148968169Y-43302061D01*
X148968542Y-43311958D01*
X148845336Y-119946343D01*
X148845054Y-119954566D01*
X148828421Y-120202728D01*
X148826252Y-120219033D01*
X148778244Y-120458870D01*
X148773970Y-120474752D01*
X148695133Y-120706287D01*
X148688827Y-120721478D01*
X148580495Y-120940783D01*
X148572263Y-120955023D01*
X148436294Y-121158338D01*
X148426278Y-121171384D01*
X148262253Y-121358368D01*
X148256627Y-121364373D01*
X141176263Y-128444737D01*
X141173419Y-128447773D01*
X141005011Y-128639804D01*
X141000000Y-128646335D01*
X140859243Y-128856994D01*
X140855122Y-128864131D01*
X140743063Y-129091365D01*
X140739917Y-129098960D01*
X140658475Y-129338879D01*
X140656342Y-129346839D01*
X140606914Y-129595332D01*
X140605840Y-129603490D01*
X140589134Y-129858378D01*
X140589000Y-129862477D01*
X140589000Y-133980044D01*
X140588612Y-133989930D01*
X140571015Y-134213521D01*
X140567922Y-134233049D01*
X140516725Y-134446301D01*
X140510615Y-134465105D01*
X140426690Y-134667719D01*
X140417714Y-134685336D01*
X140303121Y-134872334D01*
X140291499Y-134888330D01*
X140149071Y-135055091D01*
X140135091Y-135069071D01*
X139968330Y-135211499D01*
X139952334Y-135223121D01*
X139765336Y-135337714D01*
X139747719Y-135346690D01*
X139545105Y-135430615D01*
X139526301Y-135436725D01*
X139313049Y-135487922D01*
X139293521Y-135491015D01*
X139074886Y-135508222D01*
X139055114Y-135508222D01*
X138836479Y-135491015D01*
X138816951Y-135487922D01*
X138603699Y-135436725D01*
X138584895Y-135430615D01*
X138382281Y-135346690D01*
X138364664Y-135337714D01*
X138177666Y-135223121D01*
X138161670Y-135211499D01*
X137994909Y-135069071D01*
X137980929Y-135055091D01*
X137838501Y-134888330D01*
X137826879Y-134872334D01*
X137712286Y-134685336D01*
X137703310Y-134667719D01*
X137619385Y-134465105D01*
X137613275Y-134446301D01*
X137562078Y-134233049D01*
X137558985Y-134213521D01*
X137541388Y-133989930D01*
X137541000Y-133980044D01*
X137541000Y-128476691D01*
X137541275Y-128468369D01*
X137557898Y-128217231D01*
X137560092Y-128200732D01*
X137608848Y-127958075D01*
X137613197Y-127942009D01*
X137693515Y-127707889D01*
X137699944Y-127692537D01*
X137810416Y-127471052D01*
X137818813Y-127456681D01*
X137957520Y-127251681D01*
X137967737Y-127238543D01*
X138135028Y-127050496D01*
X138140765Y-127044461D01*
X145199095Y-120094722D01*
X145201956Y-120091713D01*
X145373080Y-119899410D01*
X145378171Y-119892868D01*
X145521347Y-119681449D01*
X145525537Y-119674286D01*
X145639656Y-119445881D01*
X145642867Y-119438229D01*
X145725953Y-119196790D01*
X145728129Y-119188787D01*
X145778734Y-118938518D01*
X145779839Y-118930290D01*
X145797225Y-118673466D01*
X145797368Y-118669330D01*
X145920502Y-43311940D01*
X145920906Y-43302066D01*
X145938861Y-43078356D01*
X145941979Y-43058852D01*
X145993511Y-42845513D01*
X145999639Y-42826736D01*
X146083877Y-42624071D01*
X146092864Y-42606483D01*
X146207739Y-42419470D01*
X146219365Y-42403502D01*
X146362050Y-42236744D01*
X146376027Y-42222790D01*
X146543022Y-42080375D01*
X146559008Y-42068776D01*
X146746200Y-41954211D01*
X146763804Y-41945252D01*
X146966610Y-41861345D01*
X146985396Y-41855248D01*
X147198820Y-41804064D01*
X147218329Y-41800978D01*
X147437111Y-41783778D01*
X147456881Y-41783779D01*
G37*
M02*
