%TF.GenerationSoftware,KiCad,Pcbnew,(6.0.2)*%
%TF.CreationDate,2022-07-06T01:18:05+02:00*%
%TF.ProjectId,MainBoard-2023,4d61696e-426f-4617-9264-2d323032332e,rev?*%
%TF.SameCoordinates,Original*%
%TF.FileFunction,Legend,Top*%
%TF.FilePolarity,Positive*%
%FSLAX46Y46*%
G04 Gerber Fmt 4.6, Leading zero omitted, Abs format (unit mm)*
G04 Created by KiCad (PCBNEW (6.0.2)) date 2022-07-06 01:18:05*
%MOMM*%
%LPD*%
G01*
G04 APERTURE LIST*
%ADD10C,0.150000*%
%ADD11C,0.120000*%
%ADD12C,0.100000*%
%ADD13C,0.127000*%
%ADD14C,0.200000*%
G04 APERTURE END LIST*
D10*
%TO.C,C8*%
X129152142Y-117189166D02*
X129199761Y-117236785D01*
X129247380Y-117379642D01*
X129247380Y-117474880D01*
X129199761Y-117617738D01*
X129104523Y-117712976D01*
X129009285Y-117760595D01*
X128818809Y-117808214D01*
X128675952Y-117808214D01*
X128485476Y-117760595D01*
X128390238Y-117712976D01*
X128295000Y-117617738D01*
X128247380Y-117474880D01*
X128247380Y-117379642D01*
X128295000Y-117236785D01*
X128342619Y-117189166D01*
X128675952Y-116617738D02*
X128628333Y-116712976D01*
X128580714Y-116760595D01*
X128485476Y-116808214D01*
X128437857Y-116808214D01*
X128342619Y-116760595D01*
X128295000Y-116712976D01*
X128247380Y-116617738D01*
X128247380Y-116427261D01*
X128295000Y-116332023D01*
X128342619Y-116284404D01*
X128437857Y-116236785D01*
X128485476Y-116236785D01*
X128580714Y-116284404D01*
X128628333Y-116332023D01*
X128675952Y-116427261D01*
X128675952Y-116617738D01*
X128723571Y-116712976D01*
X128771190Y-116760595D01*
X128866428Y-116808214D01*
X129056904Y-116808214D01*
X129152142Y-116760595D01*
X129199761Y-116712976D01*
X129247380Y-116617738D01*
X129247380Y-116427261D01*
X129199761Y-116332023D01*
X129152142Y-116284404D01*
X129056904Y-116236785D01*
X128866428Y-116236785D01*
X128771190Y-116284404D01*
X128723571Y-116332023D01*
X128675952Y-116427261D01*
%TO.C,C7*%
X121752142Y-125399166D02*
X121799761Y-125446785D01*
X121847380Y-125589642D01*
X121847380Y-125684880D01*
X121799761Y-125827738D01*
X121704523Y-125922976D01*
X121609285Y-125970595D01*
X121418809Y-126018214D01*
X121275952Y-126018214D01*
X121085476Y-125970595D01*
X120990238Y-125922976D01*
X120895000Y-125827738D01*
X120847380Y-125684880D01*
X120847380Y-125589642D01*
X120895000Y-125446785D01*
X120942619Y-125399166D01*
X120847380Y-125065833D02*
X120847380Y-124399166D01*
X121847380Y-124827738D01*
%TO.C,J10*%
X140896380Y-107108523D02*
X141610666Y-107108523D01*
X141753523Y-107156142D01*
X141848761Y-107251380D01*
X141896380Y-107394238D01*
X141896380Y-107489476D01*
X141896380Y-106108523D02*
X141896380Y-106679952D01*
X141896380Y-106394238D02*
X140896380Y-106394238D01*
X141039238Y-106489476D01*
X141134476Y-106584714D01*
X141182095Y-106679952D01*
X140896380Y-105489476D02*
X140896380Y-105394238D01*
X140944000Y-105299000D01*
X140991619Y-105251380D01*
X141086857Y-105203761D01*
X141277333Y-105156142D01*
X141515428Y-105156142D01*
X141705904Y-105203761D01*
X141801142Y-105251380D01*
X141848761Y-105299000D01*
X141896380Y-105394238D01*
X141896380Y-105489476D01*
X141848761Y-105584714D01*
X141801142Y-105632333D01*
X141705904Y-105679952D01*
X141515428Y-105727571D01*
X141277333Y-105727571D01*
X141086857Y-105679952D01*
X140991619Y-105632333D01*
X140944000Y-105584714D01*
X140896380Y-105489476D01*
%TO.C,D9*%
X129442380Y-151370595D02*
X128442380Y-151370595D01*
X128442380Y-151132500D01*
X128490000Y-150989642D01*
X128585238Y-150894404D01*
X128680476Y-150846785D01*
X128870952Y-150799166D01*
X129013809Y-150799166D01*
X129204285Y-150846785D01*
X129299523Y-150894404D01*
X129394761Y-150989642D01*
X129442380Y-151132500D01*
X129442380Y-151370595D01*
X129442380Y-150322976D02*
X129442380Y-150132500D01*
X129394761Y-150037261D01*
X129347142Y-149989642D01*
X129204285Y-149894404D01*
X129013809Y-149846785D01*
X128632857Y-149846785D01*
X128537619Y-149894404D01*
X128490000Y-149942023D01*
X128442380Y-150037261D01*
X128442380Y-150227738D01*
X128490000Y-150322976D01*
X128537619Y-150370595D01*
X128632857Y-150418214D01*
X128870952Y-150418214D01*
X128966190Y-150370595D01*
X129013809Y-150322976D01*
X129061428Y-150227738D01*
X129061428Y-150037261D01*
X129013809Y-149942023D01*
X128966190Y-149894404D01*
X128870952Y-149846785D01*
%TO.C,D8*%
X134268380Y-114911095D02*
X133268380Y-114911095D01*
X133268380Y-114673000D01*
X133316000Y-114530142D01*
X133411238Y-114434904D01*
X133506476Y-114387285D01*
X133696952Y-114339666D01*
X133839809Y-114339666D01*
X134030285Y-114387285D01*
X134125523Y-114434904D01*
X134220761Y-114530142D01*
X134268380Y-114673000D01*
X134268380Y-114911095D01*
X133696952Y-113768238D02*
X133649333Y-113863476D01*
X133601714Y-113911095D01*
X133506476Y-113958714D01*
X133458857Y-113958714D01*
X133363619Y-113911095D01*
X133316000Y-113863476D01*
X133268380Y-113768238D01*
X133268380Y-113577761D01*
X133316000Y-113482523D01*
X133363619Y-113434904D01*
X133458857Y-113387285D01*
X133506476Y-113387285D01*
X133601714Y-113434904D01*
X133649333Y-113482523D01*
X133696952Y-113577761D01*
X133696952Y-113768238D01*
X133744571Y-113863476D01*
X133792190Y-113911095D01*
X133887428Y-113958714D01*
X134077904Y-113958714D01*
X134173142Y-113911095D01*
X134220761Y-113863476D01*
X134268380Y-113768238D01*
X134268380Y-113577761D01*
X134220761Y-113482523D01*
X134173142Y-113434904D01*
X134077904Y-113387285D01*
X133887428Y-113387285D01*
X133792190Y-113434904D01*
X133744571Y-113482523D01*
X133696952Y-113577761D01*
%TO.C,R17*%
X135114380Y-114862857D02*
X134638190Y-115196190D01*
X135114380Y-115434285D02*
X134114380Y-115434285D01*
X134114380Y-115053333D01*
X134162000Y-114958095D01*
X134209619Y-114910476D01*
X134304857Y-114862857D01*
X134447714Y-114862857D01*
X134542952Y-114910476D01*
X134590571Y-114958095D01*
X134638190Y-115053333D01*
X134638190Y-115434285D01*
X135114380Y-113910476D02*
X135114380Y-114481904D01*
X135114380Y-114196190D02*
X134114380Y-114196190D01*
X134257238Y-114291428D01*
X134352476Y-114386666D01*
X134400095Y-114481904D01*
X134114380Y-113577142D02*
X134114380Y-112910476D01*
X135114380Y-113339047D01*
%TO.C,D7*%
X131937380Y-122618095D02*
X130937380Y-122618095D01*
X130937380Y-122380000D01*
X130985000Y-122237142D01*
X131080238Y-122141904D01*
X131175476Y-122094285D01*
X131365952Y-122046666D01*
X131508809Y-122046666D01*
X131699285Y-122094285D01*
X131794523Y-122141904D01*
X131889761Y-122237142D01*
X131937380Y-122380000D01*
X131937380Y-122618095D01*
X130937380Y-121713333D02*
X130937380Y-121046666D01*
X131937380Y-121475238D01*
%TO.C,R6*%
X119340333Y-108868380D02*
X119007000Y-108392190D01*
X118768904Y-108868380D02*
X118768904Y-107868380D01*
X119149857Y-107868380D01*
X119245095Y-107916000D01*
X119292714Y-107963619D01*
X119340333Y-108058857D01*
X119340333Y-108201714D01*
X119292714Y-108296952D01*
X119245095Y-108344571D01*
X119149857Y-108392190D01*
X118768904Y-108392190D01*
X120197476Y-107868380D02*
X120007000Y-107868380D01*
X119911761Y-107916000D01*
X119864142Y-107963619D01*
X119768904Y-108106476D01*
X119721285Y-108296952D01*
X119721285Y-108677904D01*
X119768904Y-108773142D01*
X119816523Y-108820761D01*
X119911761Y-108868380D01*
X120102238Y-108868380D01*
X120197476Y-108820761D01*
X120245095Y-108773142D01*
X120292714Y-108677904D01*
X120292714Y-108439809D01*
X120245095Y-108344571D01*
X120197476Y-108296952D01*
X120102238Y-108249333D01*
X119911761Y-108249333D01*
X119816523Y-108296952D01*
X119768904Y-108344571D01*
X119721285Y-108439809D01*
%TO.C,J24*%
X129837380Y-101799523D02*
X130551666Y-101799523D01*
X130694523Y-101847142D01*
X130789761Y-101942380D01*
X130837380Y-102085238D01*
X130837380Y-102180476D01*
X129932619Y-101370952D02*
X129885000Y-101323333D01*
X129837380Y-101228095D01*
X129837380Y-100990000D01*
X129885000Y-100894761D01*
X129932619Y-100847142D01*
X130027857Y-100799523D01*
X130123095Y-100799523D01*
X130265952Y-100847142D01*
X130837380Y-101418571D01*
X130837380Y-100799523D01*
X130170714Y-99942380D02*
X130837380Y-99942380D01*
X129789761Y-100180476D02*
X130504047Y-100418571D01*
X130504047Y-99799523D01*
%TO.C,U1*%
X129627380Y-63626904D02*
X130436904Y-63626904D01*
X130532142Y-63579285D01*
X130579761Y-63531666D01*
X130627380Y-63436428D01*
X130627380Y-63245952D01*
X130579761Y-63150714D01*
X130532142Y-63103095D01*
X130436904Y-63055476D01*
X129627380Y-63055476D01*
X130627380Y-62055476D02*
X130627380Y-62626904D01*
X130627380Y-62341190D02*
X129627380Y-62341190D01*
X129770238Y-62436428D01*
X129865476Y-62531666D01*
X129913095Y-62626904D01*
X120331666Y-69185000D02*
X119631666Y-69185000D01*
X120131666Y-68951666D01*
X119631666Y-68718333D01*
X120331666Y-68718333D01*
X120331666Y-68385000D02*
X119631666Y-68385000D01*
X120331666Y-67985000D02*
X119931666Y-68285000D01*
X119631666Y-67985000D02*
X120031666Y-68385000D01*
X119631666Y-67385000D02*
X119631666Y-67518333D01*
X119665000Y-67585000D01*
X119698333Y-67618333D01*
X119798333Y-67685000D01*
X119931666Y-67718333D01*
X120198333Y-67718333D01*
X120265000Y-67685000D01*
X120298333Y-67651666D01*
X120331666Y-67585000D01*
X120331666Y-67451666D01*
X120298333Y-67385000D01*
X120265000Y-67351666D01*
X120198333Y-67318333D01*
X120031666Y-67318333D01*
X119965000Y-67351666D01*
X119931666Y-67385000D01*
X119898333Y-67451666D01*
X119898333Y-67585000D01*
X119931666Y-67651666D01*
X119965000Y-67685000D01*
X120031666Y-67718333D01*
X119631666Y-66718333D02*
X119631666Y-66851666D01*
X119665000Y-66918333D01*
X119698333Y-66951666D01*
X119798333Y-67018333D01*
X119931666Y-67051666D01*
X120198333Y-67051666D01*
X120265000Y-67018333D01*
X120298333Y-66985000D01*
X120331666Y-66918333D01*
X120331666Y-66785000D01*
X120298333Y-66718333D01*
X120265000Y-66685000D01*
X120198333Y-66651666D01*
X120031666Y-66651666D01*
X119965000Y-66685000D01*
X119931666Y-66718333D01*
X119898333Y-66785000D01*
X119898333Y-66918333D01*
X119931666Y-66985000D01*
X119965000Y-67018333D01*
X120031666Y-67051666D01*
X119965000Y-66118333D02*
X119965000Y-66351666D01*
X120331666Y-66351666D02*
X119631666Y-66351666D01*
X119631666Y-66018333D01*
X119631666Y-65818333D02*
X120331666Y-65351666D01*
X119631666Y-65351666D02*
X120331666Y-65818333D01*
X120331666Y-64718333D02*
X120331666Y-65118333D01*
X120331666Y-64918333D02*
X119631666Y-64918333D01*
X119731666Y-64985000D01*
X119798333Y-65051666D01*
X119831666Y-65118333D01*
X120331666Y-64418333D02*
X119631666Y-64418333D01*
X120131666Y-64185000D01*
X119631666Y-63951666D01*
X120331666Y-63951666D01*
X119965000Y-63385000D02*
X119998333Y-63285000D01*
X120031666Y-63251666D01*
X120098333Y-63218333D01*
X120198333Y-63218333D01*
X120265000Y-63251666D01*
X120298333Y-63285000D01*
X120331666Y-63351666D01*
X120331666Y-63618333D01*
X119631666Y-63618333D01*
X119631666Y-63385000D01*
X119665000Y-63318333D01*
X119698333Y-63285000D01*
X119765000Y-63251666D01*
X119831666Y-63251666D01*
X119898333Y-63285000D01*
X119931666Y-63318333D01*
X119965000Y-63385000D01*
X119965000Y-63618333D01*
X119631666Y-63018333D02*
X120331666Y-62785000D01*
X119631666Y-62551666D01*
X120331666Y-62318333D02*
X119631666Y-62318333D01*
X120131666Y-62085000D01*
X119631666Y-61851666D01*
X120331666Y-61851666D01*
X120331666Y-61518333D02*
X119631666Y-61518333D01*
X119631666Y-61351666D01*
X119665000Y-61251666D01*
X119731666Y-61185000D01*
X119798333Y-61151666D01*
X119931666Y-61118333D01*
X120031666Y-61118333D01*
X120165000Y-61151666D01*
X120231666Y-61185000D01*
X120298333Y-61251666D01*
X120331666Y-61351666D01*
X120331666Y-61518333D01*
X120331666Y-60451666D02*
X120331666Y-60851666D01*
X120331666Y-60651666D02*
X119631666Y-60651666D01*
X119731666Y-60718333D01*
X119798333Y-60785000D01*
X119831666Y-60851666D01*
X119931666Y-60051666D02*
X119898333Y-60118333D01*
X119865000Y-60151666D01*
X119798333Y-60185000D01*
X119765000Y-60185000D01*
X119698333Y-60151666D01*
X119665000Y-60118333D01*
X119631666Y-60051666D01*
X119631666Y-59918333D01*
X119665000Y-59851666D01*
X119698333Y-59818333D01*
X119765000Y-59785000D01*
X119798333Y-59785000D01*
X119865000Y-59818333D01*
X119898333Y-59851666D01*
X119931666Y-59918333D01*
X119931666Y-60051666D01*
X119965000Y-60118333D01*
X119998333Y-60151666D01*
X120065000Y-60185000D01*
X120198333Y-60185000D01*
X120265000Y-60151666D01*
X120298333Y-60118333D01*
X120331666Y-60051666D01*
X120331666Y-59918333D01*
X120298333Y-59851666D01*
X120265000Y-59818333D01*
X120198333Y-59785000D01*
X120065000Y-59785000D01*
X119998333Y-59818333D01*
X119965000Y-59851666D01*
X119931666Y-59918333D01*
X119598333Y-58985000D02*
X120498333Y-59585000D01*
X119188666Y-68735000D02*
X118488666Y-68735000D01*
X118988666Y-68501666D01*
X118488666Y-68268333D01*
X119188666Y-68268333D01*
X119188666Y-67935000D02*
X118488666Y-67935000D01*
X119188666Y-67535000D02*
X118788666Y-67835000D01*
X118488666Y-67535000D02*
X118888666Y-67935000D01*
X118488666Y-66935000D02*
X118488666Y-67068333D01*
X118522000Y-67135000D01*
X118555333Y-67168333D01*
X118655333Y-67235000D01*
X118788666Y-67268333D01*
X119055333Y-67268333D01*
X119122000Y-67235000D01*
X119155333Y-67201666D01*
X119188666Y-67135000D01*
X119188666Y-67001666D01*
X119155333Y-66935000D01*
X119122000Y-66901666D01*
X119055333Y-66868333D01*
X118888666Y-66868333D01*
X118822000Y-66901666D01*
X118788666Y-66935000D01*
X118755333Y-67001666D01*
X118755333Y-67135000D01*
X118788666Y-67201666D01*
X118822000Y-67235000D01*
X118888666Y-67268333D01*
X118722000Y-66268333D02*
X119188666Y-66268333D01*
X118455333Y-66435000D02*
X118955333Y-66601666D01*
X118955333Y-66168333D01*
X118822000Y-65668333D02*
X118822000Y-65901666D01*
X119188666Y-65901666D02*
X118488666Y-65901666D01*
X118488666Y-65568333D01*
X118488666Y-65368333D02*
X119188666Y-64901666D01*
X118488666Y-64901666D02*
X119188666Y-65368333D01*
X118488666Y-64301666D02*
X118488666Y-64635000D01*
X118822000Y-64668333D01*
X118788666Y-64635000D01*
X118755333Y-64568333D01*
X118755333Y-64401666D01*
X118788666Y-64335000D01*
X118822000Y-64301666D01*
X118888666Y-64268333D01*
X119055333Y-64268333D01*
X119122000Y-64301666D01*
X119155333Y-64335000D01*
X119188666Y-64401666D01*
X119188666Y-64568333D01*
X119155333Y-64635000D01*
X119122000Y-64668333D01*
X119188666Y-63601666D02*
X119188666Y-64001666D01*
X119188666Y-63801666D02*
X118488666Y-63801666D01*
X118588666Y-63868333D01*
X118655333Y-63935000D01*
X118688666Y-64001666D01*
X118555333Y-63335000D02*
X118522000Y-63301666D01*
X118488666Y-63235000D01*
X118488666Y-63068333D01*
X118522000Y-63001666D01*
X118555333Y-62968333D01*
X118622000Y-62935000D01*
X118688666Y-62935000D01*
X118788666Y-62968333D01*
X119188666Y-63368333D01*
X119188666Y-62935000D01*
X118488666Y-62735000D02*
X119188666Y-62501666D01*
X118488666Y-62268333D01*
X119188666Y-62035000D02*
X118488666Y-62035000D01*
X118988666Y-61801666D01*
X118488666Y-61568333D01*
X119188666Y-61568333D01*
X119188666Y-61235000D02*
X118488666Y-61235000D01*
X118488666Y-61068333D01*
X118522000Y-60968333D01*
X118588666Y-60901666D01*
X118655333Y-60868333D01*
X118788666Y-60835000D01*
X118888666Y-60835000D01*
X119022000Y-60868333D01*
X119088666Y-60901666D01*
X119155333Y-60968333D01*
X119188666Y-61068333D01*
X119188666Y-61235000D01*
X119188666Y-60168333D02*
X119188666Y-60568333D01*
X119188666Y-60368333D02*
X118488666Y-60368333D01*
X118588666Y-60435000D01*
X118655333Y-60501666D01*
X118688666Y-60568333D01*
X118555333Y-59901666D02*
X118522000Y-59868333D01*
X118488666Y-59801666D01*
X118488666Y-59635000D01*
X118522000Y-59568333D01*
X118555333Y-59535000D01*
X118622000Y-59501666D01*
X118688666Y-59501666D01*
X118788666Y-59535000D01*
X119188666Y-59935000D01*
X119188666Y-59501666D01*
%TO.C,R5*%
X129442380Y-145581666D02*
X128966190Y-145915000D01*
X129442380Y-146153095D02*
X128442380Y-146153095D01*
X128442380Y-145772142D01*
X128490000Y-145676904D01*
X128537619Y-145629285D01*
X128632857Y-145581666D01*
X128775714Y-145581666D01*
X128870952Y-145629285D01*
X128918571Y-145676904D01*
X128966190Y-145772142D01*
X128966190Y-146153095D01*
X128442380Y-144676904D02*
X128442380Y-145153095D01*
X128918571Y-145200714D01*
X128870952Y-145153095D01*
X128823333Y-145057857D01*
X128823333Y-144819761D01*
X128870952Y-144724523D01*
X128918571Y-144676904D01*
X129013809Y-144629285D01*
X129251904Y-144629285D01*
X129347142Y-144676904D01*
X129394761Y-144724523D01*
X129442380Y-144819761D01*
X129442380Y-145057857D01*
X129394761Y-145153095D01*
X129347142Y-145200714D01*
%TO.C,D10*%
X126182380Y-164653285D02*
X125182380Y-164653285D01*
X125182380Y-164415190D01*
X125230000Y-164272333D01*
X125325238Y-164177095D01*
X125420476Y-164129476D01*
X125610952Y-164081857D01*
X125753809Y-164081857D01*
X125944285Y-164129476D01*
X126039523Y-164177095D01*
X126134761Y-164272333D01*
X126182380Y-164415190D01*
X126182380Y-164653285D01*
X126182380Y-163129476D02*
X126182380Y-163700904D01*
X126182380Y-163415190D02*
X125182380Y-163415190D01*
X125325238Y-163510428D01*
X125420476Y-163605666D01*
X125468095Y-163700904D01*
X125182380Y-162510428D02*
X125182380Y-162415190D01*
X125230000Y-162319952D01*
X125277619Y-162272333D01*
X125372857Y-162224714D01*
X125563333Y-162177095D01*
X125801428Y-162177095D01*
X125991904Y-162224714D01*
X126087142Y-162272333D01*
X126134761Y-162319952D01*
X126182380Y-162415190D01*
X126182380Y-162510428D01*
X126134761Y-162605666D01*
X126087142Y-162653285D01*
X125991904Y-162700904D01*
X125801428Y-162748523D01*
X125563333Y-162748523D01*
X125372857Y-162700904D01*
X125277619Y-162653285D01*
X125230000Y-162605666D01*
X125182380Y-162510428D01*
D11*
%TO.C,C2*%
X112772000Y-119814000D02*
X111072000Y-119814000D01*
X111707563Y-114294000D02*
X112772000Y-115358437D01*
X108316437Y-114294000D02*
X108952000Y-114294000D01*
X108316437Y-114294000D02*
X107252000Y-115358437D01*
X112772000Y-115358437D02*
X112772000Y-119814000D01*
X112009500Y-113741500D02*
X111384500Y-113741500D01*
X111707563Y-114294000D02*
X111072000Y-114294000D01*
X107252000Y-115358437D02*
X107252000Y-119814000D01*
X107252000Y-119814000D02*
X108952000Y-119814000D01*
X111697000Y-113429000D02*
X111697000Y-114054000D01*
%TO.C,D4*%
X95930000Y-151510000D02*
X102830000Y-151510000D01*
X95930000Y-148210000D02*
X95930000Y-151510000D01*
X95930000Y-148210000D02*
X102830000Y-148210000D01*
%TO.C,R4*%
X139340000Y-146142064D02*
X139340000Y-144687936D01*
X137520000Y-146142064D02*
X137520000Y-144687936D01*
%TO.C,R2*%
X117200000Y-113572936D02*
X117200000Y-115027064D01*
X119020000Y-113572936D02*
X119020000Y-115027064D01*
%TO.C,C8*%
X123399437Y-114262500D02*
X124035000Y-114262500D01*
X122335000Y-119782500D02*
X124035000Y-119782500D01*
X123399437Y-114262500D02*
X122335000Y-115326937D01*
X126790563Y-114262500D02*
X126155000Y-114262500D01*
X127855000Y-115326937D02*
X127855000Y-119782500D01*
X127855000Y-119782500D02*
X126155000Y-119782500D01*
X122335000Y-115326937D02*
X122335000Y-119782500D01*
X126790563Y-114262500D02*
X127855000Y-115326937D01*
X127092500Y-113710000D02*
X126467500Y-113710000D01*
X126780000Y-113397500D02*
X126780000Y-114022500D01*
%TO.C,C7*%
X126790563Y-127992500D02*
X126155000Y-127992500D01*
X126790563Y-127992500D02*
X127855000Y-126928063D01*
X123097500Y-128545000D02*
X123722500Y-128545000D01*
X127855000Y-126928063D02*
X127855000Y-122472500D01*
X122335000Y-126928063D02*
X122335000Y-122472500D01*
X127855000Y-122472500D02*
X126155000Y-122472500D01*
X123399437Y-127992500D02*
X122335000Y-126928063D01*
X123410000Y-128857500D02*
X123410000Y-128232500D01*
X122335000Y-122472500D02*
X124035000Y-122472500D01*
X123399437Y-127992500D02*
X124035000Y-127992500D01*
%TO.C,R3*%
X134260000Y-146142064D02*
X134260000Y-144687936D01*
X132440000Y-146142064D02*
X132440000Y-144687936D01*
%TO.C,J10*%
X137404000Y-107629000D02*
X104324000Y-107629000D01*
X137404000Y-104969000D02*
X137404000Y-107629000D01*
X137404000Y-104969000D02*
X104324000Y-104969000D01*
X140004000Y-107629000D02*
X138674000Y-107629000D01*
X104324000Y-104969000D02*
X104324000Y-107629000D01*
X140004000Y-106299000D02*
X140004000Y-107629000D01*
%TO.C,C3*%
X144619000Y-103062000D02*
X144619000Y-95058000D01*
X144099000Y-102923000D02*
X144099000Y-100100000D01*
X144259000Y-102974000D02*
X144259000Y-100100000D01*
X142339000Y-101757000D02*
X142339000Y-96363000D01*
X149829698Y-101375000D02*
X149029698Y-101375000D01*
X144019000Y-98020000D02*
X144019000Y-95225000D01*
X143179000Y-102478000D02*
X143179000Y-100100000D01*
X143499000Y-98020000D02*
X143499000Y-95454000D01*
X141859000Y-101094000D02*
X141859000Y-97026000D01*
X141939000Y-101226000D02*
X141939000Y-96894000D01*
X144780000Y-103090000D02*
X144780000Y-95030000D01*
X142059000Y-101405000D02*
X142059000Y-96715000D01*
X144820000Y-103097000D02*
X144820000Y-95023000D01*
X144059000Y-102910000D02*
X144059000Y-100100000D01*
X144499000Y-103036000D02*
X144499000Y-100100000D01*
X143859000Y-102834000D02*
X143859000Y-100100000D01*
X143939000Y-102865000D02*
X143939000Y-100100000D01*
X143779000Y-102800000D02*
X143779000Y-100100000D01*
X142579000Y-98020000D02*
X142579000Y-96115000D01*
X144219000Y-102962000D02*
X144219000Y-100100000D01*
X143779000Y-98020000D02*
X143779000Y-95320000D01*
X143059000Y-98020000D02*
X143059000Y-95722000D01*
X144299000Y-102985000D02*
X144299000Y-100100000D01*
X144219000Y-98020000D02*
X144219000Y-95158000D01*
X142139000Y-101514000D02*
X142139000Y-96606000D01*
X141739000Y-100873000D02*
X141739000Y-97247000D01*
X143139000Y-98020000D02*
X143139000Y-95668000D01*
X143619000Y-98020000D02*
X143619000Y-95394000D01*
X144499000Y-98020000D02*
X144499000Y-95084000D01*
X143739000Y-98020000D02*
X143739000Y-95338000D01*
X142899000Y-102280000D02*
X142899000Y-100100000D01*
X142979000Y-102340000D02*
X142979000Y-100100000D01*
X144940000Y-103112000D02*
X144940000Y-95008000D01*
X143579000Y-98020000D02*
X143579000Y-95413000D01*
X144339000Y-98020000D02*
X144339000Y-95124000D01*
X141979000Y-101288000D02*
X141979000Y-96832000D01*
X142899000Y-98020000D02*
X142899000Y-95840000D01*
X141899000Y-101162000D02*
X141899000Y-96958000D01*
X142979000Y-98020000D02*
X142979000Y-95780000D01*
X143259000Y-102529000D02*
X143259000Y-100100000D01*
X143499000Y-102666000D02*
X143499000Y-100100000D01*
X143339000Y-102577000D02*
X143339000Y-100100000D01*
X143819000Y-102817000D02*
X143819000Y-100100000D01*
X144900000Y-103108000D02*
X144900000Y-95012000D01*
X143419000Y-102622000D02*
X143419000Y-100100000D01*
X142459000Y-101886000D02*
X142459000Y-96234000D01*
X142019000Y-101347000D02*
X142019000Y-96773000D01*
X145380000Y-103140000D02*
X145380000Y-94980000D01*
X144099000Y-98020000D02*
X144099000Y-95197000D01*
X144139000Y-102937000D02*
X144139000Y-100100000D01*
X141779000Y-100950000D02*
X141779000Y-97170000D01*
X144299000Y-98020000D02*
X144299000Y-95135000D01*
X143979000Y-102881000D02*
X143979000Y-100100000D01*
X143979000Y-98020000D02*
X143979000Y-95239000D01*
X142619000Y-98020000D02*
X142619000Y-96077000D01*
X143379000Y-102600000D02*
X143379000Y-100100000D01*
X144379000Y-98020000D02*
X144379000Y-95113000D01*
X144459000Y-98020000D02*
X144459000Y-95093000D01*
X142499000Y-101927000D02*
X142499000Y-100100000D01*
X143419000Y-98020000D02*
X143419000Y-95498000D01*
X142939000Y-102310000D02*
X142939000Y-100100000D01*
X142579000Y-102005000D02*
X142579000Y-100100000D01*
X142739000Y-98020000D02*
X142739000Y-95970000D01*
X143699000Y-102764000D02*
X143699000Y-100100000D01*
X142419000Y-101844000D02*
X142419000Y-96276000D01*
X143659000Y-98020000D02*
X143659000Y-95374000D01*
X144740000Y-103084000D02*
X144740000Y-95036000D01*
X143819000Y-98020000D02*
X143819000Y-95303000D01*
X143379000Y-98020000D02*
X143379000Y-95520000D01*
X142299000Y-101711000D02*
X142299000Y-96409000D01*
X142819000Y-98020000D02*
X142819000Y-95904000D01*
X141379000Y-99828000D02*
X141379000Y-98292000D01*
X141659000Y-100705000D02*
X141659000Y-97415000D01*
X142379000Y-101801000D02*
X142379000Y-96319000D01*
X144459000Y-103027000D02*
X144459000Y-100100000D01*
X144659000Y-103070000D02*
X144659000Y-95050000D01*
X142539000Y-101967000D02*
X142539000Y-100100000D01*
X143019000Y-102369000D02*
X143019000Y-100100000D01*
X141619000Y-100612000D02*
X141619000Y-97508000D01*
X143219000Y-98020000D02*
X143219000Y-95616000D01*
X143899000Y-98020000D02*
X143899000Y-95270000D01*
X144139000Y-98020000D02*
X144139000Y-95183000D01*
X144259000Y-98020000D02*
X144259000Y-95146000D01*
X144860000Y-103102000D02*
X144860000Y-95018000D01*
X143859000Y-98020000D02*
X143859000Y-95286000D01*
X142179000Y-101565000D02*
X142179000Y-96555000D01*
X143459000Y-102644000D02*
X143459000Y-100100000D01*
X143739000Y-102782000D02*
X143739000Y-100100000D01*
X141699000Y-100791000D02*
X141699000Y-97329000D01*
X142939000Y-98020000D02*
X142939000Y-95810000D01*
X143539000Y-98020000D02*
X143539000Y-95433000D01*
X142219000Y-101616000D02*
X142219000Y-96504000D01*
X145340000Y-103140000D02*
X145340000Y-94980000D01*
X143099000Y-98020000D02*
X143099000Y-95695000D01*
X142859000Y-98020000D02*
X142859000Y-95871000D01*
X145060000Y-103125000D02*
X145060000Y-94995000D01*
X144699000Y-103077000D02*
X144699000Y-95043000D01*
X144419000Y-103017000D02*
X144419000Y-100100000D01*
X141819000Y-101024000D02*
X141819000Y-97096000D01*
X142859000Y-102249000D02*
X142859000Y-100100000D01*
X141499000Y-100289000D02*
X141499000Y-97831000D01*
X143059000Y-102398000D02*
X143059000Y-100100000D01*
X142699000Y-102115000D02*
X142699000Y-100100000D01*
X144339000Y-102996000D02*
X144339000Y-100100000D01*
X143939000Y-98020000D02*
X143939000Y-95255000D01*
X145420000Y-103140000D02*
X145420000Y-94980000D01*
X143299000Y-102553000D02*
X143299000Y-100100000D01*
X144179000Y-102949000D02*
X144179000Y-100100000D01*
X142779000Y-98020000D02*
X142779000Y-95936000D01*
X145020000Y-103121000D02*
X145020000Y-94999000D01*
X144379000Y-103007000D02*
X144379000Y-100100000D01*
X145100000Y-103128000D02*
X145100000Y-94992000D01*
X144059000Y-98020000D02*
X144059000Y-95210000D01*
X145260000Y-103137000D02*
X145260000Y-94983000D01*
X149429698Y-101775000D02*
X149429698Y-100975000D01*
X142659000Y-102079000D02*
X142659000Y-100100000D01*
X144980000Y-103117000D02*
X144980000Y-95003000D01*
X143539000Y-102687000D02*
X143539000Y-100100000D01*
X144579000Y-103054000D02*
X144579000Y-95066000D01*
X144419000Y-98020000D02*
X144419000Y-95103000D01*
X143219000Y-102504000D02*
X143219000Y-100100000D01*
X142619000Y-102043000D02*
X142619000Y-100100000D01*
X143619000Y-102726000D02*
X143619000Y-100100000D01*
X144539000Y-103045000D02*
X144539000Y-100100000D01*
X142819000Y-102216000D02*
X142819000Y-100100000D01*
X142259000Y-101664000D02*
X142259000Y-96456000D01*
X142659000Y-98020000D02*
X142659000Y-96041000D01*
X143299000Y-98020000D02*
X143299000Y-95567000D01*
X145140000Y-103131000D02*
X145140000Y-94989000D01*
X143139000Y-102452000D02*
X143139000Y-100100000D01*
X142699000Y-98020000D02*
X142699000Y-96005000D01*
X143339000Y-98020000D02*
X143339000Y-95543000D01*
X143179000Y-98020000D02*
X143179000Y-95642000D01*
X143019000Y-98020000D02*
X143019000Y-95751000D01*
X141459000Y-100158000D02*
X141459000Y-97962000D01*
X141419000Y-100008000D02*
X141419000Y-98112000D01*
X141579000Y-100513000D02*
X141579000Y-97607000D01*
X144539000Y-98020000D02*
X144539000Y-95075000D01*
X143899000Y-102850000D02*
X143899000Y-100100000D01*
X142539000Y-98020000D02*
X142539000Y-96153000D01*
X143659000Y-102746000D02*
X143659000Y-100100000D01*
X141339000Y-99593000D02*
X141339000Y-98527000D01*
X143699000Y-98020000D02*
X143699000Y-95356000D01*
X145300000Y-103139000D02*
X145300000Y-94981000D01*
X141539000Y-100406000D02*
X141539000Y-97714000D01*
X143099000Y-102425000D02*
X143099000Y-100100000D01*
X145220000Y-103136000D02*
X145220000Y-94984000D01*
X142099000Y-101460000D02*
X142099000Y-96660000D01*
X142779000Y-102184000D02*
X142779000Y-100100000D01*
X144179000Y-98020000D02*
X144179000Y-95171000D01*
X143579000Y-102707000D02*
X143579000Y-100100000D01*
X143459000Y-98020000D02*
X143459000Y-95476000D01*
X142499000Y-98020000D02*
X142499000Y-96193000D01*
X142739000Y-102150000D02*
X142739000Y-100100000D01*
X145180000Y-103134000D02*
X145180000Y-94986000D01*
X143259000Y-98020000D02*
X143259000Y-95591000D01*
X144019000Y-102895000D02*
X144019000Y-100100000D01*
X149540000Y-99060000D02*
G75*
G03*
X149540000Y-99060000I-4120000J0D01*
G01*
%TO.C,D9*%
X129675000Y-153092500D02*
X131945000Y-153092500D01*
X129675000Y-149032500D02*
X129675000Y-153092500D01*
X131945000Y-153092500D02*
X131945000Y-149032500D01*
%TO.C,J8*%
X109915000Y-42605000D02*
X108585000Y-42605000D01*
X109915000Y-37405000D02*
X107255000Y-37405000D01*
X109915000Y-41275000D02*
X109915000Y-42605000D01*
X107255000Y-40005000D02*
X107255000Y-37405000D01*
X109915000Y-40005000D02*
X109915000Y-37405000D01*
X109915000Y-40005000D02*
X107255000Y-40005000D01*
%TO.C,R22*%
X101692064Y-38248000D02*
X100237936Y-38248000D01*
X101692064Y-36428000D02*
X100237936Y-36428000D01*
%TO.C,D8*%
X134501000Y-116633000D02*
X136771000Y-116633000D01*
X134501000Y-112573000D02*
X134501000Y-116633000D01*
X136771000Y-116633000D02*
X136771000Y-112573000D01*
%TO.C,R17*%
X131932000Y-113492936D02*
X131932000Y-114947064D01*
X133752000Y-113492936D02*
X133752000Y-114947064D01*
%TO.C,C6*%
X142779000Y-57734000D02*
X142779000Y-55650000D01*
X143739000Y-53570000D02*
X143739000Y-50888000D01*
X144299000Y-53570000D02*
X144299000Y-50685000D01*
X143299000Y-53570000D02*
X143299000Y-51117000D01*
X143259000Y-53570000D02*
X143259000Y-51141000D01*
X142219000Y-57166000D02*
X142219000Y-52054000D01*
X142939000Y-57860000D02*
X142939000Y-55650000D01*
X141979000Y-56838000D02*
X141979000Y-52382000D01*
X141619000Y-56162000D02*
X141619000Y-53058000D01*
X145220000Y-58686000D02*
X145220000Y-50534000D01*
X144940000Y-58662000D02*
X144940000Y-50558000D01*
X143899000Y-53570000D02*
X143899000Y-50820000D01*
X142659000Y-57629000D02*
X142659000Y-55650000D01*
X144259000Y-53570000D02*
X144259000Y-50696000D01*
X144379000Y-58557000D02*
X144379000Y-55650000D01*
X144059000Y-53570000D02*
X144059000Y-50760000D01*
X142859000Y-57799000D02*
X142859000Y-55650000D01*
X143939000Y-53570000D02*
X143939000Y-50805000D01*
X144219000Y-58512000D02*
X144219000Y-55650000D01*
X142459000Y-57436000D02*
X142459000Y-51784000D01*
X141539000Y-55956000D02*
X141539000Y-53264000D01*
X144379000Y-53570000D02*
X144379000Y-50663000D01*
X143539000Y-58237000D02*
X143539000Y-55650000D01*
X144219000Y-53570000D02*
X144219000Y-50708000D01*
X142059000Y-56955000D02*
X142059000Y-52265000D01*
X142859000Y-53570000D02*
X142859000Y-51421000D01*
X143979000Y-53570000D02*
X143979000Y-50789000D01*
X145260000Y-58687000D02*
X145260000Y-50533000D01*
X142019000Y-56897000D02*
X142019000Y-52323000D01*
X143339000Y-53570000D02*
X143339000Y-51093000D01*
X145100000Y-58678000D02*
X145100000Y-50542000D01*
X141859000Y-56644000D02*
X141859000Y-52576000D01*
X143979000Y-58431000D02*
X143979000Y-55650000D01*
X144699000Y-58627000D02*
X144699000Y-50593000D01*
X145340000Y-58690000D02*
X145340000Y-50530000D01*
X143379000Y-58150000D02*
X143379000Y-55650000D01*
X141659000Y-56255000D02*
X141659000Y-52965000D01*
X143859000Y-53570000D02*
X143859000Y-50836000D01*
X142619000Y-57593000D02*
X142619000Y-55650000D01*
X149429698Y-57325000D02*
X149429698Y-56525000D01*
X142379000Y-57351000D02*
X142379000Y-51869000D01*
X142419000Y-57394000D02*
X142419000Y-51826000D01*
X143699000Y-53570000D02*
X143699000Y-50906000D01*
X145140000Y-58681000D02*
X145140000Y-50539000D01*
X141579000Y-56063000D02*
X141579000Y-53157000D01*
X144259000Y-58524000D02*
X144259000Y-55650000D01*
X143539000Y-53570000D02*
X143539000Y-50983000D01*
X141819000Y-56574000D02*
X141819000Y-52646000D01*
X143499000Y-53570000D02*
X143499000Y-51004000D01*
X143419000Y-58172000D02*
X143419000Y-55650000D01*
X143739000Y-58332000D02*
X143739000Y-55650000D01*
X144179000Y-58499000D02*
X144179000Y-55650000D01*
X143499000Y-58216000D02*
X143499000Y-55650000D01*
X144659000Y-58620000D02*
X144659000Y-50600000D01*
X143859000Y-58384000D02*
X143859000Y-55650000D01*
X142939000Y-53570000D02*
X142939000Y-51360000D01*
X143579000Y-58257000D02*
X143579000Y-55650000D01*
X145420000Y-58690000D02*
X145420000Y-50530000D01*
X144459000Y-58577000D02*
X144459000Y-55650000D01*
X142579000Y-57555000D02*
X142579000Y-55650000D01*
X142979000Y-57890000D02*
X142979000Y-55650000D01*
X143459000Y-53570000D02*
X143459000Y-51026000D01*
X141779000Y-56500000D02*
X141779000Y-52720000D01*
X143819000Y-58367000D02*
X143819000Y-55650000D01*
X142659000Y-53570000D02*
X142659000Y-51591000D01*
X141699000Y-56341000D02*
X141699000Y-52879000D01*
X142139000Y-57064000D02*
X142139000Y-52156000D01*
X144099000Y-58473000D02*
X144099000Y-55650000D01*
X143059000Y-57948000D02*
X143059000Y-55650000D01*
X143779000Y-53570000D02*
X143779000Y-50870000D01*
X144099000Y-53570000D02*
X144099000Y-50747000D01*
X141419000Y-55558000D02*
X141419000Y-53662000D01*
X143699000Y-58314000D02*
X143699000Y-55650000D01*
X144019000Y-53570000D02*
X144019000Y-50775000D01*
X149829698Y-56925000D02*
X149029698Y-56925000D01*
X142579000Y-53570000D02*
X142579000Y-51665000D01*
X145380000Y-58690000D02*
X145380000Y-50530000D01*
X144820000Y-58647000D02*
X144820000Y-50573000D01*
X145020000Y-58671000D02*
X145020000Y-50549000D01*
X143059000Y-53570000D02*
X143059000Y-51272000D01*
X141939000Y-56776000D02*
X141939000Y-52444000D01*
X143099000Y-57975000D02*
X143099000Y-55650000D01*
X143219000Y-58054000D02*
X143219000Y-55650000D01*
X143179000Y-58028000D02*
X143179000Y-55650000D01*
X144619000Y-58612000D02*
X144619000Y-50608000D01*
X141739000Y-56423000D02*
X141739000Y-52797000D01*
X144419000Y-58567000D02*
X144419000Y-55650000D01*
X145180000Y-58684000D02*
X145180000Y-50536000D01*
X143579000Y-53570000D02*
X143579000Y-50963000D01*
X144339000Y-53570000D02*
X144339000Y-50674000D01*
X142819000Y-53570000D02*
X142819000Y-51454000D01*
X144579000Y-58604000D02*
X144579000Y-50616000D01*
X142779000Y-53570000D02*
X142779000Y-51486000D01*
X142539000Y-57517000D02*
X142539000Y-55650000D01*
X143299000Y-58103000D02*
X143299000Y-55650000D01*
X143899000Y-58400000D02*
X143899000Y-55650000D01*
X144740000Y-58634000D02*
X144740000Y-50586000D01*
X142739000Y-53570000D02*
X142739000Y-51520000D01*
X144339000Y-58546000D02*
X144339000Y-55650000D01*
X144499000Y-58586000D02*
X144499000Y-55650000D01*
X144139000Y-53570000D02*
X144139000Y-50733000D01*
X141499000Y-55839000D02*
X141499000Y-53381000D01*
X143939000Y-58415000D02*
X143939000Y-55650000D01*
X143819000Y-53570000D02*
X143819000Y-50853000D01*
X144419000Y-53570000D02*
X144419000Y-50653000D01*
X141459000Y-55708000D02*
X141459000Y-53512000D01*
X144059000Y-58460000D02*
X144059000Y-55650000D01*
X143619000Y-53570000D02*
X143619000Y-50944000D01*
X143099000Y-53570000D02*
X143099000Y-51245000D01*
X143779000Y-58350000D02*
X143779000Y-55650000D01*
X143139000Y-58002000D02*
X143139000Y-55650000D01*
X142299000Y-57261000D02*
X142299000Y-51959000D01*
X144900000Y-58658000D02*
X144900000Y-50562000D01*
X143219000Y-53570000D02*
X143219000Y-51166000D01*
X144980000Y-58667000D02*
X144980000Y-50553000D01*
X143459000Y-58194000D02*
X143459000Y-55650000D01*
X141339000Y-55143000D02*
X141339000Y-54077000D01*
X143019000Y-53570000D02*
X143019000Y-51301000D01*
X142819000Y-57766000D02*
X142819000Y-55650000D01*
X142179000Y-57115000D02*
X142179000Y-52105000D01*
X143019000Y-57919000D02*
X143019000Y-55650000D01*
X144539000Y-58595000D02*
X144539000Y-55650000D01*
X142339000Y-57307000D02*
X142339000Y-51913000D01*
X143139000Y-53570000D02*
X143139000Y-51218000D01*
X144860000Y-58652000D02*
X144860000Y-50568000D01*
X141379000Y-55378000D02*
X141379000Y-53842000D01*
X141899000Y-56712000D02*
X141899000Y-52508000D01*
X143379000Y-53570000D02*
X143379000Y-51070000D01*
X143179000Y-53570000D02*
X143179000Y-51192000D01*
X142099000Y-57010000D02*
X142099000Y-52210000D01*
X142899000Y-53570000D02*
X142899000Y-51390000D01*
X144179000Y-53570000D02*
X144179000Y-50721000D01*
X144459000Y-53570000D02*
X144459000Y-50643000D01*
X143659000Y-58296000D02*
X143659000Y-55650000D01*
X144780000Y-58640000D02*
X144780000Y-50580000D01*
X144139000Y-58487000D02*
X144139000Y-55650000D01*
X144019000Y-58445000D02*
X144019000Y-55650000D01*
X144299000Y-58535000D02*
X144299000Y-55650000D01*
X142699000Y-57665000D02*
X142699000Y-55650000D01*
X143659000Y-53570000D02*
X143659000Y-50924000D01*
X144499000Y-53570000D02*
X144499000Y-50634000D01*
X145060000Y-58675000D02*
X145060000Y-50545000D01*
X142619000Y-53570000D02*
X142619000Y-51627000D01*
X142699000Y-53570000D02*
X142699000Y-51555000D01*
X142499000Y-57477000D02*
X142499000Y-55650000D01*
X142899000Y-57830000D02*
X142899000Y-55650000D01*
X142739000Y-57700000D02*
X142739000Y-55650000D01*
X142979000Y-53570000D02*
X142979000Y-51330000D01*
X142539000Y-53570000D02*
X142539000Y-51703000D01*
X143419000Y-53570000D02*
X143419000Y-51048000D01*
X144539000Y-53570000D02*
X144539000Y-50625000D01*
X145300000Y-58689000D02*
X145300000Y-50531000D01*
X143619000Y-58276000D02*
X143619000Y-55650000D01*
X142259000Y-57214000D02*
X142259000Y-52006000D01*
X142499000Y-53570000D02*
X142499000Y-51743000D01*
X143339000Y-58127000D02*
X143339000Y-55650000D01*
X143259000Y-58079000D02*
X143259000Y-55650000D01*
X149540000Y-54610000D02*
G75*
G03*
X149540000Y-54610000I-4120000J0D01*
G01*
%TO.C,D7*%
X135635000Y-126280000D02*
X135635000Y-119380000D01*
X132335000Y-126280000D02*
X132335000Y-119380000D01*
X132335000Y-126280000D02*
X135635000Y-126280000D01*
%TO.C,R6*%
X118779936Y-109326000D02*
X120234064Y-109326000D01*
X118779936Y-111146000D02*
X120234064Y-111146000D01*
%TO.C,D3*%
X121912000Y-116760000D02*
X121912000Y-112700000D01*
X119642000Y-112700000D02*
X119642000Y-116760000D01*
X119642000Y-116760000D02*
X121912000Y-116760000D01*
%TO.C,D5*%
X132215000Y-153092500D02*
X134485000Y-153092500D01*
X132215000Y-149032500D02*
X132215000Y-153092500D01*
X134485000Y-153092500D02*
X134485000Y-149032500D01*
%TO.C,C1*%
X108014500Y-128494500D02*
X108639500Y-128494500D01*
X112772000Y-126877563D02*
X112772000Y-122422000D01*
X107252000Y-126877563D02*
X107252000Y-122422000D01*
X108316437Y-127942000D02*
X108952000Y-127942000D01*
X107252000Y-122422000D02*
X108952000Y-122422000D01*
X108316437Y-127942000D02*
X107252000Y-126877563D01*
X111707563Y-127942000D02*
X111072000Y-127942000D01*
X111707563Y-127942000D02*
X112772000Y-126877563D01*
X108327000Y-128807000D02*
X108327000Y-128182000D01*
X112772000Y-122422000D02*
X111072000Y-122422000D01*
%TO.C,R21*%
X101692064Y-34142000D02*
X100237936Y-34142000D01*
X101692064Y-35962000D02*
X100237936Y-35962000D01*
%TO.C,D2*%
X117506000Y-126320000D02*
X120806000Y-126320000D01*
X120806000Y-126320000D02*
X120806000Y-119420000D01*
X117506000Y-126320000D02*
X117506000Y-119420000D01*
%TO.C,D1*%
X134755000Y-153092500D02*
X137025000Y-153092500D01*
X134755000Y-149032500D02*
X134755000Y-153092500D01*
X137025000Y-153092500D02*
X137025000Y-149032500D01*
%TO.C,J24*%
X126345000Y-99660000D02*
X126345000Y-102320000D01*
X126345000Y-99660000D02*
X111045000Y-99660000D01*
X126345000Y-102320000D02*
X111045000Y-102320000D01*
X128945000Y-102320000D02*
X127615000Y-102320000D01*
X128945000Y-100990000D02*
X128945000Y-102320000D01*
X111045000Y-99660000D02*
X111045000Y-102320000D01*
D10*
%TO.C,U1*%
X116205000Y-37465000D02*
X116205000Y-32385000D01*
X114935000Y-56515000D02*
X114935000Y-52705000D01*
X123825000Y-37465000D02*
X123825000Y-32385000D01*
X111125000Y-32385000D02*
X128905000Y-32385000D01*
X116205000Y-92075000D02*
X116205000Y-93345000D01*
X114935000Y-92075000D02*
X125095000Y-92075000D01*
X123825000Y-92075000D02*
X123825000Y-93345000D01*
X113665000Y-80645000D02*
X113665000Y-93345000D01*
X126365000Y-57785000D02*
X126365000Y-70485000D01*
X116205000Y-32385000D02*
X116205000Y-31115000D01*
X113665000Y-70485000D02*
X126365000Y-70485000D01*
X123825000Y-31115000D02*
X123825000Y-32385000D01*
X123825000Y-48895000D02*
X121285000Y-48895000D01*
X122555000Y-76835000D02*
X117475000Y-76835000D01*
X121285000Y-48895000D02*
X121285000Y-51435000D01*
X117475000Y-52705000D02*
X117475000Y-56515000D01*
X128905000Y-93345000D02*
X128905000Y-32385000D01*
X113665000Y-93345000D02*
X114935000Y-92075000D01*
X125095000Y-92075000D02*
X126365000Y-93345000D01*
X113665000Y-57785000D02*
X113665000Y-70485000D01*
X111125000Y-32385000D02*
X111125000Y-93345000D01*
X125095000Y-92075000D02*
X125095000Y-93345000D01*
X126365000Y-80645000D02*
X113665000Y-80645000D01*
X126365000Y-93345000D02*
X126365000Y-80645000D01*
X117475000Y-74295000D02*
X122555000Y-74295000D01*
X121285000Y-92075000D02*
X121285000Y-93345000D01*
X120015000Y-92075000D02*
X120015000Y-93345000D01*
X117475000Y-56515000D02*
X114935000Y-56515000D01*
X118745000Y-92075000D02*
X118745000Y-93345000D01*
X116205000Y-37465000D02*
X123825000Y-37465000D01*
X116205000Y-31115000D02*
X123825000Y-31115000D01*
X122555000Y-74295000D02*
X122555000Y-76835000D01*
X114935000Y-92075000D02*
X114935000Y-93345000D01*
X114935000Y-52705000D02*
X117475000Y-52705000D01*
X117475000Y-92075000D02*
X117475000Y-93345000D01*
X128905000Y-93345000D02*
X111125000Y-93345000D01*
X122555000Y-92075000D02*
X122555000Y-93345000D01*
X123825000Y-51435000D02*
X123825000Y-48895000D01*
X126365000Y-57785000D02*
X113665000Y-57785000D01*
X121285000Y-51435000D02*
X123825000Y-51435000D01*
X117475000Y-76835000D02*
X117475000Y-74295000D01*
D12*
X124206000Y-64643000D02*
X123952000Y-64897000D01*
X123952000Y-64897000D02*
X123698000Y-64516000D01*
X123698000Y-64516000D02*
X123952000Y-64262000D01*
X123952000Y-64262000D02*
X124206000Y-64643000D01*
G36*
X124206000Y-64643000D02*
G01*
X123952000Y-64897000D01*
X123698000Y-64516000D01*
X123952000Y-64262000D01*
X124206000Y-64643000D01*
G37*
X124206000Y-64643000D02*
X123952000Y-64897000D01*
X123698000Y-64516000D01*
X123952000Y-64262000D01*
X124206000Y-64643000D01*
X123444000Y-64516000D02*
X123190000Y-64770000D01*
X123190000Y-64770000D02*
X122936000Y-64389000D01*
X122936000Y-64389000D02*
X123190000Y-64135000D01*
X123190000Y-64135000D02*
X123444000Y-64516000D01*
G36*
X123444000Y-64516000D02*
G01*
X123190000Y-64770000D01*
X122936000Y-64389000D01*
X123190000Y-64135000D01*
X123444000Y-64516000D01*
G37*
X123444000Y-64516000D02*
X123190000Y-64770000D01*
X122936000Y-64389000D01*
X123190000Y-64135000D01*
X123444000Y-64516000D01*
X123825000Y-64135000D02*
X123571000Y-64389000D01*
X123571000Y-64389000D02*
X123317000Y-64008000D01*
X123317000Y-64008000D02*
X123571000Y-63754000D01*
X123571000Y-63754000D02*
X123825000Y-64135000D01*
G36*
X123825000Y-64135000D02*
G01*
X123571000Y-64389000D01*
X123317000Y-64008000D01*
X123571000Y-63754000D01*
X123825000Y-64135000D01*
G37*
X123825000Y-64135000D02*
X123571000Y-64389000D01*
X123317000Y-64008000D01*
X123571000Y-63754000D01*
X123825000Y-64135000D01*
X122682000Y-63500000D02*
X122428000Y-63754000D01*
X122428000Y-63754000D02*
X122174000Y-63373000D01*
X122174000Y-63373000D02*
X122428000Y-63119000D01*
X122428000Y-63119000D02*
X122682000Y-63500000D01*
G36*
X122682000Y-63500000D02*
G01*
X122428000Y-63754000D01*
X122174000Y-63373000D01*
X122428000Y-63119000D01*
X122682000Y-63500000D01*
G37*
X122682000Y-63500000D02*
X122428000Y-63754000D01*
X122174000Y-63373000D01*
X122428000Y-63119000D01*
X122682000Y-63500000D01*
X123444000Y-63627000D02*
X123190000Y-63881000D01*
X123190000Y-63881000D02*
X122936000Y-63500000D01*
X122936000Y-63500000D02*
X123190000Y-63246000D01*
X123190000Y-63246000D02*
X123444000Y-63627000D01*
G36*
X123444000Y-63627000D02*
G01*
X123190000Y-63881000D01*
X122936000Y-63500000D01*
X123190000Y-63246000D01*
X123444000Y-63627000D01*
G37*
X123444000Y-63627000D02*
X123190000Y-63881000D01*
X122936000Y-63500000D01*
X123190000Y-63246000D01*
X123444000Y-63627000D01*
X123063000Y-64008000D02*
X122809000Y-64262000D01*
X122809000Y-64262000D02*
X122555000Y-63881000D01*
X122555000Y-63881000D02*
X122809000Y-63627000D01*
X122809000Y-63627000D02*
X123063000Y-64008000D01*
G36*
X123063000Y-64008000D02*
G01*
X122809000Y-64262000D01*
X122555000Y-63881000D01*
X122809000Y-63627000D01*
X123063000Y-64008000D01*
G37*
X123063000Y-64008000D02*
X122809000Y-64262000D01*
X122555000Y-63881000D01*
X122809000Y-63627000D01*
X123063000Y-64008000D01*
X124587000Y-64262000D02*
X124333000Y-64516000D01*
X124333000Y-64516000D02*
X124079000Y-64135000D01*
X124079000Y-64135000D02*
X124333000Y-63881000D01*
X124333000Y-63881000D02*
X124587000Y-64262000D01*
G36*
X124587000Y-64262000D02*
G01*
X124333000Y-64516000D01*
X124079000Y-64135000D01*
X124333000Y-63881000D01*
X124587000Y-64262000D01*
G37*
X124587000Y-64262000D02*
X124333000Y-64516000D01*
X124079000Y-64135000D01*
X124333000Y-63881000D01*
X124587000Y-64262000D01*
X124968000Y-63881000D02*
X124714000Y-64135000D01*
X124714000Y-64135000D02*
X124460000Y-63754000D01*
X124460000Y-63754000D02*
X124714000Y-63500000D01*
X124714000Y-63500000D02*
X124968000Y-63881000D01*
G36*
X124968000Y-63881000D02*
G01*
X124714000Y-64135000D01*
X124460000Y-63754000D01*
X124714000Y-63500000D01*
X124968000Y-63881000D01*
G37*
X124968000Y-63881000D02*
X124714000Y-64135000D01*
X124460000Y-63754000D01*
X124714000Y-63500000D01*
X124968000Y-63881000D01*
D11*
%TO.C,R5*%
X129900000Y-146142064D02*
X129900000Y-144687936D01*
X131720000Y-146142064D02*
X131720000Y-144687936D01*
%TO.C,F2*%
X102390000Y-166710000D02*
X102390000Y-173650000D01*
X118590000Y-173650000D02*
X118590000Y-166710000D01*
X118590000Y-166710000D02*
X102390000Y-166710000D01*
X111240000Y-170180000D02*
X109740000Y-170180000D01*
X108890000Y-168180000D02*
X112090000Y-168180000D01*
X112090000Y-172180000D02*
X108890000Y-172180000D01*
X102390000Y-173650000D02*
X118590000Y-173650000D01*
%TO.C,R1*%
X136800000Y-146142064D02*
X136800000Y-144687936D01*
X134980000Y-146142064D02*
X134980000Y-144687936D01*
%TO.C,C4*%
X144266000Y-75795000D02*
X144266000Y-72958000D01*
X144506000Y-80782000D02*
X144506000Y-77875000D01*
X143506000Y-75795000D02*
X143506000Y-73295000D01*
X143826000Y-80539000D02*
X143826000Y-77875000D01*
X142546000Y-79619000D02*
X142546000Y-74051000D01*
X143026000Y-75795000D02*
X143026000Y-73615000D01*
X144466000Y-80771000D02*
X144466000Y-77875000D01*
X142746000Y-75795000D02*
X142746000Y-73852000D01*
X141626000Y-78064000D02*
X141626000Y-75606000D01*
X141826000Y-78566000D02*
X141826000Y-75104000D01*
X144186000Y-80685000D02*
X144186000Y-77875000D01*
X143146000Y-75795000D02*
X143146000Y-73526000D01*
X143946000Y-75795000D02*
X143946000Y-73078000D01*
X144106000Y-80656000D02*
X144106000Y-77875000D01*
X142426000Y-79486000D02*
X142426000Y-74184000D01*
X149556698Y-79550000D02*
X149556698Y-78750000D01*
X143386000Y-80304000D02*
X143386000Y-77875000D01*
X142906000Y-79959000D02*
X142906000Y-77875000D01*
X145067000Y-80887000D02*
X145067000Y-72783000D01*
X144266000Y-80712000D02*
X144266000Y-77875000D01*
X143866000Y-75795000D02*
X143866000Y-73113000D01*
X143426000Y-80328000D02*
X143426000Y-77875000D01*
X142146000Y-79122000D02*
X142146000Y-74548000D01*
X141946000Y-78799000D02*
X141946000Y-74871000D01*
X144226000Y-80698000D02*
X144226000Y-77875000D01*
X142666000Y-75795000D02*
X142666000Y-73928000D01*
X144706000Y-80829000D02*
X144706000Y-72841000D01*
X144026000Y-80625000D02*
X144026000Y-77875000D01*
X143266000Y-75795000D02*
X143266000Y-73443000D01*
X145507000Y-80915000D02*
X145507000Y-72755000D01*
X142866000Y-79925000D02*
X142866000Y-77875000D01*
X142746000Y-79818000D02*
X142746000Y-77875000D01*
X141466000Y-77368000D02*
X141466000Y-76302000D01*
X144426000Y-75795000D02*
X144426000Y-72910000D01*
X142946000Y-75795000D02*
X142946000Y-73679000D01*
X144426000Y-80760000D02*
X144426000Y-77875000D01*
X143826000Y-75795000D02*
X143826000Y-73131000D01*
X143346000Y-80279000D02*
X143346000Y-77875000D01*
X143986000Y-80609000D02*
X143986000Y-77875000D01*
X145347000Y-80911000D02*
X145347000Y-72759000D01*
X143906000Y-80575000D02*
X143906000Y-77875000D01*
X145267000Y-80906000D02*
X145267000Y-72764000D01*
X143466000Y-75795000D02*
X143466000Y-73318000D01*
X144947000Y-80872000D02*
X144947000Y-72798000D01*
X145227000Y-80903000D02*
X145227000Y-72767000D01*
X143786000Y-75795000D02*
X143786000Y-73149000D01*
X141706000Y-78288000D02*
X141706000Y-75382000D01*
X144466000Y-75795000D02*
X144466000Y-72899000D01*
X142786000Y-79854000D02*
X142786000Y-77875000D01*
X142266000Y-79289000D02*
X142266000Y-74381000D01*
X144546000Y-75795000D02*
X144546000Y-72878000D01*
X143786000Y-80521000D02*
X143786000Y-77875000D01*
X144586000Y-80802000D02*
X144586000Y-77875000D01*
X144146000Y-75795000D02*
X144146000Y-73000000D01*
X145147000Y-80896000D02*
X145147000Y-72774000D01*
X143666000Y-80462000D02*
X143666000Y-77875000D01*
X142226000Y-79235000D02*
X142226000Y-74435000D01*
X142066000Y-79001000D02*
X142066000Y-74669000D01*
X143626000Y-75795000D02*
X143626000Y-73229000D01*
X143906000Y-75795000D02*
X143906000Y-73095000D01*
X144826000Y-80852000D02*
X144826000Y-72818000D01*
X143866000Y-80557000D02*
X143866000Y-77875000D01*
X143946000Y-80592000D02*
X143946000Y-77875000D01*
X145307000Y-80909000D02*
X145307000Y-72761000D01*
X141586000Y-77933000D02*
X141586000Y-75737000D01*
X143586000Y-75795000D02*
X143586000Y-73251000D01*
X143186000Y-80173000D02*
X143186000Y-77875000D01*
X143106000Y-75795000D02*
X143106000Y-73555000D01*
X142386000Y-79439000D02*
X142386000Y-74231000D01*
X143226000Y-80200000D02*
X143226000Y-77875000D01*
X142706000Y-75795000D02*
X142706000Y-73890000D01*
X144386000Y-80749000D02*
X144386000Y-77875000D01*
X144066000Y-75795000D02*
X144066000Y-73030000D01*
X143226000Y-75795000D02*
X143226000Y-73470000D01*
X144666000Y-80820000D02*
X144666000Y-77875000D01*
X144346000Y-80737000D02*
X144346000Y-77875000D01*
X141986000Y-78869000D02*
X141986000Y-74801000D01*
X144346000Y-75795000D02*
X144346000Y-72933000D01*
X142586000Y-79661000D02*
X142586000Y-74009000D01*
X143306000Y-80253000D02*
X143306000Y-77875000D01*
X144026000Y-75795000D02*
X144026000Y-73045000D01*
X143706000Y-80482000D02*
X143706000Y-77875000D01*
X143346000Y-75795000D02*
X143346000Y-73391000D01*
X142866000Y-75795000D02*
X142866000Y-73745000D01*
X143506000Y-80375000D02*
X143506000Y-77875000D01*
X142706000Y-79780000D02*
X142706000Y-77875000D01*
X145187000Y-80900000D02*
X145187000Y-72770000D01*
X145027000Y-80883000D02*
X145027000Y-72787000D01*
X142786000Y-75795000D02*
X142786000Y-73816000D01*
X145547000Y-80915000D02*
X145547000Y-72755000D01*
X144666000Y-75795000D02*
X144666000Y-72850000D01*
X142346000Y-79391000D02*
X142346000Y-74279000D01*
X142306000Y-79340000D02*
X142306000Y-74330000D01*
X143546000Y-80397000D02*
X143546000Y-77875000D01*
X141866000Y-78648000D02*
X141866000Y-75022000D01*
X144386000Y-75795000D02*
X144386000Y-72921000D01*
X143066000Y-75795000D02*
X143066000Y-73585000D01*
X141746000Y-78387000D02*
X141746000Y-75283000D01*
X143026000Y-80055000D02*
X143026000Y-77875000D01*
X142626000Y-75795000D02*
X142626000Y-73968000D01*
X143306000Y-75795000D02*
X143306000Y-73417000D01*
X143186000Y-75795000D02*
X143186000Y-73497000D01*
X142826000Y-79890000D02*
X142826000Y-77875000D01*
X141786000Y-78480000D02*
X141786000Y-75190000D01*
X144146000Y-80670000D02*
X144146000Y-77875000D01*
X143546000Y-75795000D02*
X143546000Y-73273000D01*
X142906000Y-75795000D02*
X142906000Y-73711000D01*
X144306000Y-80724000D02*
X144306000Y-77875000D01*
X144746000Y-80837000D02*
X144746000Y-72833000D01*
X142666000Y-79742000D02*
X142666000Y-77875000D01*
X145467000Y-80915000D02*
X145467000Y-72755000D01*
X144586000Y-75795000D02*
X144586000Y-72868000D01*
X149956698Y-79150000D02*
X149156698Y-79150000D01*
X141906000Y-78725000D02*
X141906000Y-74945000D01*
X144546000Y-80792000D02*
X144546000Y-77875000D01*
X144987000Y-80877000D02*
X144987000Y-72793000D01*
X143146000Y-80144000D02*
X143146000Y-77875000D01*
X145107000Y-80892000D02*
X145107000Y-72778000D01*
X144106000Y-75795000D02*
X144106000Y-73014000D01*
X144506000Y-75795000D02*
X144506000Y-72888000D01*
X142986000Y-80024000D02*
X142986000Y-77875000D01*
X143746000Y-75795000D02*
X143746000Y-73169000D01*
X141666000Y-78181000D02*
X141666000Y-75489000D01*
X143466000Y-80352000D02*
X143466000Y-77875000D01*
X144226000Y-75795000D02*
X144226000Y-72972000D01*
X143106000Y-80115000D02*
X143106000Y-77875000D01*
X145387000Y-80912000D02*
X145387000Y-72758000D01*
X142986000Y-75795000D02*
X142986000Y-73646000D01*
X142946000Y-79991000D02*
X142946000Y-77875000D01*
X144867000Y-80859000D02*
X144867000Y-72811000D01*
X144306000Y-75795000D02*
X144306000Y-72946000D01*
X142106000Y-79063000D02*
X142106000Y-74607000D01*
X143426000Y-75795000D02*
X143426000Y-73342000D01*
X143386000Y-75795000D02*
X143386000Y-73366000D01*
X143066000Y-80085000D02*
X143066000Y-77875000D01*
X144066000Y-80640000D02*
X144066000Y-77875000D01*
X142506000Y-79576000D02*
X142506000Y-74094000D01*
X142026000Y-78937000D02*
X142026000Y-74733000D01*
X143746000Y-80501000D02*
X143746000Y-77875000D01*
X144786000Y-80845000D02*
X144786000Y-72825000D01*
X141546000Y-77783000D02*
X141546000Y-75887000D01*
X143586000Y-80419000D02*
X143586000Y-77875000D01*
X144186000Y-75795000D02*
X144186000Y-72985000D01*
X142466000Y-79532000D02*
X142466000Y-74138000D01*
X142626000Y-79702000D02*
X142626000Y-77875000D01*
X142186000Y-79180000D02*
X142186000Y-74490000D01*
X145427000Y-80914000D02*
X145427000Y-72756000D01*
X143706000Y-75795000D02*
X143706000Y-73188000D01*
X143986000Y-75795000D02*
X143986000Y-73061000D01*
X142826000Y-75795000D02*
X142826000Y-73780000D01*
X144626000Y-80811000D02*
X144626000Y-77875000D01*
X143666000Y-75795000D02*
X143666000Y-73208000D01*
X143266000Y-80227000D02*
X143266000Y-77875000D01*
X144626000Y-75795000D02*
X144626000Y-72859000D01*
X143626000Y-80441000D02*
X143626000Y-77875000D01*
X141506000Y-77603000D02*
X141506000Y-76067000D01*
X144907000Y-80865000D02*
X144907000Y-72805000D01*
X149667000Y-76835000D02*
G75*
G03*
X149667000Y-76835000I-4120000J0D01*
G01*
D13*
%TO.C,D10*%
X124185000Y-160154000D02*
X124185000Y-170554000D01*
X124185000Y-170554000D02*
X119585000Y-170554000D01*
X119585000Y-160154000D02*
X124185000Y-160154000D01*
X119585000Y-170554000D02*
X119585000Y-160154000D01*
D14*
X121185000Y-159404000D02*
G75*
G03*
X121185000Y-159404000I-100000J0D01*
G01*
D11*
%TO.C,D6*%
X137295000Y-153092500D02*
X139565000Y-153092500D01*
X137295000Y-149032500D02*
X137295000Y-153092500D01*
X139565000Y-153092500D02*
X139565000Y-149032500D01*
%TD*%
M02*
