%TF.GenerationSoftware,KiCad,Pcbnew,(6.0.0)*%
%TF.CreationDate,2022-01-02T01:39:18+01:00*%
%TF.ProjectId,mainBoard004,6d61696e-426f-4617-9264-3030342e6b69,rev?*%
%TF.SameCoordinates,Original*%
%TF.FileFunction,Soldermask,Bot*%
%TF.FilePolarity,Negative*%
%FSLAX46Y46*%
G04 Gerber Fmt 4.6, Leading zero omitted, Abs format (unit mm)*
G04 Created by KiCad (PCBNEW (6.0.0)) date 2022-01-02 01:39:18*
%MOMM*%
%LPD*%
G01*
G04 APERTURE LIST*
G04 Aperture macros list*
%AMRoundRect*
0 Rectangle with rounded corners*
0 $1 Rounding radius*
0 $2 $3 $4 $5 $6 $7 $8 $9 X,Y pos of 4 corners*
0 Add a 4 corners polygon primitive as box body*
4,1,4,$2,$3,$4,$5,$6,$7,$8,$9,$2,$3,0*
0 Add four circle primitives for the rounded corners*
1,1,$1+$1,$2,$3*
1,1,$1+$1,$4,$5*
1,1,$1+$1,$6,$7*
1,1,$1+$1,$8,$9*
0 Add four rect primitives between the rounded corners*
20,1,$1+$1,$2,$3,$4,$5,0*
20,1,$1+$1,$4,$5,$6,$7,0*
20,1,$1+$1,$6,$7,$8,$9,0*
20,1,$1+$1,$8,$9,$2,$3,0*%
G04 Aperture macros list end*
%ADD10RoundRect,1.400000X0.000000X1.350000X0.000000X-1.350000X0.000000X-1.350000X0.000000X1.350000X0*%
%ADD11RoundRect,1.400000X-1.350000X0.000000X-1.350000X0.000000X1.350000X0.000000X1.350000X0.000000X0*%
%ADD12RoundRect,0.250000X1.330000X1.800000X-1.330000X1.800000X-1.330000X-1.800000X1.330000X-1.800000X0*%
%ADD13O,3.160000X4.100000*%
%ADD14RoundRect,0.250000X0.620000X0.845000X-0.620000X0.845000X-0.620000X-0.845000X0.620000X-0.845000X0*%
%ADD15O,1.740000X2.190000*%
%ADD16O,1.700000X1.700000*%
%ADD17R,1.700000X1.700000*%
%ADD18R,1.600000X1.600000*%
%ADD19C,1.600000*%
%ADD20C,0.800000*%
%ADD21C,6.400000*%
%ADD22RoundRect,0.250000X0.845000X-0.620000X0.845000X0.620000X-0.845000X0.620000X-0.845000X-0.620000X0*%
%ADD23O,2.190000X1.740000*%
%ADD24RoundRect,0.250000X0.600000X0.600000X-0.600000X0.600000X-0.600000X-0.600000X0.600000X-0.600000X0*%
%ADD25C,1.700000*%
%ADD26RoundRect,0.250000X-0.620000X-0.845000X0.620000X-0.845000X0.620000X0.845000X-0.620000X0.845000X0*%
%ADD27R,2.500000X1.700000*%
%ADD28O,2.500000X1.700000*%
%ADD29R,3.000000X3.000000*%
%ADD30C,3.000000*%
%ADD31RoundRect,0.250000X-0.845000X0.620000X-0.845000X-0.620000X0.845000X-0.620000X0.845000X0.620000X0*%
%ADD32C,6.000000*%
%ADD33RoundRect,1.500000X1.500000X-1.500000X1.500000X1.500000X-1.500000X1.500000X-1.500000X-1.500000X0*%
%ADD34C,2.780000*%
%ADD35C,1.530000*%
%ADD36C,3.270000*%
%ADD37RoundRect,0.250000X1.800000X-1.330000X1.800000X1.330000X-1.800000X1.330000X-1.800000X-1.330000X0*%
%ADD38O,4.100000X3.160000*%
G04 APERTURE END LIST*
D10*
%TO.C,K1*%
X151620000Y-68859000D03*
X143220000Y-78359000D03*
X160020000Y-78359000D03*
D11*
X151620000Y-86759000D03*
X151620000Y-78759000D03*
%TD*%
D12*
%TO.C,J26*%
X124460000Y-136144000D03*
D13*
X120500000Y-136144000D03*
%TD*%
D12*
%TO.C,J27*%
X114300000Y-136144000D03*
D13*
X110340000Y-136144000D03*
%TD*%
D14*
%TO.C,J25*%
X114300000Y-121940000D03*
D15*
X111760000Y-121940000D03*
X109220000Y-121940000D03*
X106680000Y-121940000D03*
%TD*%
D16*
%TO.C,J8*%
X125222000Y-102870000D03*
D17*
X122682000Y-102870000D03*
%TD*%
D18*
%TO.C,C6*%
X92456000Y-97282000D03*
D19*
X88656000Y-97282000D03*
%TD*%
D18*
%TO.C,C4*%
X92480651Y-88138000D03*
D19*
X88680651Y-88138000D03*
%TD*%
D18*
%TO.C,C3*%
X120396000Y-127000000D03*
D19*
X120396000Y-123200000D03*
%TD*%
D20*
%TO.C,H4*%
X87600000Y-140000000D03*
X90000000Y-142400000D03*
X91697056Y-141697056D03*
D21*
X90000000Y-140000000D03*
D20*
X90000000Y-137600000D03*
X88302944Y-138302944D03*
X88302944Y-141697056D03*
X91697056Y-138302944D03*
X92400000Y-140000000D03*
%TD*%
D18*
%TO.C,C5*%
X97536000Y-55880000D03*
D19*
X97536000Y-52080000D03*
%TD*%
D20*
%TO.C,H3*%
X160000000Y-137600000D03*
X158302944Y-141697056D03*
X160000000Y-142400000D03*
X157600000Y-140000000D03*
X161697056Y-141697056D03*
X158302944Y-138302944D03*
D21*
X160000000Y-140000000D03*
D20*
X162400000Y-140000000D03*
X161697056Y-138302944D03*
%TD*%
%TO.C,H2*%
X157600000Y-50000000D03*
D21*
X160000000Y-50000000D03*
D20*
X162400000Y-50000000D03*
X158302944Y-51697056D03*
X161697056Y-48302944D03*
X160000000Y-47600000D03*
X161697056Y-51697056D03*
X160000000Y-52400000D03*
X158302944Y-48302944D03*
%TD*%
D18*
%TO.C,U1*%
X102870000Y-58420000D03*
D19*
X102870000Y-60960000D03*
X102870000Y-63500000D03*
X102870000Y-66040000D03*
X102870000Y-68580000D03*
X102870000Y-71120000D03*
X102870000Y-73660000D03*
X102870000Y-76200000D03*
X102870000Y-78740000D03*
X102870000Y-81280000D03*
X102870000Y-83820000D03*
X102870000Y-86360000D03*
X102870000Y-88900000D03*
X102870000Y-91440000D03*
X102870000Y-93980000D03*
X102870000Y-96520000D03*
X102870000Y-99060000D03*
X102870000Y-101600000D03*
X102870000Y-104140000D03*
X102870000Y-106680000D03*
X102870000Y-109220000D03*
X102870000Y-111760000D03*
X102870000Y-114300000D03*
X102870000Y-116840000D03*
X105410000Y-104140000D03*
X107950000Y-104140000D03*
X110490000Y-104140000D03*
X113030000Y-104140000D03*
X115570000Y-104140000D03*
X118110000Y-116840000D03*
X118110000Y-114300000D03*
X118110000Y-111760000D03*
X118110000Y-109220000D03*
X118110000Y-106680000D03*
X118110000Y-104140000D03*
X118110000Y-101600000D03*
X118110000Y-99060000D03*
X118110000Y-96520000D03*
X118110000Y-93980000D03*
X118110000Y-91440000D03*
X118110000Y-88900000D03*
X118110000Y-86360000D03*
X118110000Y-83820000D03*
X118110000Y-81280000D03*
X118110000Y-78740000D03*
X118110000Y-76200000D03*
X118110000Y-73660000D03*
X118110000Y-71120000D03*
X118110000Y-68580000D03*
X118110000Y-66040000D03*
X118110000Y-63500000D03*
X118110000Y-60960000D03*
X118110000Y-58420000D03*
X115570000Y-60960000D03*
X115570000Y-66040000D03*
X115570000Y-68580000D03*
X115570000Y-71120000D03*
X105870000Y-64770000D03*
X105870000Y-67310000D03*
X105870000Y-69850000D03*
X105870000Y-72390000D03*
X105870000Y-74930000D03*
%TD*%
D20*
%TO.C,H1*%
X87600000Y-50000000D03*
X90000000Y-47600000D03*
X91697056Y-48302944D03*
X88302944Y-48302944D03*
X91697056Y-51697056D03*
D21*
X90000000Y-50000000D03*
D20*
X88302944Y-51697056D03*
X92400000Y-50000000D03*
X90000000Y-52400000D03*
%TD*%
D22*
%TO.C,J5*%
X132570000Y-60540000D03*
D23*
X132570000Y-58000000D03*
X132570000Y-55460000D03*
X132570000Y-52920000D03*
X132570000Y-50380000D03*
X132570000Y-47840000D03*
%TD*%
D17*
%TO.C,J2*%
X125095000Y-98298000D03*
D16*
X125095000Y-95758000D03*
%TD*%
D17*
%TO.C,J18*%
X87630000Y-104140000D03*
D16*
X87630000Y-106680000D03*
X87630000Y-109220000D03*
X87630000Y-111760000D03*
%TD*%
D24*
%TO.C,J24*%
X110490000Y-81280000D03*
D25*
X107950000Y-81280000D03*
X110490000Y-83820000D03*
X107950000Y-83820000D03*
X110490000Y-86360000D03*
X107950000Y-86360000D03*
X110490000Y-88900000D03*
X107950000Y-88900000D03*
X110490000Y-91440000D03*
X107950000Y-91440000D03*
%TD*%
D17*
%TO.C,J32*%
X122682000Y-106680000D03*
D16*
X125222000Y-106680000D03*
%TD*%
D26*
%TO.C,J30*%
X122174000Y-114534000D03*
D15*
X124714000Y-114534000D03*
X127254000Y-114534000D03*
%TD*%
D26*
%TO.C,J22*%
X122428000Y-87356000D03*
D15*
X124968000Y-87356000D03*
X127508000Y-87356000D03*
X130048000Y-87356000D03*
%TD*%
D27*
%TO.C,U4*%
X137160000Y-96520000D03*
D28*
X137160000Y-99060000D03*
X137160000Y-101600000D03*
%TD*%
D26*
%TO.C,J12*%
X106680000Y-109835000D03*
D15*
X109220000Y-109835000D03*
X111760000Y-109835000D03*
X114300000Y-109835000D03*
%TD*%
D17*
%TO.C,J36*%
X122555000Y-98298000D03*
D16*
X122555000Y-95758000D03*
%TD*%
D17*
%TO.C,J34*%
X114300000Y-48260000D03*
D16*
X111760000Y-48260000D03*
X109220000Y-48260000D03*
X106680000Y-48260000D03*
%TD*%
D17*
%TO.C,J9*%
X92710000Y-104140000D03*
D16*
X92710000Y-106680000D03*
X92710000Y-109220000D03*
X92710000Y-111760000D03*
%TD*%
D29*
%TO.C,J7*%
X149352000Y-102576000D03*
D30*
X149352000Y-97576000D03*
%TD*%
D17*
%TO.C,J15*%
X90170000Y-73660000D03*
D16*
X90170000Y-76200000D03*
X90170000Y-78740000D03*
X90170000Y-81280000D03*
%TD*%
D12*
%TO.C,J20*%
X104140000Y-136144000D03*
D13*
X100180000Y-136144000D03*
%TD*%
D17*
%TO.C,J33*%
X114300000Y-50800000D03*
D16*
X111760000Y-50800000D03*
X109220000Y-50800000D03*
X106680000Y-50800000D03*
%TD*%
D17*
%TO.C,J16*%
X107965000Y-116205000D03*
D16*
X110505000Y-116205000D03*
X113045000Y-116205000D03*
%TD*%
D31*
%TO.C,J29*%
X134640000Y-110490000D03*
D23*
X134640000Y-113030000D03*
%TD*%
D32*
%TO.C,J1*%
X158115000Y-97155000D03*
D33*
X158115000Y-104355000D03*
%TD*%
D31*
%TO.C,J28*%
X149860000Y-110490000D03*
D23*
X149860000Y-113030000D03*
%TD*%
D17*
%TO.C,J10*%
X92710000Y-60970000D03*
D16*
X92710000Y-63510000D03*
X92710000Y-66050000D03*
X92710000Y-68590000D03*
%TD*%
%TO.C,J19*%
X87630000Y-81280000D03*
X87630000Y-78740000D03*
X87630000Y-76200000D03*
D17*
X87630000Y-73660000D03*
%TD*%
D22*
%TO.C,J3*%
X124190000Y-60540000D03*
D23*
X124190000Y-58000000D03*
X124190000Y-55460000D03*
X124190000Y-52920000D03*
X124190000Y-50380000D03*
X124190000Y-47840000D03*
%TD*%
D34*
%TO.C,F2*%
X134444000Y-83192000D03*
X137844000Y-83192000D03*
X134444000Y-73272000D03*
X137844000Y-73272000D03*
%TD*%
D35*
%TO.C,PS1*%
X147905000Y-118745000D03*
X147905000Y-121285000D03*
X145365000Y-118745000D03*
X145365000Y-121285000D03*
X142825000Y-118745000D03*
X142825000Y-121285000D03*
X140285000Y-118745000D03*
X140285000Y-121285000D03*
X137745000Y-118745000D03*
X137745000Y-121285000D03*
X135205000Y-118745000D03*
X135205000Y-121285000D03*
D36*
X152105000Y-119575000D03*
X131005000Y-119575000D03*
X131005000Y-140675000D03*
%TD*%
D22*
%TO.C,J6*%
X140950000Y-60540000D03*
D23*
X140950000Y-58000000D03*
X140950000Y-55460000D03*
X140950000Y-52920000D03*
X140950000Y-50380000D03*
X140950000Y-47840000D03*
%TD*%
D31*
%TO.C,J23*%
X142240000Y-110490000D03*
D23*
X142240000Y-113030000D03*
%TD*%
D17*
%TO.C,J4*%
X122682000Y-109220000D03*
D16*
X125222000Y-109220000D03*
%TD*%
D37*
%TO.C,J21*%
X151130000Y-59690000D03*
D38*
X151130000Y-55730000D03*
%TD*%
D17*
%TO.C,J11*%
X92710000Y-73660000D03*
D16*
X92710000Y-76200000D03*
X92710000Y-78740000D03*
X92710000Y-81280000D03*
%TD*%
D17*
%TO.C,J13*%
X90170000Y-60970000D03*
D16*
X90170000Y-63510000D03*
X90170000Y-66050000D03*
X90170000Y-68590000D03*
%TD*%
D17*
%TO.C,J35*%
X114300000Y-53340000D03*
D16*
X111760000Y-53340000D03*
X109220000Y-53340000D03*
X106680000Y-53340000D03*
%TD*%
D17*
%TO.C,J17*%
X87630000Y-60970000D03*
D16*
X87630000Y-63510000D03*
X87630000Y-66050000D03*
X87630000Y-68590000D03*
%TD*%
D17*
%TO.C,J31*%
X127635000Y-98298000D03*
D16*
X127635000Y-95758000D03*
%TD*%
D17*
%TO.C,J14*%
X90170000Y-104140000D03*
D16*
X90170000Y-106680000D03*
X90170000Y-109220000D03*
X90170000Y-111760000D03*
%TD*%
M02*
