%TF.GenerationSoftware,KiCad,Pcbnew,(6.0.0)*%
%TF.CreationDate,2022-01-02T01:39:18+01:00*%
%TF.ProjectId,mainBoard004,6d61696e-426f-4617-9264-3030342e6b69,rev?*%
%TF.SameCoordinates,Original*%
%TF.FileFunction,Legend,Bot*%
%TF.FilePolarity,Positive*%
%FSLAX46Y46*%
G04 Gerber Fmt 4.6, Leading zero omitted, Abs format (unit mm)*
G04 Created by KiCad (PCBNEW (6.0.0)) date 2022-01-02 01:39:18*
%MOMM*%
%LPD*%
G01*
G04 APERTURE LIST*
%ADD10C,0.120000*%
%ADD11C,0.250000*%
%ADD12C,0.200000*%
%ADD13C,0.300000*%
%ADD14C,0.150000*%
%ADD15C,0.100000*%
G04 APERTURE END LIST*
D10*
X151739142Y-52203000D02*
X151810571Y-52167285D01*
X151917714Y-52167285D01*
X152024857Y-52203000D01*
X152096285Y-52274428D01*
X152132000Y-52345857D01*
X152167714Y-52488714D01*
X152167714Y-52595857D01*
X152132000Y-52738714D01*
X152096285Y-52810142D01*
X152024857Y-52881571D01*
X151917714Y-52917285D01*
X151846285Y-52917285D01*
X151739142Y-52881571D01*
X151703428Y-52845857D01*
X151703428Y-52595857D01*
X151846285Y-52595857D01*
X151382000Y-52417285D02*
X151382000Y-52917285D01*
X151382000Y-52488714D02*
X151346285Y-52453000D01*
X151274857Y-52417285D01*
X151167714Y-52417285D01*
X151096285Y-52453000D01*
X151060571Y-52524428D01*
X151060571Y-52917285D01*
X150382000Y-52917285D02*
X150382000Y-52167285D01*
X150382000Y-52881571D02*
X150453428Y-52917285D01*
X150596285Y-52917285D01*
X150667714Y-52881571D01*
X150703428Y-52845857D01*
X150739142Y-52774428D01*
X150739142Y-52560142D01*
X150703428Y-52488714D01*
X150667714Y-52453000D01*
X150596285Y-52417285D01*
X150453428Y-52417285D01*
X150382000Y-52453000D01*
D11*
X156845000Y-60504000D02*
X156845000Y-54916000D01*
D12*
X161848047Y-56028571D02*
X161705190Y-56076190D01*
X161657571Y-56123809D01*
X161609952Y-56219047D01*
X161609952Y-56361904D01*
X161657571Y-56457142D01*
X161705190Y-56504761D01*
X161800428Y-56552380D01*
X162181380Y-56552380D01*
X162181380Y-55552380D01*
X161848047Y-55552380D01*
X161752809Y-55600000D01*
X161705190Y-55647619D01*
X161657571Y-55742857D01*
X161657571Y-55838095D01*
X161705190Y-55933333D01*
X161752809Y-55980952D01*
X161848047Y-56028571D01*
X162181380Y-56028571D01*
X161038523Y-56552380D02*
X161133761Y-56504761D01*
X161181380Y-56457142D01*
X161229000Y-56361904D01*
X161229000Y-56076190D01*
X161181380Y-55980952D01*
X161133761Y-55933333D01*
X161038523Y-55885714D01*
X160895666Y-55885714D01*
X160800428Y-55933333D01*
X160752809Y-55980952D01*
X160705190Y-56076190D01*
X160705190Y-56361904D01*
X160752809Y-56457142D01*
X160800428Y-56504761D01*
X160895666Y-56552380D01*
X161038523Y-56552380D01*
X159848047Y-55885714D02*
X159848047Y-56552380D01*
X160276619Y-55885714D02*
X160276619Y-56409523D01*
X160229000Y-56504761D01*
X160133761Y-56552380D01*
X159990904Y-56552380D01*
X159895666Y-56504761D01*
X159848047Y-56457142D01*
X159514714Y-55885714D02*
X159133761Y-55885714D01*
X159371857Y-55552380D02*
X159371857Y-56409523D01*
X159324238Y-56504761D01*
X159229000Y-56552380D01*
X159133761Y-56552380D01*
X158657571Y-56552380D02*
X158752809Y-56504761D01*
X158800428Y-56457142D01*
X158848047Y-56361904D01*
X158848047Y-56076190D01*
X158800428Y-55980952D01*
X158752809Y-55933333D01*
X158657571Y-55885714D01*
X158514714Y-55885714D01*
X158419476Y-55933333D01*
X158371857Y-55980952D01*
X158324238Y-56076190D01*
X158324238Y-56361904D01*
X158371857Y-56457142D01*
X158419476Y-56504761D01*
X158514714Y-56552380D01*
X158657571Y-56552380D01*
X157895666Y-55885714D02*
X157895666Y-56552380D01*
X157895666Y-55980952D02*
X157848047Y-55933333D01*
X157752809Y-55885714D01*
X157609952Y-55885714D01*
X157514714Y-55933333D01*
X157467095Y-56028571D01*
X157467095Y-56552380D01*
X161324238Y-57876666D02*
X160848047Y-57876666D01*
X161419476Y-58162380D02*
X161086142Y-57162380D01*
X160752809Y-58162380D01*
X160419476Y-58162380D02*
X160419476Y-57495714D01*
X160419476Y-57686190D02*
X160371857Y-57590952D01*
X160324238Y-57543333D01*
X160229000Y-57495714D01*
X160133761Y-57495714D01*
X159800428Y-58162380D02*
X159800428Y-57495714D01*
X159800428Y-57686190D02*
X159752809Y-57590952D01*
X159705190Y-57543333D01*
X159609952Y-57495714D01*
X159514714Y-57495714D01*
X158800428Y-58114761D02*
X158895666Y-58162380D01*
X159086142Y-58162380D01*
X159181380Y-58114761D01*
X159229000Y-58019523D01*
X159229000Y-57638571D01*
X159181380Y-57543333D01*
X159086142Y-57495714D01*
X158895666Y-57495714D01*
X158800428Y-57543333D01*
X158752809Y-57638571D01*
X158752809Y-57733809D01*
X159229000Y-57829047D01*
X159181380Y-57257619D02*
X158990904Y-57114761D01*
X158800428Y-57257619D01*
X158467095Y-57495714D02*
X158086142Y-57495714D01*
X158324238Y-57162380D02*
X158324238Y-58019523D01*
X158276619Y-58114761D01*
X158181380Y-58162380D01*
X158086142Y-58162380D01*
X163990904Y-59772380D02*
X163990904Y-58772380D01*
X163990904Y-59724761D02*
X164086142Y-59772380D01*
X164276619Y-59772380D01*
X164371857Y-59724761D01*
X164419476Y-59677142D01*
X164467095Y-59581904D01*
X164467095Y-59296190D01*
X164419476Y-59200952D01*
X164371857Y-59153333D01*
X164276619Y-59105714D01*
X164086142Y-59105714D01*
X163990904Y-59153333D01*
X163467095Y-58772380D02*
X163562333Y-58962857D01*
X163038523Y-58772380D02*
X163038523Y-59581904D01*
X162990904Y-59677142D01*
X162943285Y-59724761D01*
X162848047Y-59772380D01*
X162657571Y-59772380D01*
X162562333Y-59724761D01*
X162514714Y-59677142D01*
X162467095Y-59581904D01*
X162467095Y-58772380D01*
X161990904Y-59772380D02*
X161990904Y-59105714D01*
X161990904Y-59296190D02*
X161943285Y-59200952D01*
X161895666Y-59153333D01*
X161800428Y-59105714D01*
X161705190Y-59105714D01*
X160943285Y-59105714D02*
X160943285Y-59915238D01*
X160990904Y-60010476D01*
X161038523Y-60058095D01*
X161133761Y-60105714D01*
X161276619Y-60105714D01*
X161371857Y-60058095D01*
X160943285Y-59724761D02*
X161038523Y-59772380D01*
X161229000Y-59772380D01*
X161324238Y-59724761D01*
X161371857Y-59677142D01*
X161419476Y-59581904D01*
X161419476Y-59296190D01*
X161371857Y-59200952D01*
X161324238Y-59153333D01*
X161229000Y-59105714D01*
X161038523Y-59105714D01*
X160943285Y-59153333D01*
X160086142Y-59724761D02*
X160181380Y-59772380D01*
X160371857Y-59772380D01*
X160467095Y-59724761D01*
X160514714Y-59629523D01*
X160514714Y-59248571D01*
X160467095Y-59153333D01*
X160371857Y-59105714D01*
X160181380Y-59105714D01*
X160086142Y-59153333D01*
X160038523Y-59248571D01*
X160038523Y-59343809D01*
X160514714Y-59439047D01*
X159609952Y-59105714D02*
X159609952Y-59772380D01*
X159609952Y-59200952D02*
X159562333Y-59153333D01*
X159467095Y-59105714D01*
X159324238Y-59105714D01*
X159229000Y-59153333D01*
X159181380Y-59248571D01*
X159181380Y-59772380D01*
X158276619Y-59724761D02*
X158371857Y-59772380D01*
X158562333Y-59772380D01*
X158657571Y-59724761D01*
X158705190Y-59677142D01*
X158752809Y-59581904D01*
X158752809Y-59296190D01*
X158705190Y-59200952D01*
X158657571Y-59153333D01*
X158562333Y-59105714D01*
X158371857Y-59105714D01*
X158276619Y-59153333D01*
X157467095Y-59724761D02*
X157562333Y-59772380D01*
X157752809Y-59772380D01*
X157848047Y-59724761D01*
X157895666Y-59629523D01*
X157895666Y-59248571D01*
X157848047Y-59153333D01*
X157752809Y-59105714D01*
X157562333Y-59105714D01*
X157467095Y-59153333D01*
X157419476Y-59248571D01*
X157419476Y-59343809D01*
X157895666Y-59439047D01*
D11*
X157988000Y-92456000D02*
X157988000Y-93472000D01*
X149225000Y-94488000D02*
X149225000Y-95504000D01*
X158115000Y-107950000D02*
X158115000Y-108966000D01*
X147193000Y-104902000D02*
X148209000Y-104902000D01*
X147193000Y-104902000D02*
X147193000Y-105918000D01*
D12*
X151010714Y-92412428D02*
X150939285Y-92341000D01*
X150796428Y-92269571D01*
X150439285Y-92269571D01*
X150296428Y-92341000D01*
X150225000Y-92412428D01*
X150153571Y-92555285D01*
X150153571Y-92698142D01*
X150225000Y-92912428D01*
X151082142Y-93769571D01*
X150153571Y-93769571D01*
X148867857Y-92769571D02*
X148867857Y-93769571D01*
X149225000Y-92198142D02*
X149582142Y-93269571D01*
X148653571Y-93269571D01*
X148296428Y-92269571D02*
X147796428Y-93769571D01*
X147296428Y-92269571D01*
X148284285Y-105930000D02*
X148427142Y-105858571D01*
X148641428Y-105858571D01*
X148855714Y-105930000D01*
X148998571Y-106072857D01*
X149070000Y-106215714D01*
X149141428Y-106501428D01*
X149141428Y-106715714D01*
X149070000Y-107001428D01*
X148998571Y-107144285D01*
X148855714Y-107287142D01*
X148641428Y-107358571D01*
X148498571Y-107358571D01*
X148284285Y-107287142D01*
X148212857Y-107215714D01*
X148212857Y-106715714D01*
X148498571Y-106715714D01*
X147570000Y-106358571D02*
X147570000Y-107358571D01*
X147570000Y-106501428D02*
X147498571Y-106430000D01*
X147355714Y-106358571D01*
X147141428Y-106358571D01*
X146998571Y-106430000D01*
X146927142Y-106572857D01*
X146927142Y-107358571D01*
X145570000Y-107358571D02*
X145570000Y-105858571D01*
X145570000Y-107287142D02*
X145712857Y-107358571D01*
X145998571Y-107358571D01*
X146141428Y-107287142D01*
X146212857Y-107215714D01*
X146284285Y-107072857D01*
X146284285Y-106644285D01*
X146212857Y-106501428D01*
X146141428Y-106430000D01*
X145998571Y-106358571D01*
X145712857Y-106358571D01*
X145570000Y-106430000D01*
X159206285Y-109105000D02*
X159349142Y-109033571D01*
X159563428Y-109033571D01*
X159777714Y-109105000D01*
X159920571Y-109247857D01*
X159992000Y-109390714D01*
X160063428Y-109676428D01*
X160063428Y-109890714D01*
X159992000Y-110176428D01*
X159920571Y-110319285D01*
X159777714Y-110462142D01*
X159563428Y-110533571D01*
X159420571Y-110533571D01*
X159206285Y-110462142D01*
X159134857Y-110390714D01*
X159134857Y-109890714D01*
X159420571Y-109890714D01*
X158492000Y-109533571D02*
X158492000Y-110533571D01*
X158492000Y-109676428D02*
X158420571Y-109605000D01*
X158277714Y-109533571D01*
X158063428Y-109533571D01*
X157920571Y-109605000D01*
X157849142Y-109747857D01*
X157849142Y-110533571D01*
X156492000Y-110533571D02*
X156492000Y-109033571D01*
X156492000Y-110462142D02*
X156634857Y-110533571D01*
X156920571Y-110533571D01*
X157063428Y-110462142D01*
X157134857Y-110390714D01*
X157206285Y-110247857D01*
X157206285Y-109819285D01*
X157134857Y-109676428D01*
X157063428Y-109605000D01*
X156920571Y-109533571D01*
X156634857Y-109533571D01*
X156492000Y-109605000D01*
D13*
X161829285Y-90090761D02*
X161162619Y-92090761D01*
X160495952Y-90090761D01*
X159162619Y-91043142D02*
X158876904Y-91138380D01*
X158781666Y-91233619D01*
X158686428Y-91424095D01*
X158686428Y-91709809D01*
X158781666Y-91900285D01*
X158876904Y-91995523D01*
X159067380Y-92090761D01*
X159829285Y-92090761D01*
X159829285Y-90090761D01*
X159162619Y-90090761D01*
X158972142Y-90186000D01*
X158876904Y-90281238D01*
X158781666Y-90471714D01*
X158781666Y-90662190D01*
X158876904Y-90852666D01*
X158972142Y-90947904D01*
X159162619Y-91043142D01*
X159829285Y-91043142D01*
X156972142Y-92090761D02*
X156972142Y-91043142D01*
X157067380Y-90852666D01*
X157257857Y-90757428D01*
X157638809Y-90757428D01*
X157829285Y-90852666D01*
X156972142Y-91995523D02*
X157162619Y-92090761D01*
X157638809Y-92090761D01*
X157829285Y-91995523D01*
X157924523Y-91805047D01*
X157924523Y-91614571D01*
X157829285Y-91424095D01*
X157638809Y-91328857D01*
X157162619Y-91328857D01*
X156972142Y-91233619D01*
X156305476Y-90757428D02*
X155543571Y-90757428D01*
X156019761Y-90090761D02*
X156019761Y-91805047D01*
X155924523Y-91995523D01*
X155734047Y-92090761D01*
X155543571Y-92090761D01*
X155162619Y-90757428D02*
X154400714Y-90757428D01*
X154876904Y-90090761D02*
X154876904Y-91805047D01*
X154781666Y-91995523D01*
X154591190Y-92090761D01*
X154400714Y-92090761D01*
D11*
X120904000Y-98298000D02*
X121225000Y-98298000D01*
D10*
X119890000Y-99190857D02*
X119890000Y-98833714D01*
X119675714Y-99262285D02*
X120425714Y-99012285D01*
X119675714Y-98762285D01*
X120354285Y-98548000D02*
X120390000Y-98512285D01*
X120425714Y-98440857D01*
X120425714Y-98262285D01*
X120390000Y-98190857D01*
X120354285Y-98155142D01*
X120282857Y-98119428D01*
X120211428Y-98119428D01*
X120104285Y-98155142D01*
X119675714Y-98583714D01*
X119675714Y-98119428D01*
X119675714Y-97405142D02*
X119675714Y-97833714D01*
X119675714Y-97619428D02*
X120425714Y-97619428D01*
X120318571Y-97690857D01*
X120247142Y-97762285D01*
X120211428Y-97833714D01*
X119890000Y-96650857D02*
X119890000Y-96293714D01*
X119675714Y-96722285D02*
X120425714Y-96472285D01*
X119675714Y-96222285D01*
X120354285Y-96008000D02*
X120390000Y-95972285D01*
X120425714Y-95900857D01*
X120425714Y-95722285D01*
X120390000Y-95650857D01*
X120354285Y-95615142D01*
X120282857Y-95579428D01*
X120211428Y-95579428D01*
X120104285Y-95615142D01*
X119675714Y-96043714D01*
X119675714Y-95579428D01*
X120354285Y-95293714D02*
X120390000Y-95258000D01*
X120425714Y-95186571D01*
X120425714Y-95008000D01*
X120390000Y-94936571D01*
X120354285Y-94900857D01*
X120282857Y-94865142D01*
X120211428Y-94865142D01*
X120104285Y-94900857D01*
X119675714Y-95329428D01*
X119675714Y-94865142D01*
D11*
X120904000Y-95728000D02*
X121225000Y-95728000D01*
X114300000Y-54670000D02*
X114300000Y-54991000D01*
X109190000Y-54670000D02*
X109190000Y-54991000D01*
X106680000Y-54737000D02*
X106680000Y-55753000D01*
X111760000Y-54737000D02*
X111760000Y-55753000D01*
D10*
X107572857Y-56640000D02*
X107215714Y-56640000D01*
X107644285Y-56854285D02*
X107394285Y-56104285D01*
X107144285Y-56854285D01*
X106930000Y-56175714D02*
X106894285Y-56140000D01*
X106822857Y-56104285D01*
X106644285Y-56104285D01*
X106572857Y-56140000D01*
X106537142Y-56175714D01*
X106501428Y-56247142D01*
X106501428Y-56318571D01*
X106537142Y-56425714D01*
X106965714Y-56854285D01*
X106501428Y-56854285D01*
X105858571Y-56104285D02*
X106001428Y-56104285D01*
X106072857Y-56140000D01*
X106108571Y-56175714D01*
X106180000Y-56282857D01*
X106215714Y-56425714D01*
X106215714Y-56711428D01*
X106180000Y-56782857D01*
X106144285Y-56818571D01*
X106072857Y-56854285D01*
X105930000Y-56854285D01*
X105858571Y-56818571D01*
X105822857Y-56782857D01*
X105787142Y-56711428D01*
X105787142Y-56532857D01*
X105822857Y-56461428D01*
X105858571Y-56425714D01*
X105930000Y-56390000D01*
X106072857Y-56390000D01*
X106144285Y-56425714D01*
X106180000Y-56461428D01*
X106215714Y-56532857D01*
X110112857Y-55878000D02*
X109755714Y-55878000D01*
X110184285Y-56092285D02*
X109934285Y-55342285D01*
X109684285Y-56092285D01*
X109470000Y-55413714D02*
X109434285Y-55378000D01*
X109362857Y-55342285D01*
X109184285Y-55342285D01*
X109112857Y-55378000D01*
X109077142Y-55413714D01*
X109041428Y-55485142D01*
X109041428Y-55556571D01*
X109077142Y-55663714D01*
X109505714Y-56092285D01*
X109041428Y-56092285D01*
X108362857Y-55342285D02*
X108720000Y-55342285D01*
X108755714Y-55699428D01*
X108720000Y-55663714D01*
X108648571Y-55628000D01*
X108470000Y-55628000D01*
X108398571Y-55663714D01*
X108362857Y-55699428D01*
X108327142Y-55770857D01*
X108327142Y-55949428D01*
X108362857Y-56020857D01*
X108398571Y-56056571D01*
X108470000Y-56092285D01*
X108648571Y-56092285D01*
X108720000Y-56056571D01*
X108755714Y-56020857D01*
X112652857Y-56640000D02*
X112295714Y-56640000D01*
X112724285Y-56854285D02*
X112474285Y-56104285D01*
X112224285Y-56854285D01*
X111581428Y-56854285D02*
X112010000Y-56854285D01*
X111795714Y-56854285D02*
X111795714Y-56104285D01*
X111867142Y-56211428D01*
X111938571Y-56282857D01*
X112010000Y-56318571D01*
X110867142Y-56854285D02*
X111295714Y-56854285D01*
X111081428Y-56854285D02*
X111081428Y-56104285D01*
X111152857Y-56211428D01*
X111224285Y-56282857D01*
X111295714Y-56318571D01*
X115192857Y-55878000D02*
X114835714Y-55878000D01*
X115264285Y-56092285D02*
X115014285Y-55342285D01*
X114764285Y-56092285D01*
X114121428Y-56092285D02*
X114550000Y-56092285D01*
X114335714Y-56092285D02*
X114335714Y-55342285D01*
X114407142Y-55449428D01*
X114478571Y-55520857D01*
X114550000Y-55556571D01*
X113657142Y-55342285D02*
X113585714Y-55342285D01*
X113514285Y-55378000D01*
X113478571Y-55413714D01*
X113442857Y-55485142D01*
X113407142Y-55628000D01*
X113407142Y-55806571D01*
X113442857Y-55949428D01*
X113478571Y-56020857D01*
X113514285Y-56056571D01*
X113585714Y-56092285D01*
X113657142Y-56092285D01*
X113728571Y-56056571D01*
X113764285Y-56020857D01*
X113800000Y-55949428D01*
X113835714Y-55806571D01*
X113835714Y-55628000D01*
X113800000Y-55485142D01*
X113764285Y-55413714D01*
X113728571Y-55378000D01*
X113657142Y-55342285D01*
X104589857Y-50389285D02*
X104125571Y-50389285D01*
X104375571Y-50675000D01*
X104268428Y-50675000D01*
X104197000Y-50710714D01*
X104161285Y-50746428D01*
X104125571Y-50817857D01*
X104125571Y-50996428D01*
X104161285Y-51067857D01*
X104197000Y-51103571D01*
X104268428Y-51139285D01*
X104482714Y-51139285D01*
X104554142Y-51103571D01*
X104589857Y-51067857D01*
X103911285Y-50389285D02*
X103661285Y-51139285D01*
X103411285Y-50389285D01*
X103232714Y-50389285D02*
X102768428Y-50389285D01*
X103018428Y-50675000D01*
X102911285Y-50675000D01*
X102839857Y-50710714D01*
X102804142Y-50746428D01*
X102768428Y-50817857D01*
X102768428Y-50996428D01*
X102804142Y-51067857D01*
X102839857Y-51103571D01*
X102911285Y-51139285D01*
X103125571Y-51139285D01*
X103197000Y-51103571D01*
X103232714Y-51067857D01*
X104252571Y-47885000D02*
X104324000Y-47849285D01*
X104431142Y-47849285D01*
X104538285Y-47885000D01*
X104609714Y-47956428D01*
X104645428Y-48027857D01*
X104681142Y-48170714D01*
X104681142Y-48277857D01*
X104645428Y-48420714D01*
X104609714Y-48492142D01*
X104538285Y-48563571D01*
X104431142Y-48599285D01*
X104359714Y-48599285D01*
X104252571Y-48563571D01*
X104216857Y-48527857D01*
X104216857Y-48277857D01*
X104359714Y-48277857D01*
X103895428Y-48099285D02*
X103895428Y-48599285D01*
X103895428Y-48170714D02*
X103859714Y-48135000D01*
X103788285Y-48099285D01*
X103681142Y-48099285D01*
X103609714Y-48135000D01*
X103574000Y-48206428D01*
X103574000Y-48599285D01*
X102895428Y-48599285D02*
X102895428Y-47849285D01*
X102895428Y-48563571D02*
X102966857Y-48599285D01*
X103109714Y-48599285D01*
X103181142Y-48563571D01*
X103216857Y-48527857D01*
X103252571Y-48456428D01*
X103252571Y-48242142D01*
X103216857Y-48170714D01*
X103181142Y-48135000D01*
X103109714Y-48099285D01*
X102966857Y-48099285D01*
X102895428Y-48135000D01*
D14*
X110315238Y-98496380D02*
X110315238Y-97496380D01*
X109839047Y-98496380D02*
X109839047Y-97496380D01*
X109839047Y-97972571D02*
X109267619Y-97972571D01*
X109267619Y-98496380D02*
X109267619Y-97496380D01*
X108791428Y-98496380D02*
X108791428Y-97496380D01*
X108458095Y-98210666D01*
X108124761Y-97496380D01*
X108124761Y-98496380D01*
X104730857Y-142651380D02*
X105207047Y-142651380D01*
X105254666Y-143127571D01*
X105207047Y-143079952D01*
X105111809Y-143032333D01*
X104873714Y-143032333D01*
X104778476Y-143079952D01*
X104730857Y-143127571D01*
X104683238Y-143222809D01*
X104683238Y-143460904D01*
X104730857Y-143556142D01*
X104778476Y-143603761D01*
X104873714Y-143651380D01*
X105111809Y-143651380D01*
X105207047Y-143603761D01*
X105254666Y-143556142D01*
X104397523Y-142651380D02*
X104064190Y-143651380D01*
X103730857Y-142651380D01*
X103397523Y-142984714D02*
X103397523Y-143984714D01*
X103397523Y-143032333D02*
X103302285Y-142984714D01*
X103111809Y-142984714D01*
X103016571Y-143032333D01*
X102968952Y-143079952D01*
X102921333Y-143175190D01*
X102921333Y-143460904D01*
X102968952Y-143556142D01*
X103016571Y-143603761D01*
X103111809Y-143651380D01*
X103302285Y-143651380D01*
X103397523Y-143603761D01*
X100793857Y-142699000D02*
X100889095Y-142651380D01*
X101031952Y-142651380D01*
X101174809Y-142699000D01*
X101270047Y-142794238D01*
X101317666Y-142889476D01*
X101365285Y-143079952D01*
X101365285Y-143222809D01*
X101317666Y-143413285D01*
X101270047Y-143508523D01*
X101174809Y-143603761D01*
X101031952Y-143651380D01*
X100936714Y-143651380D01*
X100793857Y-143603761D01*
X100746238Y-143556142D01*
X100746238Y-143222809D01*
X100936714Y-143222809D01*
X100317666Y-142984714D02*
X100317666Y-143651380D01*
X100317666Y-143079952D02*
X100270047Y-143032333D01*
X100174809Y-142984714D01*
X100031952Y-142984714D01*
X99936714Y-143032333D01*
X99889095Y-143127571D01*
X99889095Y-143651380D01*
X98984333Y-143651380D02*
X98984333Y-142651380D01*
X98984333Y-143603761D02*
X99079571Y-143651380D01*
X99270047Y-143651380D01*
X99365285Y-143603761D01*
X99412904Y-143556142D01*
X99460523Y-143460904D01*
X99460523Y-143175190D01*
X99412904Y-143079952D01*
X99365285Y-143032333D01*
X99270047Y-142984714D01*
X99079571Y-142984714D01*
X98984333Y-143032333D01*
D13*
X98425000Y-142113000D02*
X105791000Y-142113000D01*
D14*
X125050857Y-142651380D02*
X125527047Y-142651380D01*
X125574666Y-143127571D01*
X125527047Y-143079952D01*
X125431809Y-143032333D01*
X125193714Y-143032333D01*
X125098476Y-143079952D01*
X125050857Y-143127571D01*
X125003238Y-143222809D01*
X125003238Y-143460904D01*
X125050857Y-143556142D01*
X125098476Y-143603761D01*
X125193714Y-143651380D01*
X125431809Y-143651380D01*
X125527047Y-143603761D01*
X125574666Y-143556142D01*
X124717523Y-142651380D02*
X124384190Y-143651380D01*
X124050857Y-142651380D01*
X123717523Y-142984714D02*
X123717523Y-143984714D01*
X123717523Y-143032333D02*
X123622285Y-142984714D01*
X123431809Y-142984714D01*
X123336571Y-143032333D01*
X123288952Y-143079952D01*
X123241333Y-143175190D01*
X123241333Y-143460904D01*
X123288952Y-143556142D01*
X123336571Y-143603761D01*
X123431809Y-143651380D01*
X123622285Y-143651380D01*
X123717523Y-143603761D01*
X121113857Y-142699000D02*
X121209095Y-142651380D01*
X121351952Y-142651380D01*
X121494809Y-142699000D01*
X121590047Y-142794238D01*
X121637666Y-142889476D01*
X121685285Y-143079952D01*
X121685285Y-143222809D01*
X121637666Y-143413285D01*
X121590047Y-143508523D01*
X121494809Y-143603761D01*
X121351952Y-143651380D01*
X121256714Y-143651380D01*
X121113857Y-143603761D01*
X121066238Y-143556142D01*
X121066238Y-143222809D01*
X121256714Y-143222809D01*
X120637666Y-142984714D02*
X120637666Y-143651380D01*
X120637666Y-143079952D02*
X120590047Y-143032333D01*
X120494809Y-142984714D01*
X120351952Y-142984714D01*
X120256714Y-143032333D01*
X120209095Y-143127571D01*
X120209095Y-143651380D01*
X119304333Y-143651380D02*
X119304333Y-142651380D01*
X119304333Y-143603761D02*
X119399571Y-143651380D01*
X119590047Y-143651380D01*
X119685285Y-143603761D01*
X119732904Y-143556142D01*
X119780523Y-143460904D01*
X119780523Y-143175190D01*
X119732904Y-143079952D01*
X119685285Y-143032333D01*
X119590047Y-142984714D01*
X119399571Y-142984714D01*
X119304333Y-143032333D01*
D13*
X118745000Y-142113000D02*
X126111000Y-142113000D01*
D14*
X114890857Y-142651380D02*
X115367047Y-142651380D01*
X115414666Y-143127571D01*
X115367047Y-143079952D01*
X115271809Y-143032333D01*
X115033714Y-143032333D01*
X114938476Y-143079952D01*
X114890857Y-143127571D01*
X114843238Y-143222809D01*
X114843238Y-143460904D01*
X114890857Y-143556142D01*
X114938476Y-143603761D01*
X115033714Y-143651380D01*
X115271809Y-143651380D01*
X115367047Y-143603761D01*
X115414666Y-143556142D01*
X114557523Y-142651380D02*
X114224190Y-143651380D01*
X113890857Y-142651380D01*
X113557523Y-142984714D02*
X113557523Y-143984714D01*
X113557523Y-143032333D02*
X113462285Y-142984714D01*
X113271809Y-142984714D01*
X113176571Y-143032333D01*
X113128952Y-143079952D01*
X113081333Y-143175190D01*
X113081333Y-143460904D01*
X113128952Y-143556142D01*
X113176571Y-143603761D01*
X113271809Y-143651380D01*
X113462285Y-143651380D01*
X113557523Y-143603761D01*
X110953857Y-142699000D02*
X111049095Y-142651380D01*
X111191952Y-142651380D01*
X111334809Y-142699000D01*
X111430047Y-142794238D01*
X111477666Y-142889476D01*
X111525285Y-143079952D01*
X111525285Y-143222809D01*
X111477666Y-143413285D01*
X111430047Y-143508523D01*
X111334809Y-143603761D01*
X111191952Y-143651380D01*
X111096714Y-143651380D01*
X110953857Y-143603761D01*
X110906238Y-143556142D01*
X110906238Y-143222809D01*
X111096714Y-143222809D01*
X110477666Y-142984714D02*
X110477666Y-143651380D01*
X110477666Y-143079952D02*
X110430047Y-143032333D01*
X110334809Y-142984714D01*
X110191952Y-142984714D01*
X110096714Y-143032333D01*
X110049095Y-143127571D01*
X110049095Y-143651380D01*
X109144333Y-143651380D02*
X109144333Y-142651380D01*
X109144333Y-143603761D02*
X109239571Y-143651380D01*
X109430047Y-143651380D01*
X109525285Y-143603761D01*
X109572904Y-143556142D01*
X109620523Y-143460904D01*
X109620523Y-143175190D01*
X109572904Y-143079952D01*
X109525285Y-143032333D01*
X109430047Y-142984714D01*
X109239571Y-142984714D01*
X109144333Y-143032333D01*
D13*
X108585000Y-142113000D02*
X115951000Y-142113000D01*
D14*
X105544857Y-117181380D02*
X106021047Y-117181380D01*
X106068666Y-117657571D01*
X106021047Y-117609952D01*
X105925809Y-117562333D01*
X105687714Y-117562333D01*
X105592476Y-117609952D01*
X105544857Y-117657571D01*
X105497238Y-117752809D01*
X105497238Y-117990904D01*
X105544857Y-118086142D01*
X105592476Y-118133761D01*
X105687714Y-118181380D01*
X105925809Y-118181380D01*
X106021047Y-118133761D01*
X106068666Y-118086142D01*
X105211523Y-117181380D02*
X104878190Y-118181380D01*
X104544857Y-117181380D01*
X104211523Y-117514714D02*
X104211523Y-118514714D01*
X104211523Y-117562333D02*
X104116285Y-117514714D01*
X103925809Y-117514714D01*
X103830571Y-117562333D01*
X103782952Y-117609952D01*
X103735333Y-117705190D01*
X103735333Y-117990904D01*
X103782952Y-118086142D01*
X103830571Y-118133761D01*
X103925809Y-118181380D01*
X104116285Y-118181380D01*
X104211523Y-118133761D01*
X116014476Y-117181380D02*
X116490666Y-117181380D01*
X116538285Y-117657571D01*
X116490666Y-117609952D01*
X116395428Y-117562333D01*
X116157333Y-117562333D01*
X116062095Y-117609952D01*
X116014476Y-117657571D01*
X115966857Y-117752809D01*
X115966857Y-117990904D01*
X116014476Y-118086142D01*
X116062095Y-118133761D01*
X116157333Y-118181380D01*
X116395428Y-118181380D01*
X116490666Y-118133761D01*
X116538285Y-118086142D01*
X115681142Y-117181380D02*
X115347809Y-118181380D01*
X115014476Y-117181380D01*
X111759857Y-114244380D02*
X112236047Y-114244380D01*
X112236047Y-113244380D01*
X111426523Y-114244380D02*
X111426523Y-113577714D01*
X111426523Y-113244380D02*
X111474142Y-113292000D01*
X111426523Y-113339619D01*
X111378904Y-113292000D01*
X111426523Y-113244380D01*
X111426523Y-113339619D01*
X110521761Y-114244380D02*
X110521761Y-113244380D01*
X110521761Y-114196761D02*
X110617000Y-114244380D01*
X110807476Y-114244380D01*
X110902714Y-114196761D01*
X110950333Y-114149142D01*
X110997952Y-114053904D01*
X110997952Y-113768190D01*
X110950333Y-113672952D01*
X110902714Y-113625333D01*
X110807476Y-113577714D01*
X110617000Y-113577714D01*
X110521761Y-113625333D01*
X109617000Y-114244380D02*
X109617000Y-113720571D01*
X109664619Y-113625333D01*
X109759857Y-113577714D01*
X109950333Y-113577714D01*
X110045571Y-113625333D01*
X109617000Y-114196761D02*
X109712238Y-114244380D01*
X109950333Y-114244380D01*
X110045571Y-114196761D01*
X110093190Y-114101523D01*
X110093190Y-114006285D01*
X110045571Y-113911047D01*
X109950333Y-113863428D01*
X109712238Y-113863428D01*
X109617000Y-113815809D01*
X109140809Y-114244380D02*
X109140809Y-113577714D01*
X109140809Y-113768190D02*
X109093190Y-113672952D01*
X109045571Y-113625333D01*
X108950333Y-113577714D01*
X108855095Y-113577714D01*
D13*
X106665152Y-128596089D02*
X114285152Y-128596089D01*
D14*
X112120058Y-129119380D02*
X111453391Y-130119380D01*
X111453391Y-129119380D02*
X112120058Y-130119380D01*
X110739105Y-129595571D02*
X110596248Y-129643190D01*
X110548629Y-129690809D01*
X110501010Y-129786047D01*
X110501010Y-129928904D01*
X110548629Y-130024142D01*
X110596248Y-130071761D01*
X110691486Y-130119380D01*
X111072439Y-130119380D01*
X111072439Y-129119380D01*
X110739105Y-129119380D01*
X110643867Y-129167000D01*
X110596248Y-129214619D01*
X110548629Y-129309857D01*
X110548629Y-129405095D01*
X110596248Y-129500333D01*
X110643867Y-129547952D01*
X110739105Y-129595571D01*
X111072439Y-129595571D01*
X109691486Y-130071761D02*
X109786724Y-130119380D01*
X109977201Y-130119380D01*
X110072439Y-130071761D01*
X110120058Y-129976523D01*
X110120058Y-129595571D01*
X110072439Y-129500333D01*
X109977201Y-129452714D01*
X109786724Y-129452714D01*
X109691486Y-129500333D01*
X109643867Y-129595571D01*
X109643867Y-129690809D01*
X110120058Y-129786047D01*
X108834343Y-130071761D02*
X108929582Y-130119380D01*
X109120058Y-130119380D01*
X109215296Y-130071761D01*
X109262915Y-129976523D01*
X109262915Y-129595571D01*
X109215296Y-129500333D01*
X109120058Y-129452714D01*
X108929582Y-129452714D01*
X108834343Y-129500333D01*
X108786724Y-129595571D01*
X108786724Y-129690809D01*
X109262915Y-129786047D01*
X107180000Y-127515857D02*
X107227619Y-127611095D01*
X107227619Y-127753952D01*
X107180000Y-127896809D01*
X107084761Y-127992047D01*
X106989523Y-128039666D01*
X106799047Y-128087285D01*
X106656190Y-128087285D01*
X106465714Y-128039666D01*
X106370476Y-127992047D01*
X106275238Y-127896809D01*
X106227619Y-127753952D01*
X106227619Y-127658714D01*
X106275238Y-127515857D01*
X106322857Y-127468238D01*
X106656190Y-127468238D01*
X106656190Y-127658714D01*
X106894285Y-127039666D02*
X106227619Y-127039666D01*
X106799047Y-127039666D02*
X106846666Y-126992047D01*
X106894285Y-126896809D01*
X106894285Y-126753952D01*
X106846666Y-126658714D01*
X106751428Y-126611095D01*
X106227619Y-126611095D01*
X106227619Y-125706333D02*
X107227619Y-125706333D01*
X106275238Y-125706333D02*
X106227619Y-125801571D01*
X106227619Y-125992047D01*
X106275238Y-126087285D01*
X106322857Y-126134904D01*
X106418095Y-126182523D01*
X106703809Y-126182523D01*
X106799047Y-126134904D01*
X106846666Y-126087285D01*
X106894285Y-125992047D01*
X106894285Y-125801571D01*
X106846666Y-125706333D01*
X113847619Y-126658666D02*
X114323809Y-126992000D01*
X113847619Y-127230095D02*
X114847619Y-127230095D01*
X114847619Y-126849142D01*
X114800000Y-126753904D01*
X114752380Y-126706285D01*
X114657142Y-126658666D01*
X114514285Y-126658666D01*
X114419047Y-126706285D01*
X114371428Y-126753904D01*
X114323809Y-126849142D01*
X114323809Y-127230095D01*
X114847619Y-126325333D02*
X113847619Y-125658666D01*
X114847619Y-125658666D02*
X113847619Y-126325333D01*
X109767619Y-126682476D02*
X109767619Y-127158666D01*
X109291428Y-127206285D01*
X109339047Y-127158666D01*
X109386666Y-127063428D01*
X109386666Y-126825333D01*
X109339047Y-126730095D01*
X109291428Y-126682476D01*
X109196190Y-126634857D01*
X108958095Y-126634857D01*
X108862857Y-126682476D01*
X108815238Y-126730095D01*
X108767619Y-126825333D01*
X108767619Y-127063428D01*
X108815238Y-127158666D01*
X108862857Y-127206285D01*
X109767619Y-126349142D02*
X108767619Y-126015809D01*
X109767619Y-125682476D01*
X112307619Y-127126904D02*
X112307619Y-126555476D01*
X111307619Y-126841190D02*
X112307619Y-126841190D01*
X112307619Y-126317380D02*
X111307619Y-125650714D01*
X112307619Y-125650714D02*
X111307619Y-126317380D01*
D11*
X134620000Y-115570000D02*
X134620000Y-114681000D01*
X142240000Y-115570000D02*
X142240000Y-114554000D01*
X149860000Y-115570000D02*
X149860000Y-114791000D01*
X133985000Y-115570000D02*
X149860000Y-115570000D01*
X149923500Y-108077000D02*
X149923500Y-108966000D01*
X142303500Y-108077000D02*
X142303500Y-109093000D01*
X134683500Y-108077000D02*
X134683500Y-108856000D01*
X149923500Y-108077000D02*
X134048500Y-108077000D01*
D14*
X132778476Y-107402380D02*
X133254666Y-107402380D01*
X133302285Y-107878571D01*
X133254666Y-107830952D01*
X133159428Y-107783333D01*
X132921333Y-107783333D01*
X132826095Y-107830952D01*
X132778476Y-107878571D01*
X132730857Y-107973809D01*
X132730857Y-108211904D01*
X132778476Y-108307142D01*
X132826095Y-108354761D01*
X132921333Y-108402380D01*
X133159428Y-108402380D01*
X133254666Y-108354761D01*
X133302285Y-108307142D01*
X132445142Y-107402380D02*
X132111809Y-108402380D01*
X131778476Y-107402380D01*
X132849857Y-115197000D02*
X132945095Y-115149380D01*
X133087952Y-115149380D01*
X133230809Y-115197000D01*
X133326047Y-115292238D01*
X133373666Y-115387476D01*
X133421285Y-115577952D01*
X133421285Y-115720809D01*
X133373666Y-115911285D01*
X133326047Y-116006523D01*
X133230809Y-116101761D01*
X133087952Y-116149380D01*
X132992714Y-116149380D01*
X132849857Y-116101761D01*
X132802238Y-116054142D01*
X132802238Y-115720809D01*
X132992714Y-115720809D01*
X132373666Y-115482714D02*
X132373666Y-116149380D01*
X132373666Y-115577952D02*
X132326047Y-115530333D01*
X132230809Y-115482714D01*
X132087952Y-115482714D01*
X131992714Y-115530333D01*
X131945095Y-115625571D01*
X131945095Y-116149380D01*
X131040333Y-116149380D02*
X131040333Y-115149380D01*
X131040333Y-116101761D02*
X131135571Y-116149380D01*
X131326047Y-116149380D01*
X131421285Y-116101761D01*
X131468904Y-116054142D01*
X131516523Y-115958904D01*
X131516523Y-115673190D01*
X131468904Y-115577952D01*
X131421285Y-115530333D01*
X131326047Y-115482714D01*
X131135571Y-115482714D01*
X131040333Y-115530333D01*
X125261619Y-120022857D02*
X125261619Y-120499047D01*
X124785428Y-120546666D01*
X124833047Y-120499047D01*
X124880666Y-120403809D01*
X124880666Y-120165714D01*
X124833047Y-120070476D01*
X124785428Y-120022857D01*
X124690190Y-119975238D01*
X124452095Y-119975238D01*
X124356857Y-120022857D01*
X124309238Y-120070476D01*
X124261619Y-120165714D01*
X124261619Y-120403809D01*
X124309238Y-120499047D01*
X124356857Y-120546666D01*
X125261619Y-119689523D02*
X124261619Y-119356190D01*
X125261619Y-119022857D01*
X124928285Y-118689523D02*
X123928285Y-118689523D01*
X124880666Y-118689523D02*
X124928285Y-118594285D01*
X124928285Y-118403809D01*
X124880666Y-118308571D01*
X124833047Y-118260952D01*
X124737809Y-118213333D01*
X124452095Y-118213333D01*
X124356857Y-118260952D01*
X124309238Y-118308571D01*
X124261619Y-118403809D01*
X124261619Y-118594285D01*
X124309238Y-118689523D01*
X121594619Y-120546666D02*
X122594619Y-120546666D01*
X121594619Y-119975238D01*
X122594619Y-119975238D01*
X121642238Y-119118095D02*
X121594619Y-119213333D01*
X121594619Y-119403809D01*
X121642238Y-119499047D01*
X121737476Y-119546666D01*
X122118428Y-119546666D01*
X122213666Y-119499047D01*
X122261285Y-119403809D01*
X122261285Y-119213333D01*
X122213666Y-119118095D01*
X122118428Y-119070476D01*
X122023190Y-119070476D01*
X121927952Y-119546666D01*
X121594619Y-118499047D02*
X121642238Y-118594285D01*
X121689857Y-118641904D01*
X121785095Y-118689523D01*
X122070809Y-118689523D01*
X122166047Y-118641904D01*
X122213666Y-118594285D01*
X122261285Y-118499047D01*
X122261285Y-118356190D01*
X122213666Y-118260952D01*
X122166047Y-118213333D01*
X122070809Y-118165714D01*
X121785095Y-118165714D01*
X121689857Y-118213333D01*
X121642238Y-118260952D01*
X121594619Y-118356190D01*
X121594619Y-118499047D01*
X127754000Y-120022857D02*
X127801619Y-120118095D01*
X127801619Y-120260952D01*
X127754000Y-120403809D01*
X127658761Y-120499047D01*
X127563523Y-120546666D01*
X127373047Y-120594285D01*
X127230190Y-120594285D01*
X127039714Y-120546666D01*
X126944476Y-120499047D01*
X126849238Y-120403809D01*
X126801619Y-120260952D01*
X126801619Y-120165714D01*
X126849238Y-120022857D01*
X126896857Y-119975238D01*
X127230190Y-119975238D01*
X127230190Y-120165714D01*
X127468285Y-119546666D02*
X126801619Y-119546666D01*
X127373047Y-119546666D02*
X127420666Y-119499047D01*
X127468285Y-119403809D01*
X127468285Y-119260952D01*
X127420666Y-119165714D01*
X127325428Y-119118095D01*
X126801619Y-119118095D01*
X126801619Y-118213333D02*
X127801619Y-118213333D01*
X126849238Y-118213333D02*
X126801619Y-118308571D01*
X126801619Y-118499047D01*
X126849238Y-118594285D01*
X126896857Y-118641904D01*
X126992095Y-118689523D01*
X127277809Y-118689523D01*
X127373047Y-118641904D01*
X127420666Y-118594285D01*
X127468285Y-118499047D01*
X127468285Y-118308571D01*
X127420666Y-118213333D01*
D11*
X127127000Y-102870000D02*
X126492000Y-102870000D01*
X127127000Y-109220000D02*
X126552000Y-109220000D01*
X127127000Y-106680000D02*
X126552000Y-106680000D01*
X127127000Y-109220000D02*
X127127000Y-102870000D01*
D10*
X128264000Y-108432142D02*
X128299714Y-108503571D01*
X128299714Y-108610714D01*
X128264000Y-108717857D01*
X128192571Y-108789285D01*
X128121142Y-108825000D01*
X127978285Y-108860714D01*
X127871142Y-108860714D01*
X127728285Y-108825000D01*
X127656857Y-108789285D01*
X127585428Y-108717857D01*
X127549714Y-108610714D01*
X127549714Y-108539285D01*
X127585428Y-108432142D01*
X127621142Y-108396428D01*
X127871142Y-108396428D01*
X127871142Y-108539285D01*
X128049714Y-108075000D02*
X127549714Y-108075000D01*
X127978285Y-108075000D02*
X128014000Y-108039285D01*
X128049714Y-107967857D01*
X128049714Y-107860714D01*
X128014000Y-107789285D01*
X127942571Y-107753571D01*
X127549714Y-107753571D01*
X127549714Y-107075000D02*
X128299714Y-107075000D01*
X127585428Y-107075000D02*
X127549714Y-107146428D01*
X127549714Y-107289285D01*
X127585428Y-107360714D01*
X127621142Y-107396428D01*
X127692571Y-107432142D01*
X127906857Y-107432142D01*
X127978285Y-107396428D01*
X128014000Y-107360714D01*
X128049714Y-107289285D01*
X128049714Y-107146428D01*
X128014000Y-107075000D01*
D11*
X127635000Y-100584000D02*
X127635000Y-99628000D01*
X128016000Y-100584000D02*
X127635000Y-100584000D01*
X125095000Y-100584000D02*
X125095000Y-99628000D01*
X124714000Y-100584000D02*
X125095000Y-100584000D01*
D10*
X124372571Y-100173285D02*
X123908285Y-100173285D01*
X124158285Y-100459000D01*
X124051142Y-100459000D01*
X123979714Y-100494714D01*
X123944000Y-100530428D01*
X123908285Y-100601857D01*
X123908285Y-100780428D01*
X123944000Y-100851857D01*
X123979714Y-100887571D01*
X124051142Y-100923285D01*
X124265428Y-100923285D01*
X124336857Y-100887571D01*
X124372571Y-100851857D01*
X123694000Y-100173285D02*
X123444000Y-100923285D01*
X123194000Y-100173285D01*
X123015428Y-100173285D02*
X122551142Y-100173285D01*
X122801142Y-100459000D01*
X122694000Y-100459000D01*
X122622571Y-100494714D01*
X122586857Y-100530428D01*
X122551142Y-100601857D01*
X122551142Y-100780428D01*
X122586857Y-100851857D01*
X122622571Y-100887571D01*
X122694000Y-100923285D01*
X122908285Y-100923285D01*
X122979714Y-100887571D01*
X123015428Y-100851857D01*
X129768142Y-100209000D02*
X129839571Y-100173285D01*
X129946714Y-100173285D01*
X130053857Y-100209000D01*
X130125285Y-100280428D01*
X130161000Y-100351857D01*
X130196714Y-100494714D01*
X130196714Y-100601857D01*
X130161000Y-100744714D01*
X130125285Y-100816142D01*
X130053857Y-100887571D01*
X129946714Y-100923285D01*
X129875285Y-100923285D01*
X129768142Y-100887571D01*
X129732428Y-100851857D01*
X129732428Y-100601857D01*
X129875285Y-100601857D01*
X129411000Y-100423285D02*
X129411000Y-100923285D01*
X129411000Y-100494714D02*
X129375285Y-100459000D01*
X129303857Y-100423285D01*
X129196714Y-100423285D01*
X129125285Y-100459000D01*
X129089571Y-100530428D01*
X129089571Y-100923285D01*
X128411000Y-100923285D02*
X128411000Y-100173285D01*
X128411000Y-100887571D02*
X128482428Y-100923285D01*
X128625285Y-100923285D01*
X128696714Y-100887571D01*
X128732428Y-100851857D01*
X128768142Y-100780428D01*
X128768142Y-100566142D01*
X128732428Y-100494714D01*
X128696714Y-100459000D01*
X128625285Y-100423285D01*
X128482428Y-100423285D01*
X128411000Y-100459000D01*
D14*
X122023238Y-83814749D02*
X121975619Y-83671892D01*
X121975619Y-83433796D01*
X122023238Y-83338558D01*
X122070857Y-83290939D01*
X122166095Y-83243320D01*
X122261333Y-83243320D01*
X122356571Y-83290939D01*
X122404190Y-83338558D01*
X122451809Y-83433796D01*
X122499428Y-83624273D01*
X122547047Y-83719511D01*
X122594666Y-83767130D01*
X122689904Y-83814749D01*
X122785142Y-83814749D01*
X122880380Y-83767130D01*
X122928000Y-83719511D01*
X122975619Y-83624273D01*
X122975619Y-83386177D01*
X122928000Y-83243320D01*
X122070857Y-82243320D02*
X122023238Y-82290939D01*
X121975619Y-82433796D01*
X121975619Y-82529034D01*
X122023238Y-82671892D01*
X122118476Y-82767130D01*
X122213714Y-82814749D01*
X122404190Y-82862368D01*
X122547047Y-82862368D01*
X122737523Y-82814749D01*
X122832761Y-82767130D01*
X122928000Y-82671892D01*
X122975619Y-82529034D01*
X122975619Y-82433796D01*
X122928000Y-82290939D01*
X122880380Y-82243320D01*
X121975619Y-81338558D02*
X121975619Y-81814749D01*
X122975619Y-81814749D01*
X130548000Y-83192857D02*
X130595619Y-83288095D01*
X130595619Y-83430952D01*
X130548000Y-83573809D01*
X130452761Y-83669047D01*
X130357523Y-83716666D01*
X130167047Y-83764285D01*
X130024190Y-83764285D01*
X129833714Y-83716666D01*
X129738476Y-83669047D01*
X129643238Y-83573809D01*
X129595619Y-83430952D01*
X129595619Y-83335714D01*
X129643238Y-83192857D01*
X129690857Y-83145238D01*
X130024190Y-83145238D01*
X130024190Y-83335714D01*
X130262285Y-82716666D02*
X129595619Y-82716666D01*
X130167047Y-82716666D02*
X130214666Y-82669047D01*
X130262285Y-82573809D01*
X130262285Y-82430952D01*
X130214666Y-82335714D01*
X130119428Y-82288095D01*
X129595619Y-82288095D01*
X129595619Y-81383333D02*
X130595619Y-81383333D01*
X129643238Y-81383333D02*
X129595619Y-81478571D01*
X129595619Y-81669047D01*
X129643238Y-81764285D01*
X129690857Y-81811904D01*
X129786095Y-81859523D01*
X130071809Y-81859523D01*
X130167047Y-81811904D01*
X130214666Y-81764285D01*
X130262285Y-81669047D01*
X130262285Y-81478571D01*
X130214666Y-81383333D01*
X127928619Y-83248476D02*
X127928619Y-83724666D01*
X127452428Y-83772285D01*
X127500047Y-83724666D01*
X127547666Y-83629428D01*
X127547666Y-83391333D01*
X127500047Y-83296095D01*
X127452428Y-83248476D01*
X127357190Y-83200857D01*
X127119095Y-83200857D01*
X127023857Y-83248476D01*
X126976238Y-83296095D01*
X126928619Y-83391333D01*
X126928619Y-83629428D01*
X126976238Y-83724666D01*
X127023857Y-83772285D01*
X127928619Y-82915142D02*
X126928619Y-82581809D01*
X127928619Y-82248476D01*
X124563238Y-83764285D02*
X124515619Y-83621428D01*
X124515619Y-83383333D01*
X124563238Y-83288095D01*
X124610857Y-83240476D01*
X124706095Y-83192857D01*
X124801333Y-83192857D01*
X124896571Y-83240476D01*
X124944190Y-83288095D01*
X124991809Y-83383333D01*
X125039428Y-83573809D01*
X125087047Y-83669047D01*
X125134666Y-83716666D01*
X125229904Y-83764285D01*
X125325142Y-83764285D01*
X125420380Y-83716666D01*
X125468000Y-83669047D01*
X125515619Y-83573809D01*
X125515619Y-83335714D01*
X125468000Y-83192857D01*
X124515619Y-82764285D02*
X125515619Y-82764285D01*
X125515619Y-82526190D01*
X125468000Y-82383333D01*
X125372761Y-82288095D01*
X125277523Y-82240476D01*
X125087047Y-82192857D01*
X124944190Y-82192857D01*
X124753714Y-82240476D01*
X124658476Y-82288095D01*
X124563238Y-82383333D01*
X124515619Y-82526190D01*
X124515619Y-82764285D01*
X124801333Y-81811904D02*
X124801333Y-81335714D01*
X124515619Y-81907142D02*
X125515619Y-81573809D01*
X124515619Y-81240476D01*
D13*
X90104406Y-69850000D02*
X90104406Y-70485000D01*
X87564406Y-69850000D02*
X87564406Y-70485000D01*
D10*
X90525142Y-70836285D02*
X90882285Y-70836285D01*
X90918000Y-71193428D01*
X90882285Y-71157714D01*
X90810857Y-71122000D01*
X90632285Y-71122000D01*
X90560857Y-71157714D01*
X90525142Y-71193428D01*
X90489428Y-71264857D01*
X90489428Y-71443428D01*
X90525142Y-71514857D01*
X90560857Y-71550571D01*
X90632285Y-71586285D01*
X90810857Y-71586285D01*
X90882285Y-71550571D01*
X90918000Y-71514857D01*
X90275142Y-70836285D02*
X90025142Y-71586285D01*
X89775142Y-70836285D01*
X89525142Y-71086285D02*
X89525142Y-71836285D01*
X89525142Y-71122000D02*
X89453714Y-71086285D01*
X89310857Y-71086285D01*
X89239428Y-71122000D01*
X89203714Y-71157714D01*
X89168000Y-71229142D01*
X89168000Y-71443428D01*
X89203714Y-71514857D01*
X89239428Y-71550571D01*
X89310857Y-71586285D01*
X89453714Y-71586285D01*
X89525142Y-71550571D01*
X87985142Y-70872000D02*
X88056571Y-70836285D01*
X88163714Y-70836285D01*
X88270857Y-70872000D01*
X88342285Y-70943428D01*
X88378000Y-71014857D01*
X88413714Y-71157714D01*
X88413714Y-71264857D01*
X88378000Y-71407714D01*
X88342285Y-71479142D01*
X88270857Y-71550571D01*
X88163714Y-71586285D01*
X88092285Y-71586285D01*
X87985142Y-71550571D01*
X87949428Y-71514857D01*
X87949428Y-71264857D01*
X88092285Y-71264857D01*
X87628000Y-71086285D02*
X87628000Y-71586285D01*
X87628000Y-71157714D02*
X87592285Y-71122000D01*
X87520857Y-71086285D01*
X87413714Y-71086285D01*
X87342285Y-71122000D01*
X87306571Y-71193428D01*
X87306571Y-71586285D01*
X86628000Y-71586285D02*
X86628000Y-70836285D01*
X86628000Y-71550571D02*
X86699428Y-71586285D01*
X86842285Y-71586285D01*
X86913714Y-71550571D01*
X86949428Y-71514857D01*
X86985142Y-71443428D01*
X86985142Y-71229142D01*
X86949428Y-71157714D01*
X86913714Y-71122000D01*
X86842285Y-71086285D01*
X86699428Y-71086285D01*
X86628000Y-71122000D01*
D13*
X90170000Y-82486500D02*
X90170000Y-83121500D01*
X87630000Y-82486500D02*
X87630000Y-83121500D01*
D10*
X90590736Y-83472785D02*
X90947879Y-83472785D01*
X90983594Y-83829928D01*
X90947879Y-83794214D01*
X90876451Y-83758500D01*
X90697879Y-83758500D01*
X90626451Y-83794214D01*
X90590736Y-83829928D01*
X90555022Y-83901357D01*
X90555022Y-84079928D01*
X90590736Y-84151357D01*
X90626451Y-84187071D01*
X90697879Y-84222785D01*
X90876451Y-84222785D01*
X90947879Y-84187071D01*
X90983594Y-84151357D01*
X90340736Y-83472785D02*
X90090736Y-84222785D01*
X89840736Y-83472785D01*
X89590736Y-83722785D02*
X89590736Y-84472785D01*
X89590736Y-83758500D02*
X89519308Y-83722785D01*
X89376451Y-83722785D01*
X89305022Y-83758500D01*
X89269308Y-83794214D01*
X89233594Y-83865642D01*
X89233594Y-84079928D01*
X89269308Y-84151357D01*
X89305022Y-84187071D01*
X89376451Y-84222785D01*
X89519308Y-84222785D01*
X89590736Y-84187071D01*
X88050736Y-83508500D02*
X88122165Y-83472785D01*
X88229308Y-83472785D01*
X88336451Y-83508500D01*
X88407879Y-83579928D01*
X88443594Y-83651357D01*
X88479308Y-83794214D01*
X88479308Y-83901357D01*
X88443594Y-84044214D01*
X88407879Y-84115642D01*
X88336451Y-84187071D01*
X88229308Y-84222785D01*
X88157879Y-84222785D01*
X88050736Y-84187071D01*
X88015022Y-84151357D01*
X88015022Y-83901357D01*
X88157879Y-83901357D01*
X87693594Y-83722785D02*
X87693594Y-84222785D01*
X87693594Y-83794214D02*
X87657879Y-83758500D01*
X87586451Y-83722785D01*
X87479308Y-83722785D01*
X87407879Y-83758500D01*
X87372165Y-83829928D01*
X87372165Y-84222785D01*
X86693594Y-84222785D02*
X86693594Y-83472785D01*
X86693594Y-84187071D02*
X86765022Y-84222785D01*
X86907879Y-84222785D01*
X86979308Y-84187071D01*
X87015022Y-84151357D01*
X87050736Y-84079928D01*
X87050736Y-83865642D01*
X87015022Y-83794214D01*
X86979308Y-83758500D01*
X86907879Y-83722785D01*
X86765022Y-83722785D01*
X86693594Y-83758500D01*
X88112142Y-114052000D02*
X88183571Y-114016285D01*
X88290714Y-114016285D01*
X88397857Y-114052000D01*
X88469285Y-114123428D01*
X88505000Y-114194857D01*
X88540714Y-114337714D01*
X88540714Y-114444857D01*
X88505000Y-114587714D01*
X88469285Y-114659142D01*
X88397857Y-114730571D01*
X88290714Y-114766285D01*
X88219285Y-114766285D01*
X88112142Y-114730571D01*
X88076428Y-114694857D01*
X88076428Y-114444857D01*
X88219285Y-114444857D01*
X87755000Y-114266285D02*
X87755000Y-114766285D01*
X87755000Y-114337714D02*
X87719285Y-114302000D01*
X87647857Y-114266285D01*
X87540714Y-114266285D01*
X87469285Y-114302000D01*
X87433571Y-114373428D01*
X87433571Y-114766285D01*
X86755000Y-114766285D02*
X86755000Y-114016285D01*
X86755000Y-114730571D02*
X86826428Y-114766285D01*
X86969285Y-114766285D01*
X87040714Y-114730571D01*
X87076428Y-114694857D01*
X87112142Y-114623428D01*
X87112142Y-114409142D01*
X87076428Y-114337714D01*
X87040714Y-114302000D01*
X86969285Y-114266285D01*
X86826428Y-114266285D01*
X86755000Y-114302000D01*
X90652142Y-114016285D02*
X91009285Y-114016285D01*
X91045000Y-114373428D01*
X91009285Y-114337714D01*
X90937857Y-114302000D01*
X90759285Y-114302000D01*
X90687857Y-114337714D01*
X90652142Y-114373428D01*
X90616428Y-114444857D01*
X90616428Y-114623428D01*
X90652142Y-114694857D01*
X90687857Y-114730571D01*
X90759285Y-114766285D01*
X90937857Y-114766285D01*
X91009285Y-114730571D01*
X91045000Y-114694857D01*
X90402142Y-114016285D02*
X90152142Y-114766285D01*
X89902142Y-114016285D01*
X89652142Y-114266285D02*
X89652142Y-115016285D01*
X89652142Y-114302000D02*
X89580714Y-114266285D01*
X89437857Y-114266285D01*
X89366428Y-114302000D01*
X89330714Y-114337714D01*
X89295000Y-114409142D01*
X89295000Y-114623428D01*
X89330714Y-114694857D01*
X89366428Y-114730571D01*
X89437857Y-114766285D01*
X89580714Y-114766285D01*
X89652142Y-114730571D01*
D13*
X90231406Y-113030000D02*
X90231406Y-113665000D01*
X87691406Y-113030000D02*
X87691406Y-113665000D01*
D15*
X120542809Y-107810952D02*
X120542809Y-107525238D01*
X120042809Y-107668095D02*
X120542809Y-107668095D01*
X120042809Y-107358571D02*
X120376142Y-107358571D01*
X120542809Y-107358571D02*
X120519000Y-107382380D01*
X120495190Y-107358571D01*
X120519000Y-107334761D01*
X120542809Y-107358571D01*
X120495190Y-107358571D01*
X120042809Y-107120476D02*
X120376142Y-107120476D01*
X120280904Y-107120476D02*
X120328523Y-107096666D01*
X120352333Y-107072857D01*
X120376142Y-107025238D01*
X120376142Y-106977619D01*
X120066619Y-106620476D02*
X120042809Y-106668095D01*
X120042809Y-106763333D01*
X120066619Y-106810952D01*
X120114238Y-106834761D01*
X120304714Y-106834761D01*
X120352333Y-106810952D01*
X120376142Y-106763333D01*
X120376142Y-106668095D01*
X120352333Y-106620476D01*
X120304714Y-106596666D01*
X120257095Y-106596666D01*
X120209476Y-106834761D01*
X120376142Y-106453809D02*
X120376142Y-106263333D01*
X120542809Y-106382380D02*
X120114238Y-106382380D01*
X120066619Y-106358571D01*
X120042809Y-106310952D01*
X120042809Y-106263333D01*
X120376142Y-106168095D02*
X120376142Y-105977619D01*
X120542809Y-106096666D02*
X120114238Y-106096666D01*
X120066619Y-106072857D01*
X120042809Y-106025238D01*
X120042809Y-105977619D01*
X120066619Y-105620476D02*
X120042809Y-105668095D01*
X120042809Y-105763333D01*
X120066619Y-105810952D01*
X120114238Y-105834761D01*
X120304714Y-105834761D01*
X120352333Y-105810952D01*
X120376142Y-105763333D01*
X120376142Y-105668095D01*
X120352333Y-105620476D01*
X120304714Y-105596666D01*
X120257095Y-105596666D01*
X120209476Y-105834761D01*
X120042809Y-109708095D02*
X120542809Y-109708095D01*
X120376142Y-109470000D02*
X120042809Y-109470000D01*
X120328523Y-109470000D02*
X120352333Y-109446190D01*
X120376142Y-109398571D01*
X120376142Y-109327142D01*
X120352333Y-109279523D01*
X120304714Y-109255714D01*
X120042809Y-109255714D01*
X120042809Y-109017619D02*
X120376142Y-109017619D01*
X120542809Y-109017619D02*
X120519000Y-109041428D01*
X120495190Y-109017619D01*
X120519000Y-108993809D01*
X120542809Y-109017619D01*
X120495190Y-109017619D01*
X120376142Y-108850952D02*
X120376142Y-108660476D01*
X120542809Y-108779523D02*
X120114238Y-108779523D01*
X120066619Y-108755714D01*
X120042809Y-108708095D01*
X120042809Y-108660476D01*
X120042809Y-103536666D02*
X120280904Y-103703333D01*
X120042809Y-103822380D02*
X120542809Y-103822380D01*
X120542809Y-103631904D01*
X120519000Y-103584285D01*
X120495190Y-103560476D01*
X120447571Y-103536666D01*
X120376142Y-103536666D01*
X120328523Y-103560476D01*
X120304714Y-103584285D01*
X120280904Y-103631904D01*
X120280904Y-103822380D01*
X120042809Y-103250952D02*
X120066619Y-103298571D01*
X120090428Y-103322380D01*
X120138047Y-103346190D01*
X120280904Y-103346190D01*
X120328523Y-103322380D01*
X120352333Y-103298571D01*
X120376142Y-103250952D01*
X120376142Y-103179523D01*
X120352333Y-103131904D01*
X120328523Y-103108095D01*
X120280904Y-103084285D01*
X120138047Y-103084285D01*
X120090428Y-103108095D01*
X120066619Y-103131904D01*
X120042809Y-103179523D01*
X120042809Y-103250952D01*
X120042809Y-102870000D02*
X120542809Y-102870000D01*
X120352333Y-102870000D02*
X120376142Y-102822380D01*
X120376142Y-102727142D01*
X120352333Y-102679523D01*
X120328523Y-102655714D01*
X120280904Y-102631904D01*
X120138047Y-102631904D01*
X120090428Y-102655714D01*
X120066619Y-102679523D01*
X120042809Y-102727142D01*
X120042809Y-102822380D01*
X120066619Y-102870000D01*
X120042809Y-102346190D02*
X120066619Y-102393809D01*
X120090428Y-102417619D01*
X120138047Y-102441428D01*
X120280904Y-102441428D01*
X120328523Y-102417619D01*
X120352333Y-102393809D01*
X120376142Y-102346190D01*
X120376142Y-102274761D01*
X120352333Y-102227142D01*
X120328523Y-102203333D01*
X120280904Y-102179523D01*
X120138047Y-102179523D01*
X120090428Y-102203333D01*
X120066619Y-102227142D01*
X120042809Y-102274761D01*
X120042809Y-102346190D01*
X120376142Y-102036666D02*
X120376142Y-101846190D01*
X120542809Y-101965238D02*
X120114238Y-101965238D01*
X120066619Y-101941428D01*
X120042809Y-101893809D01*
X120042809Y-101846190D01*
D13*
X121412000Y-121158000D02*
X128016000Y-121158000D01*
D14*
X127714000Y-122626380D02*
X127714000Y-121626380D01*
X127142571Y-122626380D01*
X127142571Y-121626380D01*
X126285428Y-122578761D02*
X126380666Y-122626380D01*
X126571142Y-122626380D01*
X126666380Y-122578761D01*
X126714000Y-122483523D01*
X126714000Y-122102571D01*
X126666380Y-122007333D01*
X126571142Y-121959714D01*
X126380666Y-121959714D01*
X126285428Y-122007333D01*
X126237809Y-122102571D01*
X126237809Y-122197809D01*
X126714000Y-122293047D01*
X125666380Y-122626380D02*
X125761619Y-122578761D01*
X125809238Y-122531142D01*
X125856857Y-122435904D01*
X125856857Y-122150190D01*
X125809238Y-122054952D01*
X125761619Y-122007333D01*
X125666380Y-121959714D01*
X125523523Y-121959714D01*
X125428285Y-122007333D01*
X125380666Y-122054952D01*
X125333047Y-122150190D01*
X125333047Y-122435904D01*
X125380666Y-122531142D01*
X125428285Y-122578761D01*
X125523523Y-122626380D01*
X125666380Y-122626380D01*
X124904476Y-122626380D02*
X124904476Y-121626380D01*
X124523523Y-121626380D01*
X124428285Y-121674000D01*
X124380666Y-121721619D01*
X124333047Y-121816857D01*
X124333047Y-121959714D01*
X124380666Y-122054952D01*
X124428285Y-122102571D01*
X124523523Y-122150190D01*
X124904476Y-122150190D01*
X123904476Y-122626380D02*
X123904476Y-121959714D01*
X123904476Y-121626380D02*
X123952095Y-121674000D01*
X123904476Y-121721619D01*
X123856857Y-121674000D01*
X123904476Y-121626380D01*
X123904476Y-121721619D01*
X123523523Y-122626380D02*
X122999714Y-121959714D01*
X123523523Y-121959714D02*
X122999714Y-122626380D01*
X122237809Y-122578761D02*
X122333047Y-122626380D01*
X122523523Y-122626380D01*
X122618761Y-122578761D01*
X122666380Y-122483523D01*
X122666380Y-122102571D01*
X122618761Y-122007333D01*
X122523523Y-121959714D01*
X122333047Y-121959714D01*
X122237809Y-122007333D01*
X122190190Y-122102571D01*
X122190190Y-122197809D01*
X122666380Y-122293047D01*
X121618761Y-122626380D02*
X121714000Y-122578761D01*
X121761619Y-122483523D01*
X121761619Y-121626380D01*
X127123050Y-92781380D02*
X127123050Y-91781380D01*
X126694479Y-91876619D02*
X126646860Y-91829000D01*
X126551621Y-91781380D01*
X126313526Y-91781380D01*
X126218288Y-91829000D01*
X126170669Y-91876619D01*
X126123050Y-91971857D01*
X126123050Y-92067095D01*
X126170669Y-92209952D01*
X126742098Y-92781380D01*
X126123050Y-92781380D01*
X125123050Y-92686142D02*
X125170669Y-92733761D01*
X125313526Y-92781380D01*
X125408764Y-92781380D01*
X125551621Y-92733761D01*
X125646860Y-92638523D01*
X125694479Y-92543285D01*
X125742098Y-92352809D01*
X125742098Y-92209952D01*
X125694479Y-92019476D01*
X125646860Y-91924238D01*
X125551621Y-91829000D01*
X125408764Y-91781380D01*
X125313526Y-91781380D01*
X125170669Y-91829000D01*
X125123050Y-91876619D01*
D13*
X122382430Y-91258089D02*
X130002430Y-91258089D01*
D10*
X120429142Y-47539714D02*
X120393428Y-47504000D01*
X120322000Y-47468285D01*
X120143428Y-47468285D01*
X120072000Y-47504000D01*
X120036285Y-47539714D01*
X120000571Y-47611142D01*
X120000571Y-47682571D01*
X120036285Y-47789714D01*
X120464857Y-48218285D01*
X120000571Y-48218285D01*
X119357714Y-47718285D02*
X119357714Y-48218285D01*
X119536285Y-47432571D02*
X119714857Y-47968285D01*
X119250571Y-47968285D01*
X119072000Y-47468285D02*
X118822000Y-48218285D01*
X118572000Y-47468285D01*
X120000571Y-52584000D02*
X120072000Y-52548285D01*
X120179142Y-52548285D01*
X120286285Y-52584000D01*
X120357714Y-52655428D01*
X120393428Y-52726857D01*
X120429142Y-52869714D01*
X120429142Y-52976857D01*
X120393428Y-53119714D01*
X120357714Y-53191142D01*
X120286285Y-53262571D01*
X120179142Y-53298285D01*
X120107714Y-53298285D01*
X120000571Y-53262571D01*
X119964857Y-53226857D01*
X119964857Y-52976857D01*
X120107714Y-52976857D01*
X119643428Y-52798285D02*
X119643428Y-53298285D01*
X119643428Y-52869714D02*
X119607714Y-52834000D01*
X119536285Y-52798285D01*
X119429142Y-52798285D01*
X119357714Y-52834000D01*
X119322000Y-52905428D01*
X119322000Y-53298285D01*
X118643428Y-53298285D02*
X118643428Y-52548285D01*
X118643428Y-53262571D02*
X118714857Y-53298285D01*
X118857714Y-53298285D01*
X118929142Y-53262571D01*
X118964857Y-53226857D01*
X119000571Y-53155428D01*
X119000571Y-52941142D01*
X118964857Y-52869714D01*
X118929142Y-52834000D01*
X118857714Y-52798285D01*
X118714857Y-52798285D01*
X118643428Y-52834000D01*
X120036285Y-50008285D02*
X120393428Y-50008285D01*
X120429142Y-50365428D01*
X120393428Y-50329714D01*
X120322000Y-50294000D01*
X120143428Y-50294000D01*
X120072000Y-50329714D01*
X120036285Y-50365428D01*
X120000571Y-50436857D01*
X120000571Y-50615428D01*
X120036285Y-50686857D01*
X120072000Y-50722571D01*
X120143428Y-50758285D01*
X120322000Y-50758285D01*
X120393428Y-50722571D01*
X120429142Y-50686857D01*
X119786285Y-50008285D02*
X119536285Y-50758285D01*
X119286285Y-50008285D01*
D11*
X121412000Y-58039000D02*
X120904000Y-58039000D01*
X121412000Y-55499000D02*
X120904000Y-55499000D01*
D10*
X120195571Y-55877428D02*
X120195571Y-55627428D01*
X119802714Y-55520285D02*
X119802714Y-55877428D01*
X120552714Y-55877428D01*
X120552714Y-55520285D01*
X120302714Y-55198857D02*
X119802714Y-55198857D01*
X120231285Y-55198857D02*
X120267000Y-55163142D01*
X120302714Y-55091714D01*
X120302714Y-54984571D01*
X120267000Y-54913142D01*
X120195571Y-54877428D01*
X119802714Y-54877428D01*
X119802714Y-61211428D02*
X120552714Y-61211428D01*
X120552714Y-61032857D01*
X120517000Y-60925714D01*
X120445571Y-60854285D01*
X120374142Y-60818571D01*
X120231285Y-60782857D01*
X120124142Y-60782857D01*
X119981285Y-60818571D01*
X119909857Y-60854285D01*
X119838428Y-60925714D01*
X119802714Y-61032857D01*
X119802714Y-61211428D01*
X119802714Y-60461428D02*
X120302714Y-60461428D01*
X120552714Y-60461428D02*
X120517000Y-60497142D01*
X120481285Y-60461428D01*
X120517000Y-60425714D01*
X120552714Y-60461428D01*
X120481285Y-60461428D01*
X119802714Y-60104285D02*
X120302714Y-60104285D01*
X120159857Y-60104285D02*
X120231285Y-60068571D01*
X120267000Y-60032857D01*
X120302714Y-59961428D01*
X120302714Y-59890000D01*
X119838428Y-58961142D02*
X119802714Y-58854000D01*
X119802714Y-58675428D01*
X119838428Y-58604000D01*
X119874142Y-58568285D01*
X119945571Y-58532571D01*
X120017000Y-58532571D01*
X120088428Y-58568285D01*
X120124142Y-58604000D01*
X120159857Y-58675428D01*
X120195571Y-58818285D01*
X120231285Y-58889714D01*
X120267000Y-58925428D01*
X120338428Y-58961142D01*
X120409857Y-58961142D01*
X120481285Y-58925428D01*
X120517000Y-58889714D01*
X120552714Y-58818285D01*
X120552714Y-58639714D01*
X120517000Y-58532571D01*
X120302714Y-58318285D02*
X120302714Y-58032571D01*
X120552714Y-58211142D02*
X119909857Y-58211142D01*
X119838428Y-58175428D01*
X119802714Y-58104000D01*
X119802714Y-58032571D01*
X119838428Y-57496857D02*
X119802714Y-57568285D01*
X119802714Y-57711142D01*
X119838428Y-57782571D01*
X119909857Y-57818285D01*
X120195571Y-57818285D01*
X120267000Y-57782571D01*
X120302714Y-57711142D01*
X120302714Y-57568285D01*
X120267000Y-57496857D01*
X120195571Y-57461142D01*
X120124142Y-57461142D01*
X120052714Y-57818285D01*
X120302714Y-57139714D02*
X119552714Y-57139714D01*
X120267000Y-57139714D02*
X120302714Y-57068285D01*
X120302714Y-56925428D01*
X120267000Y-56854000D01*
X120231285Y-56818285D01*
X120159857Y-56782571D01*
X119945571Y-56782571D01*
X119874142Y-56818285D01*
X119838428Y-56854000D01*
X119802714Y-56925428D01*
X119802714Y-57068285D01*
X119838428Y-57139714D01*
D11*
X121450000Y-60540000D02*
X120942000Y-60540000D01*
X129667000Y-58039000D02*
X129159000Y-58039000D01*
X129667000Y-55499000D02*
X129159000Y-55499000D01*
D10*
X128450571Y-55877428D02*
X128450571Y-55627428D01*
X128057714Y-55520285D02*
X128057714Y-55877428D01*
X128807714Y-55877428D01*
X128807714Y-55520285D01*
X128557714Y-55198857D02*
X128057714Y-55198857D01*
X128486285Y-55198857D02*
X128522000Y-55163142D01*
X128557714Y-55091714D01*
X128557714Y-54984571D01*
X128522000Y-54913142D01*
X128450571Y-54877428D01*
X128057714Y-54877428D01*
X128057714Y-61211428D02*
X128807714Y-61211428D01*
X128807714Y-61032857D01*
X128772000Y-60925714D01*
X128700571Y-60854285D01*
X128629142Y-60818571D01*
X128486285Y-60782857D01*
X128379142Y-60782857D01*
X128236285Y-60818571D01*
X128164857Y-60854285D01*
X128093428Y-60925714D01*
X128057714Y-61032857D01*
X128057714Y-61211428D01*
X128057714Y-60461428D02*
X128557714Y-60461428D01*
X128807714Y-60461428D02*
X128772000Y-60497142D01*
X128736285Y-60461428D01*
X128772000Y-60425714D01*
X128807714Y-60461428D01*
X128736285Y-60461428D01*
X128057714Y-60104285D02*
X128557714Y-60104285D01*
X128414857Y-60104285D02*
X128486285Y-60068571D01*
X128522000Y-60032857D01*
X128557714Y-59961428D01*
X128557714Y-59890000D01*
X128093428Y-58961142D02*
X128057714Y-58854000D01*
X128057714Y-58675428D01*
X128093428Y-58604000D01*
X128129142Y-58568285D01*
X128200571Y-58532571D01*
X128272000Y-58532571D01*
X128343428Y-58568285D01*
X128379142Y-58604000D01*
X128414857Y-58675428D01*
X128450571Y-58818285D01*
X128486285Y-58889714D01*
X128522000Y-58925428D01*
X128593428Y-58961142D01*
X128664857Y-58961142D01*
X128736285Y-58925428D01*
X128772000Y-58889714D01*
X128807714Y-58818285D01*
X128807714Y-58639714D01*
X128772000Y-58532571D01*
X128557714Y-58318285D02*
X128557714Y-58032571D01*
X128807714Y-58211142D02*
X128164857Y-58211142D01*
X128093428Y-58175428D01*
X128057714Y-58104000D01*
X128057714Y-58032571D01*
X128093428Y-57496857D02*
X128057714Y-57568285D01*
X128057714Y-57711142D01*
X128093428Y-57782571D01*
X128164857Y-57818285D01*
X128450571Y-57818285D01*
X128522000Y-57782571D01*
X128557714Y-57711142D01*
X128557714Y-57568285D01*
X128522000Y-57496857D01*
X128450571Y-57461142D01*
X128379142Y-57461142D01*
X128307714Y-57818285D01*
X128557714Y-57139714D02*
X127807714Y-57139714D01*
X128522000Y-57139714D02*
X128557714Y-57068285D01*
X128557714Y-56925428D01*
X128522000Y-56854000D01*
X128486285Y-56818285D01*
X128414857Y-56782571D01*
X128200571Y-56782571D01*
X128129142Y-56818285D01*
X128093428Y-56854000D01*
X128057714Y-56925428D01*
X128057714Y-57068285D01*
X128093428Y-57139714D01*
D11*
X127762000Y-58039000D02*
X127254000Y-58039000D01*
X127762000Y-55499000D02*
X127254000Y-55499000D01*
X129705000Y-60540000D02*
X129197000Y-60540000D01*
X127762000Y-60579000D02*
X127254000Y-60579000D01*
X138214000Y-60540000D02*
X137706000Y-60540000D01*
X138176000Y-55499000D02*
X137668000Y-55499000D01*
X138176000Y-58039000D02*
X137668000Y-58039000D01*
X136271000Y-60579000D02*
X135763000Y-60579000D01*
X136271000Y-55499000D02*
X135763000Y-55499000D01*
X136271000Y-58039000D02*
X135763000Y-58039000D01*
D10*
X136602428Y-58961142D02*
X136566714Y-58854000D01*
X136566714Y-58675428D01*
X136602428Y-58604000D01*
X136638142Y-58568285D01*
X136709571Y-58532571D01*
X136781000Y-58532571D01*
X136852428Y-58568285D01*
X136888142Y-58604000D01*
X136923857Y-58675428D01*
X136959571Y-58818285D01*
X136995285Y-58889714D01*
X137031000Y-58925428D01*
X137102428Y-58961142D01*
X137173857Y-58961142D01*
X137245285Y-58925428D01*
X137281000Y-58889714D01*
X137316714Y-58818285D01*
X137316714Y-58639714D01*
X137281000Y-58532571D01*
X137066714Y-58318285D02*
X137066714Y-58032571D01*
X137316714Y-58211142D02*
X136673857Y-58211142D01*
X136602428Y-58175428D01*
X136566714Y-58104000D01*
X136566714Y-58032571D01*
X136602428Y-57496857D02*
X136566714Y-57568285D01*
X136566714Y-57711142D01*
X136602428Y-57782571D01*
X136673857Y-57818285D01*
X136959571Y-57818285D01*
X137031000Y-57782571D01*
X137066714Y-57711142D01*
X137066714Y-57568285D01*
X137031000Y-57496857D01*
X136959571Y-57461142D01*
X136888142Y-57461142D01*
X136816714Y-57818285D01*
X137066714Y-57139714D02*
X136316714Y-57139714D01*
X137031000Y-57139714D02*
X137066714Y-57068285D01*
X137066714Y-56925428D01*
X137031000Y-56854000D01*
X136995285Y-56818285D01*
X136923857Y-56782571D01*
X136709571Y-56782571D01*
X136638142Y-56818285D01*
X136602428Y-56854000D01*
X136566714Y-56925428D01*
X136566714Y-57068285D01*
X136602428Y-57139714D01*
X136959571Y-55877428D02*
X136959571Y-55627428D01*
X136566714Y-55520285D02*
X136566714Y-55877428D01*
X137316714Y-55877428D01*
X137316714Y-55520285D01*
X137066714Y-55198857D02*
X136566714Y-55198857D01*
X136995285Y-55198857D02*
X137031000Y-55163142D01*
X137066714Y-55091714D01*
X137066714Y-54984571D01*
X137031000Y-54913142D01*
X136959571Y-54877428D01*
X136566714Y-54877428D01*
X145436285Y-49892443D02*
X145793428Y-49892443D01*
X145829142Y-50249586D01*
X145793428Y-50213872D01*
X145722000Y-50178158D01*
X145543428Y-50178158D01*
X145472000Y-50213872D01*
X145436285Y-50249586D01*
X145400571Y-50321015D01*
X145400571Y-50499586D01*
X145436285Y-50571015D01*
X145472000Y-50606729D01*
X145543428Y-50642443D01*
X145722000Y-50642443D01*
X145793428Y-50606729D01*
X145829142Y-50571015D01*
X145186285Y-49892443D02*
X144936285Y-50642443D01*
X144686285Y-49892443D01*
X136566714Y-61211428D02*
X137316714Y-61211428D01*
X137316714Y-61032857D01*
X137281000Y-60925714D01*
X137209571Y-60854285D01*
X137138142Y-60818571D01*
X136995285Y-60782857D01*
X136888142Y-60782857D01*
X136745285Y-60818571D01*
X136673857Y-60854285D01*
X136602428Y-60925714D01*
X136566714Y-61032857D01*
X136566714Y-61211428D01*
X136566714Y-60461428D02*
X137066714Y-60461428D01*
X137316714Y-60461428D02*
X137281000Y-60497142D01*
X137245285Y-60461428D01*
X137281000Y-60425714D01*
X137316714Y-60461428D01*
X137245285Y-60461428D01*
X136566714Y-60104285D02*
X137066714Y-60104285D01*
X136923857Y-60104285D02*
X136995285Y-60068571D01*
X137031000Y-60032857D01*
X137066714Y-59961428D01*
X137066714Y-59890000D01*
X146470943Y-47404605D02*
X146435229Y-47368891D01*
X146363801Y-47333176D01*
X146185229Y-47333176D01*
X146113801Y-47368891D01*
X146078086Y-47404605D01*
X146042372Y-47476033D01*
X146042372Y-47547462D01*
X146078086Y-47654605D01*
X146506658Y-48083176D01*
X146042372Y-48083176D01*
X145399515Y-47583176D02*
X145399515Y-48083176D01*
X145578086Y-47297462D02*
X145756658Y-47833176D01*
X145292372Y-47833176D01*
X145113801Y-47333176D02*
X144863801Y-48083176D01*
X144613801Y-47333176D01*
X145995453Y-52467414D02*
X146066882Y-52431699D01*
X146174024Y-52431699D01*
X146281167Y-52467414D01*
X146352596Y-52538842D01*
X146388310Y-52610271D01*
X146424024Y-52753128D01*
X146424024Y-52860271D01*
X146388310Y-53003128D01*
X146352596Y-53074556D01*
X146281167Y-53145985D01*
X146174024Y-53181699D01*
X146102596Y-53181699D01*
X145995453Y-53145985D01*
X145959739Y-53110271D01*
X145959739Y-52860271D01*
X146102596Y-52860271D01*
X145638310Y-52681699D02*
X145638310Y-53181699D01*
X145638310Y-52753128D02*
X145602596Y-52717414D01*
X145531167Y-52681699D01*
X145424024Y-52681699D01*
X145352596Y-52717414D01*
X145316882Y-52788842D01*
X145316882Y-53181699D01*
X144638310Y-53181699D02*
X144638310Y-52431699D01*
X144638310Y-53145985D02*
X144709739Y-53181699D01*
X144852596Y-53181699D01*
X144924024Y-53145985D01*
X144959739Y-53110271D01*
X144995453Y-53038842D01*
X144995453Y-52824556D01*
X144959739Y-52753128D01*
X144924024Y-52717414D01*
X144852596Y-52681699D01*
X144709739Y-52681699D01*
X144638310Y-52717414D01*
X143327142Y-63331285D02*
X143327142Y-62581285D01*
X143077142Y-63117000D01*
X142827142Y-62581285D01*
X142827142Y-63331285D01*
X142362857Y-63331285D02*
X142434285Y-63295571D01*
X142470000Y-63259857D01*
X142505714Y-63188428D01*
X142505714Y-62974142D01*
X142470000Y-62902714D01*
X142434285Y-62867000D01*
X142362857Y-62831285D01*
X142255714Y-62831285D01*
X142184285Y-62867000D01*
X142148571Y-62902714D01*
X142112857Y-62974142D01*
X142112857Y-63188428D01*
X142148571Y-63259857D01*
X142184285Y-63295571D01*
X142255714Y-63331285D01*
X142362857Y-63331285D01*
X141898571Y-62831285D02*
X141612857Y-62831285D01*
X141791428Y-62581285D02*
X141791428Y-63224142D01*
X141755714Y-63295571D01*
X141684285Y-63331285D01*
X141612857Y-63331285D01*
X141077142Y-63295571D02*
X141148571Y-63331285D01*
X141291428Y-63331285D01*
X141362857Y-63295571D01*
X141398571Y-63224142D01*
X141398571Y-62938428D01*
X141362857Y-62867000D01*
X141291428Y-62831285D01*
X141148571Y-62831285D01*
X141077142Y-62867000D01*
X141041428Y-62938428D01*
X141041428Y-63009857D01*
X141398571Y-63081285D01*
X140398571Y-62831285D02*
X140398571Y-63331285D01*
X140720000Y-62831285D02*
X140720000Y-63224142D01*
X140684285Y-63295571D01*
X140612857Y-63331285D01*
X140505714Y-63331285D01*
X140434285Y-63295571D01*
X140398571Y-63259857D01*
X140041428Y-63331285D02*
X140041428Y-62831285D01*
X140041428Y-62974142D02*
X140005714Y-62902714D01*
X139970000Y-62867000D01*
X139898571Y-62831285D01*
X139827142Y-62831285D01*
X138577142Y-63259857D02*
X138612857Y-63295571D01*
X138720000Y-63331285D01*
X138791428Y-63331285D01*
X138898571Y-63295571D01*
X138970000Y-63224142D01*
X139005714Y-63152714D01*
X139041428Y-63009857D01*
X139041428Y-62902714D01*
X139005714Y-62759857D01*
X138970000Y-62688428D01*
X138898571Y-62617000D01*
X138791428Y-62581285D01*
X138720000Y-62581285D01*
X138612857Y-62617000D01*
X138577142Y-62652714D01*
X134945142Y-63331285D02*
X134945142Y-62581285D01*
X134695142Y-63117000D01*
X134445142Y-62581285D01*
X134445142Y-63331285D01*
X133980857Y-63331285D02*
X134052285Y-63295571D01*
X134088000Y-63259857D01*
X134123714Y-63188428D01*
X134123714Y-62974142D01*
X134088000Y-62902714D01*
X134052285Y-62867000D01*
X133980857Y-62831285D01*
X133873714Y-62831285D01*
X133802285Y-62867000D01*
X133766571Y-62902714D01*
X133730857Y-62974142D01*
X133730857Y-63188428D01*
X133766571Y-63259857D01*
X133802285Y-63295571D01*
X133873714Y-63331285D01*
X133980857Y-63331285D01*
X133516571Y-62831285D02*
X133230857Y-62831285D01*
X133409428Y-62581285D02*
X133409428Y-63224142D01*
X133373714Y-63295571D01*
X133302285Y-63331285D01*
X133230857Y-63331285D01*
X132695142Y-63295571D02*
X132766571Y-63331285D01*
X132909428Y-63331285D01*
X132980857Y-63295571D01*
X133016571Y-63224142D01*
X133016571Y-62938428D01*
X132980857Y-62867000D01*
X132909428Y-62831285D01*
X132766571Y-62831285D01*
X132695142Y-62867000D01*
X132659428Y-62938428D01*
X132659428Y-63009857D01*
X133016571Y-63081285D01*
X132016571Y-62831285D02*
X132016571Y-63331285D01*
X132338000Y-62831285D02*
X132338000Y-63224142D01*
X132302285Y-63295571D01*
X132230857Y-63331285D01*
X132123714Y-63331285D01*
X132052285Y-63295571D01*
X132016571Y-63259857D01*
X131659428Y-63331285D02*
X131659428Y-62831285D01*
X131659428Y-62974142D02*
X131623714Y-62902714D01*
X131588000Y-62867000D01*
X131516571Y-62831285D01*
X131445142Y-62831285D01*
X130373714Y-62938428D02*
X130266571Y-62974142D01*
X130230857Y-63009857D01*
X130195142Y-63081285D01*
X130195142Y-63188428D01*
X130230857Y-63259857D01*
X130266571Y-63295571D01*
X130338000Y-63331285D01*
X130623714Y-63331285D01*
X130623714Y-62581285D01*
X130373714Y-62581285D01*
X130302285Y-62617000D01*
X130266571Y-62652714D01*
X130230857Y-62724142D01*
X130230857Y-62795571D01*
X130266571Y-62867000D01*
X130302285Y-62902714D01*
X130373714Y-62938428D01*
X130623714Y-62938428D01*
X126509571Y-63331285D02*
X126509571Y-62581285D01*
X126259571Y-63117000D01*
X126009571Y-62581285D01*
X126009571Y-63331285D01*
X125545285Y-63331285D02*
X125616714Y-63295571D01*
X125652428Y-63259857D01*
X125688142Y-63188428D01*
X125688142Y-62974142D01*
X125652428Y-62902714D01*
X125616714Y-62867000D01*
X125545285Y-62831285D01*
X125438142Y-62831285D01*
X125366714Y-62867000D01*
X125331000Y-62902714D01*
X125295285Y-62974142D01*
X125295285Y-63188428D01*
X125331000Y-63259857D01*
X125366714Y-63295571D01*
X125438142Y-63331285D01*
X125545285Y-63331285D01*
X125081000Y-62831285D02*
X124795285Y-62831285D01*
X124973857Y-62581285D02*
X124973857Y-63224142D01*
X124938142Y-63295571D01*
X124866714Y-63331285D01*
X124795285Y-63331285D01*
X124259571Y-63295571D02*
X124331000Y-63331285D01*
X124473857Y-63331285D01*
X124545285Y-63295571D01*
X124581000Y-63224142D01*
X124581000Y-62938428D01*
X124545285Y-62867000D01*
X124473857Y-62831285D01*
X124331000Y-62831285D01*
X124259571Y-62867000D01*
X124223857Y-62938428D01*
X124223857Y-63009857D01*
X124581000Y-63081285D01*
X123581000Y-62831285D02*
X123581000Y-63331285D01*
X123902428Y-62831285D02*
X123902428Y-63224142D01*
X123866714Y-63295571D01*
X123795285Y-63331285D01*
X123688142Y-63331285D01*
X123616714Y-63295571D01*
X123581000Y-63259857D01*
X123223857Y-63331285D02*
X123223857Y-62831285D01*
X123223857Y-62974142D02*
X123188142Y-62902714D01*
X123152428Y-62867000D01*
X123081000Y-62831285D01*
X123009571Y-62831285D01*
X122223857Y-63117000D02*
X121866714Y-63117000D01*
X122295285Y-63331285D02*
X122045285Y-62581285D01*
X121795285Y-63331285D01*
D12*
X95570428Y-81262952D02*
X95665666Y-81215333D01*
X95713285Y-81167714D01*
X95760904Y-81072476D01*
X95760904Y-81024857D01*
X95713285Y-80929619D01*
X95665666Y-80882000D01*
X95570428Y-80834380D01*
X95379952Y-80834380D01*
X95284714Y-80882000D01*
X95237095Y-80929619D01*
X95189476Y-81024857D01*
X95189476Y-81072476D01*
X95237095Y-81167714D01*
X95284714Y-81215333D01*
X95379952Y-81262952D01*
X95570428Y-81262952D01*
X95665666Y-81310571D01*
X95713285Y-81358190D01*
X95760904Y-81453428D01*
X95760904Y-81643904D01*
X95713285Y-81739142D01*
X95665666Y-81786761D01*
X95570428Y-81834380D01*
X95379952Y-81834380D01*
X95284714Y-81786761D01*
X95237095Y-81739142D01*
X95189476Y-81643904D01*
X95189476Y-81453428D01*
X95237095Y-81358190D01*
X95284714Y-81310571D01*
X95379952Y-81262952D01*
X95284714Y-75754380D02*
X95475190Y-75754380D01*
X95570428Y-75802000D01*
X95618047Y-75849619D01*
X95713285Y-75992476D01*
X95760904Y-76182952D01*
X95760904Y-76563904D01*
X95713285Y-76659142D01*
X95665666Y-76706761D01*
X95570428Y-76754380D01*
X95379952Y-76754380D01*
X95284714Y-76706761D01*
X95237095Y-76659142D01*
X95189476Y-76563904D01*
X95189476Y-76325809D01*
X95237095Y-76230571D01*
X95284714Y-76182952D01*
X95379952Y-76135333D01*
X95570428Y-76135333D01*
X95665666Y-76182952D01*
X95713285Y-76230571D01*
X95760904Y-76325809D01*
X96141857Y-109702380D02*
X96713285Y-109702380D01*
X96427571Y-109702380D02*
X96427571Y-108702380D01*
X96522809Y-108845238D01*
X96618047Y-108940476D01*
X96713285Y-108988095D01*
X95189476Y-109702380D02*
X95760904Y-109702380D01*
X95475190Y-109702380D02*
X95475190Y-108702380D01*
X95570428Y-108845238D01*
X95665666Y-108940476D01*
X95760904Y-108988095D01*
X95189476Y-61524380D02*
X95760904Y-61524380D01*
X95475190Y-61524380D02*
X95475190Y-60524380D01*
X95570428Y-60667238D01*
X95665666Y-60762476D01*
X95760904Y-60810095D01*
X95284714Y-68477714D02*
X95284714Y-69144380D01*
X95522809Y-68096761D02*
X95760904Y-68811047D01*
X95141857Y-68811047D01*
X96141857Y-112314380D02*
X96713285Y-112314380D01*
X96427571Y-112314380D02*
X96427571Y-111314380D01*
X96522809Y-111457238D01*
X96618047Y-111552476D01*
X96713285Y-111600095D01*
X95760904Y-111409619D02*
X95713285Y-111362000D01*
X95618047Y-111314380D01*
X95379952Y-111314380D01*
X95284714Y-111362000D01*
X95237095Y-111409619D01*
X95189476Y-111504857D01*
X95189476Y-111600095D01*
X95237095Y-111742952D01*
X95808523Y-112314380D01*
X95189476Y-112314380D01*
X95665666Y-104694380D02*
X95475190Y-104694380D01*
X95379952Y-104646761D01*
X95332333Y-104599142D01*
X95237095Y-104456285D01*
X95189476Y-104265809D01*
X95189476Y-103884857D01*
X95237095Y-103789619D01*
X95284714Y-103742000D01*
X95379952Y-103694380D01*
X95570428Y-103694380D01*
X95665666Y-103742000D01*
X95713285Y-103789619D01*
X95760904Y-103884857D01*
X95760904Y-104122952D01*
X95713285Y-104218190D01*
X95665666Y-104265809D01*
X95570428Y-104313428D01*
X95379952Y-104313428D01*
X95284714Y-104265809D01*
X95237095Y-104218190D01*
X95189476Y-104122952D01*
X95760904Y-63159619D02*
X95713285Y-63112000D01*
X95618047Y-63064380D01*
X95379952Y-63064380D01*
X95284714Y-63112000D01*
X95237095Y-63159619D01*
X95189476Y-63254857D01*
X95189476Y-63350095D01*
X95237095Y-63492952D01*
X95808523Y-64064380D01*
X95189476Y-64064380D01*
X96141857Y-107234380D02*
X96713285Y-107234380D01*
X96427571Y-107234380D02*
X96427571Y-106234380D01*
X96522809Y-106377238D01*
X96618047Y-106472476D01*
X96713285Y-106520095D01*
X95522809Y-106234380D02*
X95427571Y-106234380D01*
X95332333Y-106282000D01*
X95284714Y-106329619D01*
X95237095Y-106424857D01*
X95189476Y-106615333D01*
X95189476Y-106853428D01*
X95237095Y-107043904D01*
X95284714Y-107139142D01*
X95332333Y-107186761D01*
X95427571Y-107234380D01*
X95522809Y-107234380D01*
X95618047Y-107186761D01*
X95665666Y-107139142D01*
X95713285Y-107043904D01*
X95760904Y-106853428D01*
X95760904Y-106615333D01*
X95713285Y-106424857D01*
X95665666Y-106329619D01*
X95618047Y-106282000D01*
X95522809Y-106234380D01*
X95808523Y-78222380D02*
X95141857Y-78222380D01*
X95570428Y-79222380D01*
X95237095Y-73214380D02*
X95713285Y-73214380D01*
X95760904Y-73690571D01*
X95713285Y-73642952D01*
X95618047Y-73595333D01*
X95379952Y-73595333D01*
X95284714Y-73642952D01*
X95237095Y-73690571D01*
X95189476Y-73785809D01*
X95189476Y-74023904D01*
X95237095Y-74119142D01*
X95284714Y-74166761D01*
X95379952Y-74214380D01*
X95618047Y-74214380D01*
X95713285Y-74166761D01*
X95760904Y-74119142D01*
X95808523Y-65532380D02*
X95189476Y-65532380D01*
X95522809Y-65913333D01*
X95379952Y-65913333D01*
X95284714Y-65960952D01*
X95237095Y-66008571D01*
X95189476Y-66103809D01*
X95189476Y-66341904D01*
X95237095Y-66437142D01*
X95284714Y-66484761D01*
X95379952Y-66532380D01*
X95665666Y-66532380D01*
X95760904Y-66484761D01*
X95808523Y-66437142D01*
D14*
%TO.C,K1*%
X152073571Y-71551142D02*
X152134047Y-71490666D01*
X152194523Y-71309238D01*
X152194523Y-71188285D01*
X152134047Y-71006857D01*
X152013095Y-70885904D01*
X151892142Y-70825428D01*
X151650238Y-70764952D01*
X151468809Y-70764952D01*
X151226904Y-70825428D01*
X151105952Y-70885904D01*
X150985000Y-71006857D01*
X150924523Y-71188285D01*
X150924523Y-71309238D01*
X150985000Y-71490666D01*
X151045476Y-71551142D01*
X151529285Y-72518761D02*
X151589761Y-72700190D01*
X151650238Y-72760666D01*
X151771190Y-72821142D01*
X151952619Y-72821142D01*
X152073571Y-72760666D01*
X152134047Y-72700190D01*
X152194523Y-72579238D01*
X152194523Y-72095428D01*
X150924523Y-72095428D01*
X150924523Y-72518761D01*
X150985000Y-72639714D01*
X151045476Y-72700190D01*
X151166428Y-72760666D01*
X151287380Y-72760666D01*
X151408333Y-72700190D01*
X151468809Y-72639714D01*
X151529285Y-72518761D01*
X151529285Y-72095428D01*
X152194523Y-74030666D02*
X152194523Y-73304952D01*
X152194523Y-73667809D02*
X150924523Y-73667809D01*
X151105952Y-73546857D01*
X151226904Y-73425904D01*
X151287380Y-73304952D01*
X151710714Y-74574952D02*
X151710714Y-75542571D01*
X152194523Y-76147333D02*
X150924523Y-76147333D01*
X150924523Y-76631142D01*
X150985000Y-76752095D01*
X151045476Y-76812571D01*
X151166428Y-76873047D01*
X151347857Y-76873047D01*
X151468809Y-76812571D01*
X151529285Y-76752095D01*
X151589761Y-76631142D01*
X151589761Y-76147333D01*
X151710714Y-77417333D02*
X151710714Y-78384952D01*
X151045476Y-78929238D02*
X150985000Y-78989714D01*
X150924523Y-79110666D01*
X150924523Y-79413047D01*
X150985000Y-79534000D01*
X151045476Y-79594476D01*
X151166428Y-79654952D01*
X151287380Y-79654952D01*
X151468809Y-79594476D01*
X152194523Y-78868761D01*
X152194523Y-79654952D01*
X151347857Y-80743523D02*
X152194523Y-80743523D01*
X150864047Y-80441142D02*
X151771190Y-80138761D01*
X151771190Y-80924952D01*
X150924523Y-81227333D02*
X152194523Y-81650666D01*
X150924523Y-82074000D01*
%TO.C,J24*%
X110029523Y-74632380D02*
X110029523Y-75346666D01*
X110077142Y-75489523D01*
X110172380Y-75584761D01*
X110315238Y-75632380D01*
X110410476Y-75632380D01*
X109600952Y-74727619D02*
X109553333Y-74680000D01*
X109458095Y-74632380D01*
X109220000Y-74632380D01*
X109124761Y-74680000D01*
X109077142Y-74727619D01*
X109029523Y-74822857D01*
X109029523Y-74918095D01*
X109077142Y-75060952D01*
X109648571Y-75632380D01*
X109029523Y-75632380D01*
X108172380Y-74965714D02*
X108172380Y-75632380D01*
X108410476Y-74584761D02*
X108648571Y-75299047D01*
X108029523Y-75299047D01*
%TO.C,K1*%
X162770000Y-63209000D02*
X140470000Y-63209000D01*
X162770000Y-89509000D02*
X140470000Y-89509000D01*
X140470000Y-63209000D02*
X140470000Y-89509000D01*
X162770000Y-63209000D02*
X162770000Y-89509000D01*
D11*
X151745000Y-62734000D02*
G75*
G03*
X151745000Y-62734000I-125000J0D01*
G01*
D10*
%TO.C,J26*%
X126480000Y-130924000D02*
X118480000Y-130924000D01*
X118480000Y-130924000D02*
X118480000Y-140149000D01*
X118480000Y-140149000D02*
X120385000Y-140149000D01*
X120385000Y-140149000D02*
X120385000Y-141154000D01*
X120385000Y-141154000D02*
X124575000Y-141154000D01*
X124575000Y-141154000D02*
X124575000Y-140149000D01*
X124575000Y-140149000D02*
X126480000Y-140149000D01*
X126480000Y-140149000D02*
X126480000Y-130924000D01*
X126770000Y-134144000D02*
X126770000Y-138144000D01*
X124460000Y-141154000D02*
X124460000Y-140154000D01*
X124460000Y-140154000D02*
X120500000Y-140154000D01*
X120500000Y-140154000D02*
X120500000Y-141154000D01*
X124460000Y-140154000D02*
X124460000Y-138484000D01*
X124460000Y-138484000D02*
X120500000Y-138484000D01*
X120500000Y-138484000D02*
X120500000Y-140154000D01*
X125260000Y-130924000D02*
X125260000Y-131524000D01*
X125260000Y-131524000D02*
X123660000Y-131524000D01*
X123660000Y-131524000D02*
X123660000Y-130924000D01*
X121300000Y-130924000D02*
X121300000Y-131524000D01*
X121300000Y-131524000D02*
X119700000Y-131524000D01*
X119700000Y-131524000D02*
X119700000Y-130924000D01*
%TO.C,J27*%
X116320000Y-130924000D02*
X108320000Y-130924000D01*
X108320000Y-130924000D02*
X108320000Y-140149000D01*
X108320000Y-140149000D02*
X110225000Y-140149000D01*
X110225000Y-140149000D02*
X110225000Y-141154000D01*
X110225000Y-141154000D02*
X114415000Y-141154000D01*
X114415000Y-141154000D02*
X114415000Y-140149000D01*
X114415000Y-140149000D02*
X116320000Y-140149000D01*
X116320000Y-140149000D02*
X116320000Y-130924000D01*
X116610000Y-134144000D02*
X116610000Y-138144000D01*
X114300000Y-141154000D02*
X114300000Y-140154000D01*
X114300000Y-140154000D02*
X110340000Y-140154000D01*
X110340000Y-140154000D02*
X110340000Y-141154000D01*
X114300000Y-140154000D02*
X114300000Y-138484000D01*
X114300000Y-138484000D02*
X110340000Y-138484000D01*
X110340000Y-138484000D02*
X110340000Y-140154000D01*
X115100000Y-130924000D02*
X115100000Y-131524000D01*
X115100000Y-131524000D02*
X113500000Y-131524000D01*
X113500000Y-131524000D02*
X113500000Y-130924000D01*
X111140000Y-130924000D02*
X111140000Y-131524000D01*
X111140000Y-131524000D02*
X109540000Y-131524000D01*
X109540000Y-131524000D02*
X109540000Y-130924000D01*
%TO.C,J25*%
X115680000Y-118910000D02*
X115680000Y-124930000D01*
X115680000Y-124930000D02*
X105300000Y-124930000D01*
X105300000Y-124930000D02*
X105300000Y-118910000D01*
X105300000Y-118910000D02*
X115680000Y-118910000D01*
X115970000Y-119940000D02*
X115970000Y-123940000D01*
X114300000Y-124930000D02*
X114300000Y-123930000D01*
X114300000Y-123930000D02*
X106680000Y-123930000D01*
X106680000Y-123930000D02*
X106680000Y-124930000D01*
X114300000Y-123930000D02*
X114050000Y-123400000D01*
X114050000Y-123400000D02*
X106930000Y-123400000D01*
X106930000Y-123400000D02*
X106680000Y-123930000D01*
X114050000Y-124930000D02*
X114050000Y-123930000D01*
X106930000Y-124930000D02*
X106930000Y-123930000D01*
X115100000Y-118910000D02*
X115100000Y-119510000D01*
X115100000Y-119510000D02*
X113500000Y-119510000D01*
X113500000Y-119510000D02*
X113500000Y-118910000D01*
X112560000Y-118910000D02*
X112560000Y-119510000D01*
X112560000Y-119510000D02*
X110960000Y-119510000D01*
X110960000Y-119510000D02*
X110960000Y-118910000D01*
X110020000Y-118910000D02*
X110020000Y-119510000D01*
X110020000Y-119510000D02*
X108420000Y-119510000D01*
X108420000Y-119510000D02*
X108420000Y-118910000D01*
X107480000Y-118910000D02*
X107480000Y-119510000D01*
X107480000Y-119510000D02*
X105880000Y-119510000D01*
X105880000Y-119510000D02*
X105880000Y-118910000D01*
%TO.C,J5*%
X135600000Y-56260000D02*
X135000000Y-56260000D01*
X135000000Y-48640000D02*
X135000000Y-47040000D01*
X129580000Y-48090000D02*
X130580000Y-48090000D01*
X129580000Y-60290000D02*
X130580000Y-60290000D01*
X135000000Y-61340000D02*
X135000000Y-59740000D01*
X135600000Y-61920000D02*
X129580000Y-61920000D01*
X135000000Y-49580000D02*
X135600000Y-49580000D01*
X135600000Y-53720000D02*
X135000000Y-53720000D01*
X135000000Y-57200000D02*
X135600000Y-57200000D01*
X129580000Y-60540000D02*
X130580000Y-60540000D01*
X135600000Y-46460000D02*
X135600000Y-61920000D01*
X135000000Y-59740000D02*
X135600000Y-59740000D01*
X131110000Y-48090000D02*
X130580000Y-47840000D01*
X135000000Y-56260000D02*
X135000000Y-54660000D01*
X135000000Y-52120000D02*
X135600000Y-52120000D01*
X135600000Y-58800000D02*
X135000000Y-58800000D01*
X129580000Y-46460000D02*
X135600000Y-46460000D01*
X135000000Y-51180000D02*
X135000000Y-49580000D01*
X135000000Y-58800000D02*
X135000000Y-57200000D01*
X131110000Y-60290000D02*
X131110000Y-48090000D01*
X135000000Y-54660000D02*
X135600000Y-54660000D01*
X134570000Y-62210000D02*
X130570000Y-62210000D01*
X135600000Y-61340000D02*
X135000000Y-61340000D01*
X130580000Y-60540000D02*
X131110000Y-60290000D01*
X130580000Y-60540000D02*
X130580000Y-47840000D01*
X135000000Y-47040000D02*
X135600000Y-47040000D01*
X130580000Y-47840000D02*
X129580000Y-47840000D01*
X135000000Y-53720000D02*
X135000000Y-52120000D01*
X135600000Y-51180000D02*
X135000000Y-51180000D01*
X129580000Y-61920000D02*
X129580000Y-46460000D01*
X135600000Y-48640000D02*
X135000000Y-48640000D01*
%TO.C,J2*%
X123765000Y-94428000D02*
X126425000Y-94428000D01*
X123765000Y-97028000D02*
X126425000Y-97028000D01*
X123765000Y-99628000D02*
X125095000Y-99628000D01*
X123765000Y-97028000D02*
X123765000Y-94428000D01*
X126425000Y-97028000D02*
X126425000Y-94428000D01*
X123765000Y-98298000D02*
X123765000Y-99628000D01*
%TO.C,J18*%
X88960000Y-102810000D02*
X87630000Y-102810000D01*
X88960000Y-105410000D02*
X86300000Y-105410000D01*
X86300000Y-105410000D02*
X86300000Y-113090000D01*
X88960000Y-113090000D02*
X86300000Y-113090000D01*
X88960000Y-105410000D02*
X88960000Y-113090000D01*
X88960000Y-104140000D02*
X88960000Y-102810000D01*
%TO.C,J24*%
X113780000Y-76070000D02*
X104660000Y-76070000D01*
X112470000Y-95350000D02*
X112470000Y-88410000D01*
X105970000Y-95350000D02*
X112470000Y-95350000D01*
X114170000Y-81280000D02*
X115170000Y-80780000D01*
X112470000Y-88410000D02*
X112470000Y-88410000D01*
X115170000Y-81780000D02*
X114170000Y-81280000D01*
X112470000Y-84310000D02*
X112470000Y-77370000D01*
X104660000Y-96650000D02*
X113780000Y-96650000D01*
X104660000Y-76070000D02*
X104660000Y-96650000D01*
X113780000Y-84310000D02*
X112470000Y-84310000D01*
X113780000Y-96650000D02*
X113780000Y-76070000D01*
X105970000Y-77370000D02*
X105970000Y-95350000D01*
X112470000Y-77370000D02*
X105970000Y-77370000D01*
X112470000Y-88410000D02*
X113780000Y-88410000D01*
X115170000Y-80780000D02*
X115170000Y-81780000D01*
%TO.C,J32*%
X126552000Y-105350000D02*
X126552000Y-108010000D01*
X122682000Y-105350000D02*
X121352000Y-105350000D01*
X123952000Y-108010000D02*
X126552000Y-108010000D01*
X123952000Y-105350000D02*
X123952000Y-108010000D01*
X123952000Y-105350000D02*
X126552000Y-105350000D01*
X121352000Y-105350000D02*
X121352000Y-106680000D01*
%TO.C,J30*%
X120794000Y-111544000D02*
X128634000Y-111544000D01*
X127254000Y-112544000D02*
X127254000Y-111544000D01*
X123914000Y-117564000D02*
X123914000Y-116964000D01*
X126454000Y-117564000D02*
X126454000Y-116964000D01*
X123914000Y-116964000D02*
X125514000Y-116964000D01*
X120794000Y-117564000D02*
X120794000Y-111544000D01*
X125514000Y-116964000D02*
X125514000Y-117564000D01*
X122174000Y-111544000D02*
X122174000Y-112544000D01*
X122174000Y-112544000D02*
X127254000Y-112544000D01*
X122424000Y-113074000D02*
X127004000Y-113074000D01*
X122174000Y-112544000D02*
X122424000Y-113074000D01*
X122974000Y-116964000D02*
X122974000Y-117564000D01*
X128634000Y-117564000D02*
X120794000Y-117564000D01*
X128634000Y-111544000D02*
X128634000Y-117564000D01*
X122424000Y-111544000D02*
X122424000Y-112544000D01*
X127004000Y-111544000D02*
X127004000Y-112544000D01*
X127004000Y-113074000D02*
X127254000Y-112544000D01*
X126454000Y-116964000D02*
X128054000Y-116964000D01*
X120504000Y-116534000D02*
X120504000Y-112534000D01*
X128054000Y-116964000D02*
X128054000Y-117564000D01*
X121374000Y-116964000D02*
X122974000Y-116964000D01*
X121374000Y-117564000D02*
X121374000Y-116964000D01*
%TO.C,J22*%
X126708000Y-90386000D02*
X126708000Y-89786000D01*
X121628000Y-90386000D02*
X121628000Y-89786000D01*
X123228000Y-89786000D02*
X123228000Y-90386000D01*
X122428000Y-85366000D02*
X130048000Y-85366000D01*
X121048000Y-90386000D02*
X121048000Y-84366000D01*
X129248000Y-89786000D02*
X130848000Y-89786000D01*
X129248000Y-90386000D02*
X129248000Y-89786000D01*
X122428000Y-84366000D02*
X122428000Y-85366000D01*
X130048000Y-85366000D02*
X130048000Y-84366000D01*
X128308000Y-89786000D02*
X128308000Y-90386000D01*
X122678000Y-84366000D02*
X122678000Y-85366000D01*
X120758000Y-89356000D02*
X120758000Y-85356000D01*
X121628000Y-89786000D02*
X123228000Y-89786000D01*
X122678000Y-85896000D02*
X129798000Y-85896000D01*
X129798000Y-85896000D02*
X130048000Y-85366000D01*
X122428000Y-85366000D02*
X122678000Y-85896000D01*
X126708000Y-89786000D02*
X128308000Y-89786000D01*
X129798000Y-84366000D02*
X129798000Y-85366000D01*
X131428000Y-90386000D02*
X121048000Y-90386000D01*
X124168000Y-90386000D02*
X124168000Y-89786000D01*
X130848000Y-89786000D02*
X130848000Y-90386000D01*
X121048000Y-84366000D02*
X131428000Y-84366000D01*
X131428000Y-84366000D02*
X131428000Y-90386000D01*
X124168000Y-89786000D02*
X125768000Y-89786000D01*
X125768000Y-89786000D02*
X125768000Y-90386000D01*
%TO.C,U4*%
X135100000Y-104870000D02*
X143720000Y-104870000D01*
X136100000Y-93010000D02*
X134860000Y-93010000D01*
X143720000Y-93250000D02*
X143720000Y-104870000D01*
X134860000Y-93010000D02*
X134860000Y-94250000D01*
X135100000Y-93250000D02*
X135100000Y-104870000D01*
X135100000Y-93250000D02*
X143720000Y-93250000D01*
%TO.C,J12*%
X110020000Y-112265000D02*
X110020000Y-112865000D01*
X108420000Y-112265000D02*
X110020000Y-112265000D01*
X106680000Y-107845000D02*
X114300000Y-107845000D01*
X106930000Y-108375000D02*
X114050000Y-108375000D01*
X115680000Y-106845000D02*
X115680000Y-112865000D01*
X110960000Y-112265000D02*
X112560000Y-112265000D01*
X106680000Y-107845000D02*
X106930000Y-108375000D01*
X106930000Y-106845000D02*
X106930000Y-107845000D01*
X115680000Y-112865000D02*
X105300000Y-112865000D01*
X114050000Y-106845000D02*
X114050000Y-107845000D01*
X105300000Y-112865000D02*
X105300000Y-106845000D01*
X105880000Y-112265000D02*
X107480000Y-112265000D01*
X108420000Y-112865000D02*
X108420000Y-112265000D01*
X115100000Y-112265000D02*
X115100000Y-112865000D01*
X114300000Y-107845000D02*
X114300000Y-106845000D01*
X105010000Y-111835000D02*
X105010000Y-107835000D01*
X110960000Y-112865000D02*
X110960000Y-112265000D01*
X105300000Y-106845000D02*
X115680000Y-106845000D01*
X113500000Y-112865000D02*
X113500000Y-112265000D01*
X113500000Y-112265000D02*
X115100000Y-112265000D01*
X106680000Y-106845000D02*
X106680000Y-107845000D01*
X112560000Y-112265000D02*
X112560000Y-112865000D01*
X105880000Y-112865000D02*
X105880000Y-112265000D01*
X107480000Y-112265000D02*
X107480000Y-112865000D01*
X114050000Y-108375000D02*
X114300000Y-107845000D01*
%TO.C,J36*%
X121225000Y-97028000D02*
X121225000Y-94428000D01*
X121225000Y-98298000D02*
X121225000Y-99628000D01*
X123885000Y-97028000D02*
X123885000Y-94428000D01*
X121225000Y-97028000D02*
X123885000Y-97028000D01*
X121225000Y-99628000D02*
X122555000Y-99628000D01*
X121225000Y-94428000D02*
X123885000Y-94428000D01*
%TO.C,J34*%
X115630000Y-49590000D02*
X115630000Y-48260000D01*
X113030000Y-46930000D02*
X105350000Y-46930000D01*
X113030000Y-49590000D02*
X113030000Y-46930000D01*
X114300000Y-49590000D02*
X115630000Y-49590000D01*
X113030000Y-49590000D02*
X105350000Y-49590000D01*
X105350000Y-49590000D02*
X105350000Y-46930000D01*
%TO.C,J9*%
X94040000Y-104140000D02*
X94040000Y-102810000D01*
X94040000Y-102810000D02*
X92710000Y-102810000D01*
X91380000Y-105410000D02*
X91380000Y-113090000D01*
X94040000Y-105410000D02*
X91380000Y-105410000D01*
X94040000Y-105410000D02*
X94040000Y-113090000D01*
X94040000Y-113090000D02*
X91380000Y-113090000D01*
%TO.C,J7*%
X152062000Y-103586000D02*
X152062000Y-94866000D01*
X150762000Y-105286000D02*
X152062000Y-103586000D01*
X150762000Y-105286000D02*
X147942000Y-105286000D01*
X146642000Y-103586000D02*
X146642000Y-94866000D01*
X152062000Y-94866000D02*
X146642000Y-94866000D01*
X147942000Y-105286000D02*
X146642000Y-103586000D01*
%TO.C,J15*%
X91500000Y-74930000D02*
X88840000Y-74930000D01*
X91500000Y-74930000D02*
X91500000Y-82610000D01*
X88840000Y-74930000D02*
X88840000Y-82610000D01*
X91500000Y-73660000D02*
X91500000Y-72330000D01*
X91500000Y-82610000D02*
X88840000Y-82610000D01*
X91500000Y-72330000D02*
X90170000Y-72330000D01*
%TO.C,J20*%
X106160000Y-130924000D02*
X98160000Y-130924000D01*
X104140000Y-140154000D02*
X100180000Y-140154000D01*
X104940000Y-130924000D02*
X104940000Y-131524000D01*
X103340000Y-131524000D02*
X103340000Y-130924000D01*
X98160000Y-130924000D02*
X98160000Y-140149000D01*
X100980000Y-131524000D02*
X99380000Y-131524000D01*
X106450000Y-134144000D02*
X106450000Y-138144000D01*
X104140000Y-138484000D02*
X100180000Y-138484000D01*
X100180000Y-140154000D02*
X100180000Y-141154000D01*
X98160000Y-140149000D02*
X100065000Y-140149000D01*
X100065000Y-140149000D02*
X100065000Y-141154000D01*
X106160000Y-140149000D02*
X106160000Y-130924000D01*
X100065000Y-141154000D02*
X104255000Y-141154000D01*
X104140000Y-140154000D02*
X104140000Y-138484000D01*
X100980000Y-130924000D02*
X100980000Y-131524000D01*
X104255000Y-141154000D02*
X104255000Y-140149000D01*
X104255000Y-140149000D02*
X106160000Y-140149000D01*
X100180000Y-138484000D02*
X100180000Y-140154000D01*
X99380000Y-131524000D02*
X99380000Y-130924000D01*
X104940000Y-131524000D02*
X103340000Y-131524000D01*
X104140000Y-141154000D02*
X104140000Y-140154000D01*
%TO.C,J33*%
X115630000Y-52130000D02*
X115630000Y-50800000D01*
X113030000Y-52130000D02*
X105350000Y-52130000D01*
X113030000Y-49470000D02*
X105350000Y-49470000D01*
X114300000Y-52130000D02*
X115630000Y-52130000D01*
X105350000Y-52130000D02*
X105350000Y-49470000D01*
X113030000Y-52130000D02*
X113030000Y-49470000D01*
%TO.C,J16*%
X106635000Y-114875000D02*
X106635000Y-116205000D01*
X109235000Y-114875000D02*
X109235000Y-117535000D01*
X109235000Y-117535000D02*
X114375000Y-117535000D01*
X114375000Y-114875000D02*
X114375000Y-117535000D01*
X109235000Y-114875000D02*
X114375000Y-114875000D01*
X107965000Y-114875000D02*
X106635000Y-114875000D01*
%TO.C,J29*%
X136100000Y-112780000D02*
X136630000Y-113030000D01*
X132210000Y-111290000D02*
X131610000Y-111290000D01*
X131610000Y-109690000D02*
X132210000Y-109690000D01*
X132210000Y-113830000D02*
X131610000Y-113830000D01*
X132640000Y-108820000D02*
X136640000Y-108820000D01*
X132210000Y-112230000D02*
X132210000Y-113830000D01*
X131610000Y-114410000D02*
X131610000Y-109110000D01*
X136630000Y-113030000D02*
X137630000Y-113030000D01*
X137630000Y-109110000D02*
X137630000Y-114410000D01*
X137630000Y-110740000D02*
X136630000Y-110740000D01*
X136630000Y-110490000D02*
X136100000Y-110740000D01*
X136630000Y-110490000D02*
X136630000Y-113030000D01*
X131610000Y-112230000D02*
X132210000Y-112230000D01*
X132210000Y-109690000D02*
X132210000Y-111290000D01*
X137630000Y-114410000D02*
X131610000Y-114410000D01*
X137630000Y-110490000D02*
X136630000Y-110490000D01*
X137630000Y-112780000D02*
X136630000Y-112780000D01*
X136100000Y-110740000D02*
X136100000Y-112780000D01*
X131610000Y-109110000D02*
X137630000Y-109110000D01*
%TO.C,J1*%
X153965000Y-92905000D02*
X162265000Y-92905000D01*
X156565000Y-108605000D02*
X153965000Y-105755000D01*
X159715000Y-108605000D02*
X156565000Y-108605000D01*
X162265000Y-105755000D02*
X159715000Y-108605000D01*
X162265000Y-92905000D02*
X162265000Y-105755000D01*
X153965000Y-105755000D02*
X153965000Y-92905000D01*
%TO.C,J28*%
X151320000Y-112780000D02*
X151850000Y-113030000D01*
X146830000Y-114410000D02*
X146830000Y-109110000D01*
X147860000Y-108820000D02*
X151860000Y-108820000D01*
X146830000Y-109690000D02*
X147430000Y-109690000D01*
X152850000Y-109110000D02*
X152850000Y-114410000D01*
X146830000Y-112230000D02*
X147430000Y-112230000D01*
X152850000Y-110490000D02*
X151850000Y-110490000D01*
X147430000Y-113830000D02*
X146830000Y-113830000D01*
X152850000Y-114410000D02*
X146830000Y-114410000D01*
X151850000Y-110490000D02*
X151850000Y-113030000D01*
X151850000Y-110490000D02*
X151320000Y-110740000D01*
X147430000Y-111290000D02*
X146830000Y-111290000D01*
X152850000Y-112780000D02*
X151850000Y-112780000D01*
X152850000Y-110740000D02*
X151850000Y-110740000D01*
X151850000Y-113030000D02*
X152850000Y-113030000D01*
X146830000Y-109110000D02*
X152850000Y-109110000D01*
X147430000Y-112230000D02*
X147430000Y-113830000D01*
X147430000Y-109690000D02*
X147430000Y-111290000D01*
X151320000Y-110740000D02*
X151320000Y-112780000D01*
%TO.C,J10*%
X94040000Y-62240000D02*
X91380000Y-62240000D01*
X94040000Y-69920000D02*
X91380000Y-69920000D01*
X94040000Y-62240000D02*
X94040000Y-69920000D01*
X91380000Y-62240000D02*
X91380000Y-69920000D01*
X94040000Y-60970000D02*
X94040000Y-59640000D01*
X94040000Y-59640000D02*
X92710000Y-59640000D01*
%TO.C,J19*%
X88960000Y-74930000D02*
X88960000Y-82610000D01*
X88960000Y-82610000D02*
X86300000Y-82610000D01*
X86300000Y-74930000D02*
X86300000Y-82610000D01*
X88960000Y-72330000D02*
X87630000Y-72330000D01*
X88960000Y-73660000D02*
X88960000Y-72330000D01*
X88960000Y-74930000D02*
X86300000Y-74930000D01*
%TO.C,J3*%
X121200000Y-46460000D02*
X127220000Y-46460000D01*
X126620000Y-57200000D02*
X127220000Y-57200000D01*
X127220000Y-53720000D02*
X126620000Y-53720000D01*
X127220000Y-61920000D02*
X121200000Y-61920000D01*
X127220000Y-56260000D02*
X126620000Y-56260000D01*
X126620000Y-51180000D02*
X126620000Y-49580000D01*
X122200000Y-60540000D02*
X122200000Y-47840000D01*
X126620000Y-61340000D02*
X126620000Y-59740000D01*
X126620000Y-52120000D02*
X127220000Y-52120000D01*
X127220000Y-46460000D02*
X127220000Y-61920000D01*
X122730000Y-48090000D02*
X122200000Y-47840000D01*
X127220000Y-58800000D02*
X126620000Y-58800000D01*
X126620000Y-48640000D02*
X126620000Y-47040000D01*
X126620000Y-56260000D02*
X126620000Y-54660000D01*
X121200000Y-60540000D02*
X122200000Y-60540000D01*
X122200000Y-60540000D02*
X122730000Y-60290000D01*
X121200000Y-61920000D02*
X121200000Y-46460000D01*
X126620000Y-53720000D02*
X126620000Y-52120000D01*
X127220000Y-61340000D02*
X126620000Y-61340000D01*
X121200000Y-48090000D02*
X122200000Y-48090000D01*
X126620000Y-49580000D02*
X127220000Y-49580000D01*
X122730000Y-60290000D02*
X122730000Y-48090000D01*
X121200000Y-60290000D02*
X122200000Y-60290000D01*
X126190000Y-62210000D02*
X122190000Y-62210000D01*
X127220000Y-48640000D02*
X126620000Y-48640000D01*
X126620000Y-59740000D02*
X127220000Y-59740000D01*
X122200000Y-47840000D02*
X121200000Y-47840000D01*
X127220000Y-51180000D02*
X126620000Y-51180000D01*
X126620000Y-54660000D02*
X127220000Y-54660000D01*
X126620000Y-47040000D02*
X127220000Y-47040000D01*
X126620000Y-58800000D02*
X126620000Y-57200000D01*
D15*
%TO.C,PS1*%
X128905000Y-142875000D02*
X128905000Y-117475000D01*
X154305000Y-142875000D02*
X128905000Y-142875000D01*
X154305000Y-117475000D02*
X154305000Y-142875000D01*
D12*
X147805000Y-116945000D02*
X147805000Y-116945000D01*
X148005000Y-116945000D02*
X148005000Y-116945000D01*
D15*
X128905000Y-117475000D02*
X154305000Y-117475000D01*
D12*
X147805000Y-116945000D02*
G75*
G03*
X148005000Y-116945000I100000J0D01*
G01*
X148005000Y-116945000D02*
G75*
G03*
X147805000Y-116945000I-100000J0D01*
G01*
D10*
%TO.C,J6*%
X143380000Y-51180000D02*
X143380000Y-49580000D01*
X137960000Y-60540000D02*
X138960000Y-60540000D01*
X137960000Y-46460000D02*
X143980000Y-46460000D01*
X137960000Y-61920000D02*
X137960000Y-46460000D01*
X138960000Y-47840000D02*
X137960000Y-47840000D01*
X143380000Y-58800000D02*
X143380000Y-57200000D01*
X139490000Y-48090000D02*
X138960000Y-47840000D01*
X143380000Y-48640000D02*
X143380000Y-47040000D01*
X143380000Y-52120000D02*
X143980000Y-52120000D01*
X143380000Y-59740000D02*
X143980000Y-59740000D01*
X138960000Y-60540000D02*
X138960000Y-47840000D01*
X143980000Y-46460000D02*
X143980000Y-61920000D01*
X143380000Y-56260000D02*
X143380000Y-54660000D01*
X143980000Y-56260000D02*
X143380000Y-56260000D01*
X143380000Y-57200000D02*
X143980000Y-57200000D01*
X143980000Y-51180000D02*
X143380000Y-51180000D01*
X143380000Y-54660000D02*
X143980000Y-54660000D01*
X137960000Y-60290000D02*
X138960000Y-60290000D01*
X143380000Y-47040000D02*
X143980000Y-47040000D01*
X143980000Y-58800000D02*
X143380000Y-58800000D01*
X143380000Y-49580000D02*
X143980000Y-49580000D01*
X143980000Y-61340000D02*
X143380000Y-61340000D01*
X143980000Y-53720000D02*
X143380000Y-53720000D01*
X137960000Y-48090000D02*
X138960000Y-48090000D01*
X143380000Y-61340000D02*
X143380000Y-59740000D01*
X142950000Y-62210000D02*
X138950000Y-62210000D01*
X143980000Y-48640000D02*
X143380000Y-48640000D01*
X139490000Y-60290000D02*
X139490000Y-48090000D01*
X138960000Y-60540000D02*
X139490000Y-60290000D01*
X143380000Y-53720000D02*
X143380000Y-52120000D01*
X143980000Y-61920000D02*
X137960000Y-61920000D01*
%TO.C,J23*%
X143700000Y-110740000D02*
X143700000Y-112780000D01*
X143700000Y-112780000D02*
X144230000Y-113030000D01*
X144230000Y-113030000D02*
X145230000Y-113030000D01*
X139810000Y-113830000D02*
X139210000Y-113830000D01*
X139810000Y-111290000D02*
X139210000Y-111290000D01*
X145230000Y-114410000D02*
X139210000Y-114410000D01*
X145230000Y-110490000D02*
X144230000Y-110490000D01*
X139810000Y-109690000D02*
X139810000Y-111290000D01*
X145230000Y-112780000D02*
X144230000Y-112780000D01*
X144230000Y-110490000D02*
X143700000Y-110740000D01*
X139810000Y-112230000D02*
X139810000Y-113830000D01*
X144230000Y-110490000D02*
X144230000Y-113030000D01*
X139210000Y-109690000D02*
X139810000Y-109690000D01*
X145230000Y-109110000D02*
X145230000Y-114410000D01*
X139210000Y-109110000D02*
X145230000Y-109110000D01*
X139210000Y-112230000D02*
X139810000Y-112230000D01*
X139210000Y-114410000D02*
X139210000Y-109110000D01*
X140240000Y-108820000D02*
X144240000Y-108820000D01*
X145230000Y-110740000D02*
X144230000Y-110740000D01*
%TO.C,J4*%
X123952000Y-107890000D02*
X126552000Y-107890000D01*
X126552000Y-107890000D02*
X126552000Y-110550000D01*
X122682000Y-107890000D02*
X121352000Y-107890000D01*
X123952000Y-107890000D02*
X123952000Y-110550000D01*
X123952000Y-110550000D02*
X126552000Y-110550000D01*
X121352000Y-107890000D02*
X121352000Y-109220000D01*
%TO.C,J21*%
X146120000Y-59805000D02*
X147125000Y-59805000D01*
X147120000Y-55730000D02*
X146120000Y-55730000D01*
X147125000Y-53710000D02*
X147125000Y-55615000D01*
X155750000Y-56530000D02*
X155750000Y-54930000D01*
X156350000Y-61710000D02*
X156350000Y-53710000D01*
X147120000Y-59690000D02*
X148790000Y-59690000D01*
X146120000Y-55615000D02*
X146120000Y-59805000D01*
X156350000Y-60490000D02*
X155750000Y-60490000D01*
X155750000Y-54930000D02*
X156350000Y-54930000D01*
X146120000Y-59690000D02*
X147120000Y-59690000D01*
X148790000Y-55730000D02*
X147120000Y-55730000D01*
X153130000Y-62000000D02*
X149130000Y-62000000D01*
X148790000Y-59690000D02*
X148790000Y-55730000D01*
X155750000Y-58890000D02*
X156350000Y-58890000D01*
X156350000Y-56530000D02*
X155750000Y-56530000D01*
X147125000Y-61710000D02*
X156350000Y-61710000D01*
X147120000Y-59690000D02*
X147120000Y-55730000D01*
X155750000Y-60490000D02*
X155750000Y-58890000D01*
X147125000Y-59805000D02*
X147125000Y-61710000D01*
X156350000Y-53710000D02*
X147125000Y-53710000D01*
X147125000Y-55615000D02*
X146120000Y-55615000D01*
%TO.C,J11*%
X94040000Y-73660000D02*
X94040000Y-72330000D01*
X91380000Y-74930000D02*
X91380000Y-82610000D01*
X94040000Y-72330000D02*
X92710000Y-72330000D01*
X94040000Y-82610000D02*
X91380000Y-82610000D01*
X94040000Y-74930000D02*
X91380000Y-74930000D01*
X94040000Y-74930000D02*
X94040000Y-82610000D01*
%TO.C,J13*%
X91500000Y-62240000D02*
X88840000Y-62240000D01*
X88840000Y-62240000D02*
X88840000Y-69920000D01*
X91500000Y-59640000D02*
X90170000Y-59640000D01*
X91500000Y-69920000D02*
X88840000Y-69920000D01*
X91500000Y-60970000D02*
X91500000Y-59640000D01*
X91500000Y-62240000D02*
X91500000Y-69920000D01*
%TO.C,J35*%
X105350000Y-54670000D02*
X105350000Y-52010000D01*
X113030000Y-52010000D02*
X105350000Y-52010000D01*
X114300000Y-54670000D02*
X115630000Y-54670000D01*
X113030000Y-54670000D02*
X105350000Y-54670000D01*
X115630000Y-54670000D02*
X115630000Y-53340000D01*
X113030000Y-54670000D02*
X113030000Y-52010000D01*
%TO.C,J17*%
X88960000Y-62240000D02*
X86300000Y-62240000D01*
X88960000Y-69920000D02*
X86300000Y-69920000D01*
X88960000Y-62240000D02*
X88960000Y-69920000D01*
X88960000Y-59640000D02*
X87630000Y-59640000D01*
X86300000Y-62240000D02*
X86300000Y-69920000D01*
X88960000Y-60970000D02*
X88960000Y-59640000D01*
%TO.C,J31*%
X126305000Y-94428000D02*
X128965000Y-94428000D01*
X126305000Y-97028000D02*
X126305000Y-94428000D01*
X126305000Y-98298000D02*
X126305000Y-99628000D01*
X126305000Y-97028000D02*
X128965000Y-97028000D01*
X126305000Y-99628000D02*
X127635000Y-99628000D01*
X128965000Y-97028000D02*
X128965000Y-94428000D01*
%TO.C,J14*%
X91500000Y-102810000D02*
X90170000Y-102810000D01*
X91500000Y-113090000D02*
X88840000Y-113090000D01*
X88840000Y-105410000D02*
X88840000Y-113090000D01*
X91500000Y-104140000D02*
X91500000Y-102810000D01*
X91500000Y-105410000D02*
X88840000Y-105410000D01*
X91500000Y-105410000D02*
X91500000Y-113090000D01*
%TD*%
M02*
