M48
; DRILL file {KiCad (6.0.0)} date Sun Jan  2 01:39:13 2022
; FORMAT={-:-/ absolute / inch / decimal}
; #@! TF.CreationDate,2022-01-02T01:39:13+01:00
; #@! TF.GenerationSoftware,Kicad,Pcbnew,(6.0.0)
; #@! TF.FileFunction,MixedPlating,1,2
FMAT,2
INCH
; #@! TA.AperFunction,Plated,PTH,ViaDrill
T1C0.0157
; #@! TA.AperFunction,Plated,PTH,ComponentDrill
T2C0.0197
; #@! TA.AperFunction,Plated,PTH,ComponentDrill
T3C0.0315
; #@! TA.AperFunction,Plated,PTH,ComponentDrill
T4C0.0394
; #@! TA.AperFunction,Plated,PTH,ComponentDrill
T5C0.0402
; #@! TA.AperFunction,Plated,PTH,ComponentDrill
T6C0.0433
; #@! TA.AperFunction,Plated,PTH,ComponentDrill
T7C0.0469
; #@! TA.AperFunction,Plated,PTH,ComponentDrill
T8C0.0472
; #@! TA.AperFunction,Plated,PTH,ComponentDrill
T9C0.0630
; #@! TA.AperFunction,Plated,PTH,ComponentDrill
T10C0.0669
; #@! TA.AperFunction,Plated,PTH,ComponentDrill
T11C0.0701
; #@! TA.AperFunction,Plated,PTH,ComponentDrill
T12C0.0709
; #@! TA.AperFunction,Plated,PTH,ComponentDrill
T13C0.0858
; #@! TA.AperFunction,Plated,PTH,ComponentDrill
T14C0.1260
; #@! TA.AperFunction,Plated,PTH,ComponentDrill
T15C0.1772
%
G90
G05
T1
X3.725Y-5.325
X3.725Y-5.375
X3.725Y-5.425
X3.775Y-5.325
X3.775Y-5.375
X3.775Y-5.425
X3.8Y-3.55
X3.8Y-3.6
X3.8Y-3.65
X3.825Y-5.325
X3.825Y-5.375
X3.825Y-5.425
X3.85Y-3.55
X3.85Y-3.6
X3.85Y-3.65
X3.9Y-1.85
X3.9Y-1.9
X3.9Y-1.95
X3.9Y-3.55
X3.9Y-3.55
X3.9Y-3.6
X3.9Y-3.65
X3.95Y-1.85
X3.95Y-1.9
X3.95Y-1.95
X4.0Y-1.85
X4.0Y-1.9
X4.0Y-1.95
X4.0Y-4.8
X4.0Y-4.85
X4.0Y-4.9
X4.05Y-4.8
X4.05Y-4.85
X4.05Y-4.9
X4.1Y-4.8
X4.1Y-4.85
X4.1Y-4.9
X4.15Y-3.6
X4.3Y-2.825
X4.3Y-4.2
X4.35Y-2.775
X4.35Y-2.825
X4.35Y-2.875
X4.35Y-4.2
X4.4Y-2.825
X4.4Y-3.85
X4.4Y-4.2
X4.55Y-4.5
X5.1Y-4.12
X5.1Y-4.17
X5.1Y-4.22
X5.15Y-4.12
X5.15Y-4.17
X5.15Y-4.22
X5.15Y-5.275
X5.15Y-5.325
X5.15Y-5.375
X5.2Y-5.275
X5.2Y-5.325
X5.2Y-5.375
X5.25Y-5.275
X5.25Y-5.325
X5.25Y-5.375
X5.28Y-3.55
X5.325Y-3.05
X5.325Y-3.125
X5.33Y-3.55
X5.38Y-3.55
X5.4Y-3.05
X5.4Y-3.125
X5.43Y-3.55
X5.9Y-1.9
X5.9Y-1.95
X5.9Y-2.0
X5.95Y-1.9
X5.95Y-1.95
X5.95Y-2.0
X5.95Y-4.2
X5.95Y-4.25
X6.0Y-1.9
X6.0Y-1.95
X6.0Y-2.0
X6.0Y-4.15
X6.0Y-4.2
X6.0Y-4.25
X6.05Y-4.2
X6.05Y-4.25
X6.175Y-4.375
X6.175Y-4.425
X6.175Y-4.475
X6.2Y-3.3
X6.2Y-3.35
X6.2Y-3.4
X6.225Y-4.375
X6.225Y-4.425
X6.225Y-4.475
X6.25Y-3.3
X6.25Y-3.35
X6.25Y-3.4
X6.25Y-5.0
X6.25Y-5.05
X6.25Y-5.1
X6.275Y-4.375
X6.275Y-4.425
X6.275Y-4.475
X6.3Y-3.3
X6.3Y-3.35
X6.3Y-3.4
X6.3Y-5.0
X6.3Y-5.05
X6.3Y-5.1
X6.35Y-5.0
X6.35Y-5.05
X6.35Y-5.1
T2
X3.4488Y-1.9685
X3.4488Y-5.5118
X3.4765Y-1.9017
X3.4765Y-2.0353
X3.4765Y-5.445
X3.4765Y-5.5786
X3.5433Y-1.874
X3.5433Y-2.063
X3.5433Y-5.4173
X3.5433Y-5.6063
X3.6101Y-1.9017
X3.6101Y-2.0353
X3.6101Y-5.445
X3.6101Y-5.5786
X3.6378Y-1.9685
X3.6378Y-5.5118
X6.2047Y-1.9685
X6.2047Y-5.5118
X6.2324Y-1.9017
X6.2324Y-2.0353
X6.2324Y-5.445
X6.2324Y-5.5786
X6.2992Y-1.874
X6.2992Y-2.063
X6.2992Y-5.4173
X6.2992Y-5.6063
X6.366Y-1.9017
X6.366Y-2.0353
X6.366Y-5.445
X6.366Y-5.5786
X6.3937Y-1.9685
X6.3937Y-5.5118
T3
X3.4904Y-3.83
X3.4914Y-3.47
X3.64Y-3.83
X3.641Y-3.47
X3.84Y-2.0504
X3.84Y-2.2
X4.74Y-4.8504
X4.74Y-5.0
T4
X3.45Y-2.4004
X3.45Y-2.5004
X3.45Y-2.6004
X3.45Y-2.7004
X3.45Y-2.9
X3.45Y-3.0
X3.45Y-3.1
X3.45Y-3.2
X3.45Y-4.1
X3.45Y-4.2
X3.45Y-4.3
X3.45Y-4.4
X3.55Y-2.4004
X3.55Y-2.5004
X3.55Y-2.6004
X3.55Y-2.7004
X3.55Y-2.9
X3.55Y-3.0
X3.55Y-3.1
X3.55Y-3.2
X3.55Y-4.1
X3.55Y-4.2
X3.55Y-4.3
X3.55Y-4.4
X3.65Y-2.4004
X3.65Y-2.5004
X3.65Y-2.6004
X3.65Y-2.7004
X3.65Y-2.9
X3.65Y-3.0
X3.65Y-3.1
X3.65Y-3.2
X3.65Y-4.1
X3.65Y-4.2
X3.65Y-4.3
X3.65Y-4.4
X4.2Y-1.9
X4.2Y-2.0
X4.2Y-2.1
X4.25Y-3.2
X4.25Y-3.3
X4.25Y-3.4
X4.25Y-3.5
X4.25Y-3.6
X4.2506Y-4.575
X4.3Y-1.9
X4.3Y-2.0
X4.3Y-2.1
X4.35Y-3.2
X4.35Y-3.3
X4.35Y-3.4
X4.35Y-3.5
X4.35Y-3.6
X4.3506Y-4.575
X4.4Y-1.9
X4.4Y-2.0
X4.4Y-2.1
X4.4506Y-4.575
X4.5Y-1.9
X4.5Y-2.0
X4.5Y-2.1
X4.825Y-3.77
X4.825Y-3.87
X4.83Y-4.05
X4.83Y-4.2
X4.83Y-4.3
X4.925Y-3.77
X4.925Y-3.87
X4.93Y-4.05
X4.93Y-4.2
X4.93Y-4.3
X5.025Y-3.77
X5.025Y-3.87
T5
X5.323Y-4.675
X5.323Y-4.775
X5.423Y-4.675
X5.423Y-4.775
X5.523Y-4.675
X5.523Y-4.775
X5.623Y-4.675
X5.623Y-4.775
X5.723Y-4.675
X5.723Y-4.775
X5.823Y-4.675
X5.823Y-4.775
T6
X4.05Y-2.3
X4.05Y-2.4
X4.05Y-2.5
X4.05Y-2.6
X4.05Y-2.7
X4.05Y-2.8
X4.05Y-2.9
X4.05Y-3.0
X4.05Y-3.1
X4.05Y-3.2
X4.05Y-3.3
X4.05Y-3.4
X4.05Y-3.5
X4.05Y-3.6
X4.05Y-3.7
X4.05Y-3.8
X4.05Y-3.9
X4.05Y-4.0
X4.05Y-4.1
X4.05Y-4.2
X4.05Y-4.3
X4.05Y-4.4
X4.05Y-4.5
X4.05Y-4.6
X4.15Y-4.1
X4.1681Y-2.55
X4.1681Y-2.65
X4.1681Y-2.75
X4.1681Y-2.85
X4.1681Y-2.95
X4.25Y-4.1
X4.35Y-4.1
X4.45Y-4.1
X4.55Y-2.4
X4.55Y-2.6
X4.55Y-2.7
X4.55Y-2.8
X4.55Y-4.1
X4.65Y-2.3
X4.65Y-2.4
X4.65Y-2.5
X4.65Y-2.6
X4.65Y-2.7
X4.65Y-2.8
X4.65Y-2.9
X4.65Y-3.0
X4.65Y-3.1
X4.65Y-3.2
X4.65Y-3.3
X4.65Y-3.4
X4.65Y-3.5
X4.65Y-3.6
X4.65Y-3.7
X4.65Y-3.8
X4.65Y-3.9
X4.65Y-4.0
X4.65Y-4.1
X4.65Y-4.2
X4.65Y-4.3
X4.65Y-4.4
X4.65Y-4.5
X4.65Y-4.6
T7
X4.2Y-4.3242
X4.2Y-4.8008
X4.3Y-4.3242
X4.3Y-4.8008
X4.4Y-4.3242
X4.4Y-4.8008
X4.5Y-4.3242
X4.5Y-4.8008
X4.81Y-4.5092
X4.82Y-3.4392
X4.8894Y-1.8835
X4.8894Y-1.9835
X4.8894Y-2.0835
X4.8894Y-2.1835
X4.8894Y-2.2835
X4.8894Y-2.3835
X4.91Y-4.5092
X4.92Y-3.4392
X5.01Y-4.5092
X5.02Y-3.4392
X5.12Y-3.4392
X5.2193Y-1.8835
X5.2193Y-1.9835
X5.2193Y-2.0835
X5.2193Y-2.1835
X5.2193Y-2.2835
X5.2193Y-2.3835
X5.3008Y-4.35
X5.3008Y-4.45
X5.5492Y-1.8835
X5.5492Y-1.9835
X5.5492Y-2.0835
X5.5492Y-2.1835
X5.5492Y-2.2835
X5.5492Y-2.3835
X5.6Y-4.35
X5.6Y-4.45
X5.9Y-4.35
X5.9Y-4.45
T8
X5.4Y-3.8
X5.4Y-3.9
X5.4Y-4.0
T10
X3.9441Y-5.36
X4.1Y-5.36
X4.3441Y-5.36
X4.5Y-5.36
X4.7441Y-5.36
X4.9Y-5.36
X5.95Y-2.1941
X5.95Y-2.35
T11
X5.2931Y-2.8847
X5.2931Y-3.2753
X5.4269Y-2.8847
X5.4269Y-3.2753
T12
X5.88Y-3.8416
X5.88Y-4.0384
T13
X5.1577Y-4.7077
X5.1577Y-5.5384
X5.9884Y-4.7077
T14
X3.5433Y-1.9685
X3.5433Y-5.5118
X6.2992Y-1.9685
X6.2992Y-5.5118
T15
X6.225Y-3.825
X6.225Y-4.1085
T9
G00X5.6386Y-3.0535
M15
G01X5.6386Y-3.1165
M16
G05
G00X5.9693Y-2.6795
M15
G01X5.9693Y-2.7425
M16
G05
G00X6.0008Y-3.1007
M15
G01X5.9378Y-3.1007
M16
G05
G00X6.0008Y-3.4157
M15
G01X5.9378Y-3.4157
M16
G05
G00X6.3Y-3.0535
M15
G01X6.3Y-3.1165
M16
G05
T0
M30
