<?xml version="1.0" encoding="UTF-8" standalone="no"?>
<!-- Created with Inkscape (http://www.inkscape.org/) -->

<svg
   width="7.8723888mm"
   height="12.246279mm"
   viewBox="0 0 7.8723888 12.246279"
   version="1.1"
   id="svg13520"
   inkscape:version="1.2 (dc2aedaf03, 2022-05-15)"
   sodipodi:docname="BotConnectorSilk.svg"
   xmlns:inkscape="http://www.inkscape.org/namespaces/inkscape"
   xmlns:sodipodi="http://sodipodi.sourceforge.net/DTD/sodipodi-0.dtd"
   xmlns="http://www.w3.org/2000/svg"
   xmlns:svg="http://www.w3.org/2000/svg">
  <sodipodi:namedview
     id="namedview13522"
     pagecolor="#505050"
     bordercolor="#ffffff"
     borderopacity="1"
     inkscape:showpageshadow="0"
     inkscape:pageopacity="0"
     inkscape:pagecheckerboard="1"
     inkscape:deskcolor="#505050"
     inkscape:document-units="mm"
     showgrid="false"
     inkscape:zoom="23.860606"
     inkscape:cx="15.192405"
     inkscape:cy="9.2621285"
     inkscape:window-width="1920"
     inkscape:window-height="1017"
     inkscape:window-x="1912"
     inkscape:window-y="396"
     inkscape:window-maximized="1"
     inkscape:current-layer="layer1" />
  <defs
     id="defs13517" />
  <g
     inkscape:label="Calque 1"
     inkscape:groupmode="layer"
     id="layer1"
     transform="translate(-30.06166,-127.0469)">
    <path
       id="rect22433-9-4-7-6-6-0-0"
       style="opacity:1;fill:#000000;fill-opacity:1;stroke:none;stroke-width:101.293;stroke-linecap:round;stroke-linejoin:round;paint-order:fill markers stroke"
       d="m 158.96122,62.299484 c -2.90683,0 -5.24745,2.243075 -5.24745,5.030749 0,2.787675 2.34062,5.03325 5.24745,5.03325 h 25.92616 c 2.90684,0 5.24745,-2.245575 5.24745,-5.03325 0,-2.787674 -2.34061,-5.030749 -5.24745,-5.030749 z m -0.335,0.662599 a 4.1245386,4.309935 0 0 1 4.12283,4.310642 4.1245386,4.309935 0 0 1 -4.12283,4.310642 4.1245386,4.309935 0 0 1 -4.12521,-4.310642 4.1245386,4.309935 0 0 1 4.12521,-4.310642 z m 11.77505,0 a 4.1245386,4.309935 0 0 1 4.12283,4.310642 4.1245386,4.309935 0 0 1 -4.12283,4.310642 4.1245386,4.309935 0 0 1 -4.12521,-4.310642 4.1245386,4.309935 0 0 1 4.12521,-4.310642 z m -8.48971,0.232534 h 1.11266 l -0.7992,0.677601 a 4.9807934,5.2046782 0 0 0 -0.51206,-0.510076 z m 2.19421,0 h 1.11506 l -2.20379,1.867779 a 4.9807934,5.2046782 0 0 0 -0.38046,-0.622593 z m 2.199,0 h 1.11505 l -3.97925,3.370502 a 4.9807934,5.2046782 0 0 0 -0.17946,-0.795118 z m 10.32022,1.580236 h 1.16051 c 0.87525,0 1.31605,0.486105 1.31605,1.417711 0,0.472097 -0.11469,0.829582 -0.33738,1.087662 -0.2227,0.25808 -0.54363,0.390058 -0.97867,0.390058 h -0.49052 l -0.0479,1.692752 h -0.77766 z m 0.69392,0.485072 c -0.0104,0.245491 -0.014,0.472291 -0.0191,0.692603 -0.0104,0.226607 -0.0163,0.452026 -0.0215,0.710106 h 0.55513 c 0.42468,0 0.66281,-0.251891 0.66281,-0.705105 0,-0.446919 -0.23813,-0.697604 -0.66281,-0.697604 z m -11.49988,0.207531 a 4.9807934,5.2046782 0 0 0 -0.29671,1.195178 l -2.11764,1.795267 a 4.9807934,5.2046782 0 0 0 0.11725,-1.045155 z m 20.02069,0.377556 c 0.21234,0 0.40416,0.06914 0.56471,0.195029 0.11912,0.09442 0.21742,0.221485 0.28474,0.372556 0.18645,-0.333616 0.40806,-0.567585 0.86381,-0.567585 0.30556,0 0.54533,0.132066 0.70588,0.377556 0.16573,0.251786 0.24646,0.62436 0.24646,1.090163 0.0102,0.325206 0.016,0.670223 0.0263,1.020152 0.0104,0.358794 0.0211,0.709127 0.0263,1.030153 h -0.80159 l 0.12921,-2.127817 c 0,-0.566517 -0.0876,-0.785117 -0.38285,-0.785117 -0.38324,0 -0.61256,0.402247 -0.61256,0.987647 l -0.0263,1.925287 h -0.79681 l 0.17707,-2.165322 c -0.005,-0.52875 -0.14629,-0.780117 -0.45703,-0.780117 -0.19162,0 -0.34748,0.09491 -0.4666,0.290044 -0.12429,0.195133 -0.19142,0.441849 -0.19142,0.725108 0.0104,0.302142 0.016,0.634028 0.0263,0.967644 0.0104,0.327321 0.0211,0.660501 0.0263,0.962643 h -0.77288 l 0.1005,-3.443013 h 0.6317 l -0.0168,0.232535 c 0.19162,-0.207723 0.42025,-0.307546 0.71545,-0.307546 z m -5.98204,0.07501 h 0.63171 l 0.4977,2.052806 0.40917,-0.987647 h 0.72503 l 0.40917,0.987647 c 0.0829,-0.33991 0.16599,-0.686449 0.24885,-1.032654 0.0829,-0.346205 0.16599,-0.692831 0.24885,-1.020152 h 0.62453 l -0.73938,3.443013 h -0.74656 l -0.41396,-1.265188 -0.43549,1.265188 h -0.72024 z m -14.38322,1.700254 a 4.9807934,5.2046782 0 0 0 0.0957,0.862628 l -3.50548,2.970443 h -0.46181 a 4.9807934,5.2046782 0 0 0 1.33519,-1.685251 z m 0.33021,1.582735 a 4.9807934,5.2046782 0 0 0 0.30389,0.685102 l -1.84965,1.565234 h -1.11266 z m 0.67238,1.287692 a 4.9807934,5.2046782 0 0 0 0.47857,0.540081 l -0.49771,0.422563 h -1.11744 z"
       transform="matrix(0.2159649,0,0,0.20667494,-3.1309847,124.33746)"
       inkscape:export-filename="BotConnectorSilk.png"
       inkscape:export-xdpi="5000"
       inkscape:export-ydpi="5000" />
    <path
       id="rect22433-9-4-7-6-7-4-3"
       style="opacity:1;fill:#000000;fill-opacity:1;stroke:none;stroke-width:101.293;stroke-linecap:round;stroke-linejoin:round;paint-order:fill markers stroke"
       d="m 158.96014,62.298746 c -2.90683,0 -5.24984,2.243075 -5.24984,5.030749 0,2.787674 2.34301,5.03325 5.24984,5.03325 h 25.92377 c 2.90683,0 5.24984,-2.245576 5.24984,-5.03325 0,-2.787674 -2.34301,-5.030749 -5.24984,-5.030749 z m -0.335,0.662598 a 4.1245386,4.309935 0 0 1 4.12283,4.310642 4.1245386,4.309935 0 0 1 -4.12283,4.310643 4.1245386,4.309935 0 0 1 -4.12521,-4.310643 4.1245386,4.309935 0 0 1 4.12521,-4.310642 z m 11.77266,0 a 4.1245386,4.309935 0 0 1 4.12521,4.310642 4.1245386,4.309935 0 0 1 -4.12521,4.310643 4.1245386,4.309935 0 0 1 -4.12282,-4.310643 4.1245386,4.309935 0 0 1 4.12282,-4.310642 z m -8.85342,0.232535 h 1.37587 c 0.024,0.04737 0.0594,0.08733 0.10768,0.112517 0.11977,0.04874 0.25317,-0.0022 0.31585,-0.112517 h 0.47617 c -0.0427,0.02829 -0.078,0.06774 -0.0981,0.117517 -0.0544,0.132695 0.008,0.285113 0.13879,0.340051 0.1315,0.05494 0.28182,-0.0087 0.33499,-0.142521 0.0473,-0.11673 0.004,-0.247882 -0.0957,-0.315047 h 1.61754 c -0.0315,0.123441 0.0286,0.254895 0.14836,0.305045 0.1308,0.05522 0.28083,-0.0072 0.33499,-0.140021 0.021,-0.05307 0.0214,-0.111767 0.007,-0.165024 h 1.22751 a 4.9807934,5.2046782 0 0 0 -0.51685,0.512576 c 0.0151,-0.01664 0.03,-0.03365 0.0455,-0.05001 0.0164,-0.116736 -0.0461,-0.229063 -0.15314,-0.275041 -0.035,-0.01508 -0.0721,-0.02162 -0.11007,-0.02 -0.0992,0.005 -0.18729,0.06678 -0.22493,0.160024 -0.0541,0.133402 0.01,0.286116 0.14118,0.34005 0.046,0.01602 0.0942,0.01635 0.14118,0.005 a 4.9807934,5.2046782 0 0 0 -0.28475,0.360054 l -0.002,-0.0025 c -0.036,-0.01459 -0.0762,-0.02031 -0.11486,-0.0175 -0.0982,0.006 -0.18288,0.06759 -0.22014,0.160024 -0.0313,0.09895 -1.8e-4,0.207129 0.0766,0.275041 a 4.9807934,5.2046782 0 0 0 -0.54556,1.255187 c -0.0951,0.0087 -0.17904,0.06745 -0.21535,0.157523 -0.0445,0.116313 -1.5e-4,0.246669 0.1005,0.312547 a 4.9807934,5.2046782 0 0 0 -0.0455,0.427563 c -0.0184,-0.01465 -0.0381,-0.02842 -0.0598,-0.0375 -0.036,-0.01459 -0.0738,-0.02031 -0.11246,-0.0175 -0.0982,0.006 -0.18526,0.06758 -0.22253,0.160024 -0.0524,0.132693 0.0107,0.283616 0.14117,0.33755 0.07,0.02291 0.14363,0.01176 0.20579,-0.025 a 4.9807934,5.2046782 0 0 0 -0.0144,0.140021 4.9807934,5.2046782 0 0 0 0.24167,1.502724 c -0.0245,-0.02633 -0.0557,-0.04807 -0.0909,-0.06251 -0.036,-0.01459 -0.0738,-0.02031 -0.11247,-0.0175 -0.0973,0.007 -0.18326,0.06837 -0.22013,0.160024 -0.0544,0.132698 0.008,0.285116 0.13878,0.340051 0.1315,0.05494 0.28183,-0.0087 0.33499,-0.142522 0.0103,-0.02543 0.017,-0.0515 0.0191,-0.07751 a 4.9807934,5.2046782 0 0 0 1.60797,2.397857 h -0.62931 c 0.0167,-0.11491 -0.0432,-0.230774 -0.15314,-0.277541 -0.0358,-0.01546 -0.0736,-0.02201 -0.11246,-0.02 -0.0982,0.006 -0.18528,0.06758 -0.22254,0.160024 -0.0161,0.04472 -0.0178,0.09178 -0.01,0.13752 h -1.53379 c -0.0264,-0.05652 -0.0708,-0.102246 -0.12922,-0.127519 -0.036,-0.01459 -0.0738,-0.02031 -0.11246,-0.0175 -0.0913,0.0065 -0.17053,0.06251 -0.21057,0.145021 h -0.49531 c 0.0545,-0.02663 0.0993,-0.07148 0.12443,-0.13252 0.0544,-0.132694 -0.008,-0.285112 -0.13879,-0.34005 -0.0358,-0.01546 -0.0736,-0.02201 -0.11246,-0.02 -0.0989,0.0064 -0.18604,0.06909 -0.22253,0.162524 -0.0504,0.127509 0.007,0.271119 0.12682,0.330049 h -1.57447 c 0.0385,-0.102943 0.008,-0.216556 -0.0742,-0.287543 A 4.9807934,5.2046782 0 0 0 163.52563,67.362 c 0.0601,-0.02372 0.11043,-0.07 0.13878,-0.13002 0.0541,-0.133402 -0.01,-0.286116 -0.14117,-0.34005 -0.0152,-0.0045 -0.0322,-0.0059 -0.0479,-0.0075 a 4.9807934,5.2046782 0 0 0 -0.38524,-1.605239 c 0.0245,0.02629 0.0549,0.04839 0.0885,0.06251 0.13149,0.05494 0.28184,-0.0087 0.335,-0.142521 0.0544,-0.132695 -0.008,-0.285112 -0.13879,-0.340051 -0.036,-0.01459 -0.0762,-0.02031 -0.11485,-0.0175 -0.0982,0.006 -0.18288,0.06758 -0.22014,0.160024 -0.01,0.02393 -0.0167,0.04969 -0.0191,0.07501 a 4.9807934,5.2046782 0 0 0 -1.47637,-1.88278 z m 0.39242,0.110016 c -0.0658,0.0156 -0.12203,0.05694 -0.15792,0.115017 0.11325,0.105307 0.22242,0.215898 0.32542,0.33005 0.0351,-0.02159 0.0648,-0.05201 0.0861,-0.08751 0.0541,-0.133406 -0.01,-0.286121 -0.14118,-0.340051 -0.0352,-0.01421 -0.0723,-0.01993 -0.11007,-0.0175 z m 2.83788,0.192529 c -0.0982,0.006 -0.18526,0.06759 -0.22253,0.160024 -0.0541,0.133402 0.01,0.286115 0.14118,0.34005 0.1301,0.05354 0.27846,-0.0086 0.3326,-0.14002 0.0544,-0.132697 -0.005,-0.285117 -0.13639,-0.340051 -0.0358,-0.01546 -0.076,-0.02201 -0.11486,-0.02 z m -2.00518,0.152523 c -0.0982,0.006 -0.18526,0.07009 -0.22253,0.162524 -0.0541,0.133402 0.01,0.286116 0.14118,0.340051 0.1308,0.05323 0.27944,-0.01262 0.3326,-0.145022 0.0528,-0.131986 -0.01,-0.282617 -0.13879,-0.33755 -0.0358,-0.01546 -0.0736,-0.02201 -0.11246,-0.02 z m 2.83788,0.195029 c -0.0982,0.006 -0.18527,0.06759 -0.22253,0.160024 -0.0541,0.133401 0.01,0.286116 0.14118,0.34005 0.1315,0.05494 0.28182,-0.0087 0.33499,-0.142521 0.0541,-0.133405 -0.01,-0.28612 -0.14118,-0.340051 -0.036,-0.01459 -0.0738,-0.02031 -0.11246,-0.0175 z m -2.00757,0.152522 c -0.0977,0.0055 -0.18212,0.06858 -0.22014,0.160024 -0.0541,0.133406 0.01,0.286121 0.14118,0.340051 0.1315,0.05494 0.28182,-0.01119 0.33499,-0.145022 0.0524,-0.132692 -0.0106,-0.283615 -0.14118,-0.33755 -0.036,-0.01459 -0.0762,-0.02031 -0.11485,-0.0175 z m 0.83509,0.345052 c -0.0977,0.0055 -0.18452,0.06858 -0.22253,0.160024 -0.0544,0.132695 0.008,0.285112 0.13878,0.34005 0.1308,0.05522 0.28085,-0.0097 0.335,-0.142521 0.0524,-0.132693 -0.0107,-0.283615 -0.14118,-0.33755 -0.035,-0.01508 -0.0721,-0.02162 -0.11007,-0.02 z m 0.83031,0.345051 c -0.0982,0.006 -0.18288,0.07009 -0.22014,0.162524 -0.0541,0.133402 0.01,0.286117 0.14118,0.340051 0.13151,0.05494 0.28182,-0.01119 0.33499,-0.145022 0.0524,-0.132692 -0.0107,-0.283615 -0.14118,-0.33755 -0.0358,-0.01546 -0.076,-0.02201 -0.11485,-0.02 z m 13.56727,0.485072 h 0.58624 l 1.49072,4.588184 h -0.91645 L 179.859,69.049751 h -1.47159 l -0.18185,0.710106 h -0.86381 z m -14.73975,0.015 c -0.0982,0.006 -0.18526,0.06758 -0.22253,0.160024 -0.0541,0.133404 0.01,0.28612 0.14117,0.34005 0.1315,0.05494 0.28184,-0.0087 0.335,-0.142521 0.0524,-0.132693 -0.0106,-0.283616 -0.14118,-0.33755 -0.0358,-0.01546 -0.0736,-0.02201 -0.11246,-0.02 z m 0.8327,0.345051 c -0.0989,0.0064 -0.18365,0.06909 -0.22014,0.162524 -0.0528,0.131987 0.01,0.282617 0.13878,0.337551 0.1308,0.05522 0.28085,-0.0072 0.335,-0.140021 0.0541,-0.133405 -0.01,-0.28612 -0.14118,-0.340051 -0.035,-0.01508 -0.0745,-0.02162 -0.11246,-0.02 z m -1.17248,0.500075 c -0.0982,0.006 -0.18526,0.06758 -0.22253,0.160023 -0.0524,0.132692 0.0107,0.283616 0.14117,0.337551 0.1301,0.05353 0.27846,-0.0086 0.3326,-0.140021 0.0544,-0.132695 -0.008,-0.285112 -0.13878,-0.340051 -0.036,-0.01459 -0.0738,-0.02031 -0.11246,-0.0175 z m 15.36906,0.172525 c -0.0414,0.163661 -0.0878,0.320206 -0.12921,0.477571 -0.0414,0.157366 -0.083,0.313999 -0.12443,0.46507 -0.0466,0.157366 -0.0874,0.316411 -0.134,0.480071 -0.0414,0.163661 -0.0874,0.325119 -0.134,0.495074 h 1.05524 z m 3.99839,0.03751 c 0.66291,0 1.00423,0.522317 1.04566,1.460217 l 0.0742,2.057807 h -0.81834 l 0.0981,-2.070308 c 0,-0.52875 -0.12396,-0.792619 -0.44506,-0.792619 -0.47647,0 -0.68913,0.333618 -0.68913,0.900135 l 0.0766,1.962792 h -0.79681 l 0.0766,-3.468017 h 0.62213 v 0.270041 c 0.0725,-0.05665 0.14485,-0.105873 0.22254,-0.162525 0.15536,-0.100714 0.33161,-0.157523 0.53359,-0.157523 z m 3.07238,0 c 0.82346,0 1.2323,0.51653 1.2323,1.567733 v 1.950291 h -0.62692 v -0.26504 c -0.20198,0.226607 -0.46139,0.347552 -0.81356,0.347552 -0.30038,0 -0.53418,-0.102323 -0.71545,-0.310046 -0.18126,-0.207723 -0.26799,-0.482712 -0.26799,-0.822622 0,-0.799419 0.42523,-1.210181 1.28494,-1.210181 h 0.51206 c -0.0207,-0.365088 -0.25406,-0.604828 -0.65802,-0.642595 -0.29002,0 -0.60096,0.119738 -0.94277,0.34005 v -0.697604 c 0.36771,-0.169955 0.70021,-0.257538 0.99541,-0.257538 z m -21.60952,0.13502 c -0.0982,0.006 -0.18528,0.06758 -0.22254,0.160024 -0.0524,0.132693 0.0107,0.283616 0.14118,0.33755 0.13079,0.05522 0.28084,-0.0072 0.33499,-0.140021 0.0524,-0.132692 -0.0106,-0.283615 -0.14117,-0.33755 -0.0358,-0.01546 -0.0736,-0.02201 -0.11246,-0.02 z m -0.33978,0.842626 c -0.0982,0.006 -0.18528,0.07008 -0.22254,0.162524 -0.0544,0.132697 0.008,0.285115 0.13879,0.34005 0.1315,0.05494 0.28182,-0.01119 0.33499,-0.145021 0.0528,-0.131987 -0.01,-0.282618 -0.13878,-0.33755 -0.0358,-0.01546 -0.0736,-0.02201 -0.11246,-0.02 z m 0.75134,0.362554 c -0.0982,0.006 -0.18526,0.07008 -0.22253,0.162524 -0.0544,0.132697 0.008,0.285115 0.13878,0.34005 0.13149,0.05494 0.28184,-0.0087 0.335,-0.142521 0.0541,-0.133405 -0.01,-0.286121 -0.14118,-0.34005 -0.0352,-0.01421 -0.0723,-0.02243 -0.11007,-0.02 z m -1.09112,0.485072 c -0.0992,0.005 -0.18729,0.06678 -0.22493,0.160024 -0.0524,0.132693 0.0107,0.283615 0.14118,0.33755 0.1308,0.05522 0.28083,-0.0072 0.33499,-0.140021 0.0541,-0.133405 -0.01,-0.286121 -0.14117,-0.340051 -0.0352,-0.01421 -0.0723,-0.01993 -0.11007,-0.0175 z m 22.35608,0.05001 c -0.30038,0 -0.49341,0.03698 -0.58146,0.112517 -0.0829,0.06924 -0.11924,0.177684 -0.12442,0.33505 0.0207,0.100714 0.0623,0.16985 0.12442,0.195029 0.0984,0.03147 0.22349,0.05001 0.3685,0.05001 0.38324,0 0.51206,-0.07702 0.51206,-0.687602 v -0.005 z m -21.60713,0.310046 c -0.0982,0.006 -0.18526,0.06758 -0.22253,0.160024 -0.0541,0.133406 0.01,0.286121 0.14117,0.340051 0.1308,0.05522 0.28085,-0.0072 0.335,-0.140021 0.0541,-0.133405 -0.01,-0.286121 -0.14118,-0.340051 -0.0358,-0.01546 -0.0736,-0.02201 -0.11246,-0.02 z m -1.09113,0.482572 c -0.0982,0.006 -0.18527,0.06758 -0.22253,0.160024 -0.0524,0.132693 0.0106,0.283616 0.14118,0.33755 0.1308,0.05522 0.28083,-0.0072 0.33499,-0.14002 0.0524,-0.132693 -0.0107,-0.283616 -0.14117,-0.337551 -0.0358,-0.01546 -0.0736,-0.02201 -0.11247,-0.02 z m 0.74895,0.362554 c -0.0977,0.0055 -0.18212,0.06858 -0.22013,0.160024 -0.0541,0.133406 0.01,0.28362 0.14117,0.33755 0.1301,0.05352 0.27846,-0.0086 0.3326,-0.14002 0.0524,-0.132693 -0.0106,-0.283616 -0.14117,-0.337551 -0.035,-0.01508 -0.0745,-0.02162 -0.11247,-0.02 z m 0.8327,0.347552 c -0.0968,0.0064 -0.18252,0.06937 -0.22013,0.160024 -0.0544,0.132698 0.008,0.282616 0.13878,0.33755 0.1308,0.05323 0.27943,-0.01012 0.3326,-0.142521 0.0524,-0.132693 -0.0107,-0.283616 -0.14118,-0.33755 -0.0352,-0.01421 -0.0723,-0.01993 -0.11007,-0.0175 z m -1.92382,0.13252 c -0.0982,0.006 -0.18288,0.07008 -0.22014,0.162524 -0.0544,0.132695 0.008,0.285112 0.13878,0.340051 0.1308,0.05522 0.28085,-0.0097 0.335,-0.142521 0.0544,-0.132697 -0.008,-0.285117 -0.13878,-0.340051 -0.0358,-0.01546 -0.076,-0.02201 -0.11486,-0.02 z m 2.75652,0.212532 c -0.0977,0.0055 -0.18212,0.06858 -0.22013,0.160023 -0.0544,0.132697 0.008,0.285117 0.13878,0.340051 0.1315,0.05494 0.28183,-0.01119 0.33499,-0.145022 0.0524,-0.132692 -0.0106,-0.283615 -0.14117,-0.33755 -0.0352,-0.01421 -0.0747,-0.01993 -0.11247,-0.0175 z m -2.00757,0.150022 c -0.0982,0.006 -0.18288,0.07009 -0.22014,0.162524 -0.0541,0.133402 0.007,0.286116 0.13879,0.340051 0.13151,0.05494 0.28422,-0.0087 0.33738,-0.142521 0.0524,-0.132693 -0.0107,-0.283616 -0.14117,-0.337551 -0.0358,-0.01546 -0.076,-0.02451 -0.11486,-0.0225 z m 0.83509,0.350052 c -0.0982,0.006 -0.18527,0.06758 -0.22253,0.160024 -0.0527,0.131986 0.01,0.282617 0.13879,0.33755 0.1308,0.05522 0.28083,-0.0072 0.33499,-0.140021 0.0541,-0.133405 -0.01,-0.28612 -0.14118,-0.34005 -0.0352,-0.01421 -0.0723,-0.01993 -0.11007,-0.0175 z m -1.92621,0.13502 c -0.0982,0.006 -0.18287,0.06759 -0.22014,0.160024 -0.0541,0.133402 0.01,0.286116 0.14117,0.340051 0.1315,0.05494 0.28184,-0.0087 0.335,-0.142522 0.0541,-0.133405 -0.01,-0.28612 -0.14118,-0.34005 -0.036,-0.01459 -0.0762,-0.02031 -0.11485,-0.0175 z m 2.75652,0.210031 c -0.0982,0.006 -0.18288,0.06758 -0.22014,0.160024 -0.0541,0.133403 0.007,0.286116 0.13879,0.340051 0.13151,0.05494 0.28422,-0.0087 0.33738,-0.142521 0.0541,-0.133406 -0.01,-0.28612 -0.14117,-0.340051 -0.036,-0.01459 -0.0762,-0.02031 -0.11486,-0.0175 z"
       transform="matrix(0.2159649,0,0,0.20667494,-3.1281674,121.791)" />
    <path
       id="rect22433-9-4-7-6-7-4-3-5"
       style="opacity:1;fill:#000000;fill-opacity:1;stroke:none;stroke-width:101.293;stroke-linecap:round;stroke-linejoin:round;paint-order:fill markers stroke"
       d="m 158.96164,62.298842 c -2.90682,0 -5.24984,2.243075 -5.24984,5.030749 0,2.787675 2.34302,5.03325 5.24984,5.03325 h 25.92377 c 2.90683,0 5.24984,-2.245575 5.24984,-5.03325 0,-2.787674 -2.34301,-5.030749 -5.24984,-5.030749 z m -0.33499,0.662599 a 4.1245386,4.309935 0 0 1 4.12282,4.310642 4.1245386,4.309935 0 0 1 -4.12282,4.310642 4.1245386,4.309935 0 0 1 -4.12522,-4.310642 4.1245386,4.309935 0 0 1 4.12522,-4.310642 z m 11.77265,0 a 4.1245386,4.309935 0 0 1 4.12522,4.310642 4.1245386,4.309935 0 0 1 -4.12522,4.310642 4.1245386,4.309935 0 0 1 -4.12282,-4.310642 4.1245386,4.309935 0 0 1 4.12282,-4.310642 z m -8.85342,0.232534 h 1.37587 c 0.024,0.04737 0.0594,0.08733 0.10768,0.112517 0.11977,0.04874 0.25317,-0.0022 0.31585,-0.112517 h 0.47617 c -0.0427,0.02829 -0.078,0.06774 -0.0981,0.117518 -0.0544,0.132695 0.008,0.285113 0.13878,0.34005 0.1315,0.05494 0.28183,-0.0087 0.33499,-0.142521 0.0473,-0.11673 0.004,-0.247882 -0.0957,-0.315047 h 1.61755 c -0.0315,0.123441 0.0286,0.254896 0.14835,0.305046 0.1308,0.05522 0.28084,-0.0072 0.335,-0.140021 0.021,-0.05307 0.0214,-0.111768 0.007,-0.165025 h 1.22752 a 4.9807934,5.2046782 0 0 0 -0.51685,0.512577 c 0.0151,-0.01664 0.03,-0.03365 0.0455,-0.05001 0.0164,-0.116736 -0.0461,-0.229063 -0.15314,-0.275041 -0.035,-0.01508 -0.0721,-0.02162 -0.11007,-0.02 -0.0992,0.005 -0.18728,0.06678 -0.22492,0.160024 -0.0541,0.133402 0.01,0.286117 0.14118,0.340051 0.046,0.01602 0.0942,0.01635 0.14117,0.005 a 4.9807934,5.2046782 0 0 0 -0.28474,0.360054 l -0.002,-0.0025 c -0.036,-0.01459 -0.0762,-0.02031 -0.11485,-0.0175 -0.0982,0.006 -0.18288,0.06759 -0.22014,0.160024 -0.0313,0.09895 -1.8e-4,0.207129 0.0766,0.275041 a 4.9807934,5.2046782 0 0 0 -0.54556,1.255187 c -0.0951,0.0087 -0.17905,0.06745 -0.21536,0.157523 -0.0445,0.116313 -1.5e-4,0.246669 0.1005,0.312547 a 4.9807934,5.2046782 0 0 0 -0.0455,0.427564 c -0.0184,-0.01465 -0.0381,-0.02843 -0.0598,-0.03751 -0.036,-0.01459 -0.0738,-0.02031 -0.11246,-0.0175 -0.0982,0.006 -0.18527,0.06758 -0.22254,0.160024 -0.0524,0.132693 0.0107,0.283617 0.14118,0.337551 0.07,0.02291 0.14362,0.01176 0.20578,-0.025 a 4.9807934,5.2046782 0 0 0 -0.0144,0.140021 4.9807934,5.2046782 0 0 0 0.24167,1.502724 c -0.0245,-0.02633 -0.0557,-0.04807 -0.0909,-0.06251 -0.036,-0.01459 -0.0738,-0.02031 -0.11246,-0.0175 -0.0973,0.007 -0.18327,0.06837 -0.22014,0.160024 -0.0544,0.132697 0.008,0.285115 0.13878,0.34005 0.1315,0.05494 0.28184,-0.0087 0.335,-0.142521 0.0103,-0.02543 0.017,-0.0515 0.0191,-0.07751 a 4.9807934,5.2046782 0 0 0 1.60797,2.397858 h -0.62931 c 0.0167,-0.11491 -0.0432,-0.230775 -0.15314,-0.277542 -0.0358,-0.01546 -0.0736,-0.02201 -0.11246,-0.02 -0.0982,0.006 -0.18527,0.06758 -0.22253,0.160024 -0.0161,0.04472 -0.0178,0.09178 -0.01,0.137521 h -1.5338 c -0.0264,-0.05652 -0.0708,-0.102246 -0.12921,-0.127519 -0.036,-0.01459 -0.0738,-0.02031 -0.11246,-0.0175 -0.0913,0.0065 -0.17053,0.06251 -0.21057,0.145022 h -0.49531 c 0.0545,-0.02663 0.0993,-0.07148 0.12442,-0.13252 0.0544,-0.132695 -0.008,-0.285113 -0.13878,-0.340051 -0.0358,-0.01546 -0.0736,-0.02201 -0.11246,-0.02 -0.0989,0.0064 -0.18604,0.06909 -0.22253,0.162524 -0.0504,0.127509 0.007,0.27112 0.12681,0.33005 h -1.57447 c 0.0385,-0.102943 0.008,-0.216556 -0.0742,-0.287543 a 4.9807934,5.2046782 0 0 0 1.64148,-3.803067 c 0.0601,-0.02372 0.11043,-0.07 0.13878,-0.130019 0.0541,-0.133403 -0.01,-0.286117 -0.14118,-0.340051 -0.0152,-0.0045 -0.0322,-0.0059 -0.0479,-0.0075 a 4.9807934,5.2046782 0 0 0 -0.38525,-1.605239 c 0.0245,0.02629 0.0525,0.04839 0.0861,0.06251 0.13149,0.05494 0.28183,-0.0087 0.33499,-0.142521 0.0544,-0.132695 -0.008,-0.285112 -0.13878,-0.340051 -0.036,-0.01459 -0.0762,-0.02031 -0.11486,-0.0175 -0.0982,0.006 -0.18288,0.06758 -0.22014,0.160024 -0.01,0.02393 -0.0143,0.04969 -0.0167,0.07501 a 4.9807934,5.2046782 0 0 0 -1.47637,-1.882781 z m 0.39243,0.110017 c -0.0658,0.0156 -0.12204,0.05694 -0.15793,0.115017 0.11325,0.105307 0.22242,0.215897 0.32542,0.330049 0.0351,-0.02159 0.0648,-0.05201 0.0861,-0.08751 0.0541,-0.133406 -0.01,-0.286121 -0.14117,-0.340051 -0.0352,-0.01421 -0.0723,-0.01993 -0.11007,-0.0175 z m 2.83788,0.192528 c -0.0982,0.006 -0.18527,0.06759 -0.22254,0.160024 -0.0541,0.133402 0.01,0.286116 0.14118,0.340051 0.1301,0.05354 0.27846,-0.0086 0.3326,-0.140021 0.0544,-0.132697 -0.005,-0.285117 -0.13639,-0.340051 -0.0358,-0.01546 -0.076,-0.02201 -0.11485,-0.02 z m -2.00518,0.152523 c -0.0982,0.006 -0.18527,0.07009 -0.22254,0.162524 -0.0541,0.133402 0.01,0.286116 0.14118,0.340051 0.1308,0.05323 0.27944,-0.01262 0.3326,-0.145022 0.0528,-0.131986 -0.01,-0.282617 -0.13878,-0.33755 -0.0358,-0.01546 -0.0736,-0.02201 -0.11246,-0.02 z m 2.83788,0.195029 c -0.0982,0.006 -0.18528,0.06759 -0.22254,0.160024 -0.0541,0.133402 0.01,0.286117 0.14118,0.340051 0.1315,0.05494 0.28183,-0.0087 0.335,-0.142522 0.0541,-0.133404 -0.01,-0.286119 -0.14118,-0.34005 -0.036,-0.01459 -0.0738,-0.02031 -0.11246,-0.0175 z m -2.00758,0.152523 c -0.0977,0.0055 -0.18212,0.06858 -0.22014,0.160024 -0.0541,0.133406 0.01,0.28612 0.14118,0.34005 0.1315,0.05494 0.28183,-0.01119 0.335,-0.145021 0.0524,-0.132692 -0.0106,-0.283616 -0.14118,-0.337551 -0.036,-0.01459 -0.0762,-0.02031 -0.11486,-0.0175 z m 0.8351,0.345051 c -0.0977,0.0055 -0.18453,0.06858 -0.22254,0.160024 -0.0544,0.132695 0.008,0.285113 0.13879,0.340051 0.1308,0.05522 0.28084,-0.0097 0.33499,-0.142521 0.0524,-0.132693 -0.0107,-0.283616 -0.14117,-0.337551 -0.035,-0.01508 -0.0721,-0.02162 -0.11007,-0.02 z m 15.07474,0.147522 h 0.58624 l 1.49072,4.588184 h -0.91644 l -0.134,-0.712606 h -1.47158 l -0.18186,0.712606 h -0.86381 z m -14.24444,0.19753 c -0.0982,0.006 -0.18288,0.07009 -0.22014,0.162524 -0.0541,0.133402 0.01,0.286117 0.14118,0.340051 0.13151,0.05494 0.28183,-0.01119 0.335,-0.145022 0.0524,-0.132693 -0.0107,-0.283615 -0.14118,-0.33755 -0.0358,-0.01546 -0.076,-0.02201 -0.11486,-0.02 z m -1.17248,0.500074 c -0.0982,0.006 -0.18526,0.06758 -0.22253,0.160024 -0.0541,0.133405 0.01,0.286121 0.14118,0.340051 0.1315,0.05494 0.28183,-0.0087 0.33499,-0.142522 0.0524,-0.132692 -0.0106,-0.283616 -0.14117,-0.33755 -0.0358,-0.01546 -0.0736,-0.02201 -0.11247,-0.02 z m 15.70884,0.33255 c -0.0414,0.16366 -0.0902,0.322705 -0.1316,0.480071 -0.0414,0.157366 -0.0806,0.313998 -0.12204,0.465069 -0.0466,0.157366 -0.0898,0.313911 -0.13639,0.477572 -0.0414,0.16366 -0.0874,0.327619 -0.13399,0.497574 h 1.05762 z m -14.87614,0.0125 c -0.0989,0.0064 -0.18365,0.06909 -0.22014,0.162524 -0.0528,0.131987 0.01,0.282616 0.13879,0.33755 0.1308,0.05522 0.28084,-0.0072 0.33499,-0.140021 0.0541,-0.133405 -0.01,-0.28612 -0.14117,-0.34005 -0.035,-0.01508 -0.0745,-0.02162 -0.11247,-0.02 z m 18.87215,0.0275 c 0.6629,0 1.00662,0.522317 1.04805,1.460217 l 0.0718,2.057807 h -0.81834 l 0.0981,-2.070309 c 0,-0.528749 -0.12397,-0.795118 -0.44507,-0.795118 -0.47646,0 -0.68913,0.333617 -0.68913,0.900134 l 0.079,1.965293 h -0.7992 l 0.079,-3.468017 h 0.61974 v 0.27004 c 0.0725,-0.05665 0.14724,-0.108373 0.22492,-0.165024 0.15537,-0.100714 0.32923,-0.155023 0.53121,-0.155023 z m 3.07237,0 c 0.82346,0 1.2323,0.514029 1.2323,1.565233 v 1.952791 h -0.62692 v -0.26504 c -0.20198,0.226607 -0.46138,0.347552 -0.81355,0.347552 -0.30038,0 -0.5318,-0.102323 -0.71306,-0.310046 -0.18127,-0.207723 -0.27039,-0.485213 -0.27039,-0.825123 0,-0.799419 0.42523,-1.20768 1.28494,-1.20768 h 0.51206 c -0.0207,-0.365089 -0.25406,-0.604828 -0.65802,-0.642596 -0.29002,0 -0.60096,0.119739 -0.94277,0.340051 V 65.81686 c 0.36771,-0.169955 0.70021,-0.257538 0.99541,-0.257538 z m -23.117,0.47257 c -0.0982,0.006 -0.18526,0.06758 -0.22253,0.160024 -0.0524,0.132692 0.0107,0.283615 0.14118,0.33755 0.1301,0.05353 0.27846,-0.0086 0.3326,-0.140021 0.0544,-0.132695 -0.008,-0.285111 -0.13878,-0.34005 -0.036,-0.01459 -0.0738,-0.02031 -0.11247,-0.0175 z m 0.83031,0.345051 c -0.0982,0.006 -0.18527,0.06758 -0.22253,0.160024 -0.0524,0.132693 0.0107,0.283617 0.14118,0.337551 0.13079,0.05522 0.28084,-0.0072 0.33499,-0.140021 0.0524,-0.132692 -0.0106,-0.283616 -0.14118,-0.337551 -0.0358,-0.01546 -0.0736,-0.02201 -0.11246,-0.02 z m -0.33978,0.842626 c -0.0982,0.006 -0.18527,0.07008 -0.22253,0.162524 -0.0544,0.132697 0.008,0.285116 0.13878,0.340051 0.1315,0.05494 0.28183,-0.01119 0.335,-0.145022 0.0528,-0.131987 -0.01,-0.282617 -0.13879,-0.33755 -0.0358,-0.01546 -0.0736,-0.02201 -0.11246,-0.02 z m 22.69347,0.215032 c -0.30038,0 -0.49102,0.03698 -0.57906,0.112517 -0.0829,0.06924 -0.11925,0.177684 -0.12443,0.33505 0.0207,0.100714 0.0623,0.16985 0.12443,0.195029 0.0984,0.03147 0.22109,0.05001 0.3661,0.05001 0.38324,0 0.51446,-0.07702 0.51446,-0.687602 v -0.005 z m -21.94212,0.147522 c -0.0982,0.006 -0.18527,0.07008 -0.22254,0.162524 -0.0544,0.132697 0.008,0.285116 0.13879,0.340051 0.13149,0.05494 0.28183,-0.0087 0.33499,-0.142521 0.0541,-0.133405 -0.01,-0.286121 -0.14117,-0.340051 -0.0352,-0.01421 -0.0723,-0.02243 -0.11007,-0.02 z m -1.09113,0.485072 c -0.0992,0.005 -0.18728,0.06678 -0.22492,0.160024 -0.0524,0.132693 0.0107,0.283615 0.14117,0.33755 0.1308,0.05522 0.28084,-0.0072 0.335,-0.14002 0.0541,-0.133405 -0.01,-0.286121 -0.14118,-0.340051 -0.0352,-0.01421 -0.0723,-0.01993 -0.11007,-0.0175 z m 0.74895,0.360054 c -0.0982,0.006 -0.18526,0.06758 -0.22253,0.160024 -0.0541,0.133406 0.01,0.28612 0.14118,0.34005 0.1308,0.05522 0.28084,-0.0072 0.33499,-0.14002 0.0541,-0.133405 -0.01,-0.286121 -0.14117,-0.340051 -0.0358,-0.01546 -0.0736,-0.02201 -0.11247,-0.02 z m -1.09112,0.482572 c -0.0982,0.006 -0.18527,0.06758 -0.22253,0.160024 -0.0524,0.132692 0.0106,0.283615 0.14117,0.33755 0.1308,0.05522 0.28084,-0.0072 0.335,-0.140021 0.0524,-0.132693 -0.0107,-0.283615 -0.14118,-0.33755 -0.0358,-0.01546 -0.0736,-0.02201 -0.11246,-0.02 z m 0.74895,0.362554 c -0.0977,0.0055 -0.18213,0.06858 -0.22014,0.160024 -0.0541,0.133405 0.01,0.283619 0.14118,0.33755 0.1301,0.05352 0.27846,-0.0086 0.3326,-0.140021 0.0524,-0.132693 -0.0106,-0.283615 -0.14118,-0.33755 -0.035,-0.01508 -0.0745,-0.02162 -0.11246,-0.02 z m 0.8327,0.347552 c -0.0968,0.0064 -0.18253,0.06937 -0.22014,0.160023 -0.0544,0.132698 0.008,0.282617 0.13878,0.337551 0.1308,0.05323 0.27944,-0.01012 0.33261,-0.142522 0.0524,-0.132692 -0.0107,-0.283616 -0.14118,-0.33755 -0.0352,-0.01421 -0.0723,-0.01993 -0.11007,-0.0175 z m -1.92382,0.132519 c -0.0982,0.006 -0.18288,0.07008 -0.22014,0.162525 -0.0544,0.132694 0.008,0.285111 0.13878,0.34005 0.1308,0.05522 0.28084,-0.0097 0.33499,-0.142521 0.0544,-0.132697 -0.008,-0.285117 -0.13878,-0.340051 -0.0358,-0.01546 -0.076,-0.02201 -0.11485,-0.02 z m 2.75652,0.212532 c -0.0977,0.0055 -0.18213,0.06858 -0.22014,0.160024 -0.0544,0.132697 0.008,0.285117 0.13878,0.34005 0.1315,0.05494 0.28184,-0.01119 0.335,-0.145021 0.0524,-0.132693 -0.0106,-0.283615 -0.14118,-0.33755 -0.0352,-0.01421 -0.0747,-0.01993 -0.11246,-0.0175 z M 163.96981,70.115 c -0.0982,0.006 -0.18288,0.07009 -0.22014,0.162525 -0.0541,0.133401 0.007,0.286115 0.13878,0.34005 0.13151,0.05494 0.28423,-0.0087 0.33739,-0.142521 0.0524,-0.132693 -0.0107,-0.283615 -0.14118,-0.33755 -0.0358,-0.01546 -0.076,-0.02451 -0.11485,-0.0225 z m 0.83509,0.350052 c -0.0982,0.006 -0.18527,0.06758 -0.22253,0.160024 -0.0527,0.131986 0.01,0.282618 0.13878,0.337551 0.1308,0.05522 0.28084,-0.0072 0.335,-0.140021 0.0541,-0.133405 -0.01,-0.286121 -0.14118,-0.340051 -0.0352,-0.01421 -0.0723,-0.01993 -0.11007,-0.0175 z m -1.92622,0.135021 c -0.0982,0.006 -0.18287,0.06759 -0.22014,0.160023 -0.0541,0.133402 0.01,0.286116 0.14118,0.340051 0.1315,0.05494 0.28183,-0.0087 0.33499,-0.142521 0.0541,-0.133406 -0.01,-0.286121 -0.14117,-0.340051 -0.036,-0.01459 -0.0762,-0.02031 -0.11486,-0.0175 z m 2.75653,0.210031 c -0.0982,0.006 -0.18288,0.06758 -0.22014,0.160024 -0.0541,0.133403 0.007,0.286115 0.13878,0.34005 0.13151,0.05494 0.28423,-0.0087 0.33739,-0.142521 0.0541,-0.133406 -0.01,-0.28612 -0.14118,-0.340051 -0.036,-0.01459 -0.0762,-0.02031 -0.11485,-0.0175 z"
       transform="matrix(0.2159649,0,0,0.20667494,-3.1300428,114.17129)" />
    <path
       id="rect22433-9-5"
       style="opacity:1;fill:#000000;fill-opacity:1;stroke:none;stroke-width:101.293;stroke-linecap:round;stroke-linejoin:round;paint-order:fill markers stroke"
       d="m 158.9601,62.30049 c -2.90684,0 -5.24745,2.243079 -5.24745,5.03075 0,2.787671 2.34061,5.03325 5.24745,5.03325 h 6.6616 v 7.056051 c 0,3.037491 2.14897,5.483317 4.81674,5.483317 2.66777,0 4.81434,-2.445826 4.81434,-5.483317 V 72.36449 h 9.63588 c 2.9068,0 5.24505,-2.245579 5.24505,-5.03325 0,-2.787671 -2.33825,-5.03075 -5.24505,-5.03075 h -14.45022 z m -0.3015,0.810121 a 4.1245386,4.3099351 0 0 1 4.12283,4.308142 4.1245386,4.3099351 0 0 1 -4.12283,4.310642 4.1245386,4.3099351 0 0 1 -4.12521,-4.310642 4.1245386,4.3099351 0 0 1 4.12521,-4.308142 z m 11.77505,0 a 4.1245386,4.3099351 0 0 1 4.12282,4.308142 4.1245386,4.3099351 0 0 1 -4.12282,4.310642 4.1245386,4.3099351 0 0 1 -4.12521,-4.310642 4.1245386,4.3099351 0 0 1 4.12521,-4.308142 z m 9.44206,1.622742 h 0.63648 v 4.590684 h -0.85423 l -1.41416,-3.242983 c 0.0207,0.541335 0.0415,1.082609 0.0622,1.630243 0.0207,0.553924 0.0415,1.090285 0.0622,1.61274 h -0.81356 l 0.0981,-4.500671 h 0.75613 l 1.3974,3.115464 z m 6.00596,1.070159 c 0.21234,0 0.40416,0.07164 0.56471,0.19753 0.11912,0.09442 0.21742,0.218984 0.28474,0.370055 0.18645,-0.333616 0.41045,-0.567585 0.8662,-0.567585 0.30556,0 0.54294,0.134566 0.70349,0.380057 0.16573,0.251785 0.24885,0.621859 0.24885,1.087662 0.0103,0.325908 0.016,0.669371 0.0263,1.020152 0.0104,0.358794 0.0211,0.711627 0.0263,1.032654 h -0.80399 l 0.12921,-2.127817 c 0,-0.566517 -0.0876,-0.787618 -0.38285,-0.787618 -0.38324,0 -0.61017,0.402247 -0.61017,0.987648 l -0.0263,1.927787 h -0.7992 l 0.17707,-2.165323 c -0.005,-0.528746 -0.14393,-0.780116 -0.45463,-0.780116 -0.19163,0 -0.34749,0.09241 -0.4666,0.287543 -0.1243,0.195133 -0.19143,0.441849 -0.19143,0.725108 0.0104,0.302142 0.0136,0.636532 0.0239,0.970144 0.0104,0.327321 0.0211,0.660501 0.0263,0.962644 h -0.77049 l 0.0981,-3.443013 h 0.6317 l -0.0144,0.232534 c 0.19163,-0.207719 0.41786,-0.310046 0.71306,-0.310046 z m -4.61335,0.07751 h 0.55274 v 1.572734 c 0.0259,0.528749 0.16704,0.80512 0.48814,0.80512 0.20716,0 0.36741,-0.07517 0.47617,-0.232535 0.11394,-0.157362 0.17071,-0.395636 0.19143,-0.6726 l 0.0263,-1.472719 h 0.69391 l -0.0526,3.443013 h -0.62692 l 0.012,-0.26504 c -0.1968,0.232902 -0.44179,0.345052 -0.73699,0.345052 -0.67327,0 -1.02413,-0.502143 -1.02413,-1.465219 z m -10.83467,9.516418 a 4.1245386,4.3099351 0 0 1 4.12282,4.310642 4.1245386,4.3099351 0 0 1 -4.12282,4.310642 4.1245386,4.3099351 0 0 1 -4.12521,-4.310642 4.1245386,4.3099351 0 0 1 4.12521,-4.310642 z"
       transform="matrix(0.2159649,0,0,0.20667494,-3.1348768,116.68449)" />
  </g>
</svg>
