<?xml version="1.0" encoding="UTF-8" standalone="no"?>
<!-- Created with Inkscape (http://www.inkscape.org/) -->

<svg
   width="10mm"
   height="10.56984mm"
   viewBox="0 0 10 10.56984"
   version="1.1"
   id="svg310"
   inkscape:version="1.2 (dc2aedaf03, 2022-05-15)"
   sodipodi:docname="LogoK.svg"
   xmlns:inkscape="http://www.inkscape.org/namespaces/inkscape"
   xmlns:sodipodi="http://sodipodi.sourceforge.net/DTD/sodipodi-0.dtd"
   xmlns="http://www.w3.org/2000/svg"
   xmlns:svg="http://www.w3.org/2000/svg">
  <sodipodi:namedview
     id="namedview312"
     pagecolor="#505050"
     bordercolor="#ffffff"
     borderopacity="1"
     inkscape:showpageshadow="0"
     inkscape:pageopacity="0"
     inkscape:pagecheckerboard="1"
     inkscape:deskcolor="#505050"
     inkscape:document-units="mm"
     showgrid="false"
     inkscape:zoom="8.4359982"
     inkscape:cx="37.873408"
     inkscape:cy="42.674263"
     inkscape:window-width="1920"
     inkscape:window-height="1017"
     inkscape:window-x="1912"
     inkscape:window-y="396"
     inkscape:window-maximized="1"
     inkscape:current-layer="layer1" />
  <defs
     id="defs307" />
  <g
     inkscape:label="Calque 1"
     inkscape:groupmode="layer"
     id="layer1"
     transform="translate(-0.31460135,-0.3133157)">
    <path
       style="fill:#000000;stroke-width:2.3643"
       d="M 103.63012,151.35403 C 98.799711,142.87715 93.662857,132.7691 90.260165,125.04527 l -1.945791,-4.41678 -2.135682,1.48832 c -3.881416,2.70491 -8.399131,6.37893 -12.557093,10.21203 l -1.961729,1.80846 0.05128,2.028 c 0.06511,2.57468 0.716325,10.19425 1.17498,13.7479 0.193371,1.49824 0.259887,2.78075 0.147813,2.85001 -0.242486,0.14987 -10.061072,-0.35554 -12.127277,-0.62425 l -1.440508,-0.18733 -1.262568,-9.12812 c -1.759,-12.71724 -3.955476,-30.21699 -5.365533,-42.74826 -1.168982,-10.388812 -3.626658,-34.827847 -3.513044,-34.933558 0.09727,-0.0905 6.971714,-0.89098 11.302369,-1.316072 2.255573,-0.221406 8.128627,-0.473202 13.051228,-0.559548 l 8.95019,-0.156993 -0.21894,3.807736 c -0.273783,4.761598 -0.199104,30.829537 0.09376,32.726877 l 0.216474,1.402468 3.862335,-4.974342 C 95.164251,85.019178 103.53925,72.83283 109.59356,62.588616 l 0.89912,-1.521354 h 1.59635 c 5.53249,0 25.96147,1.928678 26.53824,2.505446 0.15533,0.155328 0.29694,-0.02538 -4.56723,5.828299 -10.10466,12.160241 -19.97992,23.460092 -27.59366,31.574303 -2.5812,2.75086 -4.23003,4.70967 -4.1202,4.89479 0.89166,1.50284 7.82729,11.72235 10.89348,16.05132 4.07569,5.75423 13.27875,18.13835 18.38207,24.73588 1.68731,2.18135 2.9833,4.04604 2.87998,4.14375 -0.24711,0.23368 -8.3627,1.85875 -13.54933,2.71312 -3.46228,0.57033 -8.39869,1.23974 -13.75833,1.86571 l -1.19063,0.13906 z"
       id="path826"
       inkscape:connector-curvature="0"
       transform="matrix(0.11190739,0,0,0.11190739,-5.204806,-6.5205622)" />
  </g>
</svg>
