999
"DXF R12 Output" (www.mydxf.blogspot.com)
 0 
SECTION
 2 
HEADER
 9 
$ACADVER
 1 
AC1009
 9 
$EXTMIN
 10 
 0 
 20 
 0 
 9 
$EXTMAX
 10 
 8.5 
 20 
 11 
 0 
ENDSEC
 0 
SECTION
 2 
ENTITIES
0
LINE
8
Calque 1
10
1.135390
20
12.236500
11
0.693474
21
12.155059
0
LINE
8
Calque 1
10
0.693474
20
12.155059
11
0.333340
21
11.932675
0
LINE
8
Calque 1
10
0.333340
20
11.932675
11
0.090914
21
11.602253
0
LINE
8
Calque 1
10
0.090914
20
11.602253
11
0.002121
21
11.196700
0
LINE
8
Calque 1
10
0.002121
20
11.196700
11
0.090914
21
10.791127
0
LINE
8
Calque 1
10
0.090914
20
10.791127
11
0.333340
21
10.460562
0
LINE
8
Calque 1
10
0.333340
20
10.460562
11
0.693474
21
10.238017
0
LINE
8
Calque 1
10
0.693474
20
10.238017
11
1.135390
21
10.156500
0
LINE
8
Calque 1
10
1.135390
20
10.156500
11
6.734530
21
10.156500
0
LINE
8
Calque 1
10
6.734530
20
10.156500
11
7.176448
21
10.238017
0
LINE
8
Calque 1
10
7.176448
20
10.238017
11
7.536582
21
10.460562
0
LINE
8
Calque 1
10
7.536582
20
10.460562
11
7.779008
21
10.791127
0
LINE
8
Calque 1
10
7.779008
20
10.791127
11
7.867800
21
11.196700
0
LINE
8
Calque 1
10
7.867800
20
11.196700
11
7.779008
21
11.602253
0
LINE
8
Calque 1
10
7.779008
20
11.602253
11
7.536582
21
11.932675
0
LINE
8
Calque 1
10
7.536582
20
11.932675
11
7.176448
21
12.155059
0
LINE
8
Calque 1
10
7.176448
20
12.155059
11
6.734530
21
12.236500
0
LINE
8
Calque 1
10
6.734530
20
12.236500
11
1.135390
21
12.236500
0
LINE
8
Calque 1
10
1.135390
20
12.236500
11
1.135390
21
12.236500
0
LINE
8
Calque 1
10
1.063040
20
12.099500
11
1.692714
21
11.838423
0
LINE
8
Calque 1
10
1.692714
20
11.838423
11
1.953430
21
11.208600
0
LINE
8
Calque 1
10
1.953430
20
11.208600
11
1.692714
21
10.578777
0
LINE
8
Calque 1
10
1.692714
20
10.578777
11
1.063040
21
10.317700
0
LINE
8
Calque 1
10
1.063040
20
10.317700
11
0.433035
21
10.578596
0
LINE
8
Calque 1
10
0.433035
20
10.578596
11
0.172138
21
11.208600
0
LINE
8
Calque 1
10
0.172138
20
11.208600
11
0.433035
21
11.838604
0
LINE
8
Calque 1
10
0.433035
20
11.838604
11
1.063040
21
12.099500
0
LINE
8
Calque 1
10
1.063040
20
12.099500
11
1.063040
21
12.099500
0
LINE
8
Calque 1
10
3.606040
20
12.099500
11
4.235707
21
11.838420
0
LINE
8
Calque 1
10
4.235707
20
11.838420
11
4.496420
21
11.208600
0
LINE
8
Calque 1
10
4.496420
20
11.208600
11
4.235707
21
10.578780
0
LINE
8
Calque 1
10
4.235707
20
10.578780
11
3.606040
21
10.317700
0
LINE
8
Calque 1
10
3.606040
20
10.317700
11
2.976036
21
10.578596
0
LINE
8
Calque 1
10
2.976036
20
10.578596
11
2.715140
21
11.208600
0
LINE
8
Calque 1
10
2.715140
20
11.208600
11
2.976036
21
11.838604
0
LINE
8
Calque 1
10
2.976036
20
11.838604
11
3.606040
21
12.099500
0
LINE
8
Calque 1
10
3.606040
20
12.099500
11
3.606040
21
12.099500
0
LINE
8
Calque 1
10
1.772560
20
12.051500
11
2.012850
21
12.051500
0
LINE
8
Calque 1
10
2.012850
20
12.051500
11
1.840250
21
11.911400
0
LINE
8
Calque 1
10
1.840250
20
11.911400
11
1.729670
21
12.016900
0
LINE
8
Calque 1
10
1.729670
20
12.016900
11
1.772560
21
12.051500
0
LINE
8
Calque 1
10
1.772560
20
12.051500
11
1.772560
21
12.051500
0
LINE
8
Calque 1
10
2.246430
20
12.051500
11
2.487240
21
12.051500
0
LINE
8
Calque 1
10
2.487240
20
12.051500
11
2.011300
21
11.665500
0
LINE
8
Calque 1
10
2.011300
20
11.665500
11
1.929140
21
11.794100
0
LINE
8
Calque 1
10
1.929140
20
11.794100
11
2.246430
21
12.051500
0
LINE
8
Calque 1
10
2.246430
20
12.051500
11
2.246430
21
12.051500
0
LINE
8
Calque 1
10
2.721340
20
12.051500
11
2.962150
21
12.051500
0
LINE
8
Calque 1
10
2.962150
20
12.051500
11
2.102770
21
11.354900
0
LINE
8
Calque 1
10
2.102770
20
11.354900
11
2.064010
21
11.519200
0
LINE
8
Calque 1
10
2.064010
20
11.519200
11
2.721340
21
12.051500
0
LINE
8
Calque 1
10
2.721340
20
12.051500
11
2.721340
21
12.051500
0
LINE
8
Calque 1
10
4.935670
20
11.702700
11
5.186300
21
11.702700
0
LINE
8
Calque 1
10
5.186300
20
11.702700
11
5.399301
21
11.628388
0
LINE
8
Calque 1
10
5.399301
20
11.628388
11
5.470530
21
11.409700
0
LINE
8
Calque 1
10
5.470530
20
11.409700
11
5.397660
21
11.184900
0
LINE
8
Calque 1
10
5.397660
20
11.184900
11
5.186300
21
11.104200
0
LINE
8
Calque 1
10
5.186300
20
11.104200
11
5.079850
21
11.104200
0
LINE
8
Calque 1
10
5.079850
20
11.104200
11
5.070030
21
10.754400
0
LINE
8
Calque 1
10
5.070030
20
10.754400
11
4.902080
21
10.754400
0
LINE
8
Calque 1
10
4.902080
20
10.754400
11
4.935670
21
11.702700
0
LINE
8
Calque 1
10
4.935670
20
11.702700
11
4.935670
21
11.702700
0
LINE
8
Calque 1
10
5.085540
20
11.602400
11
5.080880
21
11.459300
0
LINE
8
Calque 1
10
5.080880
20
11.459300
11
5.076750
21
11.312500
0
LINE
8
Calque 1
10
5.076750
20
11.312500
11
5.196120
21
11.312500
0
LINE
8
Calque 1
10
5.196120
20
11.312500
11
5.339270
21
11.458200
0
LINE
8
Calque 1
10
5.339270
20
11.458200
11
5.196120
21
11.602400
0
LINE
8
Calque 1
10
5.196120
20
11.602400
11
5.085540
21
11.602400
0
LINE
8
Calque 1
10
5.085540
20
11.602400
11
5.085540
21
11.602400
0
LINE
8
Calque 1
10
2.616430
20
11.581700
11
2.552350
21
11.334700
0
LINE
8
Calque 1
10
2.552350
20
11.334700
11
2.095020
21
10.963700
0
LINE
8
Calque 1
10
2.095020
20
10.963700
11
2.120340
21
11.179700
0
LINE
8
Calque 1
10
2.120340
20
11.179700
11
2.616430
21
11.581700
0
LINE
8
Calque 1
10
2.616430
20
11.581700
11
2.616430
21
11.581700
0
LINE
8
Calque 1
10
6.925220
20
11.481500
11
7.047170
21
11.441200
0
LINE
8
Calque 1
10
7.047170
20
11.441200
11
7.108670
21
11.364200
0
LINE
8
Calque 1
10
7.108670
20
11.364200
11
7.295740
21
11.481500
0
LINE
8
Calque 1
10
7.295740
20
11.481500
11
7.447670
21
11.403500
0
LINE
8
Calque 1
10
7.447670
20
11.403500
11
7.501410
21
11.178100
0
LINE
8
Calque 1
10
7.501410
20
11.178100
11
7.507090
21
10.967300
0
LINE
8
Calque 1
10
7.507090
20
10.967300
11
7.512780
21
10.754400
0
LINE
8
Calque 1
10
7.512780
20
10.754400
11
7.339150
21
10.754400
0
LINE
8
Calque 1
10
7.339150
20
10.754400
11
7.367050
21
11.193600
0
LINE
8
Calque 1
10
7.367050
20
11.193600
11
7.284370
21
11.356400
0
LINE
8
Calque 1
10
7.284370
20
11.356400
11
7.152590
21
11.152300
0
LINE
8
Calque 1
10
7.152590
20
11.152300
11
7.146910
21
10.754400
0
LINE
8
Calque 1
10
7.146910
20
10.754400
11
6.974830
21
10.754400
0
LINE
8
Calque 1
10
6.974830
20
10.754400
11
7.012550
21
11.201900
0
LINE
8
Calque 1
10
7.012550
20
11.201900
11
6.914360
21
11.363100
0
LINE
8
Calque 1
10
6.914360
20
11.363100
11
6.813590
21
11.303200
0
LINE
8
Calque 1
10
6.813590
20
11.303200
11
6.772250
21
11.153300
0
LINE
8
Calque 1
10
6.772250
20
11.153300
11
6.777940
21
10.953300
0
LINE
8
Calque 1
10
6.777940
20
10.953300
11
6.783110
21
10.754400
0
LINE
8
Calque 1
10
6.783110
20
10.754400
11
6.616710
21
10.754400
0
LINE
8
Calque 1
10
6.616710
20
10.754400
11
6.637900
21
11.466000
0
LINE
8
Calque 1
10
6.637900
20
11.466000
11
6.774320
21
11.466000
0
LINE
8
Calque 1
10
6.774320
20
11.466000
11
6.771220
21
11.417400
0
LINE
8
Calque 1
10
6.771220
20
11.417400
11
6.925220
21
11.481500
0
LINE
8
Calque 1
10
6.925220
20
11.481500
11
6.925220
21
11.481500
0
LINE
8
Calque 1
10
5.633820
20
11.466000
11
5.770250
21
11.466000
0
LINE
8
Calque 1
10
5.770250
20
11.466000
11
5.877220
21
11.041700
0
LINE
8
Calque 1
10
5.877220
20
11.041700
11
5.965580
21
11.245800
0
LINE
8
Calque 1
10
5.965580
20
11.245800
11
6.122170
21
11.245800
0
LINE
8
Calque 1
10
6.122170
20
11.245800
11
6.210530
21
11.041700
0
LINE
8
Calque 1
10
6.210530
20
11.041700
11
6.264270
21
11.255100
0
LINE
8
Calque 1
10
6.264270
20
11.255100
11
6.318020
21
11.466000
0
LINE
8
Calque 1
10
6.318020
20
11.466000
11
6.453410
21
11.466000
0
LINE
8
Calque 1
10
6.453410
20
11.466000
11
6.293210
21
10.754400
0
LINE
8
Calque 1
10
6.293210
20
10.754400
11
6.132500
21
10.754400
0
LINE
8
Calque 1
10
6.132500
20
10.754400
11
6.043100
21
11.015900
0
LINE
8
Calque 1
10
6.043100
20
11.015900
11
5.949050
21
10.754400
0
LINE
8
Calque 1
10
5.949050
20
10.754400
11
5.793500
21
10.754400
0
LINE
8
Calque 1
10
5.793500
20
10.754400
11
5.633820
21
11.466000
0
LINE
8
Calque 1
10
5.633820
20
11.466000
11
5.633820
21
11.466000
0
LINE
8
Calque 1
10
2.542020
20
11.136800
11
2.562690
21
10.958500
0
LINE
8
Calque 1
10
2.562690
20
10.958500
11
1.805630
21
10.344600
0
LINE
8
Calque 1
10
1.805630
20
10.344600
11
1.705900
21
10.344600
0
LINE
8
Calque 1
10
1.705900
20
10.344600
11
1.994250
21
10.692900
0
LINE
8
Calque 1
10
1.994250
20
10.692900
11
2.542020
21
11.136800
0
LINE
8
Calque 1
10
2.542020
20
11.136800
11
2.542020
21
11.136800
0
LINE
8
Calque 1
10
2.613330
20
10.809700
11
2.678960
21
10.668100
0
LINE
8
Calque 1
10
2.678960
20
10.668100
11
2.279500
21
10.344600
0
LINE
8
Calque 1
10
2.279500
20
10.344600
11
2.039210
21
10.344600
0
LINE
8
Calque 1
10
2.039210
20
10.344600
11
2.613330
21
10.809700
0
LINE
8
Calque 1
10
2.613330
20
10.809700
11
2.613330
21
10.809700
0
LINE
8
Calque 1
10
2.758550
20
10.543600
11
2.861900
21
10.431900
0
LINE
8
Calque 1
10
2.861900
20
10.431900
11
2.754410
21
10.344600
0
LINE
8
Calque 1
10
2.754410
20
10.344600
11
2.513080
21
10.344600
0
LINE
8
Calque 1
10
2.513080
20
10.344600
11
2.758550
21
10.543600
0
LINE
8
Calque 1
10
2.758550
20
10.543600
11
2.758550
21
10.543600
0
LINE
8
Calque 1
10
1.133840
20
9.691410
11
0.691843
21
9.609972
0
LINE
8
Calque 1
10
0.691843
20
9.609972
11
0.331531
21
9.387597
0
LINE
8
Calque 1
10
0.331531
20
9.387597
11
0.088927
21
9.057197
0
LINE
8
Calque 1
10
0.088927
20
9.057197
11
0.000055
21
8.651680
0
LINE
8
Calque 1
10
0.000055
20
8.651680
11
0.088927
21
8.246082
0
LINE
8
Calque 1
10
0.088927
20
8.246082
11
0.331531
21
7.915503
0
LINE
8
Calque 1
10
0.331531
20
7.915503
11
0.691843
21
7.692949
0
LINE
8
Calque 1
10
0.691843
20
7.692949
11
1.133840
21
7.611430
0
LINE
8
Calque 1
10
1.133840
20
7.611430
11
6.732460
21
7.611430
0
LINE
8
Calque 1
10
6.732460
20
7.611430
11
7.174454
21
7.692949
0
LINE
8
Calque 1
10
7.174454
20
7.692949
11
7.534764
21
7.915503
0
LINE
8
Calque 1
10
7.534764
20
7.915503
11
7.777367
21
8.246082
0
LINE
8
Calque 1
10
7.777367
20
8.246082
11
7.866240
21
8.651680
0
LINE
8
Calque 1
10
7.866240
20
8.651680
11
7.777367
21
9.057197
0
LINE
8
Calque 1
10
7.777367
20
9.057197
11
7.534764
21
9.387597
0
LINE
8
Calque 1
10
7.534764
20
9.387597
11
7.174454
21
9.609972
0
LINE
8
Calque 1
10
7.174454
20
9.609972
11
6.732460
21
9.691410
0
LINE
8
Calque 1
10
6.732460
20
9.691410
11
1.133840
21
9.691410
0
LINE
8
Calque 1
10
1.133840
20
9.691410
11
1.133840
21
9.691410
0
LINE
8
Calque 1
10
1.061490
20
9.554470
11
1.691157
21
9.293390
0
LINE
8
Calque 1
10
1.691157
20
9.293390
11
1.951870
21
8.663570
0
LINE
8
Calque 1
10
1.951870
20
8.663570
11
1.691161
21
8.033744
0
LINE
8
Calque 1
10
1.691161
20
8.033744
11
1.061490
21
7.772660
0
LINE
8
Calque 1
10
1.061490
20
7.772660
11
0.431481
21
8.033559
0
LINE
8
Calque 1
10
0.431481
20
8.033559
11
0.170587
21
8.663570
0
LINE
8
Calque 1
10
0.170587
20
8.663570
11
0.431484
21
9.293575
0
LINE
8
Calque 1
10
0.431484
20
9.293575
11
1.061490
21
9.554470
0
LINE
8
Calque 1
10
1.061490
20
9.554470
11
1.061490
21
9.554470
0
LINE
8
Calque 1
10
3.603970
20
9.554470
11
4.233974
21
9.293574
0
LINE
8
Calque 1
10
4.233974
20
9.293574
11
4.494870
21
8.663570
0
LINE
8
Calque 1
10
4.494870
20
8.663570
11
4.233977
21
8.033560
0
LINE
8
Calque 1
10
4.233977
20
8.033560
11
3.603970
21
7.772660
0
LINE
8
Calque 1
10
3.603970
20
7.772660
11
2.974299
21
8.033744
0
LINE
8
Calque 1
10
2.974299
20
8.033744
11
2.713590
21
8.663570
0
LINE
8
Calque 1
10
2.713590
20
8.663570
11
2.974303
21
9.293390
0
LINE
8
Calque 1
10
2.974303
20
9.293390
11
3.603970
21
9.554470
0
LINE
8
Calque 1
10
3.603970
20
9.554470
11
3.603970
21
9.554470
0
LINE
8
Calque 1
10
1.691940
20
9.506410
11
1.989080
21
9.506410
0
LINE
8
Calque 1
10
1.989080
20
9.506410
11
2.012340
21
9.483150
0
LINE
8
Calque 1
10
2.012340
20
9.483150
11
2.080550
21
9.506410
0
LINE
8
Calque 1
10
2.080550
20
9.506410
11
2.183390
21
9.506410
0
LINE
8
Calque 1
10
2.183390
20
9.506410
11
2.162200
21
9.482120
0
LINE
8
Calque 1
10
2.162200
20
9.482120
11
2.192170
21
9.411840
0
LINE
8
Calque 1
10
2.192170
20
9.411840
11
2.264520
21
9.441300
0
LINE
8
Calque 1
10
2.264520
20
9.441300
11
2.243850
21
9.506410
0
LINE
8
Calque 1
10
2.243850
20
9.506410
11
2.593180
21
9.506410
0
LINE
8
Calque 1
10
2.593180
20
9.506410
11
2.625220
21
9.443360
0
LINE
8
Calque 1
10
2.625220
20
9.443360
11
2.697570
21
9.472300
0
LINE
8
Calque 1
10
2.697570
20
9.472300
11
2.699120
21
9.506410
0
LINE
8
Calque 1
10
2.699120
20
9.506410
11
2.964220
21
9.506410
0
LINE
8
Calque 1
10
2.964220
20
9.506410
11
2.852600
21
9.400470
0
LINE
8
Calque 1
10
2.852600
20
9.400470
11
2.862410
21
9.410810
0
LINE
8
Calque 1
10
2.862410
20
9.410810
11
2.829340
21
9.467650
0
LINE
8
Calque 1
10
2.829340
20
9.467650
11
2.805570
21
9.471790
0
LINE
8
Calque 1
10
2.805570
20
9.471790
11
2.756990
21
9.438710
0
LINE
8
Calque 1
10
2.756990
20
9.438710
11
2.787480
21
9.368430
0
LINE
8
Calque 1
10
2.787480
20
9.368430
11
2.817970
21
9.367400
0
LINE
8
Calque 1
10
2.817970
20
9.367400
11
2.756480
21
9.292980
0
LINE
8
Calque 1
10
2.756480
20
9.292980
11
2.755960
21
9.293500
0
LINE
8
Calque 1
10
2.755960
20
9.293500
11
2.731160
21
9.297120
0
LINE
8
Calque 1
10
2.731160
20
9.297120
11
2.683610
21
9.264050
0
LINE
8
Calque 1
10
2.683610
20
9.264050
11
2.700150
21
9.207200
0
LINE
8
Calque 1
10
2.700150
20
9.207200
11
2.582330
21
8.947790
0
LINE
8
Calque 1
10
2.582330
20
8.947790
11
2.535820
21
8.915230
0
LINE
8
Calque 1
10
2.535820
20
8.915230
11
2.557520
21
8.850630
0
LINE
8
Calque 1
10
2.557520
20
8.850630
11
2.547710
21
8.762270
0
LINE
8
Calque 1
10
2.547710
20
8.762270
11
2.534790
21
8.770020
0
LINE
8
Calque 1
10
2.534790
20
8.770020
11
2.510500
21
8.773640
0
LINE
8
Calque 1
10
2.510500
20
8.773640
11
2.462440
21
8.740560
0
LINE
8
Calque 1
10
2.462440
20
8.740560
11
2.492930
21
8.670800
0
LINE
8
Calque 1
10
2.492930
20
8.670800
11
2.537370
21
8.675970
0
LINE
8
Calque 1
10
2.537370
20
8.675970
11
2.534270
21
8.647030
0
LINE
8
Calque 1
10
2.534270
20
8.647030
11
2.586460
21
8.336450
0
LINE
8
Calque 1
10
2.586460
20
8.336450
11
2.566820
21
8.349370
0
LINE
8
Calque 1
10
2.566820
20
8.349370
11
2.542540
21
8.352990
0
LINE
8
Calque 1
10
2.542540
20
8.352990
11
2.494990
21
8.319920
0
LINE
8
Calque 1
10
2.494990
20
8.319920
11
2.524970
21
8.249640
0
LINE
8
Calque 1
10
2.524970
20
8.249640
11
2.597310
21
8.279090
0
LINE
8
Calque 1
10
2.597310
20
8.279090
11
2.601450
21
8.295110
0
LINE
8
Calque 1
10
2.601450
20
8.295110
11
2.948710
21
7.799540
0
LINE
8
Calque 1
10
2.948710
20
7.799540
11
2.812800
21
7.799540
0
LINE
8
Calque 1
10
2.812800
20
7.799540
11
2.779730
21
7.856900
0
LINE
8
Calque 1
10
2.779730
20
7.856900
11
2.755440
21
7.861030
0
LINE
8
Calque 1
10
2.755440
20
7.861030
11
2.707390
21
7.827960
0
LINE
8
Calque 1
10
2.707390
20
7.827960
11
2.705320
21
7.799540
0
LINE
8
Calque 1
10
2.705320
20
7.799540
11
2.374070
21
7.799540
0
LINE
8
Calque 1
10
2.374070
20
7.799540
11
2.346170
21
7.825890
0
LINE
8
Calque 1
10
2.346170
20
7.825890
11
2.321880
21
7.829510
0
LINE
8
Calque 1
10
2.321880
20
7.829510
11
2.276400
21
7.799540
0
LINE
8
Calque 1
10
2.276400
20
7.799540
11
2.169430
21
7.799540
0
LINE
8
Calque 1
10
2.169430
20
7.799540
11
2.196300
21
7.826920
0
LINE
8
Calque 1
10
2.196300
20
7.826920
11
2.166330
21
7.897200
0
LINE
8
Calque 1
10
2.166330
20
7.897200
11
2.142050
21
7.901340
0
LINE
8
Calque 1
10
2.142050
20
7.901340
11
2.093980
21
7.867750
0
LINE
8
Calque 1
10
2.093980
20
7.867750
11
2.121370
21
7.799540
0
LINE
8
Calque 1
10
2.121370
20
7.799540
11
1.781340
21
7.799540
0
LINE
8
Calque 1
10
1.781340
20
7.799540
11
1.765320
21
7.858960
0
LINE
8
Calque 1
10
1.765320
20
7.858960
11
2.024771
21
8.214886
0
LINE
8
Calque 1
10
2.024771
20
8.214886
11
2.119820
21
8.644960
0
LINE
8
Calque 1
10
2.119820
20
8.644960
11
2.149800
21
8.671830
0
LINE
8
Calque 1
10
2.149800
20
8.671830
11
2.119310
21
8.742110
0
LINE
8
Calque 1
10
2.119310
20
8.742110
11
2.108970
21
8.743660
0
LINE
8
Calque 1
10
2.108970
20
8.743660
11
2.025770
21
9.075430
0
LINE
8
Calque 1
10
2.025770
20
9.075430
11
2.044890
21
9.062510
0
LINE
8
Calque 1
10
2.044890
20
9.062510
11
2.117240
21
9.091960
0
LINE
8
Calque 1
10
2.117240
20
9.091960
11
2.087270
21
9.162240
0
LINE
8
Calque 1
10
2.087270
20
9.162240
11
2.062460
21
9.165860
0
LINE
8
Calque 1
10
2.062460
20
9.165860
11
2.014920
21
9.132790
0
LINE
8
Calque 1
10
2.014920
20
9.132790
11
2.010790
21
9.117290
0
LINE
8
Calque 1
10
2.010790
20
9.117290
11
1.691940
21
9.506410
0
LINE
8
Calque 1
10
1.691940
20
9.506410
11
1.691940
21
9.506410
0
LINE
8
Calque 1
10
1.776690
20
9.483670
11
1.742590
21
9.459900
0
LINE
8
Calque 1
10
1.742590
20
9.459900
11
1.812860
21
9.391690
0
LINE
8
Calque 1
10
1.812860
20
9.391690
11
1.831470
21
9.409770
0
LINE
8
Calque 1
10
1.831470
20
9.409770
11
1.800980
21
9.480050
0
LINE
8
Calque 1
10
1.800980
20
9.480050
11
1.777210
21
9.483670
0
LINE
8
Calque 1
10
1.777210
20
9.483670
11
1.776690
21
9.483670
0
LINE
8
Calque 1
10
1.776690
20
9.483670
11
1.776690
21
9.483670
0
LINE
8
Calque 1
10
2.389570
20
9.443880
11
2.341510
21
9.410810
0
LINE
8
Calque 1
10
2.341510
20
9.410810
11
2.372000
21
9.340530
0
LINE
8
Calque 1
10
2.372000
20
9.340530
11
2.443830
21
9.369470
0
LINE
8
Calque 1
10
2.443830
20
9.369470
11
2.414380
21
9.439750
0
LINE
8
Calque 1
10
2.414380
20
9.439750
11
2.389570
21
9.443880
0
LINE
8
Calque 1
10
2.389570
20
9.443880
11
2.389570
21
9.443880
0
LINE
8
Calque 1
10
1.956520
20
9.412360
11
1.908470
21
9.378770
0
LINE
8
Calque 1
10
1.908470
20
9.378770
11
1.938960
21
9.308490
0
LINE
8
Calque 1
10
1.938960
20
9.308490
11
2.010790
21
9.338460
0
LINE
8
Calque 1
10
2.010790
20
9.338460
11
1.980810
21
9.408220
0
LINE
8
Calque 1
10
1.980810
20
9.408220
11
1.956520
21
9.412360
0
LINE
8
Calque 1
10
1.956520
20
9.412360
11
1.956520
21
9.412360
0
LINE
8
Calque 1
10
2.569410
20
9.372050
11
2.521350
21
9.338980
0
LINE
8
Calque 1
10
2.521350
20
9.338980
11
2.551840
21
9.268700
0
LINE
8
Calque 1
10
2.551840
20
9.268700
11
2.624180
21
9.298150
0
LINE
8
Calque 1
10
2.624180
20
9.298150
11
2.593700
21
9.368430
0
LINE
8
Calque 1
10
2.593700
20
9.368430
11
2.569410
21
9.372050
0
LINE
8
Calque 1
10
2.569410
20
9.372050
11
2.569410
21
9.372050
0
LINE
8
Calque 1
10
2.135840
20
9.340530
11
2.088300
21
9.307450
0
LINE
8
Calque 1
10
2.088300
20
9.307450
11
2.118790
21
9.237170
0
LINE
8
Calque 1
10
2.118790
20
9.237170
11
2.191140
21
9.267150
0
LINE
8
Calque 1
10
2.191140
20
9.267150
11
2.160650
21
9.336910
0
LINE
8
Calque 1
10
2.160650
20
9.336910
11
2.135840
21
9.340530
0
LINE
8
Calque 1
10
2.135840
20
9.340530
11
2.135840
21
9.340530
0
LINE
8
Calque 1
10
2.316190
20
9.269210
11
2.268130
21
9.236140
0
LINE
8
Calque 1
10
2.268130
20
9.236140
11
2.298110
21
9.165860
0
LINE
8
Calque 1
10
2.298110
20
9.165860
11
2.370450
21
9.195320
0
LINE
8
Calque 1
10
2.370450
20
9.195320
11
2.339960
21
9.265080
0
LINE
8
Calque 1
10
2.339960
20
9.265080
11
2.316190
21
9.269210
0
LINE
8
Calque 1
10
2.316190
20
9.269210
11
2.316190
21
9.269210
0
LINE
8
Calque 1
10
2.495510
20
9.197900
11
2.447970
21
9.164310
0
LINE
8
Calque 1
10
2.447970
20
9.164310
11
2.478460
21
9.094030
0
LINE
8
Calque 1
10
2.478460
20
9.094030
11
2.550800
21
9.124000
0
LINE
8
Calque 1
10
2.550800
20
9.124000
11
2.520320
21
9.193770
0
LINE
8
Calque 1
10
2.520320
20
9.193770
11
2.495510
21
9.197900
0
LINE
8
Calque 1
10
2.495510
20
9.197900
11
2.495510
21
9.197900
0
LINE
8
Calque 1
10
5.268470
20
9.196350
11
5.395080
21
9.196350
0
LINE
8
Calque 1
10
5.395080
20
9.196350
11
5.717020
21
8.248090
0
LINE
8
Calque 1
10
5.717020
20
8.248090
11
5.519100
21
8.248090
0
LINE
8
Calque 1
10
5.519100
20
8.248090
11
5.490160
21
8.395360
0
LINE
8
Calque 1
10
5.490160
20
8.395360
11
5.172350
21
8.395360
0
LINE
8
Calque 1
10
5.172350
20
8.395360
11
5.133080
21
8.248090
0
LINE
8
Calque 1
10
5.133080
20
8.248090
11
4.946530
21
8.248090
0
LINE
8
Calque 1
10
4.946530
20
8.248090
11
5.268470
21
9.196350
0
LINE
8
Calque 1
10
5.268470
20
9.196350
11
5.268470
21
9.196350
0
LINE
8
Calque 1
10
2.242300
20
9.094550
11
2.194240
21
9.061470
0
LINE
8
Calque 1
10
2.194240
20
9.061470
11
2.224730
21
8.991190
0
LINE
8
Calque 1
10
2.224730
20
8.991190
11
2.297070
21
9.020650
0
LINE
8
Calque 1
10
2.297070
20
9.020650
11
2.266580
21
9.090410
0
LINE
8
Calque 1
10
2.266580
20
9.090410
11
2.242300
21
9.094550
0
LINE
8
Calque 1
10
2.242300
20
9.094550
11
2.242300
21
9.094550
0
LINE
8
Calque 1
10
2.422130
20
9.023230
11
2.374590
21
8.989640
0
LINE
8
Calque 1
10
2.374590
20
8.989640
11
2.404560
21
8.919880
0
LINE
8
Calque 1
10
2.404560
20
8.919880
11
2.476910
21
8.948820
0
LINE
8
Calque 1
10
2.476910
20
8.948820
11
2.446420
21
9.019100
0
LINE
8
Calque 1
10
2.446420
20
9.019100
11
2.422130
21
9.023230
0
LINE
8
Calque 1
10
2.422130
20
9.023230
11
2.422130
21
9.023230
0
LINE
8
Calque 1
10
5.331000
20
8.982930
11
5.303090
21
8.884220
0
LINE
8
Calque 1
10
5.303090
20
8.884220
11
5.276220
21
8.788110
0
LINE
8
Calque 1
10
5.276220
20
8.788110
11
5.247280
21
8.689400
0
LINE
8
Calque 1
10
5.247280
20
8.689400
11
5.218340
21
8.586570
0
LINE
8
Calque 1
10
5.218340
20
8.586570
11
5.446240
21
8.586570
0
LINE
8
Calque 1
10
5.446240
20
8.586570
11
5.331000
21
8.982930
0
LINE
8
Calque 1
10
5.331000
20
8.982930
11
5.331000
21
8.982930
0
LINE
8
Calque 1
10
6.194510
20
8.975170
11
6.357754
21
8.896965
0
LINE
8
Calque 1
10
6.357754
20
8.896965
11
6.420340
21
8.673380
0
LINE
8
Calque 1
10
6.420340
20
8.673380
11
6.436360
21
8.248090
0
LINE
8
Calque 1
10
6.436360
20
8.248090
11
6.259630
21
8.248090
0
LINE
8
Calque 1
10
6.259630
20
8.248090
11
6.280810
21
8.675970
0
LINE
8
Calque 1
10
6.280810
20
8.675970
11
6.184690
21
8.840300
0
LINE
8
Calque 1
10
6.184690
20
8.840300
11
6.035870
21
8.654260
0
LINE
8
Calque 1
10
6.035870
20
8.654260
11
6.052400
21
8.248090
0
LINE
8
Calque 1
10
6.052400
20
8.248090
11
5.880320
21
8.248090
0
LINE
8
Calque 1
10
5.880320
20
8.248090
11
5.896860
21
8.964840
0
LINE
8
Calque 1
10
5.896860
20
8.964840
11
6.031210
21
8.964840
0
LINE
8
Calque 1
10
6.031210
20
8.964840
11
6.031210
21
8.909030
0
LINE
8
Calque 1
10
6.031210
20
8.909030
11
6.079270
21
8.942620
0
LINE
8
Calque 1
10
6.079270
20
8.942620
11
6.194510
21
8.975170
0
LINE
8
Calque 1
10
6.194510
20
8.975170
11
6.194510
21
8.975170
0
LINE
8
Calque 1
10
6.858040
20
8.975170
11
7.057795
21
8.894897
0
LINE
8
Calque 1
10
7.057795
20
8.894897
11
7.124170
21
8.651680
0
LINE
8
Calque 1
10
7.124170
20
8.651680
11
7.124170
21
8.248090
0
LINE
8
Calque 1
10
7.124170
20
8.248090
11
6.988780
21
8.248090
0
LINE
8
Calque 1
10
6.988780
20
8.248090
11
6.988780
21
8.302860
0
LINE
8
Calque 1
10
6.988780
20
8.302860
11
6.813080
21
8.231030
0
LINE
8
Calque 1
10
6.813080
20
8.231030
11
6.658570
21
8.295110
0
LINE
8
Calque 1
10
6.658570
20
8.295110
11
6.600690
21
8.465640
0
LINE
8
Calque 1
10
6.600690
20
8.465640
11
6.669814
21
8.652397
0
LINE
8
Calque 1
10
6.669814
20
8.652397
11
6.878190
21
8.715240
0
LINE
8
Calque 1
10
6.878190
20
8.715240
11
6.988780
21
8.715240
0
LINE
8
Calque 1
10
6.988780
20
8.715240
11
6.846670
21
8.848050
0
LINE
8
Calque 1
10
6.846670
20
8.848050
11
6.643060
21
8.777770
0
LINE
8
Calque 1
10
6.643060
20
8.777770
11
6.643060
21
8.921950
0
LINE
8
Calque 1
10
6.643060
20
8.921950
11
6.858040
21
8.975170
0
LINE
8
Calque 1
10
6.858040
20
8.975170
11
6.858040
21
8.975170
0
LINE
8
Calque 1
10
2.168920
20
8.919880
11
2.120860
21
8.886810
0
LINE
8
Calque 1
10
2.120860
20
8.886810
11
2.151350
21
8.817040
0
LINE
8
Calque 1
10
2.151350
20
8.817040
11
2.223180
21
8.845980
0
LINE
8
Calque 1
10
2.223180
20
8.845980
11
2.193200
21
8.916260
0
LINE
8
Calque 1
10
2.193200
20
8.916260
11
2.168920
21
8.919880
0
LINE
8
Calque 1
10
2.168920
20
8.919880
11
2.168920
21
8.919880
0
LINE
8
Calque 1
10
2.348230
20
8.848570
11
2.300170
21
8.815490
0
LINE
8
Calque 1
10
2.300170
20
8.815490
11
2.330660
21
8.745730
0
LINE
8
Calque 1
10
2.330660
20
8.745730
11
2.403010
21
8.774670
0
LINE
8
Calque 1
10
2.403010
20
8.774670
11
2.372520
21
8.844430
0
LINE
8
Calque 1
10
2.372520
20
8.844430
11
2.348230
21
8.848570
0
LINE
8
Calque 1
10
2.348230
20
8.848570
11
2.348230
21
8.848570
0
LINE
8
Calque 1
10
2.274850
20
8.674420
11
2.226790
21
8.640830
0
LINE
8
Calque 1
10
2.226790
20
8.640830
11
2.256770
21
8.570550
0
LINE
8
Calque 1
10
2.256770
20
8.570550
11
2.329110
21
8.600520
0
LINE
8
Calque 1
10
2.329110
20
8.600520
11
2.299140
21
8.670280
0
LINE
8
Calque 1
10
2.299140
20
8.670280
11
2.274850
21
8.674420
0
LINE
8
Calque 1
10
2.274850
20
8.674420
11
2.274850
21
8.674420
0
LINE
8
Calque 1
10
2.437120
20
8.599490
11
2.389060
21
8.565900
0
LINE
8
Calque 1
10
2.389060
20
8.565900
11
2.419030
21
8.495620
0
LINE
8
Calque 1
10
2.419030
20
8.495620
11
2.491380
21
8.525070
0
LINE
8
Calque 1
10
2.491380
20
8.525070
11
2.460890
21
8.595350
0
LINE
8
Calque 1
10
2.460890
20
8.595350
11
2.437120
21
8.599490
0
LINE
8
Calque 1
10
2.437120
20
8.599490
11
2.437120
21
8.599490
0
LINE
8
Calque 1
10
6.872510
20
8.587600
11
6.746930
21
8.564350
0
LINE
8
Calque 1
10
6.746930
20
8.564350
11
6.720060
21
8.495100
0
LINE
8
Calque 1
10
6.720060
20
8.495100
11
6.746930
21
8.454790
0
LINE
8
Calque 1
10
6.746930
20
8.454790
11
6.826510
21
8.444460
0
LINE
8
Calque 1
10
6.826510
20
8.444460
11
6.937100
21
8.586570
0
LINE
8
Calque 1
10
6.937100
20
8.586570
11
6.937100
21
8.587600
0
LINE
8
Calque 1
10
6.937100
20
8.587600
11
6.872510
21
8.587600
0
LINE
8
Calque 1
10
6.872510
20
8.587600
11
6.872510
21
8.587600
0
LINE
8
Calque 1
10
2.201470
20
8.499230
11
2.152900
21
8.466160
0
LINE
8
Calque 1
10
2.152900
20
8.466160
11
2.183390
21
8.396400
0
LINE
8
Calque 1
10
2.183390
20
8.396400
11
2.255730
21
8.425340
0
LINE
8
Calque 1
10
2.255730
20
8.425340
11
2.225240
21
8.495620
0
LINE
8
Calque 1
10
2.225240
20
8.495620
11
2.201470
21
8.499230
0
LINE
8
Calque 1
10
2.201470
20
8.499230
11
2.201470
21
8.499230
0
LINE
8
Calque 1
10
2.363220
20
8.424820
11
2.315160
21
8.391750
0
LINE
8
Calque 1
10
2.315160
20
8.391750
11
2.345650
21
8.321470
0
LINE
8
Calque 1
10
2.345650
20
8.321470
11
2.418000
21
8.350410
0
LINE
8
Calque 1
10
2.418000
20
8.350410
11
2.387510
21
8.420690
0
LINE
8
Calque 1
10
2.387510
20
8.420690
11
2.363220
21
8.424820
0
LINE
8
Calque 1
10
2.363220
20
8.424820
11
2.363220
21
8.424820
0
LINE
8
Calque 1
10
2.127580
20
8.325090
11
2.079510
21
8.292010
0
LINE
8
Calque 1
10
2.079510
20
8.292010
11
2.110000
21
8.222250
0
LINE
8
Calque 1
10
2.110000
20
8.222250
11
2.182350
21
8.251190
0
LINE
8
Calque 1
10
2.182350
20
8.251190
11
2.151860
21
8.320950
0
LINE
8
Calque 1
10
2.151860
20
8.320950
11
2.127580
21
8.325090
0
LINE
8
Calque 1
10
2.127580
20
8.325090
11
2.127580
21
8.325090
0
LINE
8
Calque 1
10
2.289320
20
8.250150
11
2.241780
21
8.217080
0
LINE
8
Calque 1
10
2.241780
20
8.217080
11
2.272270
21
8.147320
0
LINE
8
Calque 1
10
2.272270
20
8.147320
11
2.344100
21
8.176260
0
LINE
8
Calque 1
10
2.344100
20
8.176260
11
2.313610
21
8.246020
0
LINE
8
Calque 1
10
2.313610
20
8.246020
11
2.289320
21
8.250150
0
LINE
8
Calque 1
10
2.289320
20
8.250150
11
2.289320
21
8.250150
0
LINE
8
Calque 1
10
2.469160
20
8.178320
11
2.421610
21
8.145250
0
LINE
8
Calque 1
10
2.421610
20
8.145250
11
2.451590
21
8.075490
0
LINE
8
Calque 1
10
2.451590
20
8.075490
11
2.523420
21
8.104940
0
LINE
8
Calque 1
10
2.523420
20
8.104940
11
2.492930
21
8.174710
0
LINE
8
Calque 1
10
2.492930
20
8.174710
11
2.469160
21
8.178320
0
LINE
8
Calque 1
10
2.469160
20
8.178320
11
2.469160
21
8.178320
0
LINE
8
Calque 1
10
2.053680
20
8.150940
11
2.006130
21
8.117350
0
LINE
8
Calque 1
10
2.006130
20
8.117350
11
2.036110
21
8.047070
0
LINE
8
Calque 1
10
2.036110
20
8.047070
11
2.108450
21
8.076520
0
LINE
8
Calque 1
10
2.108450
20
8.076520
11
2.078480
21
8.146800
0
LINE
8
Calque 1
10
2.078480
20
8.146800
11
2.053680
21
8.150940
0
LINE
8
Calque 1
10
2.053680
20
8.150940
11
2.053680
21
8.150940
0
LINE
8
Calque 1
10
2.648990
20
8.107010
11
2.601450
21
8.073940
0
LINE
8
Calque 1
10
2.601450
20
8.073940
11
2.631420
21
8.003660
0
LINE
8
Calque 1
10
2.631420
20
8.003660
11
2.703770
21
8.033630
0
LINE
8
Calque 1
10
2.703770
20
8.033630
11
2.673280
21
8.103390
0
LINE
8
Calque 1
10
2.673280
20
8.103390
11
2.648990
21
8.107010
0
LINE
8
Calque 1
10
2.648990
20
8.107010
11
2.648990
21
8.107010
0
LINE
8
Calque 1
10
2.215430
20
8.076000
11
2.167880
21
8.042410
0
LINE
8
Calque 1
10
2.167880
20
8.042410
11
2.197850
21
7.972130
0
LINE
8
Calque 1
10
2.197850
20
7.972130
11
2.270720
21
8.001590
0
LINE
8
Calque 1
10
2.270720
20
8.001590
11
2.240230
21
8.071350
0
LINE
8
Calque 1
10
2.240230
20
8.071350
11
2.215430
21
8.076000
0
LINE
8
Calque 1
10
2.215430
20
8.076000
11
2.215430
21
8.076000
0
LINE
8
Calque 1
10
2.395780
20
8.003660
11
2.347720
21
7.970580
0
LINE
8
Calque 1
10
2.347720
20
7.970580
11
2.377690
21
7.900820
0
LINE
8
Calque 1
10
2.377690
20
7.900820
11
2.450030
21
7.929760
0
LINE
8
Calque 1
10
2.450030
20
7.929760
11
2.419550
21
8.000040
0
LINE
8
Calque 1
10
2.419550
20
8.000040
11
2.395780
21
8.003660
0
LINE
8
Calque 1
10
2.395780
20
8.003660
11
2.395780
21
8.003660
0
LINE
8
Calque 1
10
1.979780
20
7.975750
11
1.932240
21
7.942680
0
LINE
8
Calque 1
10
1.932240
20
7.942680
11
1.962730
21
7.872400
0
LINE
8
Calque 1
10
1.962730
20
7.872400
11
2.035070
21
7.901850
0
LINE
8
Calque 1
10
2.035070
20
7.901850
11
2.004590
21
7.972130
0
LINE
8
Calque 1
10
2.004590
20
7.972130
11
1.979780
21
7.975750
0
LINE
8
Calque 1
10
1.979780
20
7.975750
11
1.979780
21
7.975750
0
LINE
8
Calque 1
10
2.575090
20
7.932340
11
2.527550
21
7.899270
0
LINE
8
Calque 1
10
2.527550
20
7.899270
11
2.557520
21
7.828990
0
LINE
8
Calque 1
10
2.557520
20
7.828990
11
2.630390
21
7.858450
0
LINE
8
Calque 1
10
2.630390
20
7.858450
11
2.599900
21
7.928730
0
LINE
8
Calque 1
10
2.599900
20
7.928730
11
2.575090
21
7.932340
0
LINE
8
Calque 1
10
2.575090
20
7.932340
11
2.575090
21
7.932340
0
LINE
8
Calque 1
10
1.041340
20
7.196990
11
0.635823
21
7.113150
0
LINE
8
Calque 1
10
0.635823
20
7.113150
11
0.305421
21
6.884232
0
LINE
8
Calque 1
10
0.305421
20
6.884232
11
0.083044
21
6.544138
0
LINE
8
Calque 1
10
0.083044
20
6.544138
11
0.001605
21
6.126770
0
LINE
8
Calque 1
10
0.001605
20
6.126770
11
0.001605
21
3.595660
0
LINE
8
Calque 1
10
0.001605
20
3.595660
11
0.002121
21
3.579640
0
LINE
8
Calque 1
10
0.002121
20
3.579640
11
0.001605
21
3.565170
0
LINE
8
Calque 1
10
0.001605
20
3.565170
11
0.082737
21
3.178110
0
LINE
8
Calque 1
10
0.082737
20
3.178110
11
0.103409
21
3.134190
0
LINE
8
Calque 1
10
0.103409
20
3.134190
11
0.479299
21
2.694661
0
LINE
8
Calque 1
10
0.479299
20
2.694661
11
1.041340
21
2.525440
0
LINE
8
Calque 1
10
1.041340
20
2.525440
11
1.086290
21
2.527500
0
LINE
8
Calque 1
10
1.086290
20
2.527500
11
1.134870
21
2.525440
0
LINE
8
Calque 1
10
1.134870
20
2.525440
11
6.734010
21
2.525440
0
LINE
8
Calque 1
10
6.734010
20
2.525440
11
7.175928
21
2.606878
0
LINE
8
Calque 1
10
7.175928
20
2.606878
11
7.536062
21
2.829252
0
LINE
8
Calque 1
10
7.536062
20
2.829252
11
7.778488
21
3.159653
0
LINE
8
Calque 1
10
7.778488
20
3.159653
11
7.867280
21
3.565170
0
LINE
8
Calque 1
10
7.867280
20
3.565170
11
7.778488
21
3.970767
0
LINE
8
Calque 1
10
7.778488
20
3.970767
11
7.536062
21
4.301343
0
LINE
8
Calque 1
10
7.536062
20
4.301343
11
7.175928
21
4.523892
0
LINE
8
Calque 1
10
7.175928
20
4.523892
11
6.734010
21
4.605410
0
LINE
8
Calque 1
10
6.734010
20
4.605410
11
2.081580
21
4.605410
0
LINE
8
Calque 1
10
2.081580
20
4.605410
11
2.081580
21
6.126770
0
LINE
8
Calque 1
10
2.081580
20
6.126770
11
2.000062
21
6.544138
0
LINE
8
Calque 1
10
2.000062
20
6.544138
11
1.777513
21
6.884232
0
LINE
8
Calque 1
10
1.777513
20
6.884232
11
1.446937
21
7.113150
0
LINE
8
Calque 1
10
1.446937
20
7.113150
11
1.041340
21
7.196990
0
LINE
8
Calque 1
10
1.041340
20
7.196990
11
1.041340
21
7.196990
0
LINE
8
Calque 1
10
1.060970
20
7.019220
11
1.690460
21
6.758327
0
LINE
8
Calque 1
10
1.690460
20
6.758327
11
1.951360
21
6.128840
0
LINE
8
Calque 1
10
1.951360
20
6.128840
11
1.690647
21
5.499010
0
LINE
8
Calque 1
10
1.690647
20
5.499010
11
1.060970
21
5.237930
0
LINE
8
Calque 1
10
1.060970
20
5.237930
11
0.430963
21
5.498830
0
LINE
8
Calque 1
10
0.430963
20
5.498830
11
0.170071
21
6.128840
0
LINE
8
Calque 1
10
0.170071
20
6.128840
11
0.431151
21
6.758507
0
LINE
8
Calque 1
10
0.431151
20
6.758507
11
1.060970
21
7.019220
0
LINE
8
Calque 1
10
1.060970
20
7.019220
11
1.060970
21
7.019220
0
LINE
8
Calque 1
10
1.060970
20
4.479840
11
1.690644
21
4.218763
0
LINE
8
Calque 1
10
1.690644
20
4.218763
11
1.951360
21
3.588940
0
LINE
8
Calque 1
10
1.951360
20
3.588940
11
1.690644
21
2.959117
0
LINE
8
Calque 1
10
1.690644
20
2.959117
11
1.060970
21
2.698040
0
LINE
8
Calque 1
10
1.060970
20
2.698040
11
0.430967
21
2.958937
0
LINE
8
Calque 1
10
0.430967
20
2.958937
11
0.170071
21
3.588940
0
LINE
8
Calque 1
10
0.170071
20
3.588940
11
0.430967
21
4.218943
0
LINE
8
Calque 1
10
0.430967
20
4.218943
11
1.060970
21
4.479840
0
LINE
8
Calque 1
10
1.060970
20
4.479840
11
1.060970
21
4.479840
0
LINE
8
Calque 1
10
3.603970
20
4.479840
11
4.233644
21
4.218763
0
LINE
8
Calque 1
10
4.233644
20
4.218763
11
4.494360
21
3.588940
0
LINE
8
Calque 1
10
4.494360
20
3.588940
11
4.233644
21
2.959117
0
LINE
8
Calque 1
10
4.233644
20
2.959117
11
3.603970
21
2.698040
0
LINE
8
Calque 1
10
3.603970
20
2.698040
11
2.973966
21
2.958936
0
LINE
8
Calque 1
10
2.973966
20
2.958936
11
2.713070
21
3.588940
0
LINE
8
Calque 1
10
2.713070
20
3.588940
11
2.973966
21
4.218944
0
LINE
8
Calque 1
10
2.973966
20
4.218944
11
3.603970
21
4.479840
0
LINE
8
Calque 1
10
3.603970
20
4.479840
11
3.603970
21
4.479840
0
LINE
8
Calque 1
10
5.431770
20
4.077280
11
5.569230
21
4.077280
0
LINE
8
Calque 1
10
5.569230
20
4.077280
11
5.569230
21
3.128500
0
LINE
8
Calque 1
10
5.569230
20
3.128500
11
5.384740
21
3.128500
0
LINE
8
Calque 1
10
5.384740
20
3.128500
11
5.079330
21
3.798740
0
LINE
8
Calque 1
10
5.079330
20
3.798740
11
5.092770
21
3.461810
0
LINE
8
Calque 1
10
5.092770
20
3.461810
11
5.106210
21
3.128500
0
LINE
8
Calque 1
10
5.106210
20
3.128500
11
4.930510
21
3.128500
0
LINE
8
Calque 1
10
4.930510
20
3.128500
11
4.951690
21
4.058680
0
LINE
8
Calque 1
10
4.951690
20
4.058680
11
5.114990
21
4.058680
0
LINE
8
Calque 1
10
5.114990
20
4.058680
11
5.417300
21
3.414790
0
LINE
8
Calque 1
10
5.417300
20
3.414790
11
5.431770
21
4.077280
0
LINE
8
Calque 1
10
5.431770
20
4.077280
11
5.431770
21
4.077280
0
LINE
8
Calque 1
10
6.728850
20
3.856110
11
6.850800
21
3.815800
0
LINE
8
Calque 1
10
6.850800
20
3.815800
11
6.912300
21
3.738800
0
LINE
8
Calque 1
10
6.912300
20
3.738800
11
7.099370
21
3.856110
0
LINE
8
Calque 1
10
7.099370
20
3.856110
11
7.251300
21
3.778070
0
LINE
8
Calque 1
10
7.251300
20
3.778070
11
7.305040
21
3.552770
0
LINE
8
Calque 1
10
7.305040
20
3.552770
11
7.310720
21
3.341930
0
LINE
8
Calque 1
10
7.310720
20
3.341930
11
7.316410
21
3.128500
0
LINE
8
Calque 1
10
7.316410
20
3.128500
11
7.142780
21
3.128500
0
LINE
8
Calque 1
10
7.142780
20
3.128500
11
7.170680
21
3.568270
0
LINE
8
Calque 1
10
7.170680
20
3.568270
11
7.088000
21
3.731050
0
LINE
8
Calque 1
10
7.088000
20
3.731050
11
6.956220
21
3.526930
0
LINE
8
Calque 1
10
6.956220
20
3.526930
11
6.950540
21
3.128500
0
LINE
8
Calque 1
10
6.950540
20
3.128500
11
6.778460
21
3.128500
0
LINE
8
Calque 1
10
6.778460
20
3.128500
11
6.816180
21
3.576020
0
LINE
8
Calque 1
10
6.816180
20
3.576020
11
6.717990
21
3.737770
0
LINE
8
Calque 1
10
6.717990
20
3.737770
11
6.617220
21
3.677820
0
LINE
8
Calque 1
10
6.617220
20
3.677820
11
6.575880
21
3.527960
0
LINE
8
Calque 1
10
6.575880
20
3.527960
11
6.581570
21
3.327970
0
LINE
8
Calque 1
10
6.581570
20
3.327970
11
6.586740
21
3.128500
0
LINE
8
Calque 1
10
6.586740
20
3.128500
11
6.420340
21
3.128500
0
LINE
8
Calque 1
10
6.420340
20
3.128500
11
6.441530
21
3.840600
0
LINE
8
Calque 1
10
6.441530
20
3.840600
11
6.577950
21
3.840600
0
LINE
8
Calque 1
10
6.577950
20
3.840600
11
6.574850
21
3.792030
0
LINE
8
Calque 1
10
6.574850
20
3.792030
11
6.728850
21
3.856110
0
LINE
8
Calque 1
10
6.728850
20
3.856110
11
6.728850
21
3.856110
0
LINE
8
Calque 1
10
5.732520
20
3.840600
11
5.851900
21
3.840600
0
LINE
8
Calque 1
10
5.851900
20
3.840600
11
5.851900
21
3.515040
0
LINE
8
Calque 1
10
5.851900
20
3.515040
11
5.957320
21
3.348640
0
LINE
8
Calque 1
10
5.957320
20
3.348640
11
6.060150
21
3.396700
0
LINE
8
Calque 1
10
6.060150
20
3.396700
11
6.101490
21
3.535710
0
LINE
8
Calque 1
10
6.101490
20
3.535710
11
6.107180
21
3.840600
0
LINE
8
Calque 1
10
6.107180
20
3.840600
11
6.257040
21
3.840600
0
LINE
8
Calque 1
10
6.257040
20
3.840600
11
6.245670
21
3.128500
0
LINE
8
Calque 1
10
6.245670
20
3.128500
11
6.110280
21
3.128500
0
LINE
8
Calque 1
10
6.110280
20
3.128500
11
6.112860
21
3.183280
0
LINE
8
Calque 1
10
6.112860
20
3.183280
11
5.953700
21
3.111960
0
LINE
8
Calque 1
10
5.953700
20
3.111960
11
5.788585
21
3.188735
0
LINE
8
Calque 1
10
5.788585
20
3.188735
11
5.732520
21
3.414790
0
LINE
8
Calque 1
10
5.732520
20
3.414790
11
5.732520
21
3.840600
0
LINE
8
Calque 1
10
5.732520
20
3.840600
11
5.732520
21
3.840600
0
LINE
8
Calque 1
10
1.134870
20
2.079990
11
0.692876
21
1.998552
0
LINE
8
Calque 1
10
0.692876
20
1.998552
11
0.332565
21
1.776177
0
LINE
8
Calque 1
10
0.332565
20
1.776177
11
0.089962
21
1.445777
0
LINE
8
Calque 1
10
0.089962
20
1.445777
11
0.001089
21
1.040260
0
LINE
8
Calque 1
10
0.001089
20
1.040260
11
0.089962
21
0.634659
0
LINE
8
Calque 1
10
0.089962
20
0.634659
11
0.332565
21
0.304080
0
LINE
8
Calque 1
10
0.332565
20
0.304080
11
0.692876
21
0.081528
0
LINE
8
Calque 1
10
0.692876
20
0.081528
11
1.134870
21
0.000009
0
LINE
8
Calque 1
10
1.134870
20
0.000009
11
6.733500
21
0.000009
0
LINE
8
Calque 1
10
6.733500
20
0.000009
11
7.175494
21
0.081528
0
LINE
8
Calque 1
10
7.175494
20
0.081528
11
7.535804
21
0.304080
0
LINE
8
Calque 1
10
7.535804
20
0.304080
11
7.778407
21
0.634659
0
LINE
8
Calque 1
10
7.778407
20
0.634659
11
7.867280
21
1.040260
0
LINE
8
Calque 1
10
7.867280
20
1.040260
11
7.778407
21
1.445777
0
LINE
8
Calque 1
10
7.778407
20
1.445777
11
7.535804
21
1.776177
0
LINE
8
Calque 1
10
7.535804
20
1.776177
11
7.175494
21
1.998552
0
LINE
8
Calque 1
10
7.175494
20
1.998552
11
6.733500
21
2.079990
0
LINE
8
Calque 1
10
6.733500
20
2.079990
11
1.134870
21
2.079990
0
LINE
8
Calque 1
10
1.134870
20
2.079990
11
1.134870
21
2.079990
0
LINE
8
Calque 1
10
1.062520
20
1.943040
11
1.692194
21
1.681963
0
LINE
8
Calque 1
10
1.692194
20
1.681963
11
1.952910
21
1.052140
0
LINE
8
Calque 1
10
1.952910
20
1.052140
11
1.692194
21
0.422317
0
LINE
8
Calque 1
10
1.692194
20
0.422317
11
1.062520
21
0.161240
0
LINE
8
Calque 1
10
1.062520
20
0.161240
11
0.432517
21
0.422137
0
LINE
8
Calque 1
10
0.432517
20
0.422137
11
0.171621
21
1.052140
0
LINE
8
Calque 1
10
0.171621
20
1.052140
11
0.432517
21
1.682143
0
LINE
8
Calque 1
10
0.432517
20
1.682143
11
1.062520
21
1.943040
0
LINE
8
Calque 1
10
1.062520
20
1.943040
11
1.062520
21
1.943040
0
LINE
8
Calque 1
10
3.605000
20
1.943040
11
4.235010
21
1.682147
0
LINE
8
Calque 1
10
4.235010
20
1.682147
11
4.495910
21
1.052140
0
LINE
8
Calque 1
10
4.495910
20
1.052140
11
4.235010
21
0.422133
0
LINE
8
Calque 1
10
4.235010
20
0.422133
11
3.605000
21
0.161240
0
LINE
8
Calque 1
10
3.605000
20
0.161240
11
2.975333
21
0.422320
0
LINE
8
Calque 1
10
2.975333
20
0.422320
11
2.714620
21
1.052140
0
LINE
8
Calque 1
10
2.714620
20
1.052140
11
2.975333
21
1.681960
0
LINE
8
Calque 1
10
2.975333
20
1.681960
11
3.605000
21
1.943040
0
LINE
8
Calque 1
10
3.605000
20
1.943040
11
3.605000
21
1.943040
0
LINE
8
Calque 1
10
1.692980
20
1.894980
11
1.990120
21
1.894980
0
LINE
8
Calque 1
10
1.990120
20
1.894980
11
2.013370
21
1.871730
0
LINE
8
Calque 1
10
2.013370
20
1.871730
11
2.081580
21
1.894980
0
LINE
8
Calque 1
10
2.081580
20
1.894980
11
2.184420
21
1.894980
0
LINE
8
Calque 1
10
2.184420
20
1.894980
11
2.163230
21
1.870700
0
LINE
8
Calque 1
10
2.163230
20
1.870700
11
2.193200
21
1.800420
0
LINE
8
Calque 1
10
2.193200
20
1.800420
11
2.265550
21
1.829870
0
LINE
8
Calque 1
10
2.265550
20
1.829870
11
2.244880
21
1.894980
0
LINE
8
Calque 1
10
2.244880
20
1.894980
11
2.594210
21
1.894980
0
LINE
8
Calque 1
10
2.594210
20
1.894980
11
2.626250
21
1.831940
0
LINE
8
Calque 1
10
2.626250
20
1.831940
11
2.698600
21
1.860880
0
LINE
8
Calque 1
10
2.698600
20
1.860880
11
2.700150
21
1.894980
0
LINE
8
Calque 1
10
2.700150
20
1.894980
11
2.965250
21
1.894980
0
LINE
8
Calque 1
10
2.965250
20
1.894980
11
2.853630
21
1.789050
0
LINE
8
Calque 1
10
2.853630
20
1.789050
11
2.863450
21
1.799380
0
LINE
8
Calque 1
10
2.863450
20
1.799380
11
2.830380
21
1.856230
0
LINE
8
Calque 1
10
2.830380
20
1.856230
11
2.806600
21
1.860360
0
LINE
8
Calque 1
10
2.806600
20
1.860360
11
2.758030
21
1.827290
0
LINE
8
Calque 1
10
2.758030
20
1.827290
11
2.788520
21
1.757010
0
LINE
8
Calque 1
10
2.788520
20
1.757010
11
2.819000
21
1.755970
0
LINE
8
Calque 1
10
2.819000
20
1.755970
11
2.757510
21
1.681560
0
LINE
8
Calque 1
10
2.757510
20
1.681560
11
2.756990
21
1.682080
0
LINE
8
Calque 1
10
2.756990
20
1.682080
11
2.732190
21
1.685700
0
LINE
8
Calque 1
10
2.732190
20
1.685700
11
2.684650
21
1.652620
0
LINE
8
Calque 1
10
2.684650
20
1.652620
11
2.701180
21
1.595780
0
LINE
8
Calque 1
10
2.701180
20
1.595780
11
2.583360
21
1.336360
0
LINE
8
Calque 1
10
2.583360
20
1.336360
11
2.536850
21
1.303810
0
LINE
8
Calque 1
10
2.536850
20
1.303810
11
2.558560
21
1.239210
0
LINE
8
Calque 1
10
2.558560
20
1.239210
11
2.548740
21
1.150840
0
LINE
8
Calque 1
10
2.548740
20
1.150840
11
2.535820
21
1.158600
0
LINE
8
Calque 1
10
2.535820
20
1.158600
11
2.511530
21
1.162210
0
LINE
8
Calque 1
10
2.511530
20
1.162210
11
2.463470
21
1.129140
0
LINE
8
Calque 1
10
2.463470
20
1.129140
11
2.493960
21
1.059380
0
LINE
8
Calque 1
10
2.493960
20
1.059380
11
2.538400
21
1.064540
0
LINE
8
Calque 1
10
2.538400
20
1.064540
11
2.535300
21
1.035610
0
LINE
8
Calque 1
10
2.535300
20
1.035610
11
2.587490
21
0.725030
0
LINE
8
Calque 1
10
2.587490
20
0.725030
11
2.567860
21
0.737949
0
LINE
8
Calque 1
10
2.567860
20
0.737949
11
2.543570
21
0.741566
0
LINE
8
Calque 1
10
2.543570
20
0.741566
11
2.496030
21
0.708493
0
LINE
8
Calque 1
10
2.496030
20
0.708493
11
2.526000
21
0.638214
0
LINE
8
Calque 1
10
2.526000
20
0.638214
11
2.598350
21
0.667669
0
LINE
8
Calque 1
10
2.598350
20
0.667669
11
2.602480
21
0.683689
0
LINE
8
Calque 1
10
2.602480
20
0.683689
11
2.949750
21
0.188112
0
LINE
8
Calque 1
10
2.949750
20
0.188112
11
2.813840
21
0.188112
0
LINE
8
Calque 1
10
2.813840
20
0.188112
11
2.780770
21
0.245473
0
LINE
8
Calque 1
10
2.780770
20
0.245473
11
2.756480
21
0.249607
0
LINE
8
Calque 1
10
2.756480
20
0.249607
11
2.708420
21
0.216534
0
LINE
8
Calque 1
10
2.708420
20
0.216534
11
2.706350
21
0.188112
0
LINE
8
Calque 1
10
2.706350
20
0.188112
11
2.375110
21
0.188112
0
LINE
8
Calque 1
10
2.375110
20
0.188112
11
2.347200
21
0.214467
0
LINE
8
Calque 1
10
2.347200
20
0.214467
11
2.322910
21
0.218084
0
LINE
8
Calque 1
10
2.322910
20
0.218084
11
2.277440
21
0.188112
0
LINE
8
Calque 1
10
2.277440
20
0.188112
11
2.170470
21
0.188112
0
LINE
8
Calque 1
10
2.170470
20
0.188112
11
2.197340
21
0.215500
0
LINE
8
Calque 1
10
2.197340
20
0.215500
11
2.167360
21
0.285780
0
LINE
8
Calque 1
10
2.167360
20
0.285780
11
2.143080
21
0.289914
0
LINE
8
Calque 1
10
2.143080
20
0.289914
11
2.095020
21
0.256324
0
LINE
8
Calque 1
10
2.095020
20
0.256324
11
2.122410
21
0.188112
0
LINE
8
Calque 1
10
2.122410
20
0.188112
11
1.782380
21
0.188112
0
LINE
8
Calque 1
10
1.782380
20
0.188112
11
1.766360
21
0.247540
0
LINE
8
Calque 1
10
1.766360
20
0.247540
11
2.025811
21
0.603466
0
LINE
8
Calque 1
10
2.025811
20
0.603466
11
2.120860
21
1.033540
0
LINE
8
Calque 1
10
2.120860
20
1.033540
11
2.150830
21
1.060410
0
LINE
8
Calque 1
10
2.150830
20
1.060410
11
2.120340
21
1.130690
0
LINE
8
Calque 1
10
2.120340
20
1.130690
11
2.110000
21
1.132240
0
LINE
8
Calque 1
10
2.110000
20
1.132240
11
2.026810
21
1.464000
0
LINE
8
Calque 1
10
2.026810
20
1.464000
11
2.045930
21
1.451080
0
LINE
8
Calque 1
10
2.045930
20
1.451080
11
2.118270
21
1.480540
0
LINE
8
Calque 1
10
2.118270
20
1.480540
11
2.088300
21
1.550820
0
LINE
8
Calque 1
10
2.088300
20
1.550820
11
2.063500
21
1.554440
0
LINE
8
Calque 1
10
2.063500
20
1.554440
11
2.015950
21
1.521360
0
LINE
8
Calque 1
10
2.015950
20
1.521360
11
2.011820
21
1.505860
0
LINE
8
Calque 1
10
2.011820
20
1.505860
11
1.692980
21
1.894980
0
LINE
8
Calque 1
10
1.692980
20
1.894980
11
1.692980
21
1.894980
0
LINE
8
Calque 1
10
1.777730
20
1.872250
11
1.743620
21
1.848480
0
LINE
8
Calque 1
10
1.743620
20
1.848480
11
1.813900
21
1.780260
0
LINE
8
Calque 1
10
1.813900
20
1.780260
11
1.832500
21
1.798350
0
LINE
8
Calque 1
10
1.832500
20
1.798350
11
1.802010
21
1.868630
0
LINE
8
Calque 1
10
1.802010
20
1.868630
11
1.778240
21
1.872250
0
LINE
8
Calque 1
10
1.778240
20
1.872250
11
1.777730
21
1.872250
0
LINE
8
Calque 1
10
1.777730
20
1.872250
11
1.777730
21
1.872250
0
LINE
8
Calque 1
10
2.390610
20
1.832460
11
2.342550
21
1.799380
0
LINE
8
Calque 1
10
2.342550
20
1.799380
11
2.373040
21
1.729100
0
LINE
8
Calque 1
10
2.373040
20
1.729100
11
2.444870
21
1.758040
0
LINE
8
Calque 1
10
2.444870
20
1.758040
11
2.415410
21
1.828320
0
LINE
8
Calque 1
10
2.415410
20
1.828320
11
2.390610
21
1.832460
0
LINE
8
Calque 1
10
2.390610
20
1.832460
11
2.390610
21
1.832460
0
LINE
8
Calque 1
10
1.957560
20
1.800930
11
1.909500
21
1.767340
0
LINE
8
Calque 1
10
1.909500
20
1.767340
11
1.939990
21
1.697060
0
LINE
8
Calque 1
10
1.939990
20
1.697060
11
2.011820
21
1.727040
0
LINE
8
Calque 1
10
2.011820
20
1.727040
11
1.981850
21
1.796800
0
LINE
8
Calque 1
10
1.981850
20
1.796800
11
1.957560
21
1.800930
0
LINE
8
Calque 1
10
1.957560
20
1.800930
11
1.957560
21
1.800930
0
LINE
8
Calque 1
10
2.570440
20
1.760630
11
2.522380
21
1.727550
0
LINE
8
Calque 1
10
2.522380
20
1.727550
11
2.552870
21
1.657270
0
LINE
8
Calque 1
10
2.552870
20
1.657270
11
2.625220
21
1.686730
0
LINE
8
Calque 1
10
2.625220
20
1.686730
11
2.594730
21
1.757010
0
LINE
8
Calque 1
10
2.594730
20
1.757010
11
2.570440
21
1.760630
0
LINE
8
Calque 1
10
2.570440
20
1.760630
11
2.570440
21
1.760630
0
LINE
8
Calque 1
10
2.136880
20
1.729100
11
2.089330
21
1.696030
0
LINE
8
Calque 1
10
2.089330
20
1.696030
11
2.119820
21
1.625750
0
LINE
8
Calque 1
10
2.119820
20
1.625750
11
2.192170
21
1.655720
0
LINE
8
Calque 1
10
2.192170
20
1.655720
11
2.161680
21
1.725490
0
LINE
8
Calque 1
10
2.161680
20
1.725490
11
2.136880
21
1.729100
0
LINE
8
Calque 1
10
2.136880
20
1.729100
11
2.136880
21
1.729100
0
LINE
8
Calque 1
10
2.317230
20
1.657790
11
2.269170
21
1.624720
0
LINE
8
Calque 1
10
2.269170
20
1.624720
11
2.299140
21
1.554440
0
LINE
8
Calque 1
10
2.299140
20
1.554440
11
2.371490
21
1.583890
0
LINE
8
Calque 1
10
2.371490
20
1.583890
11
2.341000
21
1.653660
0
LINE
8
Calque 1
10
2.341000
20
1.653660
11
2.317230
21
1.657790
0
LINE
8
Calque 1
10
2.317230
20
1.657790
11
2.317230
21
1.657790
0
LINE
8
Calque 1
10
2.496550
20
1.586480
11
2.449000
21
1.552890
0
LINE
8
Calque 1
10
2.449000
20
1.552890
11
2.479490
21
1.482610
0
LINE
8
Calque 1
10
2.479490
20
1.482610
11
2.551840
21
1.512580
0
LINE
8
Calque 1
10
2.551840
20
1.512580
11
2.521350
21
1.582340
0
LINE
8
Calque 1
10
2.521350
20
1.582340
11
2.496550
21
1.586480
0
LINE
8
Calque 1
10
2.496550
20
1.586480
11
2.496550
21
1.586480
0
LINE
8
Calque 1
10
5.347530
20
1.525500
11
5.474140
21
1.525500
0
LINE
8
Calque 1
10
5.474140
20
1.525500
11
5.796090
21
0.576718
0
LINE
8
Calque 1
10
5.796090
20
0.576718
11
5.598170
21
0.576718
0
LINE
8
Calque 1
10
5.598170
20
0.576718
11
5.569230
21
0.723996
0
LINE
8
Calque 1
10
5.569230
20
0.723996
11
5.251420
21
0.723996
0
LINE
8
Calque 1
10
5.251420
20
0.723996
11
5.212140
21
0.576718
0
LINE
8
Calque 1
10
5.212140
20
0.576718
11
5.025590
21
0.576718
0
LINE
8
Calque 1
10
5.025590
20
0.576718
11
5.347530
21
1.525500
0
LINE
8
Calque 1
10
5.347530
20
1.525500
11
5.347530
21
1.525500
0
LINE
8
Calque 1
10
2.243330
20
1.483120
11
2.195270
21
1.450050
0
LINE
8
Calque 1
10
2.195270
20
1.450050
11
2.225760
21
1.379770
0
LINE
8
Calque 1
10
2.225760
20
1.379770
11
2.298110
21
1.409230
0
LINE
8
Calque 1
10
2.298110
20
1.409230
11
2.267620
21
1.478990
0
LINE
8
Calque 1
10
2.267620
20
1.478990
11
2.243330
21
1.483120
0
LINE
8
Calque 1
10
2.243330
20
1.483120
11
2.243330
21
1.483120
0
LINE
8
Calque 1
10
2.423160
20
1.411810
11
2.375620
21
1.378220
0
LINE
8
Calque 1
10
2.375620
20
1.378220
11
2.405590
21
1.308460
0
LINE
8
Calque 1
10
2.405590
20
1.308460
11
2.477940
21
1.337400
0
LINE
8
Calque 1
10
2.477940
20
1.337400
11
2.447450
21
1.407680
0
LINE
8
Calque 1
10
2.447450
20
1.407680
11
2.423160
21
1.411810
0
LINE
8
Calque 1
10
2.423160
20
1.411810
11
2.423160
21
1.411810
0
LINE
8
Calque 1
10
5.410580
20
1.312070
11
5.382160
21
1.212860
0
LINE
8
Calque 1
10
5.382160
20
1.212860
11
5.355800
21
1.116740
0
LINE
8
Calque 1
10
5.355800
20
1.116740
11
5.326350
21
1.018040
0
LINE
8
Calque 1
10
5.326350
20
1.018040
11
5.297410
21
0.915199
0
LINE
8
Calque 1
10
5.297410
20
0.915199
11
5.525820
21
0.915199
0
LINE
8
Calque 1
10
5.525820
20
0.915199
11
5.410580
21
1.312070
0
LINE
8
Calque 1
10
5.410580
20
1.312070
11
5.410580
21
1.312070
0
LINE
8
Calque 1
10
2.169950
20
1.308460
11
2.121890
21
1.275380
0
LINE
8
Calque 1
10
2.121890
20
1.275380
11
2.152380
21
1.205620
0
LINE
8
Calque 1
10
2.152380
20
1.205620
11
2.224210
21
1.234560
0
LINE
8
Calque 1
10
2.224210
20
1.234560
11
2.194240
21
1.304840
0
LINE
8
Calque 1
10
2.194240
20
1.304840
11
2.169950
21
1.308460
0
LINE
8
Calque 1
10
2.169950
20
1.308460
11
2.169950
21
1.308460
0
LINE
8
Calque 1
10
6.273580
20
1.304320
11
6.437079
21
1.226115
0
LINE
8
Calque 1
10
6.437079
20
1.226115
11
6.499920
21
1.002530
0
LINE
8
Calque 1
10
6.499920
20
1.002530
11
6.515420
21
0.576718
0
LINE
8
Calque 1
10
6.515420
20
0.576718
11
6.338690
21
0.576718
0
LINE
8
Calque 1
10
6.338690
20
0.576718
11
6.359880
21
1.005120
0
LINE
8
Calque 1
10
6.359880
20
1.005120
11
6.263760
21
1.168930
0
LINE
8
Calque 1
10
6.263760
20
1.168930
11
6.114930
21
0.982895
0
LINE
8
Calque 1
10
6.114930
20
0.982895
11
6.131980
21
0.576718
0
LINE
8
Calque 1
10
6.131980
20
0.576718
11
5.959380
21
0.576718
0
LINE
8
Calque 1
10
5.959380
20
0.576718
11
5.976440
21
1.293990
0
LINE
8
Calque 1
10
5.976440
20
1.293990
11
6.110280
21
1.293990
0
LINE
8
Calque 1
10
6.110280
20
1.293990
11
6.110280
21
1.237660
0
LINE
8
Calque 1
10
6.110280
20
1.237660
11
6.158860
21
1.271770
0
LINE
8
Calque 1
10
6.158860
20
1.271770
11
6.273580
21
1.304320
0
LINE
8
Calque 1
10
6.273580
20
1.304320
11
6.273580
21
1.304320
0
LINE
8
Calque 1
10
6.937100
20
1.304320
11
7.136860
21
1.223788
0
LINE
8
Calque 1
10
7.136860
20
1.223788
11
7.203240
21
0.980312
0
LINE
8
Calque 1
10
7.203240
20
0.980312
11
7.203240
21
0.576718
0
LINE
8
Calque 1
10
7.203240
20
0.576718
11
7.067840
21
0.576718
0
LINE
8
Calque 1
10
7.067840
20
0.576718
11
7.067840
21
0.631496
0
LINE
8
Calque 1
10
7.067840
20
0.631496
11
6.892140
21
0.560182
0
LINE
8
Calque 1
10
6.892140
20
0.560182
11
6.738150
21
0.623744
0
LINE
8
Calque 1
10
6.738150
20
0.623744
11
6.679750
21
0.794276
0
LINE
8
Calque 1
10
6.679750
20
0.794276
11
6.748879
21
0.981031
0
LINE
8
Calque 1
10
6.748879
20
0.981031
11
6.957260
21
1.043870
0
LINE
8
Calque 1
10
6.957260
20
1.043870
11
7.067840
21
1.043870
0
LINE
8
Calque 1
10
7.067840
20
1.043870
11
6.925730
21
1.176680
0
LINE
8
Calque 1
10
6.925730
20
1.176680
11
6.722130
21
1.106400
0
LINE
8
Calque 1
10
6.722130
20
1.106400
11
6.722130
21
1.251100
0
LINE
8
Calque 1
10
6.722130
20
1.251100
11
6.937100
21
1.304320
0
LINE
8
Calque 1
10
6.937100
20
1.304320
11
6.937100
21
1.304320
0
LINE
8
Calque 1
10
2.349270
20
1.237140
11
2.301210
21
1.204070
0
LINE
8
Calque 1
10
2.301210
20
1.204070
11
2.331700
21
1.134310
0
LINE
8
Calque 1
10
2.331700
20
1.134310
11
2.404040
21
1.163250
0
LINE
8
Calque 1
10
2.404040
20
1.163250
11
2.373560
21
1.233010
0
LINE
8
Calque 1
10
2.373560
20
1.233010
11
2.349270
21
1.237140
0
LINE
8
Calque 1
10
2.349270
20
1.237140
11
2.349270
21
1.237140
0
LINE
8
Calque 1
10
2.275890
20
1.062990
11
2.227830
21
1.029400
0
LINE
8
Calque 1
10
2.227830
20
1.029400
11
2.257800
21
0.959124
0
LINE
8
Calque 1
10
2.257800
20
0.959124
11
2.330150
21
0.989097
0
LINE
8
Calque 1
10
2.330150
20
0.989097
11
2.300170
21
1.058860
0
LINE
8
Calque 1
10
2.300170
20
1.058860
11
2.275890
21
1.062990
0
LINE
8
Calque 1
10
2.275890
20
1.062990
11
2.275890
21
1.062990
0
LINE
8
Calque 1
10
2.438150
20
0.988063
11
2.390090
21
0.954473
0
LINE
8
Calque 1
10
2.390090
20
0.954473
11
2.420060
21
0.884193
0
LINE
8
Calque 1
10
2.420060
20
0.884193
11
2.492410
21
0.913649
0
LINE
8
Calque 1
10
2.492410
20
0.913649
11
2.461920
21
0.983929
0
LINE
8
Calque 1
10
2.461920
20
0.983929
11
2.438150
21
0.988063
0
LINE
8
Calque 1
10
2.438150
20
0.988063
11
2.438150
21
0.988063
0
LINE
8
Calque 1
10
6.951570
20
0.916749
11
6.826510
21
0.892978
0
LINE
8
Calque 1
10
6.826510
20
0.892978
11
6.799640
21
0.824249
0
LINE
8
Calque 1
10
6.799640
20
0.824249
11
6.826510
21
0.783941
0
LINE
8
Calque 1
10
6.826510
20
0.783941
11
6.905580
21
0.773606
0
LINE
8
Calque 1
10
6.905580
20
0.773606
11
7.016680
21
0.915199
0
LINE
8
Calque 1
10
7.016680
20
0.915199
11
7.016680
21
0.916749
0
LINE
8
Calque 1
10
7.016680
20
0.916749
11
6.951570
21
0.916749
0
LINE
8
Calque 1
10
6.951570
20
0.916749
11
6.951570
21
0.916749
0
LINE
8
Calque 1
10
2.202510
20
0.887811
11
2.153930
21
0.854738
0
LINE
8
Calque 1
10
2.153930
20
0.854738
11
2.184420
21
0.784975
0
LINE
8
Calque 1
10
2.184420
20
0.784975
11
2.256770
21
0.813913
0
LINE
8
Calque 1
10
2.256770
20
0.813913
11
2.226280
21
0.884193
0
LINE
8
Calque 1
10
2.226280
20
0.884193
11
2.202510
21
0.887811
0
LINE
8
Calque 1
10
2.202510
20
0.887811
11
2.202510
21
0.887811
0
LINE
8
Calque 1
10
2.364250
20
0.813397
11
2.316190
21
0.780324
0
LINE
8
Calque 1
10
2.316190
20
0.780324
11
2.346680
21
0.710044
0
LINE
8
Calque 1
10
2.346680
20
0.710044
11
2.419030
21
0.738982
0
LINE
8
Calque 1
10
2.419030
20
0.738982
11
2.388540
21
0.809263
0
LINE
8
Calque 1
10
2.388540
20
0.809263
11
2.364250
21
0.813397
0
LINE
8
Calque 1
10
2.364250
20
0.813397
11
2.364250
21
0.813397
0
LINE
8
Calque 1
10
2.128610
20
0.713661
11
2.080550
21
0.680588
0
LINE
8
Calque 1
10
2.080550
20
0.680588
11
2.111040
21
0.610825
0
LINE
8
Calque 1
10
2.111040
20
0.610825
11
2.183390
21
0.639764
0
LINE
8
Calque 1
10
2.183390
20
0.639764
11
2.152900
21
0.709527
0
LINE
8
Calque 1
10
2.152900
20
0.709527
11
2.128610
21
0.713661
0
LINE
8
Calque 1
10
2.128610
20
0.713661
11
2.128610
21
0.713661
0
LINE
8
Calque 1
10
2.290350
20
0.638730
11
2.242810
21
0.605657
0
LINE
8
Calque 1
10
2.242810
20
0.605657
11
2.273300
21
0.535894
0
LINE
8
Calque 1
10
2.273300
20
0.535894
11
2.345130
21
0.564833
0
LINE
8
Calque 1
10
2.345130
20
0.564833
11
2.314640
21
0.634596
0
LINE
8
Calque 1
10
2.314640
20
0.634596
11
2.290350
21
0.638730
0
LINE
8
Calque 1
10
2.290350
20
0.638730
11
2.290350
21
0.638730
0
LINE
8
Calque 1
10
2.470190
20
0.566900
11
2.422650
21
0.533827
0
LINE
8
Calque 1
10
2.422650
20
0.533827
11
2.452620
21
0.464064
0
LINE
8
Calque 1
10
2.452620
20
0.464064
11
2.524450
21
0.493519
0
LINE
8
Calque 1
10
2.524450
20
0.493519
11
2.493960
21
0.563283
0
LINE
8
Calque 1
10
2.493960
20
0.563283
11
2.470190
21
0.566900
0
LINE
8
Calque 1
10
2.470190
20
0.566900
11
2.470190
21
0.566900
0
LINE
8
Calque 1
10
2.054710
20
0.539511
11
2.007170
21
0.505922
0
LINE
8
Calque 1
10
2.007170
20
0.505922
11
2.037140
21
0.435642
0
LINE
8
Calque 1
10
2.037140
20
0.435642
11
2.109490
21
0.465097
0
LINE
8
Calque 1
10
2.109490
20
0.465097
11
2.079510
21
0.535377
0
LINE
8
Calque 1
10
2.079510
20
0.535377
11
2.054710
21
0.539511
0
LINE
8
Calque 1
10
2.054710
20
0.539511
11
2.054710
21
0.539511
0
LINE
8
Calque 1
10
2.650020
20
0.495587
11
2.602480
21
0.462514
0
LINE
8
Calque 1
10
2.602480
20
0.462514
11
2.632450
21
0.392234
0
LINE
8
Calque 1
10
2.632450
20
0.392234
11
2.704800
21
0.422206
0
LINE
8
Calque 1
10
2.704800
20
0.422206
11
2.674310
21
0.491969
0
LINE
8
Calque 1
10
2.674310
20
0.491969
11
2.650020
21
0.495587
0
LINE
8
Calque 1
10
2.650020
20
0.495587
11
2.650020
21
0.495587
0
LINE
8
Calque 1
10
2.216460
20
0.464581
11
2.168920
21
0.430991
0
LINE
8
Calque 1
10
2.168920
20
0.430991
11
2.198890
21
0.360711
0
LINE
8
Calque 1
10
2.198890
20
0.360711
11
2.271750
21
0.390167
0
LINE
8
Calque 1
10
2.271750
20
0.390167
11
2.241260
21
0.459930
0
LINE
8
Calque 1
10
2.241260
20
0.459930
11
2.216460
21
0.464581
0
LINE
8
Calque 1
10
2.216460
20
0.464581
11
2.216460
21
0.464581
0
LINE
8
Calque 1
10
2.396810
20
0.392234
11
2.348750
21
0.359161
0
LINE
8
Calque 1
10
2.348750
20
0.359161
11
2.378720
21
0.289397
0
LINE
8
Calque 1
10
2.378720
20
0.289397
11
2.451070
21
0.318336
0
LINE
8
Calque 1
10
2.451070
20
0.318336
11
2.420580
21
0.388616
0
LINE
8
Calque 1
10
2.420580
20
0.388616
11
2.396810
21
0.392234
0
LINE
8
Calque 1
10
2.396810
20
0.392234
11
2.396810
21
0.392234
0
LINE
8
Calque 1
10
1.980810
20
0.364328
11
1.933270
21
0.331255
0
LINE
8
Calque 1
10
1.933270
20
0.331255
11
1.963760
21
0.260975
0
LINE
8
Calque 1
10
1.963760
20
0.260975
11
2.036110
21
0.290431
0
LINE
8
Calque 1
10
2.036110
20
0.290431
11
2.005620
21
0.360711
0
LINE
8
Calque 1
10
2.005620
20
0.360711
11
1.980810
21
0.364328
0
LINE
8
Calque 1
10
1.980810
20
0.364328
11
1.980810
21
0.364328
0
LINE
8
Calque 1
10
2.576130
20
0.320920
11
2.528580
21
0.287847
0
LINE
8
Calque 1
10
2.528580
20
0.287847
11
2.558560
21
0.217567
0
LINE
8
Calque 1
10
2.558560
20
0.217567
11
2.631420
21
0.247023
0
LINE
8
Calque 1
10
2.631420
20
0.247023
11
2.600930
21
0.317303
0
LINE
8
Calque 1
10
2.600930
20
0.317303
11
2.576130
21
0.320920
0
LINE
8
Calque 1
10
2.576130
20
0.320920
11
2.576130
21
0.320920
 0 
ENDSEC
 0 
EOF