<?xml version="1.0" encoding="UTF-8" standalone="no"?>
<!-- Created with Inkscape (http://www.inkscape.org/) -->

<svg
   width="7.8677354mm"
   height="12.236463mm"
   viewBox="0 0 7.8677354 12.236463"
   version="1.1"
   id="svg13223"
   inkscape:version="1.2 (dc2aedaf03, 2022-05-15)"
   sodipodi:docname="TopConnectorSilk.svg"
   inkscape:export-filename="TopConnectorSilk.png"
   inkscape:export-xdpi="6000"
   inkscape:export-ydpi="6000"
   xmlns:inkscape="http://www.inkscape.org/namespaces/inkscape"
   xmlns:sodipodi="http://sodipodi.sourceforge.net/DTD/sodipodi-0.dtd"
   xmlns="http://www.w3.org/2000/svg"
   xmlns:svg="http://www.w3.org/2000/svg">
  <sodipodi:namedview
     id="namedview13225"
     pagecolor="#505050"
     bordercolor="#ffffff"
     borderopacity="1"
     inkscape:showpageshadow="0"
     inkscape:pageopacity="0"
     inkscape:pagecheckerboard="1"
     inkscape:deskcolor="#505050"
     inkscape:document-units="mm"
     showgrid="false"
     inkscape:zoom="11.930303"
     inkscape:cx="19.90729"
     inkscape:cy="23.302007"
     inkscape:window-width="1920"
     inkscape:window-height="1017"
     inkscape:window-x="1912"
     inkscape:window-y="396"
     inkscape:window-maximized="1"
     inkscape:current-layer="layer1" />
  <defs
     id="defs13220" />
  <g
     inkscape:label="Calque 1"
     inkscape:groupmode="layer"
     id="layer1"
     transform="translate(-9.7964126,-4.3277876)">
    <path
       id="rect22433-9-4-7-6-7-4-4"
       style="opacity:1;fill:#000000;fill-opacity:1;stroke:none;stroke-width:101.293;stroke-linecap:round;stroke-linejoin:round;paint-order:fill markers stroke"
       d="M 158.96366 13.156524 C 156.05684 13.156524 153.71621 15.399603 153.71621 18.187274 C 153.71621 20.974946 156.05684 23.220523 158.96366 23.220523 L 184.88982 23.220523 C 187.79666 23.220523 190.13727 20.974946 190.13727 18.187274 C 190.13727 15.399603 187.79666 13.156524 184.88982 13.156524 L 158.96366 13.156524 z M 158.62867 13.819123 A 4.1245386 4.309935 0 0 1 162.75149 18.129765 A 4.1245386 4.309935 0 0 1 158.62867 22.440407 A 4.1245386 4.309935 0 0 1 154.50345 18.129765 A 4.1245386 4.309935 0 0 1 158.62867 13.819123 z M 170.40371 13.819123 A 4.1245386 4.309935 0 0 1 174.52654 18.129765 A 4.1245386 4.309935 0 0 1 170.40371 22.440407 A 4.1245386 4.309935 0 0 1 166.2785 18.129765 A 4.1245386 4.309935 0 0 1 170.40371 13.819123 z M 161.914 14.051658 L 163.02666 14.051658 L 162.22746 14.729259 A 4.9807934 5.2046782 0 0 0 161.7154 14.219183 L 161.914 14.051658 z M 164.10821 14.051658 L 165.22327 14.051658 L 163.01948 15.919436 A 4.9807934 5.2046782 0 0 0 162.63903 15.296843 L 164.10821 14.051658 z M 166.30721 14.051658 L 167.42226 14.051658 L 163.44301 17.42216 A 4.9807934 5.2046782 0 0 0 163.26355 16.627041 L 166.30721 14.051658 z M 176.56043 15.739409 L 177.72095 15.739409 C 178.5962 15.739409 179.037 16.225515 179.037 17.15712 C 179.037 17.629217 178.92231 17.986703 178.69961 18.244782 C 178.47692 18.502862 178.15598 18.63484 177.72095 18.63484 L 177.22803 18.63484 L 177.18256 20.327593 L 176.4049 20.327593 L 176.56043 15.739409 z M 177.25435 16.224481 C 177.24395 16.469972 177.23791 16.696773 177.23281 16.917085 C 177.22241 17.143691 177.21877 17.369111 177.21367 17.62719 L 177.76641 17.62719 C 178.19109 17.62719 178.42922 17.375299 178.42922 16.922085 C 178.42922 16.475167 178.19109 16.224481 177.76641 16.224481 L 177.25435 16.224481 z M 165.82147 16.324496 A 4.9807934 5.2046782 0 0 0 165.52476 17.519674 L 163.40712 19.314942 A 4.9807934 5.2046782 0 0 0 163.52437 18.269786 L 165.82147 16.324496 z M 185.77277 16.809569 C 185.98511 16.809569 186.17693 16.878709 186.33748 17.004598 C 186.4566 17.099018 186.55489 17.226082 186.62222 17.377153 C 186.80866 17.043537 187.03267 16.809569 187.48842 16.809569 C 187.79398 16.809569 188.03136 16.941635 188.19191 17.187125 C 188.35763 17.438911 188.44076 17.811485 188.44076 18.277287 C 188.45096 18.602493 188.45678 18.94751 188.46708 19.297439 C 188.47748 19.656233 188.4882 20.006567 188.4934 20.327593 L 187.68942 20.327593 L 187.81863 18.202276 C 187.81863 17.63576 187.73103 17.414659 187.43578 17.414659 C 187.05253 17.414659 186.82561 17.816906 186.82561 18.402306 L 186.79929 20.327593 L 186.00248 20.327593 L 186.17716 18.16227 C 186.17216 17.633521 186.03326 17.382154 185.72252 17.382154 C 185.5309 17.382154 185.37504 17.477063 185.25592 17.672197 C 185.13162 17.86733 185.0645 18.114046 185.0645 18.397305 C 185.0749 18.699447 185.08052 19.031334 185.09082 19.364949 C 185.10112 19.69227 185.10955 20.025451 185.11475 20.327593 L 184.34426 20.327593 L 184.44237 16.88458 L 185.07407 16.88458 L 185.05971 17.119615 C 185.25133 16.911892 185.47757 16.809569 185.77277 16.809569 z M 179.79312 16.88458 L 180.42483 16.88458 L 180.92014 18.937386 L 181.32931 17.949738 L 182.05434 17.949738 L 182.46351 18.937386 C 182.54641 18.597476 182.62949 18.250936 182.71236 17.904732 C 182.79526 17.558527 182.87835 17.2119 182.96121 16.88458 L 183.58813 16.88458 L 182.84636 20.327593 L 182.10219 20.327593 L 181.68824 19.062404 L 181.25274 20.327593 L 180.53251 20.327593 L 179.79312 16.88458 z M 165.47691 18.477317 A 4.9807934 5.2046782 0 0 0 165.57262 19.339945 L 162.06714 22.310388 L 161.60533 22.310388 A 4.9807934 5.2046782 0 0 0 162.94052 20.625137 L 165.47691 18.477317 z M 165.80711 20.060053 A 4.9807934 5.2046782 0 0 0 166.111 20.745155 L 164.26135 22.310388 L 163.1487 22.310388 L 165.80711 20.060053 z M 166.4795 21.347745 A 4.9807934 5.2046782 0 0 0 166.95806 21.887825 L 166.46035 22.310388 L 165.34291 22.310388 L 166.4795 21.347745 z M 158.95648 25.470859 C 156.04965 25.470859 153.70664 27.713936 153.70664 30.501608 C 153.70664 33.289279 156.04965 35.534858 158.95648 35.534858 L 184.88025 35.534858 C 187.78707 35.534858 190.13009 33.289279 190.13009 30.501608 C 190.13009 27.713936 187.78707 25.470859 184.88025 25.470859 L 158.95648 25.470859 z M 158.62149 26.133457 A 4.1245386 4.309935 0 0 1 162.74431 30.444099 A 4.1245386 4.309935 0 0 1 158.62149 34.754742 A 4.1245386 4.309935 0 0 1 154.49627 30.444099 A 4.1245386 4.309935 0 0 1 158.62149 26.133457 z M 170.39414 26.133457 A 4.1245386 4.309935 0 0 1 174.51936 30.444099 A 4.1245386 4.309935 0 0 1 170.39414 34.754742 A 4.1245386 4.309935 0 0 1 166.27132 30.444099 A 4.1245386 4.309935 0 0 1 170.39414 26.133457 z M 161.54072 26.365992 L 162.91659 26.365992 C 162.94059 26.413362 162.976 26.453322 163.02427 26.478509 C 163.14404 26.527249 163.27744 26.476309 163.34012 26.365992 L 163.81629 26.365992 C 163.77359 26.394282 163.73829 26.433732 163.71819 26.48351 C 163.66379 26.616204 163.72619 26.768622 163.85697 26.82356 C 163.98847 26.8785 164.13879 26.814861 164.19196 26.681039 C 164.23926 26.56431 164.19595 26.433157 164.09625 26.365992 L 165.71379 26.365992 C 165.68229 26.489433 165.7424 26.620888 165.86215 26.671037 C 165.99295 26.726257 166.14298 26.663837 166.19714 26.531017 C 166.21814 26.477947 166.21872 26.419249 166.20432 26.365992 L 167.43184 26.365992 A 4.9807934 5.2046782 0 0 0 166.91499 26.878568 C 166.93009 26.861928 166.94495 26.844921 166.96045 26.828561 C 166.97685 26.711826 166.91435 26.599498 166.80731 26.55352 C 166.77231 26.53844 166.73521 26.531897 166.69724 26.533517 C 166.59804 26.538517 166.50996 26.600297 166.47232 26.693541 C 166.41822 26.826943 166.48231 26.979658 166.61349 27.033591 C 166.65949 27.049611 166.7077 27.049942 166.75467 27.038592 A 4.9807934 5.2046782 0 0 0 166.46992 27.398646 L 166.46753 27.396145 C 166.43153 27.381555 166.39134 27.375833 166.35268 27.378643 C 166.25448 27.384643 166.1698 27.446233 166.13254 27.538667 C 166.10124 27.637617 166.13233 27.745796 166.20911 27.813708 A 4.9807934 5.2046782 0 0 0 165.66354 29.068895 C 165.56845 29.077595 165.4845 29.136344 165.44819 29.226418 C 165.40369 29.34273 165.44804 29.473087 165.54869 29.538965 A 4.9807934 5.2046782 0 0 0 165.50323 29.966528 C 165.48483 29.951878 165.46511 29.938103 165.44341 29.929023 C 165.40741 29.914433 165.3696 29.90871 165.33094 29.91152 C 165.23274 29.91752 165.14568 29.9791 165.10841 30.071544 C 165.05601 30.204236 165.11912 30.35516 165.24959 30.409094 C 165.31959 30.432004 165.39321 30.42085 165.45537 30.384091 A 4.9807934 5.2046782 0 0 0 165.44101 30.524111 A 4.9807934 5.2046782 0 0 0 165.68269 32.026835 C 165.65819 32.000505 165.62696 31.978766 165.59176 31.964326 C 165.55576 31.949736 165.51797 31.944013 165.4793 31.946823 C 165.382 31.953823 165.29603 32.015193 165.25916 32.106847 C 165.20476 32.239545 165.26715 32.391963 165.39794 32.446898 C 165.52944 32.501838 165.67978 32.438197 165.73294 32.304377 C 165.74324 32.278947 165.74998 32.252875 165.75208 32.226865 A 4.9807934 5.2046782 0 0 0 167.36005 34.624722 L 166.73074 34.624722 C 166.74744 34.509812 166.68754 34.393948 166.5776 34.347181 C 166.5418 34.331721 166.50401 34.325168 166.46514 34.327178 C 166.36694 34.333178 166.27987 34.394758 166.24261 34.487202 C 166.22651 34.531922 166.22524 34.578981 166.23304 34.624722 L 164.69924 34.624722 C 164.67284 34.568202 164.62844 34.522476 164.57003 34.497203 C 164.53403 34.482613 164.49623 34.476891 164.45757 34.479701 C 164.36627 34.486201 164.28704 34.54221 164.247 34.624722 L 163.75168 34.624722 C 163.80618 34.598092 163.85098 34.553242 163.87611 34.492202 C 163.93051 34.359508 163.86812 34.20709 163.73733 34.152152 C 163.70153 34.136692 163.66373 34.130139 163.62487 34.132149 C 163.52597 34.138549 163.43882 34.201238 163.40233 34.294673 C 163.35193 34.422181 163.40933 34.565792 163.52915 34.624722 L 161.95468 34.624722 C 161.99318 34.521779 161.9627 34.408166 161.8805 34.337179 A 4.9807934 5.2046782 0 0 0 163.52197 30.534113 C 163.58207 30.510393 163.63241 30.464112 163.66076 30.404093 C 163.71486 30.270691 163.65075 30.117977 163.51958 30.064043 C 163.50438 30.059543 163.48743 30.058142 163.47173 30.056542 A 4.9807934 5.2046782 0 0 0 163.08648 28.451303 C 163.11098 28.477593 163.14142 28.499692 163.17502 28.513812 C 163.30651 28.568752 163.45686 28.505112 163.51001 28.371291 C 163.56441 28.238596 163.50201 28.086179 163.37123 28.03124 C 163.33523 28.01665 163.29502 28.010927 163.25637 28.013737 C 163.15817 28.019737 163.07349 28.081317 163.03623 28.173761 C 163.02623 28.197691 163.01939 28.223452 163.01709 28.248772 A 4.9807934 5.2046782 0 0 0 161.54072 26.365992 z M 161.93314 26.476008 C 161.86734 26.491608 161.81111 26.532949 161.77522 26.591026 C 161.88847 26.696332 161.99764 26.806923 162.10064 26.921075 C 162.13574 26.899485 162.16548 26.869062 162.18678 26.833562 C 162.24088 26.700156 162.17679 26.547441 162.04561 26.493511 C 162.01041 26.479301 161.97331 26.473578 161.93554 26.476008 L 161.93314 26.476008 z M 164.77102 26.668537 C 164.67282 26.674537 164.58576 26.736128 164.54849 26.828561 C 164.49439 26.961963 164.5585 27.114677 164.68967 27.168612 C 164.81977 27.222152 164.96813 27.160012 165.02227 27.028591 C 165.07667 26.895894 165.01727 26.743473 164.88588 26.68854 C 164.85008 26.67308 164.80987 26.666527 164.77102 26.668537 z M 162.76584 26.82106 C 162.66764 26.82706 162.58058 26.89115 162.54331 26.983584 C 162.48921 27.116986 162.55332 27.2697 162.68449 27.323635 C 162.81529 27.376865 162.96393 27.311014 163.01709 27.178613 C 163.06989 27.046627 163.00709 26.895996 162.87831 26.841063 C 162.84251 26.825603 162.8047 26.81905 162.76584 26.82106 z M 165.60372 27.016089 C 165.50552 27.022089 165.41845 27.083679 165.38119 27.176113 C 165.32709 27.309515 165.3912 27.462229 165.52237 27.516163 C 165.65387 27.571103 165.80419 27.507463 165.85736 27.373642 C 165.91146 27.240237 165.84737 27.087522 165.71619 27.033591 C 165.68019 27.019001 165.64238 27.013279 165.60372 27.016089 z M 163.59615 27.168612 C 163.49845 27.174112 163.41403 27.237191 163.37601 27.328635 C 163.32191 27.462041 163.38602 27.614756 163.51719 27.668686 C 163.64869 27.723626 163.79901 27.657496 163.85218 27.523664 C 163.90458 27.390973 163.84159 27.240049 163.71101 27.186114 C 163.67501 27.171524 163.6348 27.165802 163.59615 27.168612 z M 164.43124 27.513663 C 164.33354 27.519163 164.24672 27.582243 164.20871 27.673687 C 164.15431 27.806382 164.21672 27.9588 164.3475 28.013737 C 164.4783 28.068957 164.62835 28.004037 164.68249 27.871216 C 164.73489 27.738523 164.67178 27.587601 164.54131 27.533666 C 164.50631 27.518586 164.46921 27.512043 164.43124 27.513663 z M 165.26155 27.858714 C 165.16335 27.864714 165.07867 27.928805 165.04141 28.021239 C 164.98731 28.15464 165.05142 28.307355 165.18259 28.361289 C 165.3141 28.416229 165.46441 28.350099 165.51758 28.216268 C 165.56998 28.083575 165.50689 27.932652 165.37641 27.878717 C 165.34061 27.863257 165.3004 27.856704 165.26155 27.858714 z M 178.1014 27.866215 L 178.68764 27.866215 L 180.17837 32.454399 L 179.26192 32.454399 L 179.12792 31.741793 L 177.65634 31.741793 L 177.47449 32.454399 L 176.61068 32.454399 L 178.1014 27.866215 z M 164.08907 28.358789 C 163.99087 28.364789 163.90381 28.426369 163.86654 28.518813 C 163.81244 28.652218 163.87654 28.804933 164.00772 28.858863 C 164.13922 28.913803 164.28955 28.850163 164.34271 28.716342 C 164.39511 28.583649 164.33211 28.432726 164.20153 28.378792 C 164.16573 28.363332 164.12793 28.356779 164.08907 28.358789 z M 164.92177 28.70384 C 164.82287 28.71024 164.73812 28.772931 164.70163 28.866364 C 164.64883 28.998351 164.71164 29.148981 164.84042 29.203915 C 164.97122 29.259135 165.12126 29.196715 165.17541 29.063894 C 165.22951 28.93049 165.16541 28.777774 165.03423 28.723843 C 164.99923 28.708763 164.95973 28.70222 164.92177 28.70384 z M 178.39093 28.898869 C 178.34953 29.062529 178.30313 29.219075 178.26172 29.37644 C 178.22032 29.533806 178.17873 29.690439 178.1373 29.84151 C 178.0907 29.998876 178.0499 30.155421 178.0033 30.319081 C 177.9619 30.482742 177.91589 30.646699 177.8693 30.816655 L 178.92453 30.816655 L 178.39093 28.898869 z M 182.38933 28.936375 C 183.05223 28.936375 183.39355 29.458693 183.43499 30.396592 L 183.50917 32.454399 L 182.69083 32.454399 L 182.78893 30.384091 C 182.78893 29.855342 182.66497 29.588972 182.34387 29.588972 C 181.86741 29.588972 181.65474 29.92259 181.65474 30.489106 L 181.73131 32.454399 L 180.9345 32.454399 L 181.01107 28.986382 L 181.6332 28.986382 L 181.6332 29.256423 C 181.7057 29.199773 181.77804 29.15055 181.85573 29.093898 C 182.0111 28.993184 182.18735 28.936375 182.38933 28.936375 z M 185.46171 28.936375 C 186.28517 28.936375 186.69401 29.450405 186.69401 30.501608 L 186.69401 32.454399 L 186.06709 32.454399 L 186.06709 32.189359 C 185.86511 32.415966 185.6057 32.536911 185.25353 32.536911 C 184.95315 32.536911 184.71935 32.434587 184.53808 32.226865 C 184.35682 32.019142 184.27008 31.741652 184.27008 31.401742 C 184.27008 30.602324 184.69532 30.194062 185.55503 30.194062 L 186.06709 30.194062 C 186.04639 29.828974 185.81302 29.589234 185.40906 29.551466 C 185.11904 29.551466 184.8081 29.671205 184.4663 29.891517 L 184.4663 29.193913 C 184.834 29.023958 185.16651 28.936375 185.46171 28.936375 z M 163.74929 29.203915 C 163.65109 29.209915 163.56403 29.271495 163.52676 29.363939 C 163.47436 29.49663 163.53746 29.647554 163.66794 29.701489 C 163.79804 29.755019 163.9464 29.692888 164.00054 29.561468 C 164.05494 29.428773 163.99253 29.276356 163.86175 29.221417 C 163.82575 29.206827 163.78795 29.201105 163.74929 29.203915 z M 164.5796 29.548966 C 164.4814 29.554966 164.39433 29.616547 164.35707 29.70899 C 164.30467 29.841683 164.36776 29.992606 164.49824 30.04654 C 164.62903 30.10176 164.77909 30.03934 164.83324 29.906519 C 164.88564 29.773828 164.82263 29.622904 164.69206 29.568969 C 164.65626 29.553509 164.61847 29.546956 164.5796 29.548966 z M 164.23982 30.391592 C 164.14162 30.397592 164.05455 30.461672 164.01729 30.554116 C 163.96289 30.686813 164.02528 30.839232 164.15607 30.894166 C 164.28757 30.949106 164.4379 30.882977 164.49106 30.749145 C 164.54386 30.617159 164.48106 30.466528 164.35228 30.411595 C 164.31648 30.396135 164.27869 30.389582 164.23982 30.391592 z M 164.99116 30.754146 C 164.89296 30.760146 164.8059 30.824226 164.76863 30.91667 C 164.71423 31.049367 164.77664 31.201786 164.90742 31.25672 C 165.0389 31.31166 165.18925 31.24802 165.24241 31.114199 C 165.29651 30.980794 165.2324 30.828079 165.10123 30.774149 C 165.06603 30.759939 165.02893 30.751716 164.99116 30.754146 z M 185.52871 30.811654 C 185.22833 30.811654 185.03529 30.848634 184.94725 30.924171 C 184.86435 30.993411 184.828 31.101856 184.82282 31.259221 C 184.84352 31.359936 184.88512 31.429072 184.94725 31.45425 C 185.04565 31.48572 185.17073 31.504257 185.31574 31.504257 C 185.69898 31.504257 185.82781 31.427236 185.82781 30.816655 L 185.82781 30.811654 L 185.52871 30.811654 z M 163.90004 31.239218 C 163.80084 31.244218 163.71275 31.305998 163.67511 31.399242 C 163.62271 31.531935 163.68581 31.682857 163.81629 31.736792 C 163.94709 31.792012 164.09713 31.729592 164.15129 31.596771 C 164.20539 31.463366 164.14129 31.31065 164.01011 31.25672 C 163.97491 31.242511 163.93781 31.236788 163.90004 31.239218 z M 164.64899 31.599272 C 164.55079 31.605272 164.46373 31.666851 164.42646 31.759295 C 164.37236 31.892701 164.43646 32.045416 164.56764 32.099346 C 164.69843 32.154566 164.84848 32.092146 164.90263 31.959325 C 164.95673 31.82592 164.89262 31.673204 164.76145 31.619275 C 164.72565 31.603815 164.68785 31.597262 164.64899 31.599272 z M 163.55787 32.081843 C 163.45967 32.087843 163.37259 32.149423 163.33533 32.241867 C 163.28293 32.37456 163.34593 32.525483 163.47651 32.579418 C 163.60731 32.634637 163.75735 32.572218 163.81151 32.439397 C 163.86391 32.306704 163.80081 32.155781 163.67033 32.101846 C 163.63453 32.086386 163.59673 32.079833 163.55787 32.081843 z M 164.30682 32.444397 C 164.20912 32.449897 164.12469 32.512977 164.08668 32.604421 C 164.03258 32.737827 164.09668 32.888041 164.22786 32.941972 C 164.35796 32.995491 164.50632 32.933372 164.56046 32.801951 C 164.61286 32.669258 164.54985 32.518335 164.41928 32.4644 C 164.38428 32.44932 164.34479 32.442777 164.30682 32.444397 z M 165.13952 32.791949 C 165.04272 32.798349 164.95699 32.861319 164.91938 32.951973 C 164.86498 33.08467 164.92737 33.234589 165.05816 33.289523 C 165.18896 33.342753 165.33759 33.279403 165.39076 33.147002 C 165.44316 33.014309 165.38007 32.863386 165.24959 32.809452 C 165.21439 32.795242 165.17729 32.789519 165.13952 32.791949 z M 163.21569 32.924469 C 163.11749 32.930469 163.03281 32.994548 162.99555 33.086993 C 162.94115 33.219688 163.00356 33.372105 163.13434 33.427044 C 163.26514 33.482264 163.41518 33.417343 163.46933 33.284523 C 163.52373 33.151826 163.46134 32.999406 163.33055 32.944472 C 163.29475 32.929012 163.25454 32.922459 163.21569 32.924469 z M 165.97222 33.137001 C 165.87452 33.142501 165.79009 33.20558 165.75208 33.297024 C 165.69768 33.429721 165.76007 33.582141 165.89086 33.637075 C 166.02236 33.692015 166.1727 33.625885 166.22586 33.492053 C 166.27826 33.359361 166.21525 33.208438 166.08468 33.154503 C 166.04948 33.140293 166.00999 33.134571 165.97222 33.137001 z M 163.96465 33.287023 C 163.86645 33.293023 163.78177 33.357113 163.74451 33.449547 C 163.69041 33.582949 163.75151 33.735663 163.88329 33.789598 C 164.0148 33.844538 164.16752 33.780897 164.22068 33.647077 C 164.27308 33.514384 164.20997 33.363461 164.0795 33.309526 C 164.0437 33.294066 164.00351 33.285013 163.96465 33.287023 z M 164.79974 33.637075 C 164.70154 33.643075 164.61447 33.704656 164.57721 33.797099 C 164.52451 33.929085 164.58721 34.079716 164.71599 34.134649 C 164.84679 34.189869 164.99682 34.127449 165.05098 33.994628 C 165.10508 33.861223 165.04099 33.708508 164.90981 33.654578 C 164.87461 33.640368 164.83751 33.634645 164.79974 33.637075 z M 162.87352 33.772095 C 162.77532 33.778095 162.69065 33.839685 162.65338 33.932119 C 162.59928 34.06552 162.66339 34.218235 162.79456 34.27217 C 162.92606 34.32711 163.07639 34.263469 163.12955 34.129648 C 163.18365 33.996243 163.11956 33.843528 162.98838 33.789598 C 162.95238 33.775008 162.91217 33.769285 162.87352 33.772095 z M 165.63005 33.982126 C 165.53185 33.988126 165.44717 34.049706 165.40991 34.14215 C 165.35581 34.275553 165.41691 34.428266 165.54869 34.482201 C 165.6802 34.537141 165.83292 34.473502 165.88608 34.33968 C 165.94018 34.206274 165.87607 34.05356 165.7449 33.999629 C 165.7089 33.985039 165.66871 33.979316 165.63005 33.982126 z M 158.52817 37.540156 C 155.86045 37.540156 153.71382 39.849465 153.71382 42.718428 L 153.71382 54.965252 C 153.71382 54.991452 153.71621 55.016663 153.71621 55.042763 C 153.71588 55.066233 153.71382 55.089224 153.71382 55.112774 C 153.71382 55.775856 153.84855 56.406858 154.08949 56.985553 C 154.11939 57.057463 154.15201 57.12788 154.18521 57.198085 C 154.95841 58.941933 156.60572 60.143523 158.52817 60.143523 C 158.59827 60.143523 158.66702 60.136722 158.73634 60.133522 C 158.81144 60.136522 158.88538 60.143523 158.96127 60.143523 L 184.88743 60.143523 C 187.79427 60.143523 190.13488 57.900442 190.13488 55.112774 C 190.13488 52.325106 187.79427 50.079524 184.88743 50.079524 L 163.34491 50.079524 L 163.34491 42.718428 C 163.34491 39.849465 161.19593 37.540156 158.52817 37.540156 z M 158.61909 38.400285 A 4.1245386 4.3099351 0 0 1 162.74192 42.708426 A 4.1245386 4.3099351 0 0 1 158.61909 47.019068 A 4.1245386 4.3099351 0 0 1 154.49388 42.708426 A 4.1245386 4.3099351 0 0 1 158.61909 38.400285 z M 158.61909 50.687115 A 4.1245386 4.3099351 0 0 1 162.74192 54.997757 A 4.1245386 4.3099351 0 0 1 158.61909 59.308399 A 4.1245386 4.3099351 0 0 1 154.49388 54.997757 A 4.1245386 4.3099351 0 0 1 158.61909 50.687115 z M 170.39414 50.687115 A 4.1245386 4.3099351 0 0 1 174.51697 54.997757 A 4.1245386 4.3099351 0 0 1 170.39414 59.308399 A 4.1245386 4.3099351 0 0 1 166.26893 54.997757 A 4.1245386 4.3099351 0 0 1 170.39414 50.687115 z M 178.85753 52.634905 L 179.49402 52.634905 L 179.49402 57.225589 L 178.63979 57.225589 L 177.22563 53.982606 C 177.24633 54.52394 177.26715 55.065216 177.28785 55.612848 C 177.30855 56.166772 177.32936 56.703134 177.35006 57.225589 L 176.5365 57.225589 L 176.63461 52.724918 L 177.39074 52.724918 L 178.79053 55.840382 L 178.85753 52.634905 z M 184.8635 53.705064 C 185.07584 53.705064 185.26766 53.774204 185.42821 53.900093 C 185.54732 53.994513 185.64562 54.121578 185.71295 54.272649 C 185.89939 53.939033 186.1234 53.705064 186.57915 53.705064 C 186.88471 53.705064 187.12209 53.83713 187.28264 54.08262 C 187.44837 54.334405 187.53149 54.706983 187.53149 55.172783 C 187.54169 55.497989 187.54751 55.843007 187.55781 56.192935 C 187.56821 56.551728 187.57893 56.904563 187.58413 57.225589 L 186.78015 57.225589 L 186.90936 55.097772 C 186.90936 54.531258 186.82176 54.310154 186.52651 54.310154 C 186.14326 54.310154 185.91634 54.712401 185.91634 55.297801 L 185.89002 57.225589 L 185.09321 57.225589 L 185.26789 55.060266 C 185.26289 54.531521 185.12399 54.27765 184.81325 54.27765 C 184.62163 54.27765 184.46577 54.37256 184.34665 54.567693 C 184.22236 54.762827 184.15523 55.009543 184.15523 55.292801 C 184.16563 55.594942 184.17125 55.926833 184.18155 56.260445 C 184.19195 56.587766 184.20038 56.923447 184.20548 57.225589 L 183.43499 57.225589 L 183.5331 53.780075 L 184.1648 53.780075 L 184.15044 54.01511 C 184.34206 53.807388 184.5683 53.705064 184.8635 53.705064 z M 180.25015 53.780075 L 180.80289 53.780075 L 180.80289 55.35531 C 180.82879 55.884059 180.96993 56.16043 181.29103 56.16043 C 181.49819 56.16043 181.65844 56.085259 181.7672 55.927895 C 181.88113 55.770529 181.93791 55.532259 181.95862 55.255295 L 181.98494 53.780075 L 182.67886 53.780075 L 182.62622 57.225589 L 181.9993 57.225589 L 182.01127 56.960549 C 181.81447 57.193451 181.56948 57.305601 181.27428 57.305601 C 180.60101 57.305601 180.25015 56.803457 180.25015 55.840382 L 180.25015 53.780075 z M 158.96127 62.298844 C 156.05445 62.298844 153.71143 64.541922 153.71143 67.329594 C 153.71143 70.117266 156.05445 72.362843 158.96127 72.362843 L 184.88504 72.362843 C 187.79186 72.362843 190.13488 70.117266 190.13488 67.329594 C 190.13488 64.541922 187.79186 62.298844 184.88504 62.298844 L 158.96127 62.298844 z M 158.62627 62.961443 A 4.1245386 4.309935 0 0 1 162.74909 67.272085 A 4.1245386 4.309935 0 0 1 158.62627 71.582727 A 4.1245386 4.309935 0 0 1 154.50106 67.272085 A 4.1245386 4.309935 0 0 1 158.62627 62.961443 z M 170.39893 62.961443 A 4.1245386 4.309935 0 0 1 174.52414 67.272085 A 4.1245386 4.309935 0 0 1 170.39893 71.582727 A 4.1245386 4.309935 0 0 1 166.27611 67.272085 A 4.1245386 4.309935 0 0 1 170.39893 62.961443 z M 161.54551 63.193978 L 162.92138 63.193978 C 162.94538 63.241348 162.98077 63.281307 163.02905 63.306494 C 163.14882 63.355234 163.28223 63.304294 163.34491 63.193978 L 163.82108 63.193978 C 163.77838 63.222268 163.74307 63.261717 163.72297 63.311495 C 163.66857 63.44419 163.73097 63.596608 163.86175 63.651546 C 163.99325 63.706486 164.14358 63.642846 164.19675 63.509025 C 164.24405 63.392295 164.20074 63.261143 164.10104 63.193978 L 165.71858 63.193978 C 165.68708 63.317418 165.74718 63.448873 165.86693 63.499023 C 165.99773 63.554243 166.14777 63.491823 166.20193 63.359002 C 166.22293 63.305932 166.22351 63.247235 166.20911 63.193978 L 167.43662 63.193978 A 4.9807934 5.2046782 0 0 0 166.91977 63.706554 C 166.93487 63.689914 166.94974 63.672906 166.96524 63.656547 C 166.98164 63.539811 166.91914 63.427483 166.8121 63.381506 C 166.7771 63.366426 166.74 63.359883 166.70203 63.361503 C 166.60283 63.366503 166.51474 63.428282 166.4771 63.521526 C 166.423 63.654928 166.4871 63.807643 166.61828 63.861577 C 166.66428 63.877597 166.71248 63.877928 166.75945 63.866578 A 4.9807934 5.2046782 0 0 0 166.47471 64.226631 L 166.47232 64.224131 C 166.43632 64.209541 166.39611 64.203818 166.35746 64.206628 C 166.25926 64.212628 166.17458 64.274218 166.13732 64.366652 C 166.10602 64.465602 166.13711 64.573781 166.21389 64.641693 A 4.9807934 5.2046782 0 0 0 165.66833 65.89688 C 165.57323 65.90558 165.48929 65.96433 165.45298 66.054404 C 165.40848 66.170716 165.45283 66.301072 165.55348 66.36695 A 4.9807934 5.2046782 0 0 0 165.50801 66.794514 C 165.48961 66.779864 165.46989 66.766088 165.44819 66.757008 C 165.41219 66.742418 165.37439 66.736696 165.33573 66.739506 C 165.23753 66.745506 165.15047 66.807087 165.1132 66.89953 C 165.0608 67.032222 165.12389 67.183146 165.25437 67.23708 C 165.32437 67.25999 165.398 67.248836 165.46016 67.212076 A 4.9807934 5.2046782 0 0 0 165.4458 67.352097 A 4.9807934 5.2046782 0 0 0 165.68747 68.854821 C 165.66297 68.828491 165.63175 68.806751 165.59655 68.792311 C 165.56055 68.777722 165.52274 68.771999 165.48408 68.774809 C 165.38678 68.781809 165.30081 68.843179 165.26394 68.934833 C 165.20954 69.06753 165.27194 69.219948 165.40273 69.274883 C 165.53423 69.329823 165.68456 69.266183 165.73772 69.132362 C 165.74802 69.106932 165.75476 69.080861 165.75686 69.054851 A 4.9807934 5.2046782 0 0 0 167.36484 71.452708 L 166.73553 71.452708 C 166.75223 71.337798 166.69233 71.221933 166.58239 71.175166 C 166.54659 71.159706 166.50878 71.153153 166.46992 71.155163 C 166.37172 71.161163 166.28465 71.222743 166.24739 71.315187 C 166.23129 71.359907 166.23002 71.406967 166.23782 71.452708 L 164.70403 71.452708 C 164.67763 71.396188 164.63322 71.350462 164.57481 71.325189 C 164.53881 71.310599 164.50101 71.304876 164.46235 71.307686 C 164.37105 71.314186 164.29182 71.370196 164.25178 71.452708 L 163.75647 71.452708 C 163.81097 71.426078 163.85578 71.381228 163.8809 71.320188 C 163.9353 71.187493 163.87289 71.035075 163.74211 70.980137 C 163.70631 70.964677 163.66851 70.958124 163.62965 70.960134 C 163.53075 70.966534 163.44361 71.029224 163.40712 71.122659 C 163.35672 71.250166 163.41412 71.393778 163.53394 71.452708 L 161.95947 71.452708 C 161.99797 71.349765 161.96749 71.236152 161.88529 71.165165 A 4.9807934 5.2046782 0 0 0 163.52676 67.362098 C 163.58686 67.338378 163.63719 67.292098 163.66554 67.232079 C 163.71964 67.098676 163.65555 66.945962 163.52437 66.892028 C 163.50917 66.887528 163.49221 66.886127 163.47651 66.884527 A 4.9807934 5.2046782 0 0 0 163.09127 65.279288 C 163.11577 65.305578 163.1462 65.327678 163.1798 65.341798 C 163.31129 65.396737 163.46164 65.333097 163.5148 65.199276 C 163.5692 65.066581 163.50679 64.914165 163.37601 64.859226 C 163.34001 64.844636 163.29982 64.838913 163.26116 64.841723 C 163.16296 64.847723 163.07828 64.909303 163.04102 65.001747 C 163.03102 65.025677 163.02418 65.051438 163.02188 65.076758 A 4.9807934 5.2046782 0 0 0 161.54551 63.193978 z M 161.93793 63.303994 C 161.87213 63.319594 161.81589 63.360934 161.78 63.419011 C 161.89325 63.524318 162.00243 63.634908 162.10543 63.74906 C 162.14053 63.72747 162.17017 63.697047 162.19157 63.661547 C 162.24567 63.528141 162.18157 63.375427 162.05039 63.321497 C 162.01519 63.307287 161.97809 63.301564 161.94032 63.303994 L 161.93793 63.303994 z M 164.77581 63.496523 C 164.67761 63.502523 164.59055 63.564113 164.55328 63.656547 C 164.49918 63.789948 164.56328 63.942662 164.69445 63.996597 C 164.82455 64.050137 164.97292 63.987997 165.02706 63.856576 C 165.08146 63.723879 165.02206 63.57146 164.89067 63.516526 C 164.85487 63.501066 164.81466 63.494513 164.77581 63.496523 z M 162.77063 63.649045 C 162.67243 63.655045 162.58537 63.719136 162.5481 63.81157 C 162.494 63.944971 162.5581 64.097685 162.68927 64.15162 C 162.82007 64.20485 162.96872 64.139001 163.02188 64.006599 C 163.07468 63.874614 163.01187 63.723981 162.88309 63.669048 C 162.84729 63.653588 162.80949 63.647035 162.77063 63.649045 z M 165.60851 63.844074 C 165.51031 63.850074 165.42324 63.911664 165.38598 64.004098 C 165.33188 64.1375 165.39598 64.290215 165.52715 64.344149 C 165.65865 64.399089 165.80898 64.335449 165.86215 64.201628 C 165.91625 64.068223 165.85215 63.915508 165.72097 63.861577 C 165.68497 63.846987 165.64717 63.841264 165.60851 63.844074 z M 163.60094 63.996597 C 163.50324 64.002097 163.41882 64.065177 163.3808 64.156621 C 163.3267 64.290027 163.3908 64.442743 163.52197 64.496672 C 163.65347 64.551612 163.8038 64.485481 163.85697 64.35165 C 163.90937 64.218958 163.84637 64.068035 163.71579 64.0141 C 163.67979 63.99951 163.6396 63.993787 163.60094 63.996597 z M 164.43603 64.341649 C 164.33833 64.347149 164.25151 64.410228 164.2135 64.501672 C 164.1591 64.634367 164.2215 64.786785 164.35228 64.841723 C 164.48308 64.896943 164.63313 64.832023 164.68728 64.699202 C 164.73968 64.566509 164.67657 64.415586 164.5461 64.361652 C 164.5111 64.346572 164.474 64.340029 164.43603 64.341649 z M 165.26634 64.6867 C 165.16814 64.6927 165.08346 64.75679 165.0462 64.849224 C 164.9921 64.982626 165.0562 65.135341 165.18737 65.189275 C 165.31888 65.244215 165.4692 65.178085 165.52237 65.044253 C 165.57477 64.91156 165.51167 64.760638 165.38119 64.706703 C 165.34539 64.691243 165.3052 64.68469 165.26634 64.6867 z M 178.4675 64.981744 L 179.05374 64.981744 L 180.54447 69.572428 L 179.62802 69.572428 L 179.49402 68.859822 L 178.02244 68.859822 L 177.84059 69.572428 L 176.97678 69.572428 L 178.4675 64.981744 z M 164.09386 65.186774 C 163.99566 65.192774 163.9086 65.254354 163.87133 65.346798 C 163.81723 65.480203 163.88132 65.632919 164.0125 65.686849 C 164.144 65.741789 164.29434 65.678149 164.3475 65.544328 C 164.3999 65.411635 164.33689 65.260711 164.20632 65.206777 C 164.17052 65.191317 164.13273 65.184764 164.09386 65.186774 z M 164.92656 65.531826 C 164.82766 65.538226 164.74291 65.600916 164.70642 65.69435 C 164.65362 65.826337 164.71642 65.976966 164.8452 66.0319 C 164.976 66.08712 165.12605 66.0247 165.1802 65.891879 C 165.2343 65.758475 165.17019 65.60576 165.03902 65.551829 C 165.00402 65.536749 164.96453 65.530206 164.92656 65.531826 z M 178.75943 66.014398 C 178.71803 66.178058 178.66923 66.337103 178.62782 66.494469 C 178.58642 66.651835 178.54722 66.808468 178.50579 66.959538 C 178.45919 67.116904 178.41599 67.273449 178.3694 67.43711 C 178.328 67.600769 178.282 67.764729 178.2354 67.934684 L 179.29303 67.934684 L 178.75943 66.014398 z M 163.75408 66.0319 C 163.65588 66.0379 163.56882 66.09948 163.53155 66.191924 C 163.47915 66.324616 163.54224 66.475539 163.67272 66.529474 C 163.80282 66.583004 163.95118 66.520874 164.00532 66.389454 C 164.05972 66.25676 163.99732 66.104342 163.86654 66.049403 C 163.83054 66.034813 163.79275 66.02909 163.75408 66.0319 z M 182.75543 66.051903 C 183.41834 66.051903 183.76206 66.574221 183.80348 67.512121 L 183.87527 69.572428 L 183.05693 69.572428 L 183.15503 67.499619 C 183.15503 66.97087 183.03106 66.707001 182.70997 66.707001 C 182.2335 66.707001 182.02084 67.040619 182.02084 67.607135 L 182.0998 69.572428 L 181.3006 69.572428 L 181.37956 66.101911 L 181.9993 66.101911 L 181.9993 66.374451 C 182.0718 66.317801 182.14655 66.266078 182.22423 66.209427 C 182.3796 66.108712 182.55345 66.051903 182.75543 66.051903 z M 185.82781 66.051903 C 186.65126 66.051903 187.06011 66.568434 187.06011 67.619637 L 187.06011 69.572428 L 186.43319 69.572428 L 186.43319 69.307388 C 186.23121 69.533995 185.9718 69.65244 185.61963 69.65244 C 185.31925 69.65244 185.08783 69.55262 184.90657 69.344894 C 184.72531 69.137171 184.63619 68.859681 184.63619 68.519771 C 184.63619 67.720353 185.06143 67.312091 185.92113 67.312091 L 186.43319 67.312091 C 186.41249 66.947002 186.17913 66.707263 185.77517 66.669495 C 185.48515 66.669495 185.17422 66.789234 184.8324 67.009546 L 184.8324 66.309442 C 185.20011 66.139486 185.5326 66.051903 185.82781 66.051903 z M 164.58438 66.376952 C 164.48618 66.382952 164.39911 66.444533 164.36185 66.536976 C 164.30945 66.669668 164.37255 66.820592 164.50303 66.874526 C 164.63382 66.929746 164.78387 66.867326 164.83802 66.734505 C 164.89042 66.601813 164.82743 66.45089 164.69685 66.396955 C 164.66105 66.381495 164.62324 66.374942 164.58438 66.376952 z M 164.2446 67.219577 C 164.14641 67.225577 164.05933 67.289658 164.02207 67.382101 C 163.96767 67.514798 164.03008 67.667217 164.16086 67.722152 C 164.29236 67.777092 164.44268 67.710962 164.49585 67.57713 C 164.54865 67.445144 164.48586 67.294513 164.35707 67.23958 C 164.32127 67.22412 164.28346 67.217567 164.2446 67.219577 z M 164.99595 67.582131 C 164.89775 67.588131 164.81069 67.652212 164.77342 67.744655 C 164.71902 67.877352 164.78141 68.029771 164.9122 68.084706 C 165.04369 68.139646 165.19403 68.076006 165.24719 67.942185 C 165.30129 67.80878 165.23719 67.656064 165.10602 67.602134 C 165.07082 67.587924 165.03372 67.579701 164.99595 67.582131 z M 185.89481 67.927183 C 185.59443 67.927183 185.40378 67.966663 185.31574 68.0422 C 185.23284 68.11144 185.19649 68.217383 185.19132 68.374749 C 185.21202 68.475463 185.25362 68.5446 185.31574 68.569778 C 185.41414 68.601248 185.53684 68.619786 185.68185 68.619786 C 186.0651 68.619786 186.1963 68.545265 186.1963 67.934684 L 186.1963 67.927183 L 185.89481 67.927183 z M 163.90483 68.067203 C 163.80563 68.072203 163.71754 68.133983 163.6799 68.227227 C 163.6275 68.35992 163.69061 68.510844 163.82108 68.564778 C 163.95188 68.619998 164.10191 68.557577 164.15607 68.424757 C 164.21017 68.291352 164.14607 68.138636 164.01489 68.084706 C 163.97969 68.070496 163.94259 68.064773 163.90483 68.067203 z M 164.65378 68.427257 C 164.55558 68.433257 164.46851 68.494837 164.43124 68.587281 C 164.37714 68.720687 164.44124 68.873402 164.57242 68.927332 C 164.70322 68.982552 164.85327 68.920132 164.90742 68.787311 C 164.96151 68.653906 164.89741 68.50119 164.76624 68.44726 C 164.73044 68.4318 164.69265 68.425247 164.65378 68.427257 z M 163.56265 68.909829 C 163.46445 68.915829 163.37738 68.977409 163.34012 69.069853 C 163.28772 69.202546 163.35073 69.353468 163.4813 69.407403 C 163.6121 69.462623 163.76213 69.400203 163.81629 69.267382 C 163.86869 69.134689 163.80559 68.983767 163.67511 68.929832 C 163.63931 68.914372 163.60151 68.907819 163.56265 68.909829 z M 164.3116 69.272383 C 164.2139 69.277883 164.12947 69.340963 164.09146 69.432407 C 164.03736 69.565813 164.10146 69.716026 164.23264 69.769957 C 164.36274 69.823477 164.5111 69.761357 164.56524 69.629936 C 164.61764 69.497243 164.55465 69.346321 164.42407 69.292386 C 164.38907 69.277306 164.34956 69.270763 164.3116 69.272383 z M 165.1443 69.619935 C 165.0475 69.626335 164.96177 69.689305 164.92416 69.779959 C 164.86976 69.912655 164.93216 70.062575 165.06295 70.117509 C 165.19375 70.170739 165.34238 70.107389 165.39555 69.974988 C 165.44795 69.842295 165.38485 69.691371 165.25437 69.637437 C 165.21917 69.623227 165.18207 69.617505 165.1443 69.619935 z M 163.22048 69.752455 C 163.12228 69.758454 163.0376 69.822534 163.00034 69.914979 C 162.94594 70.047673 163.00834 70.20009 163.13912 70.255029 C 163.26992 70.310249 163.41997 70.245329 163.47412 70.112508 C 163.52852 69.979811 163.46612 69.827391 163.33533 69.772457 C 163.29953 69.756997 163.25933 69.750445 163.22048 69.752455 z M 165.977 69.964986 C 165.8793 69.970486 165.79487 70.033566 165.75686 70.12501 C 165.70246 70.257707 165.76486 70.410127 165.89565 70.465061 C 166.02715 70.520001 166.17748 70.453871 166.23064 70.320039 C 166.28304 70.187346 166.22005 70.036424 166.08947 69.982489 C 166.05427 69.968279 166.01476 69.962556 165.977 69.964986 z M 163.96943 70.115009 C 163.87123 70.121008 163.78655 70.185098 163.74929 70.277533 C 163.69519 70.410935 163.7563 70.563648 163.88808 70.617583 C 164.01959 70.672523 164.1723 70.608883 164.22546 70.475062 C 164.27786 70.342369 164.21477 70.191447 164.08429 70.137512 C 164.04849 70.122052 164.00828 70.112999 163.96943 70.115009 z M 164.80452 70.465061 C 164.70632 70.471061 164.61925 70.532642 164.58199 70.625084 C 164.52929 70.75707 164.592 70.907702 164.72078 70.962635 C 164.85158 71.017855 165.00161 70.955435 165.05577 70.822614 C 165.10987 70.689209 165.04577 70.536493 164.91459 70.482563 C 164.87939 70.468353 164.84229 70.462631 164.80452 70.465061 z M 162.87831 70.600081 C 162.78011 70.606081 162.69544 70.667671 162.65817 70.760105 C 162.60407 70.893505 162.66816 71.04622 162.79934 71.100155 C 162.93084 71.155095 163.08118 71.091455 163.13434 70.957634 C 163.18844 70.824228 163.12434 70.671513 162.99316 70.617583 C 162.95716 70.602993 162.91697 70.597271 162.87831 70.600081 z M 165.63483 70.810112 C 165.53663 70.816112 165.45195 70.877692 165.41469 70.970136 C 165.36059 71.103539 165.4217 71.256253 165.55348 71.310187 C 165.68499 71.365126 165.8377 71.301486 165.89086 71.167665 C 165.94496 71.034259 165.88087 70.881546 165.74969 70.827615 C 165.71369 70.813025 165.67348 70.807302 165.63483 70.810112 z "
       transform="matrix(0.2159649,0,0,0.20667494,-23.398827,1.6086637)" />
  </g>
</svg>
